<?xml version="1.0" standalone="no"?>
<!DOCTYPE svg PUBLIC "-//W3C//DTD SVG 1.1//EN" "http://www.w3.org/Graphics/SVG/1.1/DTD/svg11.dtd" >
<svg xmlns="http://www.w3.org/2000/svg">
<metadata>
Copyright   : Copyright 1994-2012 Luc(as) de Groot. Published by LucasFonts www.lucasfonts.com. All rights reserved.
Designer    : Luc(as) de Groot
Foundry     : LucasFonts
Foundry URL : http://LucasFonts.com
</metadata>
<defs>
<font id="TheSansRio2016TT-Regular" horiz-adv-x="550" >
<font-face units-per-em="1000" ascent="740" descent="-260" />
<missing-glyph horiz-adv-x="218" />
<glyph unicode="&#x2e;&#x2e;&#x2e;" horiz-adv-x="665" d="M173 51q0 -25 -17.5 -42.5t-42.5 -17.5q-26 0 -43.5 17.5t-17.5 42.5q0 26 17.5 43.5t43.5 17.5q25 0 42.5 -17.5t17.5 -43.5zM388 51q0 -25 -17.5 -42.5t-43.5 -17.5q-25 0 -42.5 17.5t-17.5 42.5q0 26 17.5 43.5t42.5 17.5q26 0 43.5 -17.5t17.5 -43.5zM603 51 q0 -25 -17.5 -42.5t-43.5 -17.5q-25 0 -42.5 17.5t-17.5 42.5q0 26 17.5 43.5t42.5 17.5q26 0 43.5 -17.5t17.5 -43.5z" />
<glyph unicode="ff" horiz-adv-x="652" d="M433 633q-27 10 -57 15.5t-58 5.5q-60 0 -89.5 -31t-29.5 -92v-34h213v31q0 65 21 105zM677 652q-9 3 -30.5 7t-44.5 4q-52 0 -76 -31t-24 -98v-37h138v-70h-138v-427h-90v427h-213v-427h-90v427h-102v70h102v25q0 43 11.5 80t37 65.5t67 44.5t100.5 16q36 0 77 -7.5 t80 -19.5q49 35 123 35q39 0 79 -8z" />
<glyph unicode="ffi" horiz-adv-x="891" d="M437 631q-28 11 -59 17t-60 6q-60 0 -89.5 -31t-29.5 -92v-34h213v21q0 31 6 60t19 53zM718 0v427h-216v-427h-90v427h-213v-427h-90v427h-102v70h102v25q0 43 11.5 80t37 65.5t67 44.5t100.5 16q38 0 83.5 -8.5t83.5 -22.5q28 20 64.5 30t84.5 10q38 0 76 -5t70 -14 l-18 -75q-32 9 -67 14.5t-68 5.5q-67 0 -99.5 -34.5t-32.5 -99.5v-32h306v-497h-90z" />
<glyph unicode="ffl" horiz-adv-x="891" d="M433 633q-27 10 -57 15.5t-58 5.5q-60 0 -89.5 -31t-29.5 -92v-34h213v35q0 59 21 101zM718 0v656q-46 8 -93 8q-64 0 -93.5 -30t-29.5 -98v-39h134v-70h-134v-427h-90v427h-213v-427h-90v427h-102v70h102v25q0 43 11.5 80t37 65t67 44t100.5 16q38 0 80.5 -7.5 t81.5 -20.5q26 18 63 27.5t86 9.5q51 0 100 -5t72 -8v-723h-90z" />
<glyph unicode="fi" horiz-adv-x="590" d="M415 0v427h-216v-427h-90v427h-102v70h102v21q0 105 57 162t172 57q38 0 76 -5t70 -14l-17 -75q-32 9 -67 14.5t-69 5.5q-66 0 -99 -35t-33 -99v-32h306v-497h-90z" />
<glyph unicode="fi" horiz-adv-x="590" d="M7 497h102v38q0 100 48.5 150.5t135.5 50.5q14 0 27.5 -1t21.5 -2t11 -1l-6 -75q-7 2 -22.5 4t-33.5 2q-24 0 -41 -7.5t-28.5 -22.5t-17 -38t-5.5 -54v-44h306v-497h-90v427h-216v-427h-90v427h-102v70zM520 653q0 -24 -17 -40.5t-41 -16.5t-41 16.5t-17 40.5t17 40.5 t41 16.5t41 -16.5t17 -40.5z" />
<glyph unicode="fl" horiz-adv-x="590" d="M415 0v656q-46 8 -93 8q-63 0 -93 -30.5t-30 -97.5v-39h135v-70h-135v-427h-90v427h-102v70h102v35q0 102 54.5 153t170.5 51q50 0 99 -5t72 -8v-723h-90z" />
<glyph unicode="ffb" horiz-adv-x="1191" d="M502 427v-427h-90v427h-213v-427h-90v427h-102v70h102v25q0 43 11.5 80t37 65t67 44t100.5 16q38 0 80.5 -7.5t81.5 -20.5q26 18 63 27.5t86 9.5q51 0 100 -5t72 -8v-234q0 -23 -2.5 -49t-6.5 -44l2 -1q20 52 63.5 81.5t100.5 29.5q88 0 135.5 -60t47.5 -174 q0 -65 -18 -116.5t-51.5 -88t-81.5 -55.5t-108 -19q-57 0 -104 7.5t-67 12.5v643q-46 8 -93 8q-64 0 -93.5 -30t-29.5 -98v-39h134v-70h-134zM433 633q-27 10 -57 15.5t-58 5.5q-60 0 -89.5 -31t-29.5 -92v-34h213v35q0 59 21 101zM1054 264q0 82 -27.5 125t-82.5 43 q-32 0 -58 -17t-43 -45t-26 -62t-9 -67v-164q10 -3 33.5 -8t54.5 -5q36 0 65 11.5t50 35.5t32 62.5t11 90.5z" />
<glyph unicode="fb" horiz-adv-x="889" d="M846 272q0 -65 -18 -116.5t-52 -88t-82 -55.5t-108 -19q-32 0 -62.5 3t-54 6.5t-36.5 6.5t-18 4v643q-3 1 -10.5 2t-20.5 2.5t-29.5 2.5t-32.5 1q-63 0 -93 -30.5t-30 -97.5v-39h135v-70h-135v-427h-90v427h-102v70h102v35q0 102 54.5 153t170.5 51q28 0 57.5 -2t54 -4.5 t39 -4t20.5 -2.5v-234q0 -22 -2 -48.5t-6 -44.5l2 -1q20 52 63.5 81.5t100.5 29.5q88 0 135.5 -60t47.5 -174zM751 264q0 82 -27 125t-83 43q-32 0 -58 -17t-43 -45t-26 -62t-9 -67v-164q3 -1 9.5 -2.5t18.5 -4t28 -4.5t33 -2q36 0 65 11.5t49.5 35.5t31.5 62t11 91z" />
<glyph unicode="ffh" horiz-adv-x="1208" d="M502 427v-427h-90v427h-213v-427h-90v427h-102v70h102v25q0 43 11.5 80t37 65t67 44t100.5 16q38 0 80.5 -7.5t81.5 -20.5q26 18 63 27.5t86 9.5q51 0 100 -5t72 -8v-229q0 -28 -2 -54t-7 -45l2 -1q22 52 67 82t106 30q41 0 70.5 -12t47 -33.5t25 -50t7.5 -63.5v-347h-90 v320q0 56 -19 84t-66 28q-30 0 -56 -14.5t-45 -41t-29.5 -62t-10.5 -76.5v-238h-90v656q-46 8 -93 8q-64 0 -93.5 -30t-29.5 -98v-39h134v-70h-134zM433 633q-27 10 -57 15.5t-58 5.5q-60 0 -89.5 -31t-29.5 -92v-34h213v35q0 59 21 101z" />
<glyph unicode="fh" horiz-adv-x="905" d="M731 0v320q0 56 -19 84t-65 28q-30 0 -56 -14.5t-45.5 -41t-30 -62t-10.5 -76.5v-238h-90v656q-3 1 -10.5 2t-20.5 2.5t-29.5 2.5t-32.5 1q-63 0 -93 -30.5t-30 -97.5v-39h135v-70h-135v-427h-90v427h-102v70h102v35q0 102 54.5 153t170.5 51q28 0 57.5 -2t54 -4.5t39 -4 t20.5 -2.5v-229q0 -27 -2 -53.5t-6 -45.5l2 -1q22 52 67 82t106 30q41 0 70 -12t46.5 -33.5t25 -50t7.5 -63.5v-347h-90z" />
<glyph unicode="ffj" horiz-adv-x="893" d="M808 -55q0 -51 -9 -88t-28.5 -61.5t-53 -37t-81.5 -12.5q-17 0 -35.5 2.5t-32.5 6.5l7 79q15 -5 31.5 -8.5t31.5 -3.5q24 0 39.5 5.5t24 18.5t12.5 35t4 56v490h-216v-427h-90v427h-213v-427h-90v427h-102v70h102v25q0 43 11.5 80t37 65.5t67 44.5t100.5 16 q38 0 83.5 -8.5t83.5 -22.5q28 20 64.5 30t84.5 10q38 0 76 -5t70 -14l-18 -75q-32 9 -67 14.5t-68 5.5q-67 0 -99.5 -34.5t-32.5 -99.5v-32h306v-552zM437 631q-28 11 -59 17t-60 6q-60 0 -89.5 -31t-29.5 -92v-34h213v21q0 31 6 60t19 53z" />
<glyph unicode="fj" horiz-adv-x="589" d="M505 -55q0 -51 -8.5 -88t-28.5 -61.5t-53 -37t-82 -12.5q-17 0 -35.5 2.5t-32.5 6.5l8 79q14 -5 30.5 -8.5t32.5 -3.5q24 0 39 5.5t24 18.5t12.5 35t3.5 56v490h-216v-427h-90v427h-102v70h102v21q0 105 57 162t172 57q38 0 76 -5t70 -14l-17 -75q-32 9 -67 14.5t-69 5.5 q-66 0 -99 -35t-33 -99v-32h306v-552z" />
<glyph unicode="ffk" horiz-adv-x="1127" d="M433 633q-27 10 -57 15.5t-58 5.5q-60 0 -89.5 -31t-29.5 -92v-34h213v35q0 59 21 101zM502 427v-427h-90v427h-213v-427h-90v427h-102v70h102v25q0 43 11.5 80t37 65t67 44t100.5 16q38 0 80.5 -7.5t81.5 -20.5q26 18 63 27.5t86 9.5q51 0 100 -5t72 -8v-444l175 218 h109l-191 -227l206 -270h-115l-184 256v-256h-90v656q-46 8 -93 8q-64 0 -93.5 -30t-29.5 -98v-39h134v-70h-134z" />
<glyph unicode="fk" horiz-adv-x="824" d="M689 0l-184 256v-256h-90v656q-3 1 -10.5 2t-20.5 2.5t-29.5 2.5t-32.5 1q-63 0 -93 -30.5t-30 -97.5v-39h135v-70h-135v-427h-90v427h-102v70h102v35q0 102 54.5 153t170.5 51q28 0 57.5 -2t54 -4.5t39 -4t20.5 -2.5v-444l175 218h110l-191 -227l206 -270h-116z" />
<glyph horiz-adv-x="0" />
<glyph horiz-adv-x="0" />
<glyph unicode="&#xd;" horiz-adv-x="500" />
<glyph unicode=" "  horiz-adv-x="218" />
<glyph unicode="&#x09;" horiz-adv-x="218" />
<glyph unicode="&#xa0;" horiz-adv-x="218" />
<glyph unicode="!" horiz-adv-x="320" d="M229 50q0 -25 -17.5 -42t-42.5 -17q-26 0 -43.5 17t-17.5 42t17.5 42t43.5 17q25 0 42.5 -17t17.5 -42zM207 168h-75l-16 535h106z" />
<glyph unicode="&#x22;" horiz-adv-x="366" d="M132 469h-66l-14 230h95zM300 469h-67l-14 230h95z" />
<glyph unicode="#" horiz-adv-x="577" d="M448 429l-19 -177h91v-62h-98l-20 -190h-72l19 190h-153l-20 -190h-72l20 190h-92v62h98l20 177h-93v62h98l20 184h73l-20 -184h153l20 184h73l-20 -184h90v-62h-96zM222 429l-19 -177h153l19 177h-153z" />
<glyph unicode="$" horiz-adv-x="489" d="M435 208q0 -34 -11.5 -64t-33 -54t-53 -41t-70.5 -24v-130h-67v126q-36 1 -66 4.5t-58 10.5l6 84q13 -5 29.5 -9.5t34 -7.5t34.5 -4.5t32 -1.5q28 0 51.5 6t41 18t27 30.5t9.5 44.5q0 31 -19 51.5t-39.5 30.5t-73.5 32t-82.5 41.5t-49 51.5t-19.5 79q0 32 11.5 60.5 t32.5 50.5t50.5 36.5t65.5 20.5v105h67v-101q29 -1 56 -4t50 -8l-6 -80q-28 8 -57.5 13t-55.5 5q-33 0 -57 -7t-38.5 -19.5t-21 -28t-6.5 -32.5q0 -30 19 -50.5t39 -30t74.5 -32.5t84.5 -42.5t49.5 -51.5t19.5 -78z" />
<glyph unicode="%" horiz-adv-x="750" d="M261 528q0 50 -17.5 73.5t-54.5 23.5q-32 0 -51.5 -25.5t-19.5 -68.5q0 -99 74 -99q30 0 49.5 26.5t19.5 69.5zM632 146q0 50 -17.5 73.5t-54.5 23.5q-32 0 -51.5 -25.5t-19.5 -68.5q0 -98 74 -98q30 0 49.5 26t19.5 69zM335 534q0 -35 -10.5 -65t-30.5 -51.5t-48 -33.5 t-61 -12q-71 0 -106 39.5t-35 113.5q0 34 10.5 63.5t30.5 51t47.5 33.5t61.5 12q70 0 105.5 -38.5t35.5 -112.5zM154 -21l-58 42l497 673l58 -41zM706 153q0 -35 -10.5 -65t-30.5 -52t-48 -34t-61 -12q-71 0 -106 40t-35 113q0 34 10.5 63.5t30.5 51t47.5 33.5t61.5 12 q70 0 105.5 -38.5t35.5 -111.5z" />
<glyph unicode="&#x26;" horiz-adv-x="795" d="M476 137q-31 25 -64 52.5t-64 54.5t-58 52.5t-48 48.5q-50 -42 -72 -76.5t-22 -73.5q0 -26 9.5 -49.5t28 -41.5t46.5 -27.5t61 -9.5q60 0 105.5 20.5t77.5 49.5zM350 592q0 31 -19.5 53t-58.5 22q-35 0 -58 -22.5t-23 -55.5q0 -25 13.5 -58t54.5 -80q43 33 67 68t24 73z M682 -20q-36 27 -74 56t-67 52q-49 -43 -116 -70.5t-147 -27.5q-54 0 -97.5 15t-71 41.5t-40.5 61.5t-13 76q0 64 36.5 116t98.5 98q-26 32 -43 57t-27 47.5t-14.5 42t-4.5 39.5q0 31 11.5 58t34 48t56 33.5t76.5 12.5q76 0 118 -38t42 -98q0 -54 -31 -100.5t-99 -99.5 q22 -23 49 -47.5t56.5 -50t61 -51.5t61.5 -49v0q33 46 51 108.5t15 137.5h90q2 -85 -21.5 -161t-69.5 -135q38 -29 73 -55t62 -46z" />
<glyph unicode="'" horiz-adv-x="199" d="M132 469h-66l-14 230h95z" />
<glyph unicode="(" horiz-adv-x="303" d="M216 -209q-43 68 -71.5 133t-45 126t-23 118t-6.5 116q0 58 7.5 117t24.5 121.5t45.5 128t69.5 130.5l65 -31q-61 -104 -92.5 -221.5t-31.5 -239.5q0 -255 125 -465z" />
<glyph unicode=")" horiz-adv-x="303" d="M238 289q0 -58 -7.5 -117t-24 -122t-45.5 -128.5t-70 -130.5l-65 32q61 104 92.5 221t31.5 239q0 128 -31 244t-94 222l68 32q42 -68 71 -132.5t45 -125.5t22.5 -118t6.5 -116z" />
<glyph unicode="*" horiz-adv-x="374" d="M296 477l-90 66l11 -112h-67l11 112l-90 -66l-33 58l103 45l-103 46l34 58l90 -66l-11 112h67l-12 -112l91 66l33 -58l-103 -45l103 -46z" />
<glyph unicode="+" d="M317 260v-201h-85v201h-190v75h190v200h85v-200h191v-75h-191z" />
<glyph unicode="," horiz-adv-x="228" d="M112 113q28 0 45 -21t17 -55q0 -25 -9.5 -52t-25 -51.5t-35.5 -47t-40 -40.5l-38 34q22 23 39 51t17 54q0 15 -4 23.5t-9.5 16t-8.5 15.5t-3 18q0 22 15.5 38.5t39.5 16.5z" />
<glyph unicode="-" horiz-adv-x="330" d="M47 250v74h236v-74h-236z" />
<glyph unicode="." horiz-adv-x="228" d="M176 53q0 -25 -18 -43.5t-44 -18.5t-44 18.5t-18 43.5q1 28 19.5 45t42.5 17q26 0 44 -18.5t18 -43.5z" />
<glyph unicode="/" horiz-adv-x="438" d="M89 -161h-86l350 918h86z" />
<glyph unicode="0" horiz-adv-x="598" d="M447 336q0 139 -37 205.5t-111 66.5q-33 0 -59.5 -15t-46.5 -47t-31 -84t-11 -123q0 -139 37 -205t111 -66q33 0 60 15t46.5 46.5t30.5 83t11 123.5zM544 345q0 -85 -18 -151.5t-51.5 -111.5t-80 -68t-102.5 -23t-99.5 18.5t-74.5 59t-47.5 105.5t-16.5 156 q0 85 18 151.5t51.5 111.5t80 68t102.5 23t99.5 -18.5t74.5 -59t47.5 -105.5t16.5 -156z" />
<glyph unicode="1" horiz-adv-x="366" d="M182 0v584l-148 -56l-15 79l182 69h74v-676h-93z" />
<glyph unicode="2" horiz-adv-x="502" d="M58 0v77l126 147q41 47 69 85t45 69.5t24.5 59t7.5 53.5q0 50 -30.5 81.5t-86.5 31.5q-32 0 -67 -11t-64 -28l-14 80q37 19 78 29t89 10q46 0 82 -13.5t61 -37.5t37.5 -57t12.5 -72q0 -32 -9 -66.5t-28.5 -72.5t-51 -81.5t-76.5 -94.5l-93 -106v-1q43 2 117 3t167 1v-86 h-396z" />
<glyph unicode="3" horiz-adv-x="484" d="M432 201q0 -46 -18.5 -86t-54.5 -68t-83 -41.5t-102 -13.5q-68 1 -120 10l12 81q60 -15 114 -15q34 0 63 8t51 26t31.5 41.5t9.5 50.5q0 32 -15 57.5t-44.5 41t-72 21t-106.5 -0.5v72q102 -3 157.5 27.5t55.5 95.5q0 47 -30 73.5t-84 26.5q-32 0 -62.5 -8t-57.5 -20 l-10 74q34 14 71.5 22t75.5 8q48 0 85 -12.5t60 -33.5t35 -51t12 -63q0 -55 -31.5 -97.5t-85.5 -60.5v-1q65 -15 104.5 -58t39.5 -106z" />
<glyph unicode="4" horiz-adv-x="546" d="M325 590h-1l-217 -350q27 1 69 1.5t78.5 0.5h70.5v348zM413 162v-162h-89v162h-299l-6 71l274 442h120v-432h113v-81h-113z" />
<glyph unicode="5" horiz-adv-x="466" d="M431 215q0 -50 -18 -91t-51 -70.5t-79 -45.5t-102 -16q-30 0 -62.5 3.5t-60.5 9.5l11 82q28 -8 58 -13t60 -5q70 0 109 35t39 99t-44.5 97.5t-134.5 33.5q-23 0 -44 -1t-31 -2v344h310v-86h-224v-181q132 4 198 -48.5t66 -144.5z" />
<glyph unicode="6" horiz-adv-x="567" d="M424 211q0 58 -35 97t-96 39q-30 0 -56 -10t-44.5 -30t-26.5 -46t-8 -52t8 -52t24.5 -47t43.5 -32t58 -11q61 0 96.5 39t35.5 105zM519 220q0 -50 -17 -92.5t-48.5 -73.5t-73.5 -47.5t-94 -16.5q-63 0 -117.5 29.5t-83 96.5t-28.5 182q0 91 20.5 164t63 123t103 74 t137.5 24q27 0 46 -1t42 -3l-7 -81q-19 3 -44 5t-44 2q-98 0 -151.5 -51.5t-70.5 -165.5q-3 -21 -4.5 -30.5t-3.5 -19.5h1q25 41 69.5 62.5t96.5 21.5q47 0 86.5 -14.5t66 -41t41 -64t14.5 -82.5z" />
<glyph unicode="7" horiz-adv-x="462" d="M435 597q-30 -64 -59.5 -139t-57 -154t-50.5 -157t-39 -147h-103q19 77 45.5 160t55 162.5t56.5 148t51 118.5q-21 -1 -73 -1.5t-108 -0.5h-127v88h409v-78z" />
<glyph unicode="8" horiz-adv-x="556" d="M404 164q0 24 -9 44t-25.5 36.5t-39.5 31t-57 31.5q-31 -17 -53 -32.5t-37 -32t-23 -35.5t-8 -42q0 -46 32.5 -73t94.5 -27q27 0 50 6.5t40 19t26 31t9 42.5zM394 521q0 39 -29.5 65.5t-85.5 26.5q-53 0 -84.5 -24.5t-31.5 -65.5t28 -70t93 -61q60 32 85 62t25 67z M498 171q0 -42 -16.5 -76t-47 -57.5t-72.5 -35.5t-93 -12q-52 0 -92 12.5t-66.5 35t-39.5 53t-13 67.5q0 31 9.5 57t27 48t43 41.5t59.5 39.5q-66 36 -96.5 76.5t-30.5 96.5q0 37 14.5 68.5t42.5 54t69 35t92 12.5q47 0 84.5 -11.5t62.5 -33t38 -50.5t13 -63q0 -29 -9 -54 t-25 -45.5t-39 -38.5t-54 -36q35 -19 61 -38t43 -41t26 -48t9 -57z" />
<glyph unicode="9" horiz-adv-x="567" d="M409 466q0 59 -36 100.5t-100 41.5q-28 0 -52 -9.5t-42 -29t-27 -44.5t-9 -57q0 -64 36 -102t96 -38q30 0 55 9.5t43 28.5t27 45.5t9 54.5zM511 377q0 -99 -21 -171t-59 -118.5t-95 -71t-133 -24.5q-48 0 -112 9l7 82q24 -6 54 -9t62 -3q86 0 136 50t64 166q2 14 5 29 t4 21h-1q-22 -38 -66.5 -61t-99.5 -23q-94 0 -150.5 55t-56.5 147q0 49 17 92t46.5 73t72.5 47.5t94 17.5q67 0 114.5 -26.5t73.5 -70t35 -97.5t9 -114z" />
<glyph unicode=":" horiz-adv-x="286" d="M220 53q0 -26 -18 -44t-44 -18t-44 18t-18 44t18 44t44 18t44 -18t18 -44zM220 346q0 -26 -18 -44t-44 -18t-44 18t-18 44t18 44t44 18t44 -18t18 -44z" />
<glyph unicode=";" horiz-adv-x="286" d="M157 113q28 0 45 -21t17 -55q-1 -50 -32.5 -100t-77.5 -91l-38 34q22 23 39 51t17 54q0 15 -4 23.5t-9.5 16t-8.5 15.5t-3 18q0 22 15.5 38.5t39.5 16.5zM220 346q0 -26 -18 -44t-44 -18t-44 18t-18 44t18 44t44 18t44 -18t18 -44z" />
<glyph unicode="&#x3c;" d="M388 19l-316 283l316 284l58 -58l-259 -225l259 -222z" />
<glyph unicode="=" d="M56 175v74h438v-74h-438zM56 346v74h438v-74h-438z" />
<glyph unicode="&#x3e;" d="M162 19l-58 58l259 225l-259 222l58 62l316 -283z" />
<glyph unicode="?" horiz-adv-x="445" d="M252 50q0 -25 -17.5 -42t-43.5 -17q-25 0 -42.5 17t-17.5 42t17.5 42t42.5 17q26 0 43.5 -17t17.5 -42zM385 516q0 -38 -13.5 -67t-28.5 -45.5t-47.5 -48.5t-48.5 -55.5t-20.5 -56t8.5 -75.5h-88q-15 47 -12 83t18 63t40 52.5t46 47t34 44t13 49.5q0 50 -55 83.5 t-147 37.5l11 82q68 -2 122.5 -18.5t91.5 -43t56.5 -61t19.5 -71.5z" />
<glyph unicode="@" horiz-adv-x="1024" d="M596 426q-26 7 -62 7q-35 0 -62 -18.5t-45 -49t-26.5 -66t-8.5 -68.5q0 -93 54 -93q20 0 40.5 15t39.5 44.5t34.5 73t25.5 98.5zM940 366q0 -69 -18 -125.5t-51 -96.5t-76.5 -60.5t-93.5 -20.5q-32 0 -56 10t-38.5 27t-20.5 39t-4 46h-2q-10 -23 -24.5 -44.5t-34.5 -39 t-45 -28t-53 -10.5q-55 0 -87 40t-32 113q0 59 16 111t47.5 92.5t78.5 63t107 22.5q48 0 87 -6t56 -10l-42 -222q-13 -63 3 -96t57 -33q30 0 56.5 15t46 44t30.5 70.5t11 92.5q0 55 -17.5 106t-55 91.5t-97 64t-139.5 23.5q-79 0 -149.5 -30t-123.5 -85t-82.5 -130 t-29.5 -162q0 -76 21.5 -137t64 -104t106 -66t146.5 -23q45 0 92 7t94 20l11 -69q-47 -14 -102.5 -22t-104.5 -8q-97 0 -173.5 27.5t-129 79t-80 124t-27.5 161.5q0 105 36.5 195t102 156t151.5 101.5t181 35.5q94 0 167.5 -27.5t122 -76.5t73 -112t24.5 -134z" />
<glyph unicode="A" horiz-adv-x="615" d="M333 493q-7 21 -14.5 46t-14.5 49h-1q-5 -20 -11.5 -41t-16.5 -53l-92 -260h242zM502 0l-55 161h-287l-56 -161h-94l242 675h112l241 -675h-103z" />
<glyph unicode="B" horiz-adv-x="571" d="M424 194q0 29 -10 51t-31.5 37t-56 23t-81.5 8h-24.5t-24 -0.5t-19.5 -0.5v-236q30 -5 87 -5q80 0 120 34t40 89zM402 498q0 24 -7 43t-23.5 34t-44 23t-67.5 8q-15 0 -36.5 -1t-46.5 -2v-220q9 0 18.5 -0.5t20 -0.5h30.5q77 0 116.5 30t39.5 86zM521 200 q0 -36 -14 -71.5t-45 -65.5t-82.5 -48t-122.5 -18q-27 0 -89 1.5t-83 1.5v675q24 1 76 2.5t108 1.5q115 0 172 -44t57 -123q0 -53 -29.5 -94.5t-82.5 -60.5v-1q31 -6 56 -19t42.5 -33t27 -46.5t9.5 -57.5z" />
<glyph unicode="C" horiz-adv-x="583" d="M538 28q-40 -17 -88 -26.5t-97 -9.5q-79 0 -137.5 24.5t-96 68.5t-55.5 104t-18 132q0 79 20 144.5t60.5 114t103.5 75t146 26.5q39 0 80 -5.5t75 -15.5l-15 -84q-36 12 -74 19t-75 7q-57 0 -99 -20t-69.5 -56.5t-40.5 -84.5t-13 -105q0 -127 56.5 -194.5t170.5 -67.5 q37 0 78 9t73 24z" />
<glyph unicode="D" horiz-adv-x="678" d="M535 339q0 130 -63.5 197t-193.5 67q-22 0 -55 -1t-46 -2v-520q18 -3 42.5 -4.5t46.5 -1.5q60 0 109.5 16t85 48.5t55 83t19.5 117.5zM632 345q0 -85 -27 -150.5t-77.5 -110t-119.5 -66.5t-152 -22q-36 0 -92 2t-79 2v674q55 1 106 2.5t96 1.5q82 0 146 -19.5 t108.5 -60.5t67.5 -104t23 -149z" />
<glyph unicode="E" horiz-adv-x="513" d="M85 0v675h360v-76h-268v-214h246v-74h-246v-234h268v-77h-360z" />
<glyph unicode="F" horiz-adv-x="471" d="M177 599v-220h241v-74h-241v-305h-92v675h351v-76h-259z" />
<glyph unicode="G" horiz-adv-x="682" d="M601 30q-50 -19 -108.5 -29t-114.5 -10q-79 0 -141 22.5t-105.5 65.5t-66 104t-22.5 138q0 80 23.5 146.5t69.5 115t114 75t156 26.5q48 0 95 -7.5t92 -21.5l-20 -83q-42 16 -86.5 24.5t-89.5 8.5q-66 0 -115 -21.5t-80 -59t-46 -86t-15 -103.5q0 -63 17 -112t49 -83 t78.5 -51.5t105.5 -17.5q32 0 61 4.5t58 13.5v255h91v-314z" />
<glyph unicode="H" horiz-adv-x="698" d="M521 0v311h-344v-311h-92v675h92v-286h344v286h92v-675h-92z" />
<glyph unicode="I" horiz-adv-x="262" d="M85 0v675h92v-675h-92z" />
<glyph unicode="J" horiz-adv-x="346" d="M261 178q0 -88 -44 -136.5t-134 -48.5q-48 0 -82 8v80q14 -4 36.5 -7.5t40.5 -3.5q22 0 38.5 5.5t28 18t18 34t6.5 54.5v493h92v-497z" />
<glyph unicode="K" horiz-adv-x="584" d="M444 0l-267 334v-334h-92v675h92v-318l268 318h112l-285 -325l297 -350h-125z" />
<glyph unicode="L" horiz-adv-x="426" d="M85 0v675h92v-597h242v-78h-334z" />
<glyph unicode="M" horiz-adv-x="894" d="M752 0l-53 394q-8 63 -13 112t-6 84h-2q-7 -29 -17 -64.5t-24 -79.5l-156 -446h-84l-148 423q-15 44 -28.5 89t-21.5 78h-1q-1 -41 -5.5 -91t-10.5 -109l-44 -390h-91l87 675h126l150 -426q11 -33 19.5 -63t13.5 -58h1q7 32 15 63t17 58l150 426h130l91 -675h-95z" />
<glyph unicode="N" horiz-adv-x="693" d="M513 0l-274 432q-23 40 -40 69t-33 64q2 -31 3.5 -77t3 -99.5t2 -104.5t0.5 -94v-190h-90v675h90h23l268 -425q16 -27 32.5 -57t29.5 -58q-2 29 -4 74.5t-3.5 96t-2 102t-0.5 95.5v172h90v-675h-90h-5z" />
<glyph unicode="O" horiz-adv-x="709" d="M570 333q0 125 -55 198t-160 73q-46 0 -85 -17t-68.5 -50.5t-45.5 -83t-16 -111.5q0 -61 13.5 -111t40.5 -86t67.5 -55t93.5 -19q46 0 85 17t68.5 50.5t45.5 83t16 111.5zM667 347q0 -84 -25 -151t-69.5 -113t-102.5 -69.5t-124 -23.5q-73 0 -129.5 23.5t-95 67.5 t-58.5 106.5t-20 140.5q0 84 25 151t69.5 113t102.5 69.5t124 23.5q73 0 129.5 -23.5t95 -67.5t58.5 -106.5t20 -140.5z" />
<glyph unicode="P" d="M518 469q0 -51 -18.5 -94.5t-54 -76t-85.5 -50t-112 -17.5q-22 0 -42 1t-29 2v-234h-92v675q24 1 75 2.5t102 1.5q126 0 191 -59t65 -151zM423 456q0 68 -43 108t-129 40q-22 0 -43 -0.5t-31 -1.5v-290q10 -1 32 -3.5t46 -2.5q81 0 124.5 41.5t43.5 108.5z" />
<glyph unicode="Q" horiz-adv-x="709" d="M570 333q0 125 -55 198t-160 73q-46 0 -85 -17t-68.5 -50.5t-45.5 -83t-16 -111.5q0 -61 13.5 -111t40.5 -86t67.5 -55t93.5 -19q46 0 85 17t68.5 50.5t45.5 83t16 111.5zM707 -67q-40 -5 -71.5 -3t-55.5 8t-45 13.5t-49.5 18t-55 15.5t-59.5 5h-25q-73 0 -129.5 23.5 t-95 67.5t-58.5 106.5t-20 140.5q0 84 25 151t69.5 113t102.5 69.5t124 23.5q73 0 129.5 -23.5t95 -67.5t58.5 -106.5t20 -140.5q0 -44 -7 -84t-21 -75t-34 -63.5t-45.5 -50t-55.5 -33.5q20 0 44 -7t46 -13.5t49.5 -9.5t63.5 1v-79z" />
<glyph unicode="R" horiz-adv-x="567" d="M402 484q0 58 -38.5 89t-110.5 31q-23 0 -44.5 -0.5t-31.5 -1.5v-240q10 0 30.5 -0.5t41.5 -0.5q73 0 113 32.5t40 90.5zM430 0l-204 292h-49v-292h-92v674q22 1 72 3t104 2t97.5 -11t74.5 -33.5t48 -57.5t17 -82q0 -43 -13.5 -76.5t-38 -57t-56.5 -38t-69 -19.5 q7 -9 23 -29t32 -43l168 -232h-114z" />
<glyph unicode="S" horiz-adv-x="503" d="M455 191q0 -44 -16 -80.5t-48 -63.5t-78.5 -41.5t-105.5 -14.5q-41 0 -80 5t-72 14l12 87q34 -13 71.5 -20t74.5 -7q32 0 58.5 6.5t46 20t30 34.5t10.5 50q0 35 -20.5 58.5t-45 36t-80.5 36.5t-87.5 45t-52.5 55.5t-21 85.5q0 41 16 75.5t46 59t74.5 38t99.5 13.5 q31 0 63 -3.5t59 -9.5l-11 -81q-28 8 -58 13t-59 5q-67 0 -101.5 -26.5t-34.5 -74.5q0 -34 19.5 -56t44 -35t82 -37t90 -46.5t53.5 -56.5t21 -85z" />
<glyph unicode="T" horiz-adv-x="516" d="M304 598v-598h-92v598h-194v77h481v-77h-195z" />
<glyph unicode="U" horiz-adv-x="693" d="M607 258q0 -133 -68 -200.5t-201 -67.5q-79 0 -128.5 20t-77 53.5t-37.5 75.5t-10 88v448h92v-441q0 -35 7 -65.5t25.5 -53.5t51 -36t83.5 -13q88 -1 130.5 41t42.5 144v424h90v-417v0z" />
<glyph unicode="V" horiz-adv-x="618" d="M364 0h-112l-241 675h103l151 -439q11 -30 23 -69.5t22 -77.5h1q11 37 23 76.5t24 74.5l152 435h96z" />
<glyph unicode="W" horiz-adv-x="955" d="M742 0h-115l-128 444q-6 22 -11.5 47.5t-10.5 56.5h-2q-7 -52 -20 -104l-125 -444h-116l-180 675h98l116 -438q10 -40 17 -75t12 -70h2q16 88 30 141l125 442h92l130 -448q10 -34 18 -69t13 -66h1q7 40 12 68.5t12 56.5l119 458h90z" />
<glyph unicode="X" horiz-adv-x="599" d="M467 0l-172 279l-171 -279h-107l222 348l-208 327h106l160 -258l157 258h104l-205 -324l229 -351h-115z" />
<glyph unicode="Y" horiz-adv-x="537" d="M313 259v-259h-91v259l-220 416h101l116 -220q27 -54 50 -111h2q13 32 29 65t25 50l112 216h98z" />
<glyph unicode="Z" horiz-adv-x="539" d="M46 0v68l283 446q23 34 32.5 48.5t22.5 32.5q-29 -1 -64.5 -1.5t-83.5 -0.5h-180v82h435v-70l-298 -464q-12 -17 -22.5 -32.5t-17.5 -26.5q14 1 51 1.5t117 0.5h174v-84h-449z" />
<glyph unicode="[" horiz-adv-x="322" d="M86 -199v970h198v-69h-114v-830h114v-71h-198z" />
<glyph unicode="\" horiz-adv-x="442" d="M361 -161l-350 918h87l350 -918h-87z" />
<glyph unicode="]" horiz-adv-x="322" d="M38 -199v71h114v830h-114v69h198v-970h-198z" />
<glyph unicode="^" d="M408 343l-144 265l-138 -265l-62 33l165 299h73l172 -298z" />
<glyph unicode="_" d="M0 -249v71h550v-71h-550z" />
<glyph unicode="`" horiz-adv-x="350" d="M223 569l-140 128l55 54l129 -139z" />
<glyph unicode="a" horiz-adv-x="521" d="M345 233q-59 0 -100 -7.5t-65 -20.5t-34.5 -30t-10.5 -37q0 -33 21 -54.5t55 -21.5q29 0 54 13t43 36t27.5 50.5t9.5 56.5v15zM350 0q0 35 1 57.5t4 41.5h-2q-19 -47 -64 -77.5t-105 -30.5q-62 0 -100 37t-38 97q0 81 78.5 126t220.5 45v27q0 58 -24 85.5t-81 27.5 q-34 0 -74.5 -9.5t-76.5 -25.5l-16 70q41 16 87 25.5t90 9.5q52 0 87.5 -11.5t57 -34t31 -54t9.5 -73.5v-190q0 -36 1 -74t2 -69h-88z" />
<glyph unicode="b" horiz-adv-x="558" d="M421 264q0 82 -27.5 125t-82.5 43q-32 0 -58 -17t-43 -45t-26 -62t-9 -67v-164q10 -3 33.5 -8t54.5 -5q36 0 65 11.5t50 35.5t32 62.5t11 90.5zM515 272q0 -65 -18 -116.5t-51.5 -88t-81.5 -55.5t-108 -19q-57 0 -104 7.5t-67 12.5v717h90v-241q0 -23 -2.5 -49t-6.5 -44 l2 -1q20 52 63.5 81.5t100.5 29.5q88 0 135.5 -60t47.5 -174z" />
<glyph unicode="c" horiz-adv-x="435" d="M407 19q-31 -13 -70.5 -20t-77.5 -7q-47 0 -86 12.5t-69 40t-46.5 74.5t-16.5 113q0 60 15.5 110.5t46 86.5t76 56t104.5 20q33 0 64.5 -5.5t57.5 -15.5l-17 -77q-25 10 -54.5 16t-58.5 6q-33 0 -59 -13.5t-44 -38t-27 -58.5t-9 -75q0 -39 7 -70t23 -54.5t43.5 -36.5 t67.5 -13q65 0 116 24z" />
<glyph unicode="d" horiz-adv-x="558" d="M384 422q-24 5 -46 8t-43 3q-36 0 -65 -11.5t-49.5 -35.5t-31.5 -62t-11 -91q0 -82 27 -125t82 -43q33 0 58.5 17t43 45.5t26.5 62t9 67.5v165zM386 0q0 25 2 53t6 48l-2 1q-21 -51 -64.5 -81t-101.5 -30q-91 0 -137 61.5t-46 172.5q0 65 18 116.5t51.5 88t81 55.5 t106.5 19q19 0 38.5 -1t45.5 -4v231h89v-730h-87z" />
<glyph unicode="e" horiz-adv-x="508" d="M370 305q1 64 -28.5 98.5t-82.5 34.5q-50 0 -83.5 -35t-40.5 -98h235zM462 301q0 -31 -3 -59h-325q-1 -91 36.5 -135t116.5 -44q37 0 73.5 7t73.5 20l12 -69q-41 -15 -84 -22.5t-86 -7.5q-116 0 -175.5 62.5t-59.5 192.5q0 55 15 103t44.5 83t71 54.5t93.5 19.5 q51 0 88.5 -16t61.5 -44t35.5 -65t11.5 -80z" />
<glyph unicode="f" horiz-adv-x="350" d="M374 652q-9 3 -30 7t-44 4q-52 0 -76.5 -31t-24.5 -98v-37h138v-70h-138v-427h-90v427h-102v70h102v31q0 105 50 156.5t143 51.5q40 0 80 -8z" />
<glyph unicode="g" horiz-adv-x="534" d="M261 506q37 0 72 -9h167v-71h-73q7 -11 16.5 -32t9.5 -56q0 -40 -12.5 -73.5t-38.5 -58t-64 -39t-88 -14.5q-29 0 -53 4q-27 -19 -27 -40q0 -16 16.5 -26t60.5 -11l80 -3q91 -3 135 -41t44 -105q0 -40 -18 -74.5t-51.5 -59t-81.5 -39t-107 -14.5q-98 0 -155 38t-57 109 q0 22 7 41t18.5 36.5t26.5 31.5t33 26q-17 9 -30.5 25.5t-14.5 46.5q0 25 14.5 46.5t41.5 38.5q-17 10 -34.5 28.5t-28.5 47.5t-11 62q0 39 13 73t38.5 58.5t63.5 39t88 14.5zM145 -40q-17 -25 -17 -53q0 -46 36 -69.5t98 -23.5q77 0 115 29.5t38 75.5q0 36 -25 58.5 t-88 24.5l-83 3q-14 0 -26 1q-32 -21 -48 -46zM366 329q0 48 -29 79t-81 31q-53 0 -82 -31t-29 -79t29 -79t82 -31q52 0 81 31t29 79z" />
<glyph unicode="h" horiz-adv-x="575" d="M401 0v320q0 56 -19 84t-66 28q-30 0 -56 -14.5t-45 -41t-29.5 -62t-10.5 -76.5v-238h-90v730h90v-236q0 -28 -2 -54t-7 -45l2 -1q22 52 67 82t106 30q41 0 70.5 -12t47 -33.5t25 -50t7.5 -63.5v-347h-90z" />
<glyph unicode="i" horiz-adv-x="260" d="M85 0v497h90v-497h-90zM190 654q0 -24 -17.5 -41t-42.5 -17t-42.5 16.5t-17.5 41.5t17.5 42t42.5 17t42.5 -17t17.5 -42z" />
<glyph unicode="j" horiz-adv-x="266" d="M181 -55q0 -51 -9 -88t-29 -61.5t-51.5 -37t-75.5 -12.5q-25 0 -45.5 3t-29.5 5l8 79q8 -3 27 -7t43 -4q21 0 34.5 5.5t22 18.5t12.5 35t4 56v560h89v-552zM196 654q0 -24 -17.5 -41t-41.5 -17q-25 0 -42.5 16.5t-17.5 41.5t17.5 42t42.5 17q24 0 41.5 -17t17.5 -42z" />
<glyph unicode="k" horiz-adv-x="493" d="M359 0l-184 256v-256h-90v730h90v-451l175 218h105l-188 -223l207 -274h-115z" />
<glyph unicode="l" horiz-adv-x="260" d="M85 0v730h90v-730h-90z" />
<glyph unicode="m" horiz-adv-x="879" d="M704 0v319q0 56 -17.5 84.5t-63.5 28.5q-27 0 -52 -13.5t-44.5 -39.5t-31 -62.5t-11.5 -80.5v-236h-89v319q0 26 -3.5 46t-12 35t-24.5 23.5t-41 8.5q-28 0 -53.5 -14.5t-44.5 -41t-30 -62.5t-11 -78v-236h-90v497h87q0 -25 -2 -54.5t-5 -50.5l1 -1q22 53 68 84t105 31 q37 0 63.5 -11t42 -28.5t22.5 -36.5t9 -37q9 20 23 39t35 36t49.5 27.5t62.5 10.5q72 0 110 -40t38 -123v-343h-90z" />
<glyph unicode="n" horiz-adv-x="575" d="M401 0v320q0 56 -19 84t-66 28q-30 0 -56 -14.5t-45 -41t-29.5 -62t-10.5 -76.5v-238h-90v497h87q0 -26 -2 -55t-6 -50h2q22 53 67.5 83.5t107.5 30.5q41 0 70.5 -12t47 -33.5t25 -50t7.5 -63.5v-347h-90z" />
<glyph unicode="o" horiz-adv-x="545" d="M412 249q0 87 -36.5 134.5t-101.5 47.5q-32 0 -58 -11.5t-44.5 -34.5t-28.5 -57.5t-10 -79.5q0 -87 36.5 -134t102.5 -47q30 0 55.5 11t44.5 33.5t29.5 57t10.5 80.5zM505 256q0 -56 -15.5 -104.5t-46.5 -84.5t-76.5 -56t-102.5 -20q-51 0 -92.5 15.5t-71 46.5t-45 78 t-15.5 110q0 56 15.5 104.5t46.5 84.5t76.5 56t103.5 20q51 0 92 -15.5t70.5 -46.5t45 -78t15.5 -110z" />
<glyph unicode="p" horiz-adv-x="558" d="M421 264q0 82 -27.5 125t-82.5 43q-32 0 -58 -17t-43 -45.5t-26 -62t-9 -67.5v-164q39 -12 88 -12q36 0 65 11.5t50 35.5t32 62.5t11 90.5zM515 272q0 -132 -67.5 -205t-188.5 -73q-25 0 -44.5 1t-39.5 5v-247h-90v744h87q0 -25 -2 -53.5t-6 -47.5l2 -1q21 52 64.5 81.5 t102.5 29.5q87 0 134.5 -60.5t47.5 -173.5z" />
<glyph unicode="q" horiz-adv-x="558" d="M384 423q-43 10 -89 10q-74 0 -115.5 -48.5t-41.5 -151.5q0 -82 27 -125t82 -43q32 0 58 17t43.5 45.5t26.5 62.5t9 68v165zM384 -247v258q0 22 1.5 45.5t5.5 43.5l-2 1q-20 -51 -63.5 -80.5t-98.5 -29.5q-89 0 -136.5 59t-47.5 174q0 131 69.5 206t192.5 75 q42 0 84 -3.5t84 -10.5v-738h-89z" />
<glyph unicode="r" horiz-adv-x="355" d="M330 417q-78 14 -116.5 -41t-38.5 -176v-200h-90v497h87q0 -26 -2.5 -57.5t-8.5 -60.5h2q8 28 22 52t35 42t49.5 27.5t64.5 5.5z" />
<glyph unicode="s" horiz-adv-x="425" d="M376 143q0 -32 -13.5 -59.5t-39.5 -48.5t-64.5 -32.5t-87.5 -11.5q-31 0 -62 3.5t-55 9.5l7 80q25 -9 56.5 -15t60.5 -6q51 0 78 19t27 54q0 25 -15.5 41t-48 28.5t-60.5 22.5t-52.5 25t-40.5 41.5t-16 67.5q0 63 51 103.5t145 40.5q25 0 50 -2.5t46 -6.5l-6 -75 q-22 7 -48 11t-50 4q-47 0 -71.5 -18t-24.5 -49q0 -25 15.5 -40.5t48.5 -28.5t60.5 -23t52.5 -25.5t41 -42t16 -67.5z" />
<glyph unicode="t" horiz-adv-x="371" d="M339 3q-21 -5 -47.5 -8t-50.5 -3q-39 0 -64.5 8.5t-40.5 26t-22 46t-7 70.5v284h-100v70h100v161l90 25v-186h138v-70h-138v-262q0 -29 3.5 -47.5t11 -29.5t20.5 -15.5t33 -4.5q29 0 67 8z" />
<glyph unicode="u" horiz-adv-x="575" d="M403 0q0 26 2 55t6 50h-2q-22 -53 -67.5 -83.5t-107.5 -30.5q-41 0 -70 12t-46.5 33.5t-25 50t-7.5 63.5v347h89v-320q0 -56 19 -84t66 -28q30 0 56 14.5t45 41t29.5 62t10.5 76.5v238h90v-497h-87z" />
<glyph unicode="v" horiz-adv-x="486" d="M293 0h-103l-181 497h100l105 -304q10 -31 16.5 -54.5t12.5 -46.5h2q6 24 13 48.5t15 50.5l107 306h96z" />
<glyph unicode="w" horiz-adv-x="793" d="M617 0h-103l-98 295q-8 26 -15 52t-13 50h-1q-7 -30 -15.5 -61.5t-18.5 -66.5l-83 -269h-102l-152 497h100l78 -274q9 -33 18.5 -68.5t14.5 -58.5h1q7 30 15.5 63t17.5 65l86 273h97l87 -273q7 -23 12.5 -41t9.5 -33t7.5 -28t6.5 -27h1q5 25 13 53.5t20 74.5l81 274h95z " />
<glyph unicode="x" horiz-adv-x="518" d="M381 0l-125 191l-126 -191h-109l182 249l-173 248h110l123 -187l125 187h102l-172 -245l180 -252h-117z" />
<glyph unicode="y" horiz-adv-x="480" d="M272 -42q-22 -60 -46 -100.5t-52.5 -65.5t-62.5 -36t-77 -11q-17 0 -33 2t-23 4l9 78q7 -2 24 -5t35 -3q21 0 39 6t33.5 20.5t30 38.5t28.5 60l20 54l-188 497h103l94 -260q10 -30 20.5 -64.5t18.5 -62.5h1q3 13 8 29.5t11 36t15 45.5t14 43l80 233h97z" />
<glyph unicode="z" horiz-adv-x="447" d="M48 0v64l238 355q-23 -1 -58 -1.5t-73 -0.5h-102v80h338v-63l-235 -353q13 0 37 0.5t50.5 1t47.5 0.5h105v-83h-348z" />
<glyph unicode="{" horiz-adv-x="341" d="M291 -199q-84 0 -120 47.5t-36 147.5v175q0 59 -24 83t-82 27v71q31 2 51 7.5t32 17.5t17.5 32t5.5 51v117q0 45 8 80t26 60.5t48.5 39.5t73.5 14h18v-69q-27 0 -44 -6t-27.5 -20t-15 -37t-4.5 -59v-116q0 -66 -23.5 -102t-69.5 -44v-2q45 -7 69 -44.5t24 -103.5v-174 q0 -36 4.5 -59t15 -37t27.5 -20t44 -6v-71h-18z" />
<glyph unicode="|" horiz-adv-x="285" d="M106 -247v1000h71v-1000h-71z" />
<glyph unicode="}" horiz-adv-x="338" d="M318 281q-58 -3 -82 -27t-24 -83v-175q0 -100 -36 -147.5t-120 -47.5h-18v71q27 0 44 6t27.5 20t15 37t4.5 59v174q0 66 24 103.5t69 44.5v2q-93 12 -93 142v120q0 36 -4.5 59t-15 37t-27.5 20t-44 6v69h18q43 0 73.5 -14t48.5 -39.5t26 -60.5t8 -80v-113q0 -32 5.5 -53 t17.5 -33.5t32 -18t51 -7.5v-71z" />
<glyph unicode="~" d="M497 564q0 -65 -36 -105.5t-97 -40.5q-37 0 -61 14.5t-48 43.5t-37 40.5t-36 11.5q-30 0 -45 -23.5t-16 -65.5h-67v10q0 66 36.5 106.5t97.5 40.5q26 0 45.5 -7.5t33 -19.5t24.5 -25t24.5 -28.5t26 -23t28.5 -7.5q30 0 44.5 23.5t15.5 65.5h67v-10z" />
<glyph unicode="&#xa1;" horiz-adv-x="320" d="M97 -206l15 535h76l16 -535h-107zM211 447q0 -25 -17.5 -42t-42.5 -17t-42.5 17t-17.5 42t17.5 42t42.5 17t42.5 -17t17.5 -42z" />
<glyph unicode="&#xa2;" horiz-adv-x="455" d="M413 134q-23 -10 -50.5 -17.5t-55.5 -9.5v-132h-71v132q-46 4 -82 22t-61 48t-37.5 71.5t-12.5 93.5q0 48 13 89t38.5 73t61.5 52.5t80 27.5v113h71v-109q26 -1 52 -6t51 -14l-7 -78q-52 25 -112 25q-72 0 -113.5 -44.5t-41.5 -123.5q0 -35 8.5 -64.5t26.5 -52t47.5 -35 t70.5 -12.5q31 0 61.5 8t55.5 22z" />
<glyph unicode="&#xa3;" horiz-adv-x="471" d="M42 0v63q29 22 48 42.5t30.5 41.5t16.5 44.5t5 53.5q0 14 -1 32t-4 44h-107v70h97q-5 42 -8 67.5t-3 47.5q0 86 49.5 132t139.5 46q26 0 54.5 -3.5t50.5 -9.5l-16 -77q-21 8 -44.5 12.5t-44.5 4.5q-47 0 -73 -25.5t-26 -73.5q0 -18 3 -49t9 -72h151v-70h-142 q2 -20 3 -35.5t1 -31.5q0 -31 -4 -55t-13.5 -45t-25.5 -40t-40 -40q19 2 48 3.5t54 1.5h192v-79h-400z" />
<glyph unicode="&#xa4;" d="M376 334q0 53 -25 83.5t-79 30.5q-42 0 -70 -32t-28 -85q0 -26 5.5 -47.5t18 -38t32 -25.5t47.5 -9q41 0 70 33.5t29 89.5zM435 60l-80 108q-39 -24 -88 -24q-37 0 -68 13l-72 -97l-67 49l73 90q-19 22 -29.5 55t-10.5 75q0 77 45 125l-78 96l66 48l74 -101q17 9 38 13.5 t44 4.5q21 0 41.5 -4t38.5 -13l75 101l64 -49l-77 -97q16 -20 24.5 -50t8.5 -68q0 -35 -10.5 -66t-29.5 -55l84 -104z" />
<glyph unicode="&#xa5;" horiz-adv-x="591" d="M363 291h142v-61h-164v-70h164v-61h-164v-99h-91v99h-165v61h165v70h-165v61h143l-190 384h100l107 -222q15 -31 27 -59.5t24 -61.5h1q11 31 26 64t33 68l104 211h97z" />
<glyph unicode="&#xa6;" horiz-adv-x="285" d="M106 -247v378h71v-378h-71zM106 385v368h71v-368h-71z" />
<glyph unicode="&#xa7;" horiz-adv-x="520" d="M349 223q0 27 -12.5 52.5t-32 48.5t-56.5 59.5t-48 47.5q-22 -16 -32.5 -37t-10.5 -44q0 -26 11.5 -50.5t31.5 -48t47.5 -50.5t59.5 -58q21 15 31.5 36t10.5 44zM434 235q0 -41 -20.5 -77t-58.5 -64q19 -25 29 -50.5t10 -54.5q0 -30 -11.5 -58t-35 -49.5t-59.5 -34 t-83 -12.5q-17 0 -38.5 3t-40.5 8l7 76q21 -7 38.5 -9.5t36.5 -2.5q43 0 67 21t24 55q0 25 -15 49t-47 55t-59 56.5t-51 54.5t-39.5 64t-15.5 74q0 41 20 76.5t59 65.5q-19 25 -29 50t-10 53q0 32 11 59.5t33 48.5t56.5 32.5t79.5 11.5q17 0 37.5 -2t37.5 -6l-6 -76 q-36 10 -70 10q-41 0 -62.5 -19t-21.5 -53q0 -24 15 -48t47 -55.5t59 -58t51 -55.5t39.5 -64t15.5 -74z" />
<glyph unicode="&#xa8;" horiz-adv-x="465" d="M191 654q0 -22 -16 -38t-38 -16t-38 16t-16 38t16 38t38 16t38 -16t16 -38zM383 654q0 -22 -16 -38t-38 -16t-38 16t-16 38t16 38t38 16t38 -16t16 -38z" />
<glyph unicode="&#xa9;" horiz-adv-x="756" d="M475 175q-46 -17 -99 -17q-40 0 -70 12.5t-49.5 35.5t-29 54.5t-9.5 69.5q0 37 10 70t30.5 58.5t54 40t79.5 14.5q22 0 42 -3.5t37 -9.5l-8 -64q-32 16 -72 16q-26 0 -44 -9t-29.5 -24.5t-16.5 -37.5t-5 -48q0 -54 22.5 -82.5t68.5 -28.5q42 0 78 15zM641 334 q0 54 -20.5 102.5t-57 85.5t-85 58t-102.5 21t-102 -20.5t-84.5 -57t-57 -85t-20.5 -102.5t20.5 -103t57 -86t84.5 -58t102 -21t102.5 20.5t85 57.5t57 85.5t20.5 102.5zM712 336q0 -69 -26 -130t-72.5 -107.5t-107.5 -72.5t-130 -26q-70 0 -131.5 25.5t-107.5 71.5 t-71.5 107t-25.5 130t26 130t72.5 107t107.5 72t130 26t130.5 -25.5t107.5 -71.5t72 -106.5t26 -129.5z" />
<glyph unicode="&#xaa;" horiz-adv-x="389" d="M246 343q0 11 1 25.5t4 27.5h-1q-14 -28 -41 -44t-61 -16q-51 0 -75.5 25t-24.5 64q0 28 13 50.5t38 37.5t61.5 23t84.5 8v18q0 9 -2.5 20t-9.5 20t-20 14.5t-35 5.5q-26 0 -53 -7t-50 -18l-7 64q26 10 57.5 16t64.5 6q37 0 62.5 -9.5t40 -25t20.5 -36t6 -42.5v-140v-31 t1 -28q0 -15 1 -28h-75zM57 211v71h288v-71h-288zM245 493q-35 0 -58 -3.5t-37.5 -10.5t-21 -18t-6.5 -26q0 -18 11.5 -28.5t31.5 -10.5t35.5 10t25 23.5t14.5 29t5 25.5v9z" />
<glyph unicode="&#xab;" horiz-adv-x="509" d="M167 114l-113 179l114 182l68 -35l-92 -146l93 -144zM369 116l-122 177l123 180l66 -35l-100 -144l101 -142z" />
<glyph unicode="&#xac;" d="M404 103v157h-362v75h440v-232h-78z" />
<glyph unicode="&#xad;" horiz-adv-x="330" d="M47 250v74h236v-74h-236z" />
<glyph unicode="&#xae;" horiz-adv-x="562" d="M312 578q0 14 -7.5 21t-27.5 7h-21v-63h14q23 0 32.5 11t9.5 24zM313 416l-53 95h-4v-95h-49v228h79q42 0 60 -16.5t18 -43.5q0 -29 -14.5 -45t-38.5 -21q4 -4 9 -12t10 -17l43 -73h-60zM441 527q0 33 -12.5 63t-34 52.5t-51 35.5t-62.5 13t-62.5 -12.5t-51 -34.5 t-34 -51.5t-12.5 -62.5t12.5 -63t34 -52.5t51 -35.5t62.5 -13t62.5 13t51 34.5t34 51t12.5 62.5zM501 529q0 -45 -17.5 -85t-47.5 -69.5t-70 -47t-85 -17.5q-47 0 -87 17t-70 46.5t-47 69.5t-17 86q0 45 17.5 85t47.5 69.5t70 46.5t86 17t86 -17t70 -46t47 -69t17 -86z" />
<glyph unicode="&#xaf;" horiz-adv-x="418" d="M83 616v68h252v-68h-252z" />
<glyph unicode="&#x2c9;" horiz-adv-x="418" d="M83 616v68h252v-68h-252z" />
<glyph unicode="&#xb0;" horiz-adv-x="376" d="M249 610q0 12 -3.5 24.5t-11 22.5t-19.5 16t-29 6q-27 0 -44.5 -19.5t-17.5 -49.5q0 -32 17 -50t44 -18q28 0 46 19t18 49zM319 611q0 -29 -11 -53t-30.5 -40.5t-44.5 -25.5t-51 -9q-59 0 -94 34t-35 92q0 29 11.5 53t30.5 41t43.5 25.5t49.5 8.5q33 0 58 -10t41 -27 t24 -40t8 -49z" />
<glyph unicode="&#xb1;" d="M44 0v75h462v-75h-462zM318 336v-197h-86v197h-190v74h190v196h86v-196h190v-74h-190z" />
<glyph unicode="&#xb2;" horiz-adv-x="357" d="M39 364v62l93 93q41 41 61 73t20 61q0 32 -17.5 50.5t-52.5 18.5q-22 0 -45.5 -6.5t-41.5 -16.5l-13 64q25 11 57 18.5t63 7.5q65 0 102 -32.5t37 -88.5q0 -45 -20 -83t-64 -83l-69 -69q30 1 68 1.5t102 0.5v-71h-280z" />
<glyph unicode="&#xb3;" horiz-adv-x="348" d="M301 491q0 -30 -13 -55t-36.5 -42.5t-56.5 -27t-72 -9.5q-19 0 -43 2.5t-44 6.5l9 63q15 -5 37 -8t43 -3q42 0 65.5 18.5t23.5 49.5q0 36 -38 53t-111 8v59q67 0 101.5 16.5t34.5 53.5q0 25 -17.5 39t-49.5 14q-20 0 -42 -5t-41 -13l-9 59q25 9 54.5 14t55.5 5 q63 0 98.5 -26.5t35.5 -76.5q0 -37 -17.5 -61t-51.5 -36q40 -9 62 -36t22 -62z" />
<glyph unicode="&#xb4;" horiz-adv-x="350" d="M127 569l-44 43l129 139l55 -53z" />
<glyph unicode="&#xb5;" horiz-adv-x="586" d="M550 -4q-19 -4 -38 -4q-55 0 -78 28.5t-21 82.5l-1 1q-20 -52 -62.5 -82t-100.5 -30q-27 0 -48.5 9t-34.5 26l11 -274h-92v744h90v-328q0 -53 20.5 -78.5t63.5 -25.5q31 0 57 14t45 40.5t29.5 62.5t10.5 78v237h90v-325q0 -34 2.5 -54t9 -31t17.5 -15.5t30 -4.5v-71z" />
<glyph unicode="&#xb6;" horiz-adv-x="576" d="M289 247q-57 0 -99 17.5t-69.5 47t-41 68.5t-13.5 83q0 46 16 85t45.5 67t70.5 44t91 16v-428v0zM445 605v-701h-154v70h73v701h152v-70h-71z" />
<glyph unicode="&#xb7;" horiz-adv-x="234" d="M181 297q0 -26 -18.5 -45t-45.5 -19t-45.5 19t-18.5 45q0 27 18.5 46t45.5 19t45.5 -19t18.5 -46z" />
<glyph unicode="&#x2219;" horiz-adv-x="234" d="M181 297q0 -26 -18.5 -45t-45.5 -19t-45.5 19t-18.5 45q0 27 18.5 46t45.5 19t45.5 -19t18.5 -46z" />
<glyph unicode="&#xb8;" horiz-adv-x="291" d="M177 -40q37 -51 29.5 -98.5t-50.5 -96.5h-73q19 24 31 45t14.5 40.5t-4 38.5t-24.5 41l77 30v0z" />
<glyph unicode="&#xb9;" horiz-adv-x="276" d="M118 364v340l-88 -34l-15 70l118 42h71v-418h-86z" />
<glyph unicode="&#xba;" horiz-adv-x="419" d="M291 510q0 26 -5.5 46t-16 34t-25.5 21t-34 7q-38 0 -60 -27.5t-22 -80.5q0 -26 5.5 -46t16 -34t25.5 -21t34 -7q38 0 60 28t22 80zM64 211v71h292v-71h-292zM370 515q0 -38 -11 -70.5t-32 -56.5t-52.5 -37.5t-71.5 -13.5q-35 0 -63.5 10t-48.5 31t-31 53t-11 74 q0 38 11 70.5t32.5 57t52.5 38t71 13.5q35 0 63.5 -10t48.5 -31t31 -53t11 -75z" />
<glyph unicode="&#xbb;" horiz-adv-x="509" d="M138 116l-66 35l101 144l-100 142l68 36l122 -177zM340 114l-67 35l92 146l-92 144l70 36l112 -179z" />
<glyph unicode="&#xbc;" horiz-adv-x="821" d="M118 364v340l-88 -34l-15 70l118 42h71v-418h-86zM96 -141l-58 41l639 904l58 -41zM717 -12v-93h-79v93h-194l-6 56l162 269h117v-258h67v-67h-67zM638 256l-122 -203q12 0 28.5 0.5t33.5 0.5h31h29v202z" />
<glyph unicode="&#xbd;" horiz-adv-x="844" d="M96 -141l-58 41l639 904l58 -41zM118 364v340l-88 -34l-15 70l118 42h71v-418h-86zM514 -105v62l93 93q41 41 61 73t20 61q0 32 -17.5 50.5t-52.5 18.5q-22 0 -45.5 -6.5t-41.5 -16.5l-13 64q25 11 57 18.5t63 7.5q65 0 102 -32.5t37 -88.5q0 -45 -20 -83t-64 -83 l-69 -69q30 1 68 1.5t102 0.5v-71h-280z" />
<glyph unicode="&#xbe;" horiz-adv-x="842" d="M117 -141l-58 41l639 904l58 -41zM301 491q0 -30 -13 -55t-36.5 -42.5t-56.5 -27t-72 -9.5q-19 0 -43 2.5t-44 6.5l9 63q15 -5 37 -8t43 -3q42 0 65.5 18.5t23.5 49.5q0 36 -38 53t-111 8v59q67 0 101.5 16.5t34.5 53.5q0 25 -17.5 39t-49.5 14q-20 0 -42 -5t-41 -13 l-9 59q25 9 54.5 14t55.5 5q63 0 98.5 -26.5t35.5 -76.5q0 -37 -17.5 -61t-51.5 -36q40 -9 62 -36t22 -62zM737 -12v-93h-79v93h-194l-6 56l162 269h117v-258h67v-67h-67zM658 256l-122 -203q12 0 28.5 0.5t33.5 0.5h31h29v202z" />
<glyph unicode="&#xbf;" horiz-adv-x="445" d="M350 -213q-68 2 -122.5 18.5t-91.5 43t-56.5 61t-19.5 71.5q0 38 13.5 67t28.5 45.5t48 48.5t48.5 55.5t20.5 56t-8 75.5h88q15 -47 12 -83t-18 -63t-40.5 -52.5t-46.5 -47t-34 -44t-13 -49.5q0 -50 55.5 -83.5t147.5 -37.5zM314 447q0 -25 -17.5 -42t-42.5 -17t-42.5 17 t-17.5 42t17.5 42t42.5 17t42.5 -17t17.5 -42z" />
<glyph unicode="&#xc0;" horiz-adv-x="615" d="M333 493q-7 21 -14.5 46t-14.5 49h-1q-5 -20 -11.5 -41t-16.5 -53l-92 -260h242zM502 0l-55 161h-287l-56 -161h-94l242 675h112l241 -675h-103zM354 725l-190 56l26 70l181 -74z" />
<glyph unicode="&#xc1;" horiz-adv-x="615" d="M333 493q-7 21 -14.5 46t-14.5 49h-1q-5 -20 -11.5 -41t-16.5 -53l-92 -260h242zM502 0l-55 161h-287l-56 -161h-94l242 675h112l241 -675h-103zM252 725l-17 52l182 74l25 -70z" />
<glyph unicode="&#xc2;" horiz-adv-x="615" d="M333 493q-7 21 -14.5 46t-14.5 49h-1q-5 -20 -11.5 -41t-16.5 -53l-92 -260h242zM502 0l-55 161h-287l-56 -161h-94l242 675h112l241 -675h-103zM440 724l-133 60l-135 -60l-24 50l160 83l158 -81z" />
<glyph unicode="&#xc3;" horiz-adv-x="615" d="M333 493q-7 21 -14.5 46t-14.5 49h-1q-5 -20 -11.5 -41t-16.5 -53l-92 -260h242zM502 0l-55 161h-287l-56 -161h-94l242 675h112l241 -675h-103zM485 808q-20 -35 -48.5 -54t-63.5 -19q-26 0 -43.5 8t-32 18t-27.5 18t-29 8q-36 0 -63 -45l-46 33q20 35 48.5 54.5 t63.5 19.5q25 0 43 -8t32.5 -18t27.5 -18t29 -8q34 0 63 44l46 -33v0z" />
<glyph unicode="&#xc4;" horiz-adv-x="615" d="M333 493q-7 21 -14.5 46t-14.5 49h-1q-5 -20 -11.5 -41t-16.5 -53l-92 -260h242zM502 0l-55 161h-287l-56 -161h-94l242 675h112l241 -675h-103zM467 782q0 -22 -15.5 -38t-38.5 -16q-22 0 -37.5 15.5t-15.5 38.5t15.5 38.5t37.5 15.5q23 0 38.5 -15.5t15.5 -38.5z M254 782q0 -22 -15.5 -38t-38.5 -16q-22 0 -38 16t-16 38q0 23 16 38.5t38 15.5q23 0 38.5 -15.5t15.5 -38.5z" />
<glyph unicode="&#xc5;" horiz-adv-x="615" d="M333 493q-7 21 -14.5 46t-14.5 49h-1q-5 -20 -11.5 -41t-16.5 -53l-92 -260h242zM502 0l-55 161h-287l-56 -161h-94l242 675h112l241 -675h-103zM428 821q0 -48 -33.5 -79t-88.5 -31q-53 0 -82.5 26.5t-29.5 77.5q0 47 33.5 78t87.5 31t83.5 -26t29.5 -77zM361 817 q0 57 -50 57q-22 0 -36.5 -14.5t-14.5 -41.5q0 -57 51 -57q22 0 36 14.5t14 41.5z" />
<glyph unicode="&#xc6;" horiz-adv-x="785" d="M367 600h-6q-13 -31 -28.5 -62.5t-38.5 -76.5l-122 -225h195v364zM367 0v163h-229l-85 -163h-96l359 675h396v-76h-254v-214h236v-74h-236v-234h259v-77h-350z" />
<glyph unicode="&#xc7;" horiz-adv-x="583" d="M538 28q-40 -17 -88 -26.5t-97 -9.5q-79 0 -137.5 24.5t-96 68.5t-55.5 104t-18 132q0 79 20 144.5t60.5 114t103.5 75t146 26.5q39 0 80 -5.5t75 -15.5l-15 -84q-36 12 -74 19t-75 7q-57 0 -99 -20t-69.5 -56.5t-40.5 -84.5t-13 -105q0 -127 56.5 -194.5t170.5 -67.5 q37 0 78 9t73 24zM358 -40q37 -51 29.5 -98.5t-50.5 -96.5h-73q19 24 31 45t14.5 40.5t-4 38.5t-24.5 41l77 30v0z" />
<glyph unicode="&#xc8;" horiz-adv-x="513" d="M85 0v675h360v-76h-268v-214h246v-74h-246v-234h268v-77h-360zM309 725l-190 56l26 70l181 -74z" />
<glyph unicode="&#xc9;" horiz-adv-x="513" d="M85 0v675h360v-76h-268v-214h246v-74h-246v-234h268v-77h-360zM206 725l-17 52l182 74l25 -70z" />
<glyph unicode="&#xca;" horiz-adv-x="513" d="M85 0v675h360v-76h-268v-214h246v-74h-246v-234h268v-77h-360zM395 724l-133 60l-135 -60l-24 50l160 83l158 -81z" />
<glyph unicode="&#xcb;" horiz-adv-x="513" d="M85 0v675h360v-76h-268v-214h246v-74h-246v-234h268v-77h-360zM417 782q0 -22 -15.5 -38t-38.5 -16q-22 0 -37.5 15.5t-15.5 38.5t15.5 38.5t37.5 15.5q23 0 38.5 -15.5t15.5 -38.5zM204 782q0 -22 -15.5 -38t-38.5 -16q-22 0 -38 16t-16 38q0 23 16 38.5t38 15.5 q23 0 38.5 -15.5t15.5 -38.5z" />
<glyph unicode="&#xcc;" horiz-adv-x="262" d="M85 0v675h92v-675h-92zM179 725l-190 56l26 70l181 -74z" />
<glyph unicode="&#xcd;" horiz-adv-x="262" d="M85 0v675h92v-675h-92zM86 725l-17 52l182 74l25 -70z" />
<glyph unicode="&#xce;" horiz-adv-x="262" d="M85 0v675h92v-675h-92zM265 724l-133 60l-135 -60l-24 50l160 83l158 -81z" />
<glyph unicode="&#xcf;" horiz-adv-x="262" d="M85 0v675h92v-675h-92zM284 782q0 -22 -15.5 -38t-38.5 -16q-22 0 -38 16t-16 38q0 23 16 38.5t38 15.5q23 0 38.5 -15.5t15.5 -38.5zM88 782q0 -22 -15.5 -38t-38.5 -16q-22 0 -38 16t-16 38q0 23 16 38.5t38 15.5q23 0 38.5 -15.5t15.5 -38.5z" />
<glyph unicode="&#xd0;" horiz-adv-x="687" d="M544 339q0 130 -64 197t-194 67q-22 0 -55 -1t-46 -2v-218h143v-70h-143v-232q18 -3 42.5 -4.5t46.5 -1.5q61 0 110 16t85 48.5t55.5 83t19.5 117.5zM641 345q0 -84 -27 -149.5t-77 -109.5t-119.5 -67t-153.5 -23q-36 0 -92 2t-78 2v312h-91v70h91v292q55 1 106 2.5 t95 1.5q82 0 146 -19.5t109 -60.5t68 -104t23 -149z" />
<glyph unicode="&#xd1;" horiz-adv-x="693" d="M513 0l-274 432q-23 40 -40 69t-33 64q2 -31 3.5 -77t3 -99.5t2 -104.5t0.5 -94v-190h-90v675h90h23l268 -425q16 -27 32.5 -57t29.5 -58q-2 29 -4 74.5t-3.5 96t-2 102t-0.5 95.5v172h90v-675h-90h-5zM528 808q-20 -35 -48.5 -54t-63.5 -19q-26 0 -43.5 8t-32 18 t-27.5 18t-29 8q-36 0 -63 -45l-46 33q20 35 48.5 54.5t63.5 19.5q25 0 43 -8t32.5 -18t27.5 -18t29 -8q34 0 63 44l46 -33v0z" />
<glyph unicode="&#xd2;" horiz-adv-x="709" d="M570 333q0 125 -55 198t-160 73q-46 0 -85 -17t-68.5 -50.5t-45.5 -83t-16 -111.5q0 -61 13.5 -111t40.5 -86t67.5 -55t93.5 -19q46 0 85 17t68.5 50.5t45.5 83t16 111.5zM667 347q0 -84 -25 -151t-69.5 -113t-102.5 -69.5t-124 -23.5q-73 0 -129.5 23.5t-95 67.5 t-58.5 106.5t-20 140.5q0 84 25 151t69.5 113t102.5 69.5t124 23.5q73 0 129.5 -23.5t95 -67.5t58.5 -106.5t20 -140.5zM397 725l-190 56l26 70l181 -74z" />
<glyph unicode="&#xd3;" horiz-adv-x="709" d="M570 333q0 125 -55 198t-160 73q-46 0 -85 -17t-68.5 -50.5t-45.5 -83t-16 -111.5q0 -61 13.5 -111t40.5 -86t67.5 -55t93.5 -19q46 0 85 17t68.5 50.5t45.5 83t16 111.5zM667 347q0 -84 -25 -151t-69.5 -113t-102.5 -69.5t-124 -23.5q-73 0 -129.5 23.5t-95 67.5 t-58.5 106.5t-20 140.5q0 84 25 151t69.5 113t102.5 69.5t124 23.5q73 0 129.5 -23.5t95 -67.5t58.5 -106.5t20 -140.5zM318 725l-17 52l182 74l25 -70z" />
<glyph unicode="&#xd4;" horiz-adv-x="709" d="M570 333q0 125 -55 198t-160 73q-46 0 -85 -17t-68.5 -50.5t-45.5 -83t-16 -111.5q0 -61 13.5 -111t40.5 -86t67.5 -55t93.5 -19q46 0 85 17t68.5 50.5t45.5 83t16 111.5zM667 347q0 -84 -25 -151t-69.5 -113t-102.5 -69.5t-124 -23.5q-73 0 -129.5 23.5t-95 67.5 t-58.5 106.5t-20 140.5q0 84 25 151t69.5 113t102.5 69.5t124 23.5q73 0 129.5 -23.5t95 -67.5t58.5 -106.5t20 -140.5zM494 724l-133 60l-135 -60l-24 50l160 83l158 -81z" />
<glyph unicode="&#xd5;" horiz-adv-x="709" d="M570 333q0 125 -55 198t-160 73q-46 0 -85 -17t-68.5 -50.5t-45.5 -83t-16 -111.5q0 -61 13.5 -111t40.5 -86t67.5 -55t93.5 -19q46 0 85 17t68.5 50.5t45.5 83t16 111.5zM667 347q0 -84 -25 -151t-69.5 -113t-102.5 -69.5t-124 -23.5q-73 0 -129.5 23.5t-95 67.5 t-58.5 106.5t-20 140.5q0 84 25 151t69.5 113t102.5 69.5t124 23.5q73 0 129.5 -23.5t95 -67.5t58.5 -106.5t20 -140.5zM531 808q-20 -35 -48.5 -54t-63.5 -19q-26 0 -43.5 8t-32 18t-27.5 18t-29 8q-36 0 -63 -45l-46 33q20 35 48.5 54.5t63.5 19.5q25 0 43 -8t32.5 -18 t27.5 -18t29 -8q34 0 63 44l46 -33v0z" />
<glyph unicode="&#xd6;" horiz-adv-x="709" d="M570 333q0 125 -55 198t-160 73q-46 0 -85 -17t-68.5 -50.5t-45.5 -83t-16 -111.5q0 -61 13.5 -111t40.5 -86t67.5 -55t93.5 -19q46 0 85 17t68.5 50.5t45.5 83t16 111.5zM667 347q0 -84 -25 -151t-69.5 -113t-102.5 -69.5t-124 -23.5q-73 0 -129.5 23.5t-95 67.5 t-58.5 106.5t-20 140.5q0 84 25 151t69.5 113t102.5 69.5t124 23.5q73 0 129.5 -23.5t95 -67.5t58.5 -106.5t20 -140.5zM518 782q0 -22 -15.5 -38t-38.5 -16q-22 0 -37.5 15.5t-15.5 38.5t15.5 38.5t37.5 15.5q23 0 38.5 -15.5t15.5 -38.5zM305 782q0 -22 -15.5 -38 t-38.5 -16q-22 0 -38 16t-16 38q0 23 16 38.5t38 15.5q23 0 38.5 -15.5t15.5 -38.5z" />
<glyph unicode="&#xd7;" d="M440 77l-168 168l-167 -168l-50 50l168 168l-168 167l55 55l167 -168l168 168l50 -50l-168 -167l168 -168z" />
<glyph unicode="&#xd8;" horiz-adv-x="709" d="M444 586q-19 10 -42 15t-47 5q-46 0 -86 -17t-69.5 -51t-46 -83.5t-16.5 -112.5q0 -75 19.5 -128.5t49.5 -86.5zM572 333q0 75 -19 129t-49 86l-238 -459q19 -9 42 -14.5t47 -5.5q46 0 86 17t69.5 51t45.5 83.5t16 112.5zM667 347q0 -84 -25 -151t-69.5 -113 t-102.5 -69.5t-124 -23.5t-119 22l-54 -104l-66 31l54 104q-56 41 -87 113t-31 172q0 84 25 151t69.5 113t102.5 69.5t124 23.5q32 0 62 -5.5t57 -16.5l54 104l65 -31l-54 -104q57 -41 88 -112.5t31 -172.5z" />
<glyph unicode="&#xd9;" horiz-adv-x="693" d="M607 258q0 -133 -68 -200.5t-201 -67.5q-79 0 -128.5 20t-77 53.5t-37.5 75.5t-10 88v448h92v-441q0 -35 7 -65.5t25.5 -53.5t51 -36t83.5 -13q88 -1 130.5 41t42.5 144v424h90v-417v0zM377 725l-190 56l26 70l181 -74z" />
<glyph unicode="&#xda;" horiz-adv-x="693" d="M607 258q0 -133 -68 -200.5t-201 -67.5q-79 0 -128.5 20t-77 53.5t-37.5 75.5t-10 88v448h92v-441q0 -35 7 -65.5t25.5 -53.5t51 -36t83.5 -13q88 -1 130.5 41t42.5 144v424h90v-417v0zM329 725l-17 52l182 74l25 -70z" />
<glyph unicode="&#xdb;" horiz-adv-x="693" d="M607 258q0 -133 -68 -200.5t-201 -67.5q-79 0 -128.5 20t-77 53.5t-37.5 75.5t-10 88v448h92v-441q0 -35 7 -65.5t25.5 -53.5t51 -36t83.5 -13q88 -1 130.5 41t42.5 144v424h90v-417v0zM482 724l-133 60l-135 -60l-24 50l160 83l158 -81z" />
<glyph unicode="&#xdc;" horiz-adv-x="693" d="M607 258q0 -133 -68 -200.5t-201 -67.5q-79 0 -128.5 20t-77 53.5t-37.5 75.5t-10 88v448h92v-441q0 -35 7 -65.5t25.5 -53.5t51 -36t83.5 -13q88 -1 130.5 41t42.5 144v424h90v-417v0zM507 782q0 -22 -15.5 -38t-38.5 -16q-22 0 -37.5 15.5t-15.5 38.5t15.5 38.5 t37.5 15.5q23 0 38.5 -15.5t15.5 -38.5zM294 782q0 -22 -15.5 -38t-38.5 -16q-22 0 -38 16t-16 38q0 23 16 38.5t38 15.5q23 0 38.5 -15.5t15.5 -38.5z" />
<glyph unicode="&#xdd;" horiz-adv-x="537" d="M313 259v-259h-91v259l-220 416h101l116 -220q27 -54 50 -111h2q13 32 29 65t25 50l112 216h98zM247 725l-17 52l182 74l25 -70z" />
<glyph unicode="&#xde;" horiz-adv-x="537" d="M423 357q0 68 -43 107.5t-129 39.5q-22 0 -43 -1.5t-31 -2.5v-289q10 -1 32 -3t46 -2q81 0 124.5 42t43.5 109zM518 369q0 -51 -18.5 -94.5t-54 -75.5t-85.5 -50t-112 -18q-22 0 -42 1t-29 2v-134h-92v675h92v-98q10 1 33.5 1.5t51.5 0.5q126 0 191 -58.5t65 -151.5z" />
<glyph unicode="&#xdf;" horiz-adv-x="593" d="M552 149q0 -34 -14 -63.5t-40 -51t-63 -33t-82 -11.5q-28 0 -53.5 3t-45.5 8l6 79q22 -8 46 -12.5t46 -4.5q54 0 81 21.5t27 53.5q0 25 -13 42.5t-28 27t-51.5 30.5t-57 38.5t-34 43.5t-13.5 63q0 28 9 49t23 35.5t37.5 32t35.5 28t21 26.5t9 38q0 36 -26 54.5t-69 18.5 q-63 0 -95.5 -38.5t-32.5 -121.5v-505h-90v500q0 63 17 108.5t47 73t70.5 40.5t88.5 13q85 0 133.5 -37t48.5 -98q0 -32 -9.5 -54.5t-23.5 -37.5t-40.5 -33.5t-35.5 -25.5t-18 -21.5t-9 -34.5q0 -24 13.5 -41.5t27.5 -26.5t51 -31t58 -39.5t34.5 -43.5t13.5 -62z" />
<glyph unicode="&#xe0;" horiz-adv-x="521" d="M345 233q-59 0 -100 -7.5t-65 -20.5t-34.5 -30t-10.5 -37q0 -33 21 -54.5t55 -21.5q29 0 54 13t43 36t27.5 50.5t9.5 56.5v15zM350 0q0 35 1 57.5t4 41.5h-2q-19 -47 -64 -77.5t-105 -30.5q-62 0 -100 37t-38 97q0 81 78.5 126t220.5 45v27q0 58 -24 85.5t-81 27.5 q-34 0 -74.5 -9.5t-76.5 -25.5l-16 70q41 16 87 25.5t90 9.5q52 0 87.5 -11.5t57 -34t31 -54t9.5 -73.5v-190q0 -36 1 -74t2 -69h-88zM268 569l-140 128l55 54l129 -139z" />
<glyph unicode="&#xe1;" horiz-adv-x="521" d="M345 233q-59 0 -100 -7.5t-65 -20.5t-34.5 -30t-10.5 -37q0 -33 21 -54.5t55 -21.5q29 0 54 13t43 36t27.5 50.5t9.5 56.5v15zM350 0q0 35 1 57.5t4 41.5h-2q-19 -47 -64 -77.5t-105 -30.5q-62 0 -100 37t-38 97q0 81 78.5 126t220.5 45v27q0 58 -24 85.5t-81 27.5 q-34 0 -74.5 -9.5t-76.5 -25.5l-16 70q41 16 87 25.5t90 9.5q52 0 87.5 -11.5t57 -34t31 -54t9.5 -73.5v-190q0 -36 1 -74t2 -69h-88zM250 569l-44 43l129 139l55 -53z" />
<glyph unicode="&#xe2;" horiz-adv-x="521" d="M345 233q-59 0 -100 -7.5t-65 -20.5t-34.5 -30t-10.5 -37q0 -33 21 -54.5t55 -21.5q29 0 54 13t43 36t27.5 50.5t9.5 56.5v15zM350 0q0 35 1 57.5t4 41.5h-2q-19 -47 -64 -77.5t-105 -30.5q-62 0 -100 37t-38 97q0 81 78.5 126t220.5 45v27q0 58 -24 85.5t-81 27.5 q-34 0 -74.5 -9.5t-76.5 -25.5l-16 70q41 16 87 25.5t90 9.5q52 0 87.5 -11.5t57 -34t31 -54t9.5 -73.5v-190q0 -36 1 -74t2 -69h-88zM359 570l-100 85l-102 -85l-37 43l140 131l138 -130z" />
<glyph unicode="&#xe3;" horiz-adv-x="521" d="M345 233q-59 0 -100 -7.5t-65 -20.5t-34.5 -30t-10.5 -37q0 -33 21 -54.5t55 -21.5q29 0 54 13t43 36t27.5 50.5t9.5 56.5v15zM350 0q0 35 1 57.5t4 41.5h-2q-19 -47 -64 -77.5t-105 -30.5q-62 0 -100 37t-38 97q0 81 78.5 126t220.5 45v27q0 58 -24 85.5t-81 27.5 q-34 0 -74.5 -9.5t-76.5 -25.5l-16 70q41 16 87 25.5t90 9.5q52 0 87.5 -11.5t57 -34t31 -54t9.5 -73.5v-190q0 -36 1 -74t2 -69h-88zM426 671q-20 -38 -47.5 -58t-61.5 -20q-22 0 -38.5 7.5t-36 21.5t-29.5 20t-24 6q-33 0 -59 -47l-45 35q20 38 47.5 58t61.5 20 q22 0 38.5 -7t36 -21t29.5 -20t24 -6q34 0 59 46z" />
<glyph unicode="&#xe4;" horiz-adv-x="521" d="M345 233q-59 0 -100 -7.5t-65 -20.5t-34.5 -30t-10.5 -37q0 -33 21 -54.5t55 -21.5q29 0 54 13t43 36t27.5 50.5t9.5 56.5v15zM350 0q0 35 1 57.5t4 41.5h-2q-19 -47 -64 -77.5t-105 -30.5q-62 0 -100 37t-38 97q0 81 78.5 126t220.5 45v27q0 58 -24 85.5t-81 27.5 q-34 0 -74.5 -9.5t-76.5 -25.5l-16 70q41 16 87 25.5t90 9.5q52 0 87.5 -11.5t57 -34t31 -54t9.5 -73.5v-190q0 -36 1 -74t2 -69h-88zM215 654q0 -22 -16 -38t-38 -16t-38 16t-16 38t16 38t38 16t38 -16t16 -38zM407 654q0 -22 -16 -38t-38 -16t-38 16t-16 38t16 38t38 16 t38 -16t16 -38z" />
<glyph unicode="&#xe5;" horiz-adv-x="521" d="M345 233q-59 0 -100 -7.5t-65 -20.5t-34.5 -30t-10.5 -37q0 -33 21 -54.5t55 -21.5q29 0 54 13t43 36t27.5 50.5t9.5 56.5v15zM350 0q0 35 1 57.5t4 41.5h-2q-19 -47 -64 -77.5t-105 -30.5q-62 0 -100 37t-38 97q0 81 78.5 126t220.5 45v27q0 58 -24 85.5t-81 27.5 q-34 0 -74.5 -9.5t-76.5 -25.5l-16 70q41 16 87 25.5t90 9.5q52 0 87.5 -11.5t57 -34t31 -54t9.5 -73.5v-190q0 -36 1 -74t2 -69h-88zM378 670q0 -49 -33.5 -81t-87.5 -32q-53 0 -82 27t-29 79q0 49 33 80.5t87 31.5q53 0 82.5 -26.5t29.5 -78.5zM312 666q0 58 -50 58 q-22 0 -36.5 -15t-14.5 -42q0 -58 50 -58q22 0 36.5 14.5t14.5 42.5z" />
<glyph unicode="&#xe6;" horiz-adv-x="807" d="M345 233q-59 0 -100 -7.5t-65 -20.5t-34.5 -30t-10.5 -37q0 -33 21 -54.5t55 -21.5q29 0 54 13t43 36t27.5 50.5t9.5 56.5v15zM669 310q1 60 -28.5 94t-81.5 34q-49 0 -82.5 -34t-41.5 -94h234zM761 302q0 -27 -3 -56h-324q-3 -93 35 -138t117 -45q37 0 73.5 7t73.5 20 l12 -69q-41 -15 -84 -22.5t-86 -7.5q-82 0 -131.5 31t-68.5 83h-1q-12 -23 -30 -44t-42 -36.5t-53.5 -24.5t-62.5 -9q-63 0 -101.5 37t-38.5 97q0 81 78.5 126t220.5 45v27q0 58 -24 85.5t-81 27.5q-34 0 -74.5 -9.5t-76.5 -25.5l-16 70q41 16 87 25.5t90 9.5q58 0 97 -18.5 t57 -58.5h1q24 35 65 56t94 21q51 0 88.5 -15.5t61.5 -44t35.5 -65t11.5 -79.5z" />
<glyph unicode="&#xe7;" horiz-adv-x="435" d="M407 19q-31 -13 -70.5 -20t-77.5 -7q-47 0 -86 12.5t-69 40t-46.5 74.5t-16.5 113q0 60 15.5 110.5t46 86.5t76 56t104.5 20q33 0 64.5 -5.5t57.5 -15.5l-17 -77q-25 10 -54.5 16t-58.5 6q-33 0 -59 -13.5t-44 -38t-27 -58.5t-9 -75q0 -39 7 -70t23 -54.5t43.5 -36.5 t67.5 -13q65 0 116 24zM274 -40q37 -51 29.5 -98.5t-50.5 -96.5h-73q19 24 31 45t14.5 40.5t-4 38.5t-24.5 41l77 30v0z" />
<glyph unicode="&#xe8;" horiz-adv-x="508" d="M370 305q1 64 -28.5 98.5t-82.5 34.5q-50 0 -83.5 -35t-40.5 -98h235zM462 301q0 -31 -3 -59h-325q-1 -91 36.5 -135t116.5 -44q37 0 73.5 7t73.5 20l12 -69q-41 -15 -84 -22.5t-86 -7.5q-116 0 -175.5 62.5t-59.5 192.5q0 55 15 103t44.5 83t71 54.5t93.5 19.5 q51 0 88.5 -16t61.5 -44t35.5 -65t11.5 -80zM270 569l-140 128l55 54l129 -139z" />
<glyph unicode="&#xe9;" horiz-adv-x="508" d="M370 305q1 64 -28.5 98.5t-82.5 34.5q-50 0 -83.5 -35t-40.5 -98h235zM462 301q0 -31 -3 -59h-325q-1 -91 36.5 -135t116.5 -44q37 0 73.5 7t73.5 20l12 -69q-41 -15 -84 -22.5t-86 -7.5q-116 0 -175.5 62.5t-59.5 192.5q0 55 15 103t44.5 83t71 54.5t93.5 19.5 q51 0 88.5 -16t61.5 -44t35.5 -65t11.5 -80zM252 569l-44 43l129 139l55 -53z" />
<glyph unicode="&#xea;" horiz-adv-x="508" d="M370 305q1 64 -28.5 98.5t-82.5 34.5q-50 0 -83.5 -35t-40.5 -98h235zM462 301q0 -31 -3 -59h-325q-1 -91 36.5 -135t116.5 -44q37 0 73.5 7t73.5 20l12 -69q-41 -15 -84 -22.5t-86 -7.5q-116 0 -175.5 62.5t-59.5 192.5q0 55 15 103t44.5 83t71 54.5t93.5 19.5 q51 0 88.5 -16t61.5 -44t35.5 -65t11.5 -80zM362 570l-100 85l-102 -85l-37 43l140 131l138 -130z" />
<glyph unicode="&#xeb;" horiz-adv-x="508" d="M370 305q1 64 -28.5 98.5t-82.5 34.5q-50 0 -83.5 -35t-40.5 -98h235zM462 301q0 -31 -3 -59h-325q-1 -91 36.5 -135t116.5 -44q37 0 73.5 7t73.5 20l12 -69q-41 -15 -84 -22.5t-86 -7.5q-116 0 -175.5 62.5t-59.5 192.5q0 55 15 103t44.5 83t71 54.5t93.5 19.5 q51 0 88.5 -16t61.5 -44t35.5 -65t11.5 -80zM220 654q0 -22 -16 -38t-38 -16t-38 16t-16 38t16 38t38 16t38 -16t16 -38zM412 654q0 -22 -16 -38t-38 -16t-38 16t-16 38t16 38t38 16t38 -16t16 -38z" />
<glyph unicode="&#xec;" horiz-adv-x="260" d="M85 0v497h90v-497h-90zM120 564l-99 158l69 36l85 -165z" />
<glyph unicode="&#xed;" horiz-adv-x="260" d="M85 0v497h90v-497h-90zM135 568l-52 35l104 152l64 -43z" />
<glyph unicode="&#xee;" horiz-adv-x="260" d="M85 0v497h90v-497h-90zM217 570l-87 85l-88 -85l-37 42l126 131l125 -130z" />
<glyph unicode="&#xef;" horiz-adv-x="260" d="M85 0v497h90v-497h-90zM97 654q0 -22 -15.5 -38t-38.5 -16q-22 0 -38 16t-16 38q0 23 16 38.5t38 15.5q23 0 38.5 -15.5t15.5 -38.5zM272 654q0 -22 -15.5 -38t-38.5 -16q-22 0 -38 16t-16 38q0 23 16 38.5t38 15.5q23 0 38.5 -15.5t15.5 -38.5z" />
<glyph unicode="&#xf0;" horiz-adv-x="546" d="M410 261q0 79 -35.5 124.5t-102.5 45.5q-28 0 -53 -11t-44.5 -33.5t-30.5 -56.5t-11 -79q0 -88 38 -136t105 -48q29 0 53 11t42.5 35t28.5 61t10 87zM503 273q0 -70 -18 -123.5t-50 -88.5t-75 -52.5t-94 -17.5t-92.5 15.5t-71.5 47t-46 79.5t-16 111q0 55 16.5 103 t47.5 83.5t74.5 55t96.5 19.5q34 0 62.5 -11t42.5 -34q-7 13 -16 27.5t-14 23.5q-13 22 -28.5 43t-35.5 43l-102 -46l-38 47l94 42q-16 14 -34 28.5t-47 37.5l90 38q21 -17 39.5 -33.5t35.5 -34.5l100 44l39 -47l-97 -42q66 -80 101.5 -171t35.5 -187z" />
<glyph unicode="&#xf1;" horiz-adv-x="575" d="M401 0v320q0 56 -19 84t-66 28q-30 0 -56 -14.5t-45 -41t-29.5 -62t-10.5 -76.5v-238h-90v497h87q0 -26 -2 -55t-6 -50h2q22 53 67.5 83.5t107.5 30.5q41 0 70.5 -12t47 -33.5t25 -50t7.5 -63.5v-347h-90zM462 671q-20 -38 -47.5 -58t-61.5 -20q-22 0 -38.5 7.5t-36 21.5 t-29.5 20t-24 6q-33 0 -59 -47l-45 35q20 38 47.5 58t61.5 20q22 0 38.5 -7t36 -21t29.5 -20t24 -6q34 0 59 46z" />
<glyph unicode="&#xf2;" horiz-adv-x="545" d="M412 249q0 87 -36.5 134.5t-101.5 47.5q-32 0 -58 -11.5t-44.5 -34.5t-28.5 -57.5t-10 -79.5q0 -87 36.5 -134t102.5 -47q30 0 55.5 11t44.5 33.5t29.5 57t10.5 80.5zM505 256q0 -56 -15.5 -104.5t-46.5 -84.5t-76.5 -56t-102.5 -20q-51 0 -92.5 15.5t-71 46.5t-45 78 t-15.5 110q0 56 15.5 104.5t46.5 84.5t76.5 56t103.5 20q51 0 92 -15.5t70.5 -46.5t45 -78t15.5 -110zM286 569l-140 128l55 54l129 -139z" />
<glyph unicode="&#xf3;" horiz-adv-x="545" d="M412 249q0 87 -36.5 134.5t-101.5 47.5q-32 0 -58 -11.5t-44.5 -34.5t-28.5 -57.5t-10 -79.5q0 -87 36.5 -134t102.5 -47q30 0 55.5 11t44.5 33.5t29.5 57t10.5 80.5zM505 256q0 -56 -15.5 -104.5t-46.5 -84.5t-76.5 -56t-102.5 -20q-51 0 -92.5 15.5t-71 46.5t-45 78 t-15.5 110q0 56 15.5 104.5t46.5 84.5t76.5 56t103.5 20q51 0 92 -15.5t70.5 -46.5t45 -78t15.5 -110zM266 569l-44 43l129 139l55 -53z" />
<glyph unicode="&#xf4;" horiz-adv-x="545" d="M412 249q0 87 -36.5 134.5t-101.5 47.5q-32 0 -58 -11.5t-44.5 -34.5t-28.5 -57.5t-10 -79.5q0 -87 36.5 -134t102.5 -47q30 0 55.5 11t44.5 33.5t29.5 57t10.5 80.5zM505 256q0 -56 -15.5 -104.5t-46.5 -84.5t-76.5 -56t-102.5 -20q-51 0 -92.5 15.5t-71 46.5t-45 78 t-15.5 110q0 56 15.5 104.5t46.5 84.5t76.5 56t103.5 20q51 0 92 -15.5t70.5 -46.5t45 -78t15.5 -110zM375 570l-100 85l-102 -85l-37 43l140 131l138 -130z" />
<glyph unicode="&#xf5;" horiz-adv-x="545" d="M412 249q0 87 -36.5 134.5t-101.5 47.5q-32 0 -58 -11.5t-44.5 -34.5t-28.5 -57.5t-10 -79.5q0 -87 36.5 -134t102.5 -47q30 0 55.5 11t44.5 33.5t29.5 57t10.5 80.5zM505 256q0 -56 -15.5 -104.5t-46.5 -84.5t-76.5 -56t-102.5 -20q-51 0 -92.5 15.5t-71 46.5t-45 78 t-15.5 110q0 56 15.5 104.5t46.5 84.5t76.5 56t103.5 20q51 0 92 -15.5t70.5 -46.5t45 -78t15.5 -110zM449 671q-20 -38 -47.5 -58t-61.5 -20q-22 0 -38.5 7.5t-36 21.5t-29.5 20t-24 6q-33 0 -59 -47l-45 35q20 38 47.5 58t61.5 20q22 0 38.5 -7t36 -21t29.5 -20t24 -6 q34 0 59 46z" />
<glyph unicode="&#xf6;" horiz-adv-x="545" d="M412 249q0 87 -36.5 134.5t-101.5 47.5q-32 0 -58 -11.5t-44.5 -34.5t-28.5 -57.5t-10 -79.5q0 -87 36.5 -134t102.5 -47q30 0 55.5 11t44.5 33.5t29.5 57t10.5 80.5zM505 256q0 -56 -15.5 -104.5t-46.5 -84.5t-76.5 -56t-102.5 -20q-51 0 -92.5 15.5t-71 46.5t-45 78 t-15.5 110q0 56 15.5 104.5t46.5 84.5t76.5 56t103.5 20q51 0 92 -15.5t70.5 -46.5t45 -78t15.5 -110zM233 654q0 -22 -16 -38t-38 -16t-38 16t-16 38t16 38t38 16t38 -16t16 -38zM425 654q0 -22 -16 -38t-38 -16t-38 16t-16 38t16 38t38 16t38 -16t16 -38z" />
<glyph unicode="&#xf7;" d="M334 96q0 -26 -17.5 -43.5t-42.5 -17.5q-26 0 -43.5 17.5t-17.5 43.5q0 25 17.5 42.5t43.5 17.5q25 0 42.5 -17.5t17.5 -42.5zM42 260v75h466v-75h-466zM334 498q0 -25 -17.5 -42.5t-42.5 -17.5q-26 0 -43.5 17.5t-17.5 42.5t17.5 42.5t43.5 17.5q25 0 42.5 -17.5 t17.5 -42.5z" />
<glyph unicode="&#xf8;" horiz-adv-x="545" d="M505 256q0 -56 -15.5 -104.5t-46.5 -84.5t-76.5 -56t-102.5 -20q-24 0 -46 3.5t-40 10.5l-49 -94l-56 26l51 95q-41 31 -62.5 83t-21.5 126q0 56 15.5 104.5t46.5 84.5t76.5 56t103.5 20q49 0 85 -14l49 94l56 -26l-50 -95q16 -12 29 -27.5t23 -34.5t17 -41.5t10.5 -49 t3.5 -56.5zM418 249q0 23 -3 44t-8 38.5t-12 31.5t-14 24l-166 -313q26 -12 56 -12q33 0 60.5 12t46.5 36t29.5 59t10.5 80zM330 423q-26 12 -56 12q-33 0 -60 -12t-46.5 -36t-29.5 -59t-10 -80q0 -19 2 -36.5t5.5 -32.5t8 -27.5t10 -23t11.5 -18.5z" />
<glyph unicode="&#xf9;" horiz-adv-x="575" d="M403 0q0 26 2 55t6 50h-2q-22 -53 -67.5 -83.5t-107.5 -30.5q-41 0 -70 12t-46.5 33.5t-25 50t-7.5 63.5v347h89v-320q0 -56 19 -84t66 -28q30 0 56 14.5t45 41t29.5 62t10.5 76.5v238h90v-497h-87zM291 569l-140 128l55 54l129 -139z" />
<glyph unicode="&#xfa;" horiz-adv-x="575" d="M403 0q0 26 2 55t6 50h-2q-22 -53 -67.5 -83.5t-107.5 -30.5q-41 0 -70 12t-46.5 33.5t-25 50t-7.5 63.5v347h89v-320q0 -56 19 -84t66 -28q30 0 56 14.5t45 41t29.5 62t10.5 76.5v238h90v-497h-87zM286 569l-44 43l129 139l55 -53z" />
<glyph unicode="&#xfb;" horiz-adv-x="575" d="M403 0q0 26 2 55t6 50h-2q-22 -53 -67.5 -83.5t-107.5 -30.5q-41 0 -70 12t-46.5 33.5t-25 50t-7.5 63.5v347h89v-320q0 -56 19 -84t66 -28q30 0 56 14.5t45 41t29.5 62t10.5 76.5v238h90v-497h-87zM388 570l-100 85l-102 -85l-37 43l140 131l138 -130z" />
<glyph unicode="&#xfc;" horiz-adv-x="575" d="M403 0q0 26 2 55t6 50h-2q-22 -53 -67.5 -83.5t-107.5 -30.5q-41 0 -70 12t-46.5 33.5t-25 50t-7.5 63.5v347h89v-320q0 -56 19 -84t66 -28q30 0 56 14.5t45 41t29.5 62t10.5 76.5v238h90v-497h-87zM245 654q0 -22 -16 -38t-38 -16t-38 16t-16 38t16 38t38 16t38 -16 t16 -38zM437 654q0 -22 -16 -38t-38 -16t-38 16t-16 38t16 38t38 16t38 -16t16 -38z" />
<glyph unicode="&#xfd;" horiz-adv-x="480" d="M272 -42q-22 -60 -46 -100.5t-52.5 -65.5t-62.5 -36t-77 -11q-17 0 -33 2t-23 4l9 78q7 -2 24 -5t35 -3q21 0 39 6t33.5 20.5t30 38.5t28.5 60l20 54l-188 497h103l94 -260q10 -30 20.5 -64.5t18.5 -62.5h1q3 13 8 29.5t11 36t15 45.5t14 43l80 233h97zM244 569l-44 43 l129 139l55 -53z" />
<glyph unicode="&#xfe;" horiz-adv-x="558" d="M421 264q0 82 -27.5 125t-82.5 43q-32 0 -58 -17t-43 -45.5t-26 -62t-9 -67.5v-164q39 -12 88 -12q36 0 65 11.5t50 35.5t32 62.5t11 90.5zM515 272q0 -132 -67.5 -205t-188.5 -73q-25 0 -44.5 1t-39.5 5v-247h-90v977h90v-218q0 -29 -1.5 -60.5t-4.5 -50.5l2 -1 q20 49 62.5 77.5t99.5 28.5q87 0 134.5 -60.5t47.5 -173.5z" />
<glyph unicode="&#xff;" horiz-adv-x="480" d="M272 -42q-22 -60 -46 -100.5t-52.5 -65.5t-62.5 -36t-77 -11q-17 0 -33 2t-23 4l9 78q7 -2 24 -5t35 -3q21 0 39 6t33.5 20.5t30 38.5t28.5 60l20 54l-188 497h103l94 -260q10 -30 20.5 -64.5t18.5 -62.5h1q3 13 8 29.5t11 36t15 45.5t14 43l80 233h97zM201 654 q0 -22 -16 -38t-38 -16t-38 16t-16 38t16 38t38 16t38 -16t16 -38zM393 654q0 -22 -16 -38t-38 -16t-38 16t-16 38t16 38t38 16t38 -16t16 -38z" />
<glyph unicode="&#x100;" horiz-adv-x="615" d="M333 493q-7 21 -14.5 46t-14.5 49h-1q-5 -20 -11.5 -41t-16.5 -53l-92 -260h242zM502 0l-55 161h-287l-56 -161h-94l242 675h112l241 -675h-103zM168 748v62h276v-62h-276z" />
<glyph unicode="&#x101;" horiz-adv-x="521" d="M345 233q-59 0 -100 -7.5t-65 -20.5t-34.5 -30t-10.5 -37q0 -33 21 -54.5t55 -21.5q29 0 54 13t43 36t27.5 50.5t9.5 56.5v15zM350 0q0 35 1 57.5t4 41.5h-2q-19 -47 -64 -77.5t-105 -30.5q-62 0 -100 37t-38 97q0 81 78.5 126t220.5 45v27q0 58 -24 85.5t-81 27.5 q-34 0 -74.5 -9.5t-76.5 -25.5l-16 70q41 16 87 25.5t90 9.5q52 0 87.5 -11.5t57 -34t31 -54t9.5 -73.5v-190q0 -36 1 -74t2 -69h-88zM132 616v68h252v-68h-252z" />
<glyph unicode="&#x102;" horiz-adv-x="615" d="M333 493q-7 21 -14.5 46t-14.5 49h-1q-5 -20 -11.5 -41t-16.5 -53l-92 -260h242zM502 0l-55 161h-287l-56 -161h-94l242 675h112l241 -675h-103zM434 852q0 -52 -34.5 -87t-96.5 -35q-32 0 -55.5 9.5t-40 26t-24.5 39t-8 47.5h58q0 -26 20 -43.5t52 -17.5t51 17.5 t19 43.5h59z" />
<glyph unicode="&#x103;" horiz-adv-x="521" d="M345 233q-59 0 -100 -7.5t-65 -20.5t-34.5 -30t-10.5 -37q0 -33 21 -54.5t55 -21.5q29 0 54 13t43 36t27.5 50.5t9.5 56.5v15zM350 0q0 35 1 57.5t4 41.5h-2q-19 -47 -64 -77.5t-105 -30.5q-62 0 -100 37t-38 97q0 81 78.5 126t220.5 45v27q0 58 -24 85.5t-81 27.5 q-34 0 -74.5 -9.5t-76.5 -25.5l-16 70q41 16 87 25.5t90 9.5q52 0 87.5 -11.5t57 -34t31 -54t9.5 -73.5v-190q0 -36 1 -74t2 -69h-88zM386 718q0 -27 -7.5 -51.5t-23 -43t-39.5 -29.5t-57 -11t-56.5 11t-38 30t-21.5 43t-7 51h61q0 -28 16 -48t47 -20q29 0 46.5 17.5 t17.5 50.5h62v0z" />
<glyph unicode="&#x104;" horiz-adv-x="615" d="M333 493q-7 21 -14.5 46t-14.5 49h-1q-5 -20 -11.5 -41t-16.5 -53l-92 -260h242zM639 -190q-49 -44 -113 -44q-50 0 -78.5 24.5t-28.5 66.5q0 37 20.5 74t62.5 69l-55 161h-287l-56 -161h-94l242 675h112l241 -675q-54 -31 -77 -63t-23 -62q0 -20 10.5 -30t29.5 -10 q31 0 66 26z" />
<glyph unicode="&#x105;" horiz-adv-x="521" d="M491 -190q-24 -22 -52.5 -33t-59.5 -11q-25 0 -45 6.5t-34 18t-21.5 28.5t-7.5 38q0 19 5.5 38t17 38t28.5 37.5t40 36.5q-4 23 -5.5 46.5t-0.5 42.5l-2 1q-10 -23 -26.5 -42t-38.5 -33.5t-48.5 -22.5t-56.5 -8t-55.5 9.5t-44 27.5t-28.5 42.5t-10 54.5q0 40 20 71.5 t58.5 54t94 34t126.5 11.5v27q0 58 -24 85.5t-81 27.5q-34 0 -74.5 -9.5t-76.5 -25.5l-16 70q41 16 87 25.5t90 9.5q52 0 87.5 -11.5t57 -34t31 -54t9.5 -73.5v-157q0 -45 3.5 -91t10.5 -85q-50 -35 -71 -65.5t-21 -59.5q0 -40 40 -40q16 0 32 6.5t34 19.5zM345 233 q-59 0 -100 -7.5t-65 -20.5t-34.5 -30t-10.5 -37q0 -33 21 -54.5t55 -21.5q29 0 54 13t43 36t27.5 50.5t9.5 56.5v15z" />
<glyph unicode="&#x106;" horiz-adv-x="583" d="M538 28q-40 -17 -88 -26.5t-97 -9.5q-79 0 -137.5 24.5t-96 68.5t-55.5 104t-18 132q0 79 20 144.5t60.5 114t103.5 75t146 26.5q39 0 80 -5.5t75 -15.5l-15 -84q-36 12 -74 19t-75 7q-57 0 -99 -20t-69.5 -56.5t-40.5 -84.5t-13 -105q0 -127 56.5 -194.5t170.5 -67.5 q37 0 78 9t73 24zM307 725l-17 52l182 74l25 -70z" />
<glyph unicode="&#x107;" horiz-adv-x="435" d="M407 19q-31 -13 -70.5 -20t-77.5 -7q-47 0 -86 12.5t-69 40t-46.5 74.5t-16.5 113q0 60 15.5 110.5t46 86.5t76 56t104.5 20q33 0 64.5 -5.5t57.5 -15.5l-17 -77q-25 10 -54.5 16t-58.5 6q-33 0 -59 -13.5t-44 -38t-27 -58.5t-9 -75q0 -39 7 -70t23 -54.5t43.5 -36.5 t67.5 -13q65 0 116 24zM244 569l-44 43l129 139l55 -53z" />
<glyph unicode="&#x108;" horiz-adv-x="583" d="M538 28q-40 -17 -88 -26.5t-97 -9.5q-79 0 -137.5 24.5t-96 68.5t-55.5 104t-18 132q0 79 20 144.5t60.5 114t103.5 75t146 26.5q39 0 80 -5.5t75 -15.5l-15 -84q-36 12 -74 19t-75 7q-57 0 -99 -20t-69.5 -56.5t-40.5 -84.5t-13 -105q0 -127 56.5 -194.5t170.5 -67.5 q37 0 78 9t73 24zM483 724l-133 60l-135 -60l-24 50l160 83l158 -81z" />
<glyph unicode="&#x109;" horiz-adv-x="435" d="M407 19q-31 -13 -70.5 -20t-77.5 -7q-47 0 -86 12.5t-69 40t-46.5 74.5t-16.5 113q0 60 15.5 110.5t46 86.5t76 56t104.5 20q33 0 64.5 -5.5t57.5 -15.5l-17 -77q-25 10 -54.5 16t-58.5 6q-33 0 -59 -13.5t-44 -38t-27 -58.5t-9 -75q0 -39 7 -70t23 -54.5t43.5 -36.5 t67.5 -13q65 0 116 24zM359 570l-100 85l-102 -85l-37 43l140 131l138 -130z" />
<glyph unicode="&#x10a;" horiz-adv-x="583" d="M538 28q-40 -17 -88 -26.5t-97 -9.5q-79 0 -137.5 24.5t-96 68.5t-55.5 104t-18 132q0 79 20 144.5t60.5 114t103.5 75t146 26.5q39 0 80 -5.5t75 -15.5l-15 -84q-36 12 -74 19t-75 7q-57 0 -99 -20t-69.5 -56.5t-40.5 -84.5t-13 -105q0 -127 56.5 -194.5t170.5 -67.5 q37 0 78 9t73 24zM410 785q0 -24 -17 -41t-41 -17t-41 17t-17 41t17 41t41 17t41 -16.5t17 -41.5z" />
<glyph unicode="&#x10b;" horiz-adv-x="435" d="M407 19q-31 -13 -70.5 -20t-77.5 -7q-47 0 -86 12.5t-69 40t-46.5 74.5t-16.5 113q0 60 15.5 110.5t46 86.5t76 56t104.5 20q33 0 64.5 -5.5t57.5 -15.5l-17 -77q-25 10 -54.5 16t-58.5 6q-33 0 -59 -13.5t-44 -38t-27 -58.5t-9 -75q0 -39 7 -70t23 -54.5t43.5 -36.5 t67.5 -13q65 0 116 24zM318 654q0 -24 -17 -41t-41 -17t-41 16.5t-17 41.5q0 24 17 41t41 17t41 -17t17 -41z" />
<glyph unicode="&#x10c;" horiz-adv-x="583" d="M538 28q-40 -17 -88 -26.5t-97 -9.5q-79 0 -137.5 24.5t-96 68.5t-55.5 104t-18 132q0 79 20 144.5t60.5 114t103.5 75t146 26.5q39 0 80 -5.5t75 -15.5l-15 -84q-36 12 -74 19t-75 7q-57 0 -99 -20t-69.5 -56.5t-40.5 -84.5t-13 -105q0 -127 56.5 -194.5t170.5 -67.5 q37 0 78 9t73 24zM346 724l-157 82l25 51l134 -60l135 60l24 -50z" />
<glyph unicode="&#x10d;" horiz-adv-x="435" d="M407 19q-31 -13 -70.5 -20t-77.5 -7q-47 0 -86 12.5t-69 40t-46.5 74.5t-16.5 113q0 60 15.5 110.5t46 86.5t76 56t104.5 20q33 0 64.5 -5.5t57.5 -15.5l-17 -77q-25 10 -54.5 16t-58.5 6q-33 0 -59 -13.5t-44 -38t-27 -58.5t-9 -75q0 -39 7 -70t23 -54.5t43.5 -36.5 t67.5 -13q65 0 116 24zM263 570l-139 130l39 44l100 -85l101 85l38 -43z" />
<glyph unicode="&#x10e;" horiz-adv-x="678" d="M535 339q0 130 -63.5 197t-193.5 67q-22 0 -55 -1t-46 -2v-520q18 -3 42.5 -4.5t46.5 -1.5q60 0 109.5 16t85 48.5t55 83t19.5 117.5zM632 345q0 -85 -27 -150.5t-77.5 -110t-119.5 -66.5t-152 -22q-36 0 -92 2t-79 2v674q55 1 106 2.5t96 1.5q82 0 146 -19.5 t108.5 -60.5t67.5 -104t23 -149zM298 724l-157 82l25 51l134 -60l135 60l24 -50z" />
<glyph unicode="&#x10f;" horiz-adv-x="589" d="M384 422q-24 5 -46 8t-43 3q-36 0 -65 -11.5t-49.5 -35.5t-31.5 -62t-11 -91q0 -82 27 -125t82 -43q33 0 58.5 17t43 45.5t26.5 62t9 67.5v165zM386 0q0 25 2 53t6 48l-2 1q-21 -51 -64.5 -81t-101.5 -30q-91 0 -137 61.5t-46 172.5q0 65 18 116.5t51.5 88t81 55.5 t106.5 19q19 0 38.5 -1t45.5 -4v231h89v-730h-87zM582 565l-60 16l55 181l75 -20z" />
<glyph unicode="&#x110;" horiz-adv-x="687" d="M544 339q0 130 -64 197t-194 67q-22 0 -55 -1t-46 -2v-218h143v-70h-143v-232q18 -3 42.5 -4.5t46.5 -1.5q61 0 110 16t85 48.5t55.5 83t19.5 117.5zM641 345q0 -84 -27 -149.5t-77 -109.5t-119.5 -67t-153.5 -23q-36 0 -92 2t-78 2v312h-91v70h91v292q55 1 106 2.5 t95 1.5q82 0 146 -19.5t109 -60.5t68 -104t23 -149z" />
<glyph unicode="&#x111;" horiz-adv-x="558" d="M384 422q-49 11 -89 11q-36 0 -65 -11.5t-49.5 -35.5t-31.5 -62t-11 -91q0 -82 27 -125t82 -43q33 0 58.5 17t43 45.5t26.5 62t9 67.5v165zM473 591v-591h-87q0 25 2 53t6 48l-2 1q-21 -51 -64.5 -81t-101.5 -30q-91 0 -137 61.5t-46 172.5q0 65 18 116.5t51.5 88 t81 55.5t106.5 19q19 0 38.5 -1t45.5 -4v92h-117v61h117v78h89v-78h71v-61h-71z" />
<glyph unicode="&#x112;" horiz-adv-x="513" d="M85 0v675h360v-76h-268v-214h246v-74h-246v-234h268v-77h-360zM121 748v62h276v-62h-276z" />
<glyph unicode="&#x113;" horiz-adv-x="508" d="M370 305q1 64 -28.5 98.5t-82.5 34.5q-50 0 -83.5 -35t-40.5 -98h235zM462 301q0 -31 -3 -59h-325q-1 -91 36.5 -135t116.5 -44q37 0 73.5 7t73.5 20l12 -69q-41 -15 -84 -22.5t-86 -7.5q-116 0 -175.5 62.5t-59.5 192.5q0 55 15 103t44.5 83t71 54.5t93.5 19.5 q51 0 88.5 -16t61.5 -44t35.5 -65t11.5 -80zM132 616v68h252v-68h-252z" />
<glyph unicode="&#x114;" horiz-adv-x="513" d="M85 0v675h360v-76h-268v-214h246v-74h-246v-234h268v-77h-360zM391 852q0 -52 -34.5 -87t-96.5 -35q-32 0 -55.5 9.5t-40 26t-24.5 39t-8 47.5h58q0 -26 20 -43.5t52 -17.5t51 17.5t19 43.5h59z" />
<glyph unicode="&#x115;" horiz-adv-x="508" d="M370 305q1 64 -28.5 98.5t-82.5 34.5q-50 0 -83.5 -35t-40.5 -98h235zM462 301q0 -31 -3 -59h-325q-1 -91 36.5 -135t116.5 -44q37 0 73.5 7t73.5 20l12 -69q-41 -15 -84 -22.5t-86 -7.5q-116 0 -175.5 62.5t-59.5 192.5q0 55 15 103t44.5 83t71 54.5t93.5 19.5 q51 0 88.5 -16t61.5 -44t35.5 -65t11.5 -80zM383 718q0 -27 -7.5 -51.5t-23 -43t-39.5 -29.5t-57 -11t-56.5 11t-38 30t-21.5 43t-7 51h61q0 -28 16 -48t47 -20q29 0 46.5 17.5t17.5 50.5h62v0z" />
<glyph unicode="&#x116;" horiz-adv-x="513" d="M85 0v675h360v-76h-268v-214h246v-74h-246v-234h268v-77h-360zM320 785q0 -24 -17 -41t-41 -17t-41 17t-17 41t17 41t41 17t41 -16.5t17 -41.5z" />
<glyph unicode="&#x117;" horiz-adv-x="508" d="M370 305q1 64 -28.5 98.5t-82.5 34.5q-50 0 -83.5 -35t-40.5 -98h235zM462 301q0 -31 -3 -59h-325q-1 -91 36.5 -135t116.5 -44q37 0 73.5 7t73.5 20l12 -69q-41 -15 -84 -22.5t-86 -7.5q-116 0 -175.5 62.5t-59.5 192.5q0 55 15 103t44.5 83t71 54.5t93.5 19.5 q51 0 88.5 -16t61.5 -44t35.5 -65t11.5 -80zM320 657q0 -24 -17 -41t-41 -17t-41 16.5t-17 41.5q0 24 17 41t41 17t41 -17t17 -41z" />
<glyph unicode="&#x118;" horiz-adv-x="513" d="M471 -190q-49 -44 -113 -44q-50 0 -78.5 24.5t-28.5 66.5q0 40 24.5 80t61.5 63h-252v675h360v-76h-268v-214h246v-74h-246v-234h268v-74q-23 -8 -43 -22.5t-34.5 -32.5t-22.5 -37t-8 -36q0 -40 40 -40q29 0 66 26z" />
<glyph unicode="&#x119;" horiz-adv-x="508" d="M370 305q1 64 -28.5 98.5t-82.5 34.5q-50 0 -83.5 -35t-40.5 -98h235zM443 -190q-49 -44 -112 -44q-51 0 -79.5 24.5t-28.5 66.5q0 36 20 72.5t57 64.5q-20 -2 -35 -2q-50 0 -90.5 14t-70.5 44.5t-46.5 79t-16.5 116.5q0 55 15 103t44.5 83t71 54.5t93.5 19.5 q51 0 88.5 -16t61.5 -44t35.5 -65t11.5 -80q0 -28 -3 -59h-325q-1 -91 36.5 -135t116.5 -44q37 0 73.5 7t73.5 20l12 -68q-26 -9 -50.5 -25t-44 -36t-31 -42.5t-11.5 -43.5q0 -40 40 -40q31 0 66 26z" />
<glyph unicode="&#x11a;" horiz-adv-x="513" d="M85 0v675h360v-76h-268v-214h246v-74h-246v-234h268v-77h-360zM256 724l-157 82l25 51l134 -60l135 60l24 -50z" />
<glyph unicode="&#x11b;" horiz-adv-x="508" d="M370 305q1 64 -28.5 98.5t-82.5 34.5q-50 0 -83.5 -35t-40.5 -98h235zM462 301q0 -31 -3 -59h-325q-1 -91 36.5 -135t116.5 -44q37 0 73.5 7t73.5 20l12 -69q-41 -15 -84 -22.5t-86 -7.5q-116 0 -175.5 62.5t-59.5 192.5q0 55 15 103t44.5 83t71 54.5t93.5 19.5 q51 0 88.5 -16t61.5 -44t35.5 -65t11.5 -80zM261 570l-139 130l39 44l100 -85l101 85l38 -43z" />
<glyph unicode="&#x11c;" horiz-adv-x="682" d="M601 30q-50 -19 -108.5 -29t-114.5 -10q-79 0 -141 22.5t-105.5 65.5t-66 104t-22.5 138q0 80 23.5 146.5t69.5 115t114 75t156 26.5q48 0 95 -7.5t92 -21.5l-20 -83q-42 16 -86.5 24.5t-89.5 8.5q-66 0 -115 -21.5t-80 -59t-46 -86t-15 -103.5q0 -63 17 -112t49 -83 t78.5 -51.5t105.5 -17.5q32 0 61 4.5t58 13.5v255h91v-314zM514 724l-133 60l-135 -60l-24 50l160 83l158 -81z" />
<glyph unicode="&#x11d;" horiz-adv-x="534" d="M261 506q37 0 72 -9h167v-71h-73q7 -11 16.5 -32t9.5 -56q0 -40 -12.5 -73.5t-38.5 -58t-64 -39t-88 -14.5q-29 0 -53 4q-27 -19 -27 -40q0 -16 16.5 -26t60.5 -11l80 -3q91 -3 135 -41t44 -105q0 -40 -18 -74.5t-51.5 -59t-81.5 -39t-107 -14.5q-98 0 -155 38t-57 109 q0 22 7 41t18.5 36.5t26.5 31.5t33 26q-17 9 -30.5 25.5t-14.5 46.5q0 25 14.5 46.5t41.5 38.5q-17 10 -34.5 28.5t-28.5 47.5t-11 62q0 39 13 73t38.5 58.5t63.5 39t88 14.5zM145 -40q-17 -25 -17 -53q0 -46 36 -69.5t98 -23.5q77 0 115 29.5t38 75.5q0 36 -25 58.5 t-88 24.5l-83 3q-14 0 -26 1q-32 -21 -48 -46zM366 329q0 48 -29 79t-81 31q-53 0 -82 -31t-29 -79t29 -79t82 -31q52 0 81 31t29 79zM359 570l-100 85l-102 -85l-37 43l140 131l138 -130z" />
<glyph unicode="&#x11e;" horiz-adv-x="682" d="M601 30q-50 -19 -108.5 -29t-114.5 -10q-79 0 -141 22.5t-105.5 65.5t-66 104t-22.5 138q0 80 23.5 146.5t69.5 115t114 75t156 26.5q48 0 95 -7.5t92 -21.5l-20 -83q-42 16 -86.5 24.5t-89.5 8.5q-66 0 -115 -21.5t-80 -59t-46 -86t-15 -103.5q0 -63 17 -112t49 -83 t78.5 -51.5t105.5 -17.5q32 0 61 4.5t58 13.5v255h91v-314zM516 852q0 -52 -34.5 -87t-96.5 -35q-32 0 -55.5 9.5t-40 26t-24.5 39t-8 47.5h58q0 -26 20 -43.5t52 -17.5t51 17.5t19 43.5h59z" />
<glyph unicode="&#x11f;" horiz-adv-x="534" d="M261 506q37 0 72 -9h167v-71h-73q7 -11 16.5 -32t9.5 -56q0 -40 -12.5 -73.5t-38.5 -58t-64 -39t-88 -14.5q-29 0 -53 4q-27 -19 -27 -40q0 -16 16.5 -26t60.5 -11l80 -3q91 -3 135 -41t44 -105q0 -40 -18 -74.5t-51.5 -59t-81.5 -39t-107 -14.5q-98 0 -155 38t-57 109 q0 22 7 41t18.5 36.5t26.5 31.5t33 26q-17 9 -30.5 25.5t-14.5 46.5q0 25 14.5 46.5t41.5 38.5q-17 10 -34.5 28.5t-28.5 47.5t-11 62q0 39 13 73t38.5 58.5t63.5 39t88 14.5zM145 -40q-17 -25 -17 -53q0 -46 36 -69.5t98 -23.5q77 0 115 29.5t38 75.5q0 36 -25 58.5 t-88 24.5l-83 3q-14 0 -26 1q-32 -21 -48 -46zM366 329q0 48 -29 79t-81 31q-53 0 -82 -31t-29 -79t29 -79t82 -31q52 0 81 31t29 79zM390 718q0 -27 -7.5 -51.5t-23 -43t-39.5 -29.5t-57 -11t-56.5 11t-38 30t-21.5 43t-7 51h61q0 -28 16 -48t47 -20q29 0 46.5 17.5 t17.5 50.5h62v0z" />
<glyph unicode="&#x120;" horiz-adv-x="682" d="M601 30q-50 -19 -108.5 -29t-114.5 -10q-79 0 -141 22.5t-105.5 65.5t-66 104t-22.5 138q0 80 23.5 146.5t69.5 115t114 75t156 26.5q48 0 95 -7.5t92 -21.5l-20 -83q-42 16 -86.5 24.5t-89.5 8.5q-66 0 -115 -21.5t-80 -59t-46 -86t-15 -103.5q0 -63 17 -112t49 -83 t78.5 -51.5t105.5 -17.5q32 0 61 4.5t58 13.5v255h91v-314zM437 788q0 -24 -17 -41t-41 -17t-41 17t-17 41t17 41t41 17t41 -16.5t17 -41.5z" />
<glyph unicode="&#x121;" horiz-adv-x="534" d="M261 506q37 0 72 -9h167v-71h-73q7 -11 16.5 -32t9.5 -56q0 -40 -12.5 -73.5t-38.5 -58t-64 -39t-88 -14.5q-29 0 -53 4q-27 -19 -27 -40q0 -16 16.5 -26t60.5 -11l80 -3q91 -3 135 -41t44 -105q0 -40 -18 -74.5t-51.5 -59t-81.5 -39t-107 -14.5q-98 0 -155 38t-57 109 q0 22 7 41t18.5 36.5t26.5 31.5t33 26q-17 9 -30.5 25.5t-14.5 46.5q0 25 14.5 46.5t41.5 38.5q-17 10 -34.5 28.5t-28.5 47.5t-11 62q0 39 13 73t38.5 58.5t63.5 39t88 14.5zM145 -40q-17 -25 -17 -53q0 -46 36 -69.5t98 -23.5q77 0 115 29.5t38 75.5q0 36 -25 58.5 t-88 24.5l-83 3q-14 0 -26 1q-32 -21 -48 -46zM366 329q0 48 -29 79t-81 31q-53 0 -82 -31t-29 -79t29 -79t82 -31q52 0 81 31t29 79zM316 657q0 -24 -17 -41t-41 -17t-41 16.5t-17 41.5q0 24 17 41t41 17t41 -17t17 -41z" />
<glyph unicode="&#x122;" horiz-adv-x="682" d="M601 30q-50 -19 -108.5 -29t-114.5 -10q-79 0 -141 22.5t-105.5 65.5t-66 104t-22.5 138q0 80 23.5 146.5t69.5 115t114 75t156 26.5q48 0 95 -7.5t92 -21.5l-20 -83q-42 16 -86.5 24.5t-89.5 8.5q-66 0 -115 -21.5t-80 -59t-46 -86t-15 -103.5q0 -63 17 -112t49 -83 t78.5 -51.5t105.5 -17.5q32 0 61 4.5t58 13.5v255h91v-314zM371 -49q24 0 37.5 -16.5t13.5 -40.5q0 -32 -24 -66.5t-86 -67.5l-23 34q27 20 37 36.5t10 30.5q0 8 -2 13t-4 9.5l-4 9t-2 12.5q0 18 12 32t35 14z" />
<glyph unicode="&#x123;" horiz-adv-x="534" d="M261 506q37 0 72 -9h167v-71h-73q7 -11 16.5 -32t9.5 -56q0 -40 -12.5 -73.5t-38.5 -58t-64 -39t-88 -14.5q-29 0 -53 4q-27 -19 -27 -40q0 -16 16.5 -26t60.5 -11l80 -3q91 -3 135 -41t44 -105q0 -40 -18 -74.5t-51.5 -59t-81.5 -39t-107 -14.5q-98 0 -155 38t-57 109 q0 22 7 41t18.5 36.5t26.5 31.5t33 26q-17 9 -30.5 25.5t-14.5 46.5q0 25 14.5 46.5t41.5 38.5q-17 10 -34.5 28.5t-28.5 47.5t-11 62q0 39 13 73t38.5 58.5t63.5 39t88 14.5zM145 -40q-17 -25 -17 -53q0 -46 36 -69.5t98 -23.5q77 0 115 29.5t38 75.5q0 36 -25 58.5 t-88 24.5l-83 3q-14 0 -26 1q-32 -21 -48 -46zM366 329q0 48 -29 79t-81 31q-53 0 -82 -31t-29 -79t29 -79t82 -31q52 0 81 31t29 79zM256 566q-23 0 -38 18t-12.5 48.5t29.5 63.5t80 61l23 -34q-21 -15 -30.5 -27.5t-13 -24t-2 -21t5.5 -17.5q6 -10 6 -22.5t-6 -22.5 t-17.5 -16t-24.5 -6z" />
<glyph unicode="&#x124;" horiz-adv-x="698" d="M521 0v311h-344v-311h-92v675h92v-286h344v286h92v-675h-92zM483 724l-133 60l-135 -60l-24 50l160 83l158 -81z" />
<glyph unicode="&#x125;" horiz-adv-x="575" d="M401 0v320q0 56 -19 84t-66 28q-30 0 -56 -14.5t-45 -41t-29.5 -62t-10.5 -76.5v-238h-90v730h90v-236q0 -28 -2 -54t-7 -45l2 -1q22 52 67 82t106 30q41 0 70.5 -12t47 -33.5t25 -50t7.5 -63.5v-347h-90zM419 757l-133 60l-135 -60l-24 50l160 83l158 -81z" />
<glyph unicode="&#x126;" horiz-adv-x="718" d="M187 494v-117h344v117h-344zM698 568v-74h-75v-494h-92v303h-344v-303h-92v494h-76v74h76v107h92v-107h344v107h92v-107h75z" />
<glyph unicode="&#x127;" horiz-adv-x="579" d="M404 0v319q0 56 -19 83.5t-66 27.5q-30 0 -56 -14.5t-45 -41t-29.5 -62t-10.5 -75.5v-237h-90v581h-88v70h88v79h90v-79h135v-70h-135v-93q0 -26 -2.5 -51.5t-6.5 -42.5l2 -1q22 52 67 82t106 30q41 0 70 -12t46.5 -34t25 -50.5t7.5 -62.5v-346h-89z" />
<glyph unicode="&#x128;" horiz-adv-x="262" d="M85 0v675h92v-675h-92zM309 808q-20 -35 -48.5 -54t-63.5 -19q-26 0 -43.5 8t-32 18t-27.5 18t-29 8q-36 0 -63 -45l-46 33q20 35 48.5 54.5t63.5 19.5q25 0 43 -8t32.5 -18t27.5 -18t29 -8q34 0 63 44l46 -33v0z" />
<glyph unicode="&#x129;" horiz-adv-x="260" d="M85 0v497h90v-497h-90zM277 671q-16 -35 -40 -54.5t-57 -19.5q-18 0 -32.5 7.5t-27 16t-23 16t-20.5 7.5q-16 0 -27.5 -12.5t-19.5 -29.5l-44 32q12 31 36.5 54t61.5 23q18 0 32.5 -7.5t27 -16.5t23 -16.5t19.5 -7.5q16 0 27.5 12.5t20.5 29.5z" />
<glyph unicode="&#x12a;" horiz-adv-x="262" d="M85 0v675h92v-675h-92zM-5 748v62h276v-62h-276z" />
<glyph unicode="&#x12b;" horiz-adv-x="260" d="M85 0v497h90v-497h-90zM12 616v68h237v-68h-237z" />
<glyph unicode="&#x12c;" horiz-adv-x="262" d="M85 0v675h92v-675h-92zM262 852q0 -52 -34.5 -87t-96.5 -35q-32 0 -55.5 9.5t-40 26t-24.5 39t-8 47.5h58q0 -26 20 -43.5t52 -17.5t51 17.5t19 43.5h59z" />
<glyph unicode="&#x12d;" horiz-adv-x="260" d="M85 0v497h90v-497h-90zM249 718q0 -66 -31.5 -100.5t-87.5 -34.5q-55 0 -85 35t-30 100h61q0 -27 14 -47.5t41 -20.5q26 0 41 18t15 50h62z" />
<glyph unicode="&#x12e;" horiz-adv-x="262" d="M235 -190q-24 -22 -52.5 -33t-59.5 -11q-51 0 -79.5 24.5t-28.5 66.5q0 18 4.5 36.5t13.5 36t22 35.5t30 37v673h92v-675q-41 -35 -58.5 -66.5t-17.5 -58.5q0 -19 10.5 -29.5t29.5 -10.5q31 0 66 26z" />
<glyph unicode="&#x12f;" horiz-adv-x="260" d="M190 654q0 -12 -4.5 -22.5t-13 -18.5t-19.5 -12.5t-23 -4.5t-23 4.5t-19 12.5t-13 18.5t-5 22.5t5 23t13 19t19 12.5t23 4.5t23 -4.5t19.5 -12.5t13 -18.5t4.5 -23.5zM175 0q-44 -38 -59.5 -70t-15.5 -55q0 -40 40 -40q31 0 66 26l28 -51q-24 -22 -52.5 -33t-59.5 -11 q-51 0 -79.5 24.5t-28.5 66.5q0 37 18.5 72.5t52.5 72.5v495h90v-497z" />
<glyph unicode="&#x130;" horiz-adv-x="262" d="M85 0v675h92v-675h-92zM193 785q0 -24 -17 -41t-41 -17t-41 17t-17 41t17 41t41 17t41 -16.5t17 -41.5z" />
<glyph unicode="&#x131;" horiz-adv-x="260" d="M85 0v497h90v-497h-90z" />
<glyph unicode="&#x134;" horiz-adv-x="346" d="M261 178q0 -88 -44 -136.5t-134 -48.5q-48 0 -82 8v80q14 -4 36.5 -7.5t40.5 -3.5q22 0 38.5 5.5t28 18t18 34t6.5 54.5v493h92v-497zM347 724l-133 60l-135 -60l-24 50l160 83l158 -81z" />
<glyph unicode="&#x135;" horiz-adv-x="266" d="M181 -55q0 -50 -8.5 -86t-28.5 -62.5t-52.5 -38.5t-75.5 -12q-17 0 -36 2t-39 6l8 79q14 -5 34 -8t36 -3q20 0 33.5 5t22.5 18t13 36t4 56v560h89v-552v0zM225 570l-87 85l-88 -85l-37 42l126 131l125 -130z" />
<glyph unicode="&#x136;" horiz-adv-x="584" d="M444 0l-267 334v-334h-92v675h92v-318l268 318h112l-285 -325l297 -350h-125zM298 -49q24 0 37.5 -16.5t13.5 -40.5q0 -32 -24 -66.5t-86 -67.5l-23 34q27 20 37 36.5t10 30.5q0 8 -2 13t-4 9.5l-4 9t-2 12.5q0 18 12 32t35 14z" />
<glyph unicode="&#x137;" horiz-adv-x="493" d="M359 0l-184 256v-256h-90v730h90v-451l175 218h105l-188 -223l207 -274h-115zM255 -49q24 0 37.5 -16.5t13.5 -40.5q0 -32 -24 -66.5t-86 -67.5l-23 34q27 20 37 36.5t10 30.5q0 8 -2 13t-4 9.5l-4 9t-2 12.5q0 18 12 32t35 14z" />
<glyph unicode="&#x138;" horiz-adv-x="493" d="M355 0l-180 250v-250h-90v497h90v-225l180 225h105l-193 -229l202 -268h-114z" />
<glyph unicode="&#x139;" horiz-adv-x="426" d="M85 0v675h92v-597h242v-78h-334zM150 725l-17 52l182 74l25 -70z" />
<glyph unicode="&#x13a;" horiz-adv-x="260" d="M85 0v730h90v-730h-90zM97 785l-17 52l182 74l25 -70z" />
<glyph unicode="&#x13b;" horiz-adv-x="426" d="M85 0v675h92v-597h242v-78h-334zM256 -49q24 0 37.5 -16.5t13.5 -40.5q0 -32 -24 -66.5t-86 -67.5l-23 34q27 20 37 36.5t10 30.5q0 8 -2 13t-4 9.5l-4 9t-2 12.5q0 18 12 32t35 14z" />
<glyph unicode="&#x13c;" horiz-adv-x="260" d="M85 0v730h90v-730h-90zM132 -49q24 0 37.5 -16.5t13.5 -40.5q0 -32 -24 -66.5t-86 -67.5l-23 34q27 20 37 36.5t10 30.5q0 8 -2 13t-4 9.5l-4 9t-2 12.5q0 18 12 32t35 14z" />
<glyph unicode="&#x13d;" horiz-adv-x="429" d="M85 0v675h92v-597h242v-78h-334zM298 606l-52 32l104 157l66 -39z" />
<glyph unicode="&#x13e;" horiz-adv-x="291" d="M85 0v730h90v-730h-90zM284 565l-60 16l55 181l75 -20z" />
<glyph unicode="&#x13f;" horiz-adv-x="553" d="M85 0v675h92v-597h242v-78h-334zM491 347q0 -26 -18.5 -45t-45.5 -19t-45.5 19t-18.5 45q0 27 18.5 46t45.5 19t45.5 -19t18.5 -46z" />
<glyph unicode="&#x140;" horiz-adv-x="387" d="M85 0v730h90v-730h-90zM387 297q0 -26 -18.5 -45t-45.5 -19t-45.5 19t-18.5 45q0 27 18.5 46t45.5 19t45.5 -19t18.5 -46z" />
<glyph unicode="&#x141;" horiz-adv-x="435" d="M94 0v349l-78 -36l-20 69l98 45v248h91v-205l112 50l19 -69l-131 -59v-314h242v-78h-333z" />
<glyph unicode="&#x142;" horiz-adv-x="291" d="M193 412v-412h-90v363l-62 -36l-22 65l84 48v290h90v-241l68 39l22 -65z" />
<glyph unicode="&#x143;" horiz-adv-x="693" d="M513 0l-274 432q-23 40 -40 69t-33 64q2 -31 3.5 -77t3 -99.5t2 -104.5t0.5 -94v-190h-90v675h90h23l268 -425q16 -27 32.5 -57t29.5 -58q-2 29 -4 74.5t-3.5 96t-2 102t-0.5 95.5v172h90v-675h-90h-5zM326 725l-17 52l182 74l25 -70z" />
<glyph unicode="&#x144;" horiz-adv-x="575" d="M401 0v320q0 56 -19 84t-66 28q-30 0 -56 -14.5t-45 -41t-29.5 -62t-10.5 -76.5v-238h-90v497h87q0 -26 -2 -55t-6 -50h2q22 53 67.5 83.5t107.5 30.5q41 0 70.5 -12t47 -33.5t25 -50t7.5 -63.5v-347h-90zM295 569l-44 43l129 139l55 -53z" />
<glyph unicode="&#x145;" horiz-adv-x="693" d="M513 0l-274 432q-23 40 -40 69t-33 64q2 -31 3.5 -77t3 -99.5t2 -104.5t0.5 -94v-190h-90v675h90h23l268 -425q16 -27 32.5 -57t29.5 -58q-2 29 -4 74.5t-3.5 96t-2 102t-0.5 95.5v172h90v-675h-90h-5zM348 -49q24 0 37.5 -16.5t13.5 -40.5q0 -32 -24 -66.5t-86 -67.5 l-23 34q27 20 37 36.5t10 30.5q0 8 -2 13t-4 9.5l-4 9t-2 12.5q0 18 12 32t35 14z" />
<glyph unicode="&#x146;" horiz-adv-x="575" d="M401 0v320q0 56 -19 84t-66 28q-30 0 -56 -14.5t-45 -41t-29.5 -62t-10.5 -76.5v-238h-90v497h87q0 -26 -2 -55t-6 -50h2q22 53 67.5 83.5t107.5 30.5q41 0 70.5 -12t47 -33.5t25 -50t7.5 -63.5v-347h-90zM292 -49q24 0 37.5 -16.5t13.5 -40.5q0 -32 -24 -66.5t-86 -67.5 l-23 34q27 20 37 36.5t10 30.5q0 8 -2 13t-4 9.5l-4 9t-2 12.5q0 18 12 32t35 14z" />
<glyph unicode="&#x147;" horiz-adv-x="693" d="M513 0l-274 432q-23 40 -40 69t-33 64q2 -31 3.5 -77t3 -99.5t2 -104.5t0.5 -94v-190h-90v675h90h23l268 -425q16 -27 32.5 -57t29.5 -58q-2 29 -4 74.5t-3.5 96t-2 102t-0.5 95.5v172h90v-675h-90h-5zM350 724l-157 82l25 51l134 -60l135 60l24 -50z" />
<glyph unicode="&#x148;" horiz-adv-x="575" d="M401 0v320q0 56 -19 84t-66 28q-30 0 -56 -14.5t-45 -41t-29.5 -62t-10.5 -76.5v-238h-90v497h87q0 -26 -2 -55t-6 -50h2q22 53 67.5 83.5t107.5 30.5q41 0 70.5 -12t47 -33.5t25 -50t7.5 -63.5v-347h-90zM290 570l-139 130l39 44l100 -85l101 85l38 -43z" />
<glyph unicode="&#x14a;" horiz-adv-x="693" d="M608 5q0 -67 -13 -113t-38 -76t-61 -46.5t-82 -25.5l-19 72q29 5 52 15.5t39 30t24 50t8 76.5l-278 442q-21 34 -39 65.5t-34 63.5q2 -27 3.5 -72t2 -97t1 -105.5t0.5 -96.5v-188h-89v675h89h21l269 -423q17 -27 33 -55t29 -56q-2 32 -3 76t-2 92.5t-1.5 99t-0.5 94.5 v172h89v-670z" />
<glyph unicode="&#x14b;" horiz-adv-x="575" d="M496 198q0 -88 -4 -146t-12.5 -95t-21 -60t-32.5 -43t-50 -34t-73 -25l-20 70q27 7 45.5 16t31.5 21q14 14 22 29.5t13.5 43.5t8 74t2.5 120v20q0 74 -5.5 121.5t-17.5 74t-30 37t-45 10.5t-51.5 -14t-43 -39.5t-28.5 -58t-10 -68.5v-252h-90v497h87q0 -33 -2 -60t-6 -44 h1q22 52 66.5 82.5t100.5 30.5q45 0 76 -15t50.5 -49t28.5 -89t9 -137v-18z" />
<glyph unicode="&#x14c;" horiz-adv-x="709" d="M570 333q0 125 -55 198t-160 73q-46 0 -85 -17t-68.5 -50.5t-45.5 -83t-16 -111.5q0 -61 13.5 -111t40.5 -86t67.5 -55t93.5 -19q46 0 85 17t68.5 50.5t45.5 83t16 111.5zM667 347q0 -84 -25 -151t-69.5 -113t-102.5 -69.5t-124 -23.5q-73 0 -129.5 23.5t-95 67.5 t-58.5 106.5t-20 140.5q0 84 25 151t69.5 113t102.5 69.5t124 23.5q73 0 129.5 -23.5t95 -67.5t58.5 -106.5t20 -140.5zM218 748v62h276v-62h-276z" />
<glyph unicode="&#x14d;" horiz-adv-x="545" d="M412 249q0 87 -36.5 134.5t-101.5 47.5q-32 0 -58 -11.5t-44.5 -34.5t-28.5 -57.5t-10 -79.5q0 -87 36.5 -134t102.5 -47q30 0 55.5 11t44.5 33.5t29.5 57t10.5 80.5zM505 256q0 -56 -15.5 -104.5t-46.5 -84.5t-76.5 -56t-102.5 -20q-51 0 -92.5 15.5t-71 46.5t-45 78 t-15.5 110q0 56 15.5 104.5t46.5 84.5t76.5 56t103.5 20q51 0 92 -15.5t70.5 -46.5t45 -78t15.5 -110zM151 616v68h252v-68h-252z" />
<glyph unicode="&#x14e;" horiz-adv-x="709" d="M570 333q0 125 -55 198t-160 73q-46 0 -85 -17t-68.5 -50.5t-45.5 -83t-16 -111.5q0 -61 13.5 -111t40.5 -86t67.5 -55t93.5 -19q46 0 85 17t68.5 50.5t45.5 83t16 111.5zM667 347q0 -84 -25 -151t-69.5 -113t-102.5 -69.5t-124 -23.5q-73 0 -129.5 23.5t-95 67.5 t-58.5 106.5t-20 140.5q0 84 25 151t69.5 113t102.5 69.5t124 23.5q73 0 129.5 -23.5t95 -67.5t58.5 -106.5t20 -140.5zM485 852q0 -52 -34.5 -87t-96.5 -35q-32 0 -55.5 9.5t-40 26t-24.5 39t-8 47.5h58q0 -26 20 -43.5t52 -17.5t51 17.5t19 43.5h59z" />
<glyph unicode="&#x14f;" horiz-adv-x="545" d="M412 249q0 87 -36.5 134.5t-101.5 47.5q-32 0 -58 -11.5t-44.5 -34.5t-28.5 -57.5t-10 -79.5q0 -87 36.5 -134t102.5 -47q30 0 55.5 11t44.5 33.5t29.5 57t10.5 80.5zM505 256q0 -56 -15.5 -104.5t-46.5 -84.5t-76.5 -56t-102.5 -20q-51 0 -92.5 15.5t-71 46.5t-45 78 t-15.5 110q0 56 15.5 104.5t46.5 84.5t76.5 56t103.5 20q51 0 92 -15.5t70.5 -46.5t45 -78t15.5 -110zM398 718q0 -27 -7.5 -51.5t-23 -43t-39.5 -29.5t-57 -11t-56.5 11t-38 30t-21.5 43t-7 51h61q0 -28 16 -48t47 -20q29 0 46.5 17.5t17.5 50.5h62v0z" />
<glyph unicode="&#x150;" horiz-adv-x="709" d="M570 333q0 125 -55 198t-160 73q-46 0 -85 -17t-68.5 -50.5t-45.5 -83t-16 -111.5q0 -61 13.5 -111t40.5 -86t67.5 -55t93.5 -19q46 0 85 17t68.5 50.5t45.5 83t16 111.5zM667 347q0 -84 -25 -151t-69.5 -113t-102.5 -69.5t-124 -23.5q-73 0 -129.5 23.5t-95 67.5 t-58.5 106.5t-20 140.5q0 84 25 151t69.5 113t102.5 69.5t124 23.5q73 0 129.5 -23.5t95 -67.5t58.5 -106.5t20 -140.5zM275 724l-44 40l113 130l55 -50zM450 724l-42 40l131 127l52 -53z" />
<glyph unicode="&#x151;" horiz-adv-x="545" d="M412 249q0 87 -36.5 134.5t-101.5 47.5q-32 0 -58 -11.5t-44.5 -34.5t-28.5 -57.5t-10 -79.5q0 -87 36.5 -134t102.5 -47q30 0 55.5 11t44.5 33.5t29.5 57t10.5 80.5zM505 256q0 -56 -15.5 -104.5t-46.5 -84.5t-76.5 -56t-102.5 -20q-51 0 -92.5 15.5t-71 46.5t-45 78 t-15.5 110q0 56 15.5 104.5t46.5 84.5t76.5 56t103.5 20q51 0 92 -15.5t70.5 -46.5t45 -78t15.5 -110zM201 570l-44 39l118 141l56 -48zM375 570l-43 40l128 134l54 -50z" />
<glyph unicode="&#x152;" horiz-adv-x="874" d="M457 591q-22 6 -49 9.5t-53 3.5q-46 0 -85 -17t-68.5 -50.5t-45.5 -83t-16 -111.5q0 -61 13.5 -111t40.5 -86t67.5 -55t93.5 -19q23 0 51.5 3.5t50.5 8.5v508zM465 0q-28 -5 -60 -7.5t-59 -2.5q-73 0 -129.5 23.5t-95 67.5t-58.5 106.5t-20 140.5q0 84 25 151t69.5 113 t102.5 69.5t124 23.5q26 0 55.5 -2.5t53.5 -7.5h332v-76h-256v-214h243v-74h-243v-234h256v-77h-340z" />
<glyph unicode="&#x153;" horiz-adv-x="873" d="M412 249q0 87 -36.5 134.5t-101.5 47.5q-32 0 -58 -11.5t-44.5 -34.5t-28.5 -57.5t-10 -79.5q0 -87 36.5 -134t102.5 -47q30 0 55.5 11t44.5 33.5t29.5 57t10.5 80.5zM735 310q1 60 -28 94t-82 34q-49 0 -82.5 -34t-40.5 -94h233zM827 302q0 -27 -2 -56h-325 q-2 -94 36 -138.5t117 -44.5q36 0 73 7t74 20l11 -69q-41 -15 -84 -22.5t-86 -7.5q-74 0 -120.5 26t-70.5 73q-26 -45 -73.5 -72t-112.5 -27q-51 0 -92.5 15.5t-71 46.5t-45 78t-15.5 110q0 56 15.5 104.5t46.5 84.5t76.5 56t103.5 20q60 0 106 -23.5t73 -71.5 q24 44 67.5 69.5t101.5 25.5q51 0 88.5 -15.5t61.5 -44t35.5 -65t11.5 -79.5z" />
<glyph unicode="&#x154;" horiz-adv-x="567" d="M402 484q0 58 -38.5 89t-110.5 31q-23 0 -44.5 -0.5t-31.5 -1.5v-240q10 0 30.5 -0.5t41.5 -0.5q73 0 113 32.5t40 90.5zM430 0l-204 292h-49v-292h-92v674q22 1 72 3t104 2t97.5 -11t74.5 -33.5t48 -57.5t17 -82q0 -43 -13.5 -76.5t-38 -57t-56.5 -38t-69 -19.5 q7 -9 23 -29t32 -43l168 -232h-114zM222 725l-17 52l182 74l25 -70z" />
<glyph unicode="&#x155;" horiz-adv-x="355" d="M330 417q-78 14 -116.5 -41t-38.5 -176v-200h-90v497h87q0 -26 -2.5 -57.5t-8.5 -60.5h2q8 28 22 52t35 42t49.5 27.5t64.5 5.5zM208 569l-44 43l129 139l55 -53z" />
<glyph unicode="&#x156;" horiz-adv-x="567" d="M402 484q0 58 -38.5 89t-110.5 31q-23 0 -44.5 -0.5t-31.5 -1.5v-240q10 0 30.5 -0.5t41.5 -0.5q73 0 113 32.5t40 90.5zM430 0l-204 292h-49v-292h-92v674q22 1 72 3t104 2t97.5 -11t74.5 -33.5t48 -57.5t17 -82q0 -43 -13.5 -76.5t-38 -57t-56.5 -38t-69 -19.5 q7 -9 23 -29t32 -43l168 -232h-114zM287 -49q24 0 37.5 -16.5t13.5 -40.5q0 -32 -24 -66.5t-86 -67.5l-23 34q27 20 37 36.5t10 30.5q0 8 -2 13t-4 9.5l-4 9t-2 12.5q0 18 12 32t35 14z" />
<glyph unicode="&#x157;" horiz-adv-x="355" d="M330 417q-78 14 -116.5 -41t-38.5 -176v-200h-90v497h87q0 -26 -2.5 -57.5t-8.5 -60.5h2q8 28 22 52t35 42t49.5 27.5t64.5 5.5zM140 -49q24 0 37.5 -16.5t13.5 -40.5q0 -32 -24 -66.5t-86 -67.5l-23 34q27 20 37 36.5t10 30.5q0 8 -2 13t-4 9.5l-4 9t-2 12.5q0 18 12 32 t35 14z" />
<glyph unicode="&#x158;" horiz-adv-x="567" d="M402 484q0 58 -38.5 89t-110.5 31q-23 0 -44.5 -0.5t-31.5 -1.5v-240q10 0 30.5 -0.5t41.5 -0.5q73 0 113 32.5t40 90.5zM430 0l-204 292h-49v-292h-92v674q22 1 72 3t104 2t97.5 -11t74.5 -33.5t48 -57.5t17 -82q0 -43 -13.5 -76.5t-38 -57t-56.5 -38t-69 -19.5 q7 -9 23 -29t32 -43l168 -232h-114zM259 724l-157 82l25 51l134 -60l135 60l24 -50z" />
<glyph unicode="&#x159;" horiz-adv-x="355" d="M330 417q-78 14 -116.5 -41t-38.5 -176v-200h-90v497h87q0 -26 -2.5 -57.5t-8.5 -60.5h2q8 28 22 52t35 42t49.5 27.5t64.5 5.5zM211 570l-139 130l39 44l100 -85l101 85l38 -43z" />
<glyph unicode="&#x15a;" horiz-adv-x="503" d="M455 191q0 -44 -16 -80.5t-48 -63.5t-78.5 -41.5t-105.5 -14.5q-41 0 -80 5t-72 14l12 87q34 -13 71.5 -20t74.5 -7q32 0 58.5 6.5t46 20t30 34.5t10.5 50q0 35 -20.5 58.5t-45 36t-80.5 36.5t-87.5 45t-52.5 55.5t-21 85.5q0 41 16 75.5t46 59t74.5 38t99.5 13.5 q31 0 63 -3.5t59 -9.5l-11 -81q-28 8 -58 13t-59 5q-67 0 -101.5 -26.5t-34.5 -74.5q0 -34 19.5 -56t44 -35t82 -37t90 -46.5t53.5 -56.5t21 -85zM222 725l-17 52l182 74l25 -70z" />
<glyph unicode="&#x15b;" horiz-adv-x="425" d="M376 143q0 -32 -13.5 -59.5t-39.5 -48.5t-64.5 -32.5t-87.5 -11.5q-31 0 -62 3.5t-55 9.5l7 80q25 -9 56.5 -15t60.5 -6q51 0 78 19t27 54q0 25 -15.5 41t-48 28.5t-60.5 22.5t-52.5 25t-40.5 41.5t-16 67.5q0 63 51 103.5t145 40.5q25 0 50 -2.5t46 -6.5l-6 -75 q-22 7 -48 11t-50 4q-47 0 -71.5 -18t-24.5 -49q0 -25 15.5 -40.5t48.5 -28.5t60.5 -23t52.5 -25.5t41 -42t16 -67.5zM194 569l-44 43l129 139l55 -53z" />
<glyph unicode="&#x15c;" horiz-adv-x="503" d="M455 191q0 -44 -16 -80.5t-48 -63.5t-78.5 -41.5t-105.5 -14.5q-41 0 -80 5t-72 14l12 87q34 -13 71.5 -20t74.5 -7q32 0 58.5 6.5t46 20t30 34.5t10.5 50q0 35 -20.5 58.5t-45 36t-80.5 36.5t-87.5 45t-52.5 55.5t-21 85.5q0 41 16 75.5t46 59t74.5 38t99.5 13.5 q31 0 63 -3.5t59 -9.5l-11 -81q-28 8 -58 13t-59 5q-67 0 -101.5 -26.5t-34.5 -74.5q0 -34 19.5 -56t44 -35t82 -37t90 -46.5t53.5 -56.5t21 -85zM394 724l-133 60l-135 -60l-24 50l160 83l158 -81z" />
<glyph unicode="&#x15d;" horiz-adv-x="425" d="M376 143q0 -32 -13.5 -59.5t-39.5 -48.5t-64.5 -32.5t-87.5 -11.5q-31 0 -62 3.5t-55 9.5l7 80q25 -9 56.5 -15t60.5 -6q51 0 78 19t27 54q0 25 -15.5 41t-48 28.5t-60.5 22.5t-52.5 25t-40.5 41.5t-16 67.5q0 63 51 103.5t145 40.5q25 0 50 -2.5t46 -6.5l-6 -75 q-22 7 -48 11t-50 4q-47 0 -71.5 -18t-24.5 -49q0 -25 15.5 -40.5t48.5 -28.5t60.5 -23t52.5 -25.5t41 -42t16 -67.5zM312 570l-100 85l-102 -85l-37 43l140 131l138 -130z" />
<glyph unicode="&#x15e;" horiz-adv-x="503" d="M455 191q0 -44 -16 -80.5t-48 -63.5t-78.5 -41.5t-105.5 -14.5q-41 0 -80 5t-72 14l12 87q34 -13 71.5 -20t74.5 -7q32 0 58.5 6.5t46 20t30 34.5t10.5 50q0 35 -20.5 58.5t-45 36t-80.5 36.5t-87.5 45t-52.5 55.5t-21 85.5q0 41 16 75.5t46 59t74.5 38t99.5 13.5 q31 0 63 -3.5t59 -9.5l-11 -81q-28 8 -58 13t-59 5q-67 0 -101.5 -26.5t-34.5 -74.5q0 -34 19.5 -56t44 -35t82 -37t90 -46.5t53.5 -56.5t21 -85zM270 -40q37 -51 29.5 -98.5t-50.5 -96.5h-73q19 24 31 45t14.5 40.5t-4 38.5t-24.5 41l77 30v0z" />
<glyph unicode="&#xf6c1;" horiz-adv-x="503" d="M455 191q0 -44 -16 -80.5t-48 -63.5t-78.5 -41.5t-105.5 -14.5q-41 0 -80 5t-72 14l12 87q34 -13 71.5 -20t74.5 -7q32 0 58.5 6.5t46 20t30 34.5t10.5 50q0 35 -20.5 58.5t-45 36t-80.5 36.5t-87.5 45t-52.5 55.5t-21 85.5q0 41 16 75.5t46 59t74.5 38t99.5 13.5 q31 0 63 -3.5t59 -9.5l-11 -81q-28 8 -58 13t-59 5q-67 0 -101.5 -26.5t-34.5 -74.5q0 -34 19.5 -56t44 -35t82 -37t90 -46.5t53.5 -56.5t21 -85zM270 -40q37 -51 29.5 -98.5t-50.5 -96.5h-73q19 24 31 45t14.5 40.5t-4 38.5t-24.5 41l77 30v0z" />
<glyph unicode="&#x15f;" horiz-adv-x="425" d="M376 143q0 -32 -13.5 -59.5t-39.5 -48.5t-64.5 -32.5t-87.5 -11.5q-31 0 -62 3.5t-55 9.5l7 80q25 -9 56.5 -15t60.5 -6q51 0 78 19t27 54q0 25 -15.5 41t-48 28.5t-60.5 22.5t-52.5 25t-40.5 41.5t-16 67.5q0 63 51 103.5t145 40.5q25 0 50 -2.5t46 -6.5l-6 -75 q-22 7 -48 11t-50 4q-47 0 -71.5 -18t-24.5 -49q0 -25 15.5 -40.5t48.5 -28.5t60.5 -23t52.5 -25.5t41 -42t16 -67.5zM235 -40q37 -51 29.5 -98.5t-50.5 -96.5h-73q19 24 31 45t14.5 40.5t-4 38.5t-24.5 41l77 30v0z" />
<glyph unicode="&#xf6c2;" horiz-adv-x="425" d="M376 143q0 -32 -13.5 -59.5t-39.5 -48.5t-64.5 -32.5t-87.5 -11.5q-31 0 -62 3.5t-55 9.5l7 80q25 -9 56.5 -15t60.5 -6q51 0 78 19t27 54q0 25 -15.5 41t-48 28.5t-60.5 22.5t-52.5 25t-40.5 41.5t-16 67.5q0 63 51 103.5t145 40.5q25 0 50 -2.5t46 -6.5l-6 -75 q-22 7 -48 11t-50 4q-47 0 -71.5 -18t-24.5 -49q0 -25 15.5 -40.5t48.5 -28.5t60.5 -23t52.5 -25.5t41 -42t16 -67.5zM235 -40q37 -51 29.5 -98.5t-50.5 -96.5h-73q19 24 31 45t14.5 40.5t-4 38.5t-24.5 41l77 30v0z" />
<glyph unicode="&#x160;" horiz-adv-x="503" d="M455 191q0 -44 -16 -80.5t-48 -63.5t-78.5 -41.5t-105.5 -14.5q-41 0 -80 5t-72 14l12 87q34 -13 71.5 -20t74.5 -7q32 0 58.5 6.5t46 20t30 34.5t10.5 50q0 35 -20.5 58.5t-45 36t-80.5 36.5t-87.5 45t-52.5 55.5t-21 85.5q0 41 16 75.5t46 59t74.5 38t99.5 13.5 q31 0 63 -3.5t59 -9.5l-11 -81q-28 8 -58 13t-59 5q-67 0 -101.5 -26.5t-34.5 -74.5q0 -34 19.5 -56t44 -35t82 -37t90 -46.5t53.5 -56.5t21 -85zM251 724l-157 82l25 51l134 -60l135 60l24 -50z" />
<glyph unicode="&#x161;" horiz-adv-x="425" d="M376 143q0 -32 -13.5 -59.5t-39.5 -48.5t-64.5 -32.5t-87.5 -11.5q-31 0 -62 3.5t-55 9.5l7 80q25 -9 56.5 -15t60.5 -6q51 0 78 19t27 54q0 25 -15.5 41t-48 28.5t-60.5 22.5t-52.5 25t-40.5 41.5t-16 67.5q0 63 51 103.5t145 40.5q25 0 50 -2.5t46 -6.5l-6 -75 q-22 7 -48 11t-50 4q-47 0 -71.5 -18t-24.5 -49q0 -25 15.5 -40.5t48.5 -28.5t60.5 -23t52.5 -25.5t41 -42t16 -67.5zM215 570l-139 130l39 44l100 -85l101 85l38 -43z" />
<glyph unicode="&#x162;" horiz-adv-x="516" d="M304 598v-598h-92v598h-194v77h481v-77h-195zM290 -40q37 -51 29.5 -98.5t-50.5 -96.5h-73q19 24 31 45t14.5 40.5t-4 38.5t-24.5 41l77 30v0z" />
<glyph unicode="&#x163;" horiz-adv-x="371" d="M339 3q-21 -5 -47.5 -8t-50.5 -3q-39 0 -64.5 8.5t-40.5 26t-22 46t-7 70.5v284h-100v70h100v161l90 25v-186h138v-70h-138v-262q0 -29 3.5 -47.5t11 -29.5t20.5 -15.5t33 -4.5q29 0 67 8zM247 -40q37 -51 29.5 -98.5t-50.5 -96.5h-73q19 24 31 45t14.5 40.5t-4 38.5 t-24.5 41l77 30v0z" />
<glyph unicode="&#x164;" horiz-adv-x="516" d="M304 598v-598h-92v598h-194v77h481v-77h-195zM255 724l-157 82l25 51l134 -60l135 60l24 -50z" />
<glyph unicode="&#x165;" horiz-adv-x="375" d="M339 3q-21 -5 -47.5 -8t-50.5 -3q-39 0 -64.5 8.5t-40.5 26t-22 46t-7 70.5v284h-100v70h100v161l90 25v-186h138v-70h-138v-262q0 -29 3.5 -47.5t11 -29.5t20.5 -15.5t33 -4.5q29 0 67 8zM312 565l-60 16l55 181l75 -20z" />
<glyph unicode="&#x166;" horiz-adv-x="516" d="M212 598h-194v77h481v-77h-195v-213h116v-74h-116v-311h-92v311h-116v74h116v213z" />
<glyph unicode="&#x167;" horiz-adv-x="399" d="M346 3q-21 -5 -47.5 -8t-49.5 -3q-75 0 -104.5 34t-29.5 116v82h-93v33.5v32.5h23.5h23h23h23.5v139h-100v68h100v161l90 25v-186h138v-68h-138v-139h126v-66h-126v-61q0 -28 3 -46.5t11 -29.5t21 -15.5t33 -4.5q19 0 35.5 2.5t30.5 6.5z" />
<glyph unicode="&#x168;" horiz-adv-x="693" d="M607 258q0 -133 -68 -200.5t-201 -67.5q-79 0 -128.5 20t-77 53.5t-37.5 75.5t-10 88v448h92v-441q0 -35 7 -65.5t25.5 -53.5t51 -36t83.5 -13q88 -1 130.5 41t42.5 144v424h90v-417v0zM522 808q-20 -35 -48.5 -54t-63.5 -19q-26 0 -43.5 8t-32 18t-27.5 18t-29 8 q-36 0 -63 -45l-46 33q20 35 48.5 54.5t63.5 19.5q25 0 43 -8t32.5 -18t27.5 -18t29 -8q34 0 63 44l46 -33v0z" />
<glyph unicode="&#x169;" horiz-adv-x="575" d="M403 0q0 26 2 55t6 50h-2q-22 -53 -67.5 -83.5t-107.5 -30.5q-41 0 -70 12t-46.5 33.5t-25 50t-7.5 63.5v347h89v-320q0 -56 19 -84t66 -28q30 0 56 14.5t45 41t29.5 62t10.5 76.5v238h90v-497h-87zM458 671q-20 -38 -47.5 -58t-61.5 -20q-22 0 -38.5 7.5t-36 21.5 t-29.5 20t-24 6q-33 0 -59 -47l-45 35q20 38 47.5 58t61.5 20q22 0 38.5 -7t36 -21t29.5 -20t24 -6q34 0 59 46z" />
<glyph unicode="&#x16a;" horiz-adv-x="693" d="M607 258q0 -133 -68 -200.5t-201 -67.5q-79 0 -128.5 20t-77 53.5t-37.5 75.5t-10 88v448h92v-441q0 -35 7 -65.5t25.5 -53.5t51 -36t83.5 -13q88 -1 130.5 41t42.5 144v424h90v-417v0zM209 748v62h276v-62h-276z" />
<glyph unicode="&#x16b;" horiz-adv-x="575" d="M403 0q0 26 2 55t6 50h-2q-22 -53 -67.5 -83.5t-107.5 -30.5q-41 0 -70 12t-46.5 33.5t-25 50t-7.5 63.5v347h89v-320q0 -56 19 -84t66 -28q30 0 56 14.5t45 41t29.5 62t10.5 76.5v238h90v-497h-87zM162 616v68h252v-68h-252z" />
<glyph unicode="&#x16c;" horiz-adv-x="693" d="M607 258q0 -133 -68 -200.5t-201 -67.5q-79 0 -128.5 20t-77 53.5t-37.5 75.5t-10 88v448h92v-441q0 -35 7 -65.5t25.5 -53.5t51 -36t83.5 -13q88 -1 130.5 41t42.5 144v424h90v-417v0zM476 852q0 -52 -34.5 -87t-96.5 -35q-32 0 -55.5 9.5t-40 26t-24.5 39t-8 47.5h58 q0 -26 20 -43.5t52 -17.5t51 17.5t19 43.5h59z" />
<glyph unicode="&#x16d;" horiz-adv-x="575" d="M403 0q0 26 2 55t6 50h-2q-22 -53 -67.5 -83.5t-107.5 -30.5q-41 0 -70 12t-46.5 33.5t-25 50t-7.5 63.5v347h89v-320q0 -56 19 -84t66 -28q30 0 56 14.5t45 41t29.5 62t10.5 76.5v238h90v-497h-87zM413 718q0 -27 -7.5 -51.5t-23 -43t-39.5 -29.5t-57 -11t-56.5 11 t-38 30t-21.5 43t-7 51h61q0 -28 16 -48t47 -20q29 0 46.5 17.5t17.5 50.5h62v0z" />
<glyph unicode="&#x16e;" horiz-adv-x="693" d="M607 258q0 -133 -68 -200.5t-201 -67.5q-79 0 -128.5 20t-77 53.5t-37.5 75.5t-10 88v448h92v-441q0 -35 7 -65.5t25.5 -53.5t51 -36t83.5 -13q88 -1 130.5 41t42.5 144v424h90v-417v0zM463 805q0 -48 -33.5 -79t-88.5 -31q-53 0 -82.5 26.5t-29.5 77.5q0 47 33.5 78 t87.5 31t83.5 -26t29.5 -77zM396 801q0 57 -50 57q-22 0 -36.5 -14.5t-14.5 -41.5q0 -57 51 -57q22 0 36 14.5t14 41.5z" />
<glyph unicode="&#x16f;" horiz-adv-x="575" d="M403 0q0 26 2 55t6 50h-2q-22 -53 -67.5 -83.5t-107.5 -30.5q-41 0 -70 12t-46.5 33.5t-25 50t-7.5 63.5v347h89v-320q0 -56 19 -84t66 -28q30 0 56 14.5t45 41t29.5 62t10.5 76.5v238h90v-497h-87zM404 662q0 -49 -33.5 -81t-87.5 -32q-53 0 -82 27t-29 79q0 49 33 80.5 t87 31.5q53 0 82.5 -26.5t29.5 -78.5zM338 658q0 58 -50 58q-22 0 -36.5 -15t-14.5 -42q0 -58 50 -58q22 0 36.5 14.5t14.5 42.5z" />
<glyph unicode="&#x170;" horiz-adv-x="693" d="M607 258q0 -133 -68 -200.5t-201 -67.5q-79 0 -128.5 20t-77 53.5t-37.5 75.5t-10 88v448h92v-441q0 -35 7 -65.5t25.5 -53.5t51 -36t83.5 -13q88 -1 130.5 41t42.5 144v424h90v-417v0zM254 724l-44 40l113 130l55 -50zM429 724l-42 40l131 127l52 -53z" />
<glyph unicode="&#x171;" horiz-adv-x="575" d="M403 0q0 26 2 55t6 50h-2q-22 -53 -67.5 -83.5t-107.5 -30.5q-41 0 -70 12t-46.5 33.5t-25 50t-7.5 63.5v347h89v-320q0 -56 19 -84t66 -28q30 0 56 14.5t45 41t29.5 62t10.5 76.5v238h90v-497h-87zM209 570l-44 39l118 141l56 -48zM383 570l-43 40l128 134l54 -50z" />
<glyph unicode="&#x172;" horiz-adv-x="693" d="M607 258q0 -66 -17 -116t-51 -84q-12 -12 -26.5 -22.5t-31 -21.5t-33 -23t-31.5 -28q-45 -45 -45 -88q0 -40 40 -40q30 0 66 26l28 -51q-24 -22 -53 -33t-60 -11q-51 0 -79 24.5t-28 66.5q0 35 19 70.5t58 64.5q-6 0 -15 -0.5t-15 -0.5q-77 0 -125 20t-75.5 53 t-37.5 75.5t-10 87.5v448h92v-441q0 -34 7 -65t25.5 -54t51 -36t83.5 -13q44 0 76.5 10t54 32t32 57t10.5 86v424h90v-417z" />
<glyph unicode="&#x173;" horiz-adv-x="575" d="M547 -190q-25 -22 -53.5 -33t-59.5 -11q-25 0 -45 6.5t-34 18t-21.5 28.5t-7.5 38q0 19 5.5 38t17 38t28.5 37.5t40 36.5q-3 23 -5 48.5t-1 44.5h-1q-25 -50 -70 -79.5t-106 -29.5q-41 0 -70 12t-46.5 33.5t-25 50t-7.5 63.5v347h89v-320q0 -56 19 -84t66 -28 q30 0 56 14.5t45 41t29.5 62t10.5 76.5v238h90v-321q0 -45 3.5 -91t10.5 -85q-49 -35 -70 -65.5t-21 -59.5q0 -19 10 -29.5t29 -10.5q16 0 32 6.5t34 19.5z" />
<glyph unicode="&#x174;" horiz-adv-x="955" d="M742 0h-115l-128 444q-6 22 -11.5 47.5t-10.5 56.5h-2q-7 -52 -20 -104l-125 -444h-116l-180 675h98l116 -438q10 -40 17 -75t12 -70h2q16 88 30 141l125 442h92l130 -448q10 -34 18 -69t13 -66h1q7 40 12 68.5t12 56.5l119 458h90zM614 724l-133 60l-135 -60l-24 50 l160 83l158 -81z" />
<glyph unicode="&#x175;" horiz-adv-x="793" d="M617 0h-103l-98 295q-8 26 -15 52t-13 50h-1q-7 -30 -15.5 -61.5t-18.5 -66.5l-83 -269h-102l-152 497h100l78 -274q9 -33 18.5 -68.5t14.5 -58.5h1q7 30 15.5 63t17.5 65l86 273h97l87 -273q7 -23 12.5 -41t9.5 -33t7.5 -28t6.5 -27h1q5 25 13 53.5t20 74.5l81 274h95z M496 570l-100 85l-102 -85l-37 43l140 131l138 -130z" />
<glyph unicode="&#x176;" horiz-adv-x="537" d="M313 259v-259h-91v259l-220 416h101l116 -220q27 -54 50 -111h2q13 32 29 65t25 50l112 216h98zM401 724l-133 60l-135 -60l-24 50l160 83l158 -81z" />
<glyph unicode="&#x177;" horiz-adv-x="480" d="M272 -42q-22 -60 -46 -100.5t-52.5 -65.5t-62.5 -36t-77 -11q-17 0 -33 2t-23 4l9 78q7 -2 24 -5t35 -3q21 0 39 6t33.5 20.5t30 38.5t28.5 60l20 54l-188 497h103l94 -260q10 -30 20.5 -64.5t18.5 -62.5h1q3 13 8 29.5t11 36t15 45.5t14 43l80 233h97zM340 570l-100 85 l-102 -85l-37 43l140 131l138 -130z" />
<glyph unicode="&#x178;" horiz-adv-x="537" d="M313 259v-259h-91v259l-220 416h101l116 -220q27 -54 50 -111h2q13 32 29 65t25 50l112 216h98zM430 782q0 -22 -15.5 -38t-38.5 -16q-22 0 -37.5 15.5t-15.5 38.5t15.5 38.5t37.5 15.5q23 0 38.5 -15.5t15.5 -38.5zM217 782q0 -22 -15.5 -38t-38.5 -16q-22 0 -38 16 t-16 38q0 23 16 38.5t38 15.5q23 0 38.5 -15.5t15.5 -38.5z" />
<glyph unicode="&#x179;" horiz-adv-x="539" d="M46 0v68l283 446q23 34 32.5 48.5t22.5 32.5q-29 -1 -64.5 -1.5t-83.5 -0.5h-180v82h435v-70l-298 -464q-12 -17 -22.5 -32.5t-17.5 -26.5q14 1 51 1.5t117 0.5h174v-84h-449zM243 725l-17 52l182 74l25 -70z" />
<glyph unicode="&#x17a;" horiz-adv-x="447" d="M48 0v64l238 355q-23 -1 -58 -1.5t-73 -0.5h-102v80h338v-63l-235 -353q13 0 37 0.5t50.5 1t47.5 0.5h105v-83h-348zM223 569l-44 43l129 139l55 -53z" />
<glyph unicode="&#x17b;" horiz-adv-x="539" d="M46 0v68l283 446q23 34 32.5 48.5t22.5 32.5q-29 -1 -64.5 -1.5t-83.5 -0.5h-180v82h435v-70l-298 -464q-12 -17 -22.5 -32.5t-17.5 -26.5q14 1 51 1.5t117 0.5h174v-84h-449zM328 785q0 -24 -17 -41t-41 -17t-41 17t-17 41t17 41t41 17t41 -16.5t17 -41.5z" />
<glyph unicode="&#x17c;" horiz-adv-x="447" d="M48 0v64l238 355q-23 -1 -58 -1.5t-73 -0.5h-102v80h338v-63l-235 -353q13 0 37 0.5t50.5 1t47.5 0.5h105v-83h-348zM278 654q0 -24 -17 -41t-41 -17t-41 16.5t-17 41.5q0 24 17 41t41 17t41 -17t17 -41z" />
<glyph unicode="&#x17d;" horiz-adv-x="539" d="M46 0v68l283 446q23 34 32.5 48.5t22.5 32.5q-29 -1 -64.5 -1.5t-83.5 -0.5h-180v82h435v-70l-298 -464q-12 -17 -22.5 -32.5t-17.5 -26.5q14 1 51 1.5t117 0.5h174v-84h-449zM271 724l-157 82l25 51l134 -60l135 60l24 -50z" />
<glyph unicode="&#x17e;" horiz-adv-x="447" d="M48 0v64l238 355q-23 -1 -58 -1.5t-73 -0.5h-102v80h338v-63l-235 -353q13 0 37 0.5t50.5 1t47.5 0.5h105v-83h-348zM224 570l-139 130l39 44l100 -85l101 85l38 -43z" />
<glyph unicode="&#x192;" horiz-adv-x="442" d="M200 96q-8 -71 -22 -119.5t-37.5 -79t-59 -44.5t-85.5 -14q-18 0 -37 2.5t-36 6.5l15 79q18 -6 36 -9.5t34 -3.5q25 0 41.5 7.5t27.5 25t18.5 48t12.5 78.5l27 267h-121v70h128l13 127q11 98 59 150t136 52q15 0 34 -2t37 -5l-11 -75q-34 8 -70 8q-42 0 -64.5 -28 t-29.5 -90l-14 -137h162v-70h-168z" />
<glyph unicode="&#x1e6;" horiz-adv-x="682" d="M601 30q-50 -19 -108.5 -29t-114.5 -10q-79 0 -141 22.5t-105.5 65.5t-66 104t-22.5 138q0 80 23.5 146.5t69.5 115t114 75t156 26.5q48 0 95 -7.5t92 -21.5l-20 -83q-42 16 -86.5 24.5t-89.5 8.5q-66 0 -115 -21.5t-80 -59t-46 -86t-15 -103.5q0 -63 17 -112t49 -83 t78.5 -51.5t105.5 -17.5q32 0 61 4.5t58 13.5v255h91v-314zM371 724l-157 82l25 51l134 -60l135 60l24 -50z" />
<glyph unicode="&#x1e7;" horiz-adv-x="534" d="M261 506q37 0 72 -9h167v-71h-73q7 -11 16.5 -32t9.5 -56q0 -40 -12.5 -73.5t-38.5 -58t-64 -39t-88 -14.5q-29 0 -53 4q-27 -19 -27 -40q0 -16 16.5 -26t60.5 -11l80 -3q91 -3 135 -41t44 -105q0 -40 -18 -74.5t-51.5 -59t-81.5 -39t-107 -14.5q-98 0 -155 38t-57 109 q0 22 7 41t18.5 36.5t26.5 31.5t33 26q-17 9 -30.5 25.5t-14.5 46.5q0 25 14.5 46.5t41.5 38.5q-17 10 -34.5 28.5t-28.5 47.5t-11 62q0 39 13 73t38.5 58.5t63.5 39t88 14.5zM145 -40q-17 -25 -17 -53q0 -46 36 -69.5t98 -23.5q77 0 115 29.5t38 75.5q0 36 -25 58.5 t-88 24.5l-83 3q-14 0 -26 1q-32 -21 -48 -46zM366 329q0 48 -29 79t-81 31q-53 0 -82 -31t-29 -79t29 -79t82 -31q52 0 81 31t29 79zM270 570l-139 130l39 44l100 -85l101 85l38 -43z" />
<glyph unicode="&#x1fa;" horiz-adv-x="615" d="M333 493q-7 21 -14.5 46t-14.5 49h-1q-5 -20 -11.5 -41t-16.5 -53l-92 -260h242zM502 0l-55 161h-287l-56 -161h-94l242 675h112l241 -675h-103zM262 882l-15 41l169 57l21 -54zM414 785q0 -38 -29.5 -64t-80.5 -26q-47 0 -74 20.5t-27 64.5q0 38 29.5 64t80.5 26 q47 0 74 -20.5t27 -64.5zM357 782q0 23 -12.5 34t-35.5 11q-19 0 -34 -10.5t-15 -34.5q0 -23 12.5 -33.5t35.5 -10.5q19 0 34 10.5t15 33.5z" />
<glyph unicode="&#x1fb;" horiz-adv-x="521" d="M345 233q-59 0 -100 -7.5t-65 -20.5t-34.5 -30t-10.5 -37q0 -33 21 -54.5t55 -21.5q29 0 54 13t43 36t27.5 50.5t9.5 56.5v15zM350 0q0 35 1 57.5t4 41.5h-2q-19 -47 -64 -77.5t-105 -30.5q-62 0 -100 37t-38 97q0 81 78.5 126t220.5 45v27q0 58 -24 85.5t-81 27.5 q-34 0 -74.5 -9.5t-76.5 -25.5l-16 70q41 16 87 25.5t90 9.5q52 0 87.5 -11.5t57 -34t31 -54t9.5 -73.5v-190q0 -36 1 -74t2 -69h-88zM209 780l-17 46l178 70l25 -62zM367 649q0 -45 -31 -75t-84 -30q-49 0 -77 24.5t-28 74.5q0 45 30.5 75t83.5 30q50 0 78 -24.5t28 -74.5z M306 646q0 55 -49 55q-20 0 -34.5 -13.5t-14.5 -41.5q0 -55 48 -55q20 0 35 13.5t15 41.5z" />
<glyph unicode="&#x1fc;" horiz-adv-x="785" d="M367 600h-6q-13 -31 -28.5 -62.5t-38.5 -76.5l-122 -225h195v364zM367 0v163h-229l-85 -163h-96l359 675h396v-76h-254v-214h236v-74h-236v-234h259v-77h-350zM451 725l-17 52l182 74l25 -70z" />
<glyph unicode="&#x1fd;" horiz-adv-x="807" d="M345 233q-59 0 -100 -7.5t-65 -20.5t-34.5 -30t-10.5 -37q0 -33 21 -54.5t55 -21.5q29 0 54 13t43 36t27.5 50.5t9.5 56.5v15zM669 310q1 60 -28.5 94t-81.5 34q-49 0 -82.5 -34t-41.5 -94h234zM761 302q0 -27 -3 -56h-324q-3 -93 35 -138t117 -45q37 0 73.5 7t73.5 20 l12 -69q-41 -15 -84 -22.5t-86 -7.5q-82 0 -131.5 31t-68.5 83h-1q-12 -23 -30 -44t-42 -36.5t-53.5 -24.5t-62.5 -9q-63 0 -101.5 37t-38.5 97q0 81 78.5 126t220.5 45v27q0 58 -24 85.5t-81 27.5q-34 0 -74.5 -9.5t-76.5 -25.5l-16 70q41 16 87 25.5t90 9.5q58 0 97 -18.5 t57 -58.5h1q24 35 65 56t94 21q51 0 88.5 -15.5t61.5 -44t35.5 -65t11.5 -79.5zM419 569l-44 43l129 139l55 -53z" />
<glyph unicode="&#x1fe;" horiz-adv-x="709" d="M444 586q-19 10 -42 15t-47 5q-46 0 -86 -17t-69.5 -51t-46 -83.5t-16.5 -112.5q0 -75 19.5 -128.5t49.5 -86.5zM572 333q0 75 -19 129t-49 86l-238 -459q19 -9 42 -14.5t47 -5.5q46 0 86 17t69.5 51t45.5 83.5t16 112.5zM667 347q0 -84 -25 -151t-69.5 -113 t-102.5 -69.5t-124 -23.5t-119 22l-54 -104l-66 31l54 104q-56 41 -87 113t-31 172q0 84 25 151t69.5 113t102.5 69.5t124 23.5q32 0 62 -5.5t57 -16.5l54 104l65 -31l-54 -104q57 -41 88 -112.5t31 -172.5zM290 765l-17 52l182 74l25 -70z" />
<glyph unicode="&#x1ff;" horiz-adv-x="545" d="M505 256q0 -56 -15.5 -104.5t-46.5 -84.5t-76.5 -56t-102.5 -20q-24 0 -46 3.5t-40 10.5l-49 -94l-56 26l51 95q-41 31 -62.5 83t-21.5 126q0 56 15.5 104.5t46.5 84.5t76.5 56t103.5 20q49 0 85 -14l49 94l56 -26l-50 -95q16 -12 29 -27.5t23 -34.5t17 -41.5t10.5 -49 t3.5 -56.5zM418 249q0 23 -3 44t-8 38.5t-12 31.5t-14 24l-166 -313q26 -12 56 -12q33 0 60.5 12t46.5 36t29.5 59t10.5 80zM330 423q-26 12 -56 12q-33 0 -60 -12t-46.5 -36t-29.5 -59t-10 -80q0 -19 2 -36.5t5.5 -32.5t8 -27.5t10 -23t11.5 -18.5zM255 569l-44 43l129 139 l55 -53z" />
<glyph unicode="&#x218;" horiz-adv-x="503" d="M455 191q0 -44 -16 -80.5t-48 -63.5t-78.5 -41.5t-105.5 -14.5q-41 0 -80 5t-72 14l12 87q34 -13 71.5 -20t74.5 -7q32 0 58.5 6.5t46 20t30 34.5t10.5 50q0 35 -20.5 58.5t-45 36t-80.5 36.5t-87.5 45t-52.5 55.5t-21 85.5q0 41 16 75.5t46 59t74.5 38t99.5 13.5 q31 0 63 -3.5t59 -9.5l-11 -81q-28 8 -58 13t-59 5q-67 0 -101.5 -26.5t-34.5 -74.5q0 -34 19.5 -56t44 -35t82 -37t90 -46.5t53.5 -56.5t21 -85zM247 -49q24 0 37.5 -16.5t13.5 -40.5q0 -32 -24 -66.5t-86 -67.5l-23 34q27 20 37 36.5t10 30.5q0 8 -2 13t-4 9.5l-4 9 t-2 12.5q0 18 12 32t35 14z" />
<glyph unicode="&#x219;" horiz-adv-x="425" d="M376 143q0 -32 -13.5 -59.5t-39.5 -48.5t-64.5 -32.5t-87.5 -11.5q-31 0 -62 3.5t-55 9.5l7 80q25 -9 56.5 -15t60.5 -6q51 0 78 19t27 54q0 25 -15.5 41t-48 28.5t-60.5 22.5t-52.5 25t-40.5 41.5t-16 67.5q0 63 51 103.5t145 40.5q25 0 50 -2.5t46 -6.5l-6 -75 q-22 7 -48 11t-50 4q-47 0 -71.5 -18t-24.5 -49q0 -25 15.5 -40.5t48.5 -28.5t60.5 -23t52.5 -25.5t41 -42t16 -67.5zM214 -49q24 0 37.5 -16.5t13.5 -40.5q0 -32 -24 -66.5t-86 -67.5l-23 34q27 20 37 36.5t10 30.5q0 8 -2 13t-4 9.5l-4 9t-2 12.5q0 18 12 32t35 14z" />
<glyph unicode="&#x21a;" horiz-adv-x="516" d="M304 598v-598h-92v598h-194v77h481v-77h-195zM261 -49q24 0 37.5 -16.5t13.5 -40.5q0 -32 -24 -66.5t-86 -67.5l-23 34q27 20 37 36.5t10 30.5q0 8 -2 13t-4 9.5l-4 9t-2 12.5q0 18 12 32t35 14z" />
<glyph unicode="&#x21b;" horiz-adv-x="371" d="M339 3q-21 -5 -47.5 -8t-50.5 -3q-39 0 -64.5 8.5t-40.5 26t-22 46t-7 70.5v284h-100v70h100v161l90 25v-186h138v-70h-138v-262q0 -29 3.5 -47.5t11 -29.5t20.5 -15.5t33 -4.5q29 0 67 8zM217 -49q24 0 37.5 -16.5t13.5 -40.5q0 -32 -24 -66.5t-86 -67.5l-23 34 q27 20 37 36.5t10 30.5q0 8 -2 13t-4 9.5l-4 9t-2 12.5q0 18 12 32t35 14z" />
<glyph unicode="&#x237;" horiz-adv-x="266" d="M181 -55q0 -50 -8.5 -86t-28.5 -62.5t-52.5 -38.5t-75.5 -12q-17 0 -36 2t-39 6l8 79q14 -5 34 -8t36 -3q20 0 33.5 5t22.5 18t13 36t4 56v560h89v-552v0z" />
<glyph unicode="&#xf6be;" horiz-adv-x="266" d="M181 -55q0 -50 -8.5 -86t-28.5 -62.5t-52.5 -38.5t-75.5 -12q-17 0 -36 2t-39 6l8 79q14 -5 34 -8t36 -3q20 0 33.5 5t22.5 18t13 36t4 56v560h89v-552v0z" />
<glyph unicode="&#x2c6;" horiz-adv-x="444" d="M322 570l-100 85l-102 -85l-37 43l140 131l138 -130z" />
<glyph unicode="&#x2c7;" horiz-adv-x="444" d="M222 570l-139 130l39 44l100 -85l101 85l38 -43z" />
<glyph unicode="&#x2d8;" horiz-adv-x="416" d="M333 718q0 -27 -7.5 -51.5t-23 -43t-39.5 -29.5t-57 -11t-56.5 11t-38 30t-21.5 43t-7 51h61q0 -28 16 -48t47 -20q29 0 46.5 17.5t17.5 50.5h62v0z" />
<glyph unicode="&#x2d9;" horiz-adv-x="282" d="M199 654q0 -24 -17 -41t-41 -17t-41 16.5t-17 41.5q0 24 17 41t41 17t41 -17t17 -41z" />
<glyph unicode="&#x2da;" horiz-adv-x="397" d="M315 662q0 -49 -33.5 -81t-87.5 -32q-53 0 -82 27t-29 79q0 49 33 80.5t87 31.5q53 0 82.5 -26.5t29.5 -78.5zM249 658q0 58 -50 58q-22 0 -36.5 -15t-14.5 -42q0 -58 50 -58q22 0 36.5 14.5t14.5 42.5z" />
<glyph unicode="&#x2db;" horiz-adv-x="386" d="M261 0q-52 -37 -72 -67t-20 -58q0 -40 40 -40q31 0 66 26l28 -51q-29 -25 -57.5 -34.5t-55.5 -9.5q-50 0 -78.5 24.5t-28.5 66.5q0 79 90 150z" />
<glyph unicode="&#x2dc;" horiz-adv-x="507" d="M424 671q-20 -38 -47.5 -58t-61.5 -20q-22 0 -38.5 7.5t-36 21.5t-29.5 20t-24 6q-33 0 -59 -47l-45 35q20 38 47.5 58t61.5 20q22 0 38.5 -7t36 -21t29.5 -20t24 -6q34 0 59 46z" />
<glyph unicode="&#x2dd;" horiz-adv-x="523" d="M127 570l-44 39l118 141l56 -48zM301 570l-43 40l128 134l54 -50z" />
<glyph unicode="&#x312;" horiz-adv-x="0" d="M-289 566q-23 0 -38 18t-12.5 48.5t29.5 63.5t80 61l23 -34q-21 -15 -30.5 -27.5t-13 -24t-2 -21t5.5 -17.5q6 -10 6 -22.5t-6 -22.5t-17.5 -16t-24.5 -6z" />
<glyph unicode="&#x315;" horiz-adv-x="34" d="M17 565l-60 16l55 181l75 -20z" />
<glyph unicode="&#x326;" horiz-adv-x="0" d="M-285 -49q24 0 37.5 -16.5t13.5 -40.5q0 -32 -24 -66.5t-86 -67.5l-23 34q27 20 37 36.5t10 30.5q0 8 -2 13t-4 9.5l-4 9t-2 12.5q0 18 12 32t35 14z" />
<glyph unicode="&#x394;" horiz-adv-x="608" d="M320 516q-7 21 -11.5 39t-8.5 36h-1q-5 -21 -10.5 -40t-11.5 -37l-152 -433h348zM28 0v67l219 608h111l221 -608v-67h-551z" />
<glyph unicode="&#x3a9;" horiz-adv-x="720" d="M433 0v75q33 27 58 54t42.5 58.5t26.5 70.5t9 87q0 57 -13 104.5t-39.5 82t-66 53.5t-91.5 19q-44 0 -82 -17.5t-66.5 -51t-44.5 -81t-16 -105.5q0 -47 7.5 -85t23.5 -70t41.5 -61t63.5 -58v-75h-243v77h142q-62 44 -97.5 112t-35.5 157q0 77 24 140.5t67 107.5t101 67.5 t125 23.5q64 0 118 -20.5t94.5 -61.5t63 -103t22.5 -143q0 -47 -10.5 -89t-29.5 -77.5t-44 -63.5t-54 -50h147v-77h-243z" />
<glyph unicode="&#x2126;" horiz-adv-x="720" d="M433 0v75q33 27 58 54t42.5 58.5t26.5 70.5t9 87q0 57 -13 104.5t-39.5 82t-66 53.5t-91.5 19q-44 0 -82 -17.5t-66.5 -51t-44.5 -81t-16 -105.5q0 -47 7.5 -85t23.5 -70t41.5 -61t63.5 -58v-75h-243v77h142q-62 44 -97.5 112t-35.5 157q0 77 24 140.5t67 107.5t101 67.5 t125 23.5q64 0 118 -20.5t94.5 -61.5t63 -103t22.5 -143q0 -47 -10.5 -89t-29.5 -77.5t-44 -63.5t-54 -50h147v-77h-243z" />
<glyph unicode="&#x3bc;" horiz-adv-x="586" d="M550 -4q-19 -4 -38 -4q-55 0 -78 28.5t-21 82.5l-1 1q-20 -52 -62.5 -82t-100.5 -30q-27 0 -48.5 9t-34.5 26l11 -274h-92v744h90v-328q0 -53 20.5 -78.5t63.5 -25.5q31 0 57 14t45 40.5t29.5 62.5t10.5 78v237h90v-325q0 -34 2.5 -54t9 -31t17.5 -15.5t30 -4.5v-71z" />
<glyph unicode="&#x3c0;" horiz-adv-x="633" d="M476 423q0 -91 5 -159t13 -113q9 -47 21.5 -65t33.5 -18q23 0 42 6l10 -73q-13 -4 -31.5 -6.5t-36.5 -2.5q-56 0 -85 31t-44 106q-9 48 -13.5 122.5t-4.5 171.5h-165q2 -111 -13 -219t-48 -210l-99 12q38 109 56 211.5t17 205.5h-121v74h586v-74h-123z" />
<glyph unicode="&#x1e02;" horiz-adv-x="571" d="M424 194q0 29 -10 51t-31.5 37t-56 23t-81.5 8h-24.5t-24 -0.5t-19.5 -0.5v-236q30 -5 87 -5q80 0 120 34t40 89zM402 498q0 24 -7 43t-23.5 34t-44 23t-67.5 8q-15 0 -36.5 -1t-46.5 -2v-220q9 0 18.5 -0.5t20 -0.5h30.5q77 0 116.5 30t39.5 86zM521 200 q0 -36 -14 -71.5t-45 -65.5t-82.5 -48t-122.5 -18q-27 0 -89 1.5t-83 1.5v675q24 1 76 2.5t108 1.5q115 0 172 -44t57 -123q0 -53 -29.5 -94.5t-82.5 -60.5v-1q31 -6 56 -19t42.5 -33t27 -46.5t9.5 -57.5zM327 785q0 -24 -17 -41t-41 -17t-41 17t-17 41t17 41t41 17 t41 -16.5t17 -41.5z" />
<glyph unicode="&#x1e03;" horiz-adv-x="558" d="M421 264q0 82 -27.5 125t-82.5 43q-32 0 -58 -17t-43 -45t-26 -62t-9 -67v-164q10 -3 33.5 -8t54.5 -5q36 0 65 11.5t50 35.5t32 62.5t11 90.5zM515 272q0 -65 -18 -116.5t-51.5 -88t-81.5 -55.5t-108 -19q-57 0 -104 7.5t-67 12.5v717h90v-241q0 -23 -2.5 -49t-6.5 -44 l2 -1q20 52 63.5 81.5t100.5 29.5q88 0 135.5 -60t47.5 -174zM189 854q0 -24 -17 -41t-41 -17t-41 17t-17 41t17 41t41 17t41 -16.5t17 -41.5z" />
<glyph unicode="&#x1e0a;" horiz-adv-x="678" d="M535 339q0 130 -63.5 197t-193.5 67q-22 0 -55 -1t-46 -2v-520q18 -3 42.5 -4.5t46.5 -1.5q60 0 109.5 16t85 48.5t55 83t19.5 117.5zM632 345q0 -85 -27 -150.5t-77.5 -110t-119.5 -66.5t-152 -22q-36 0 -92 2t-79 2v674q55 1 106 2.5t96 1.5q82 0 146 -19.5 t108.5 -60.5t67.5 -104t23 -149zM359 785q0 -24 -17 -41t-41 -17t-41 17t-17 41t17 41t41 17t41 -16.5t17 -41.5z" />
<glyph unicode="&#x1e0b;" horiz-adv-x="558" d="M384 422q-24 5 -46 8t-43 3q-36 0 -65 -11.5t-49.5 -35.5t-31.5 -62t-11 -91q0 -82 27 -125t82 -43q33 0 58.5 17t43 45.5t26.5 62t9 67.5v165zM386 0q0 25 2 53t6 48l-2 1q-21 -51 -64.5 -81t-101.5 -30q-91 0 -137 61.5t-46 172.5q0 65 18 116.5t51.5 88t81 55.5 t106.5 19q19 0 38.5 -1t45.5 -4v231h89v-730h-87zM486 854q0 -24 -17 -41t-41 -17t-41 17t-17 41t17 41t41 17t41 -16.5t17 -41.5z" />
<glyph unicode="&#x1e1e;" horiz-adv-x="471" d="M177 599v-220h241v-74h-241v-305h-92v675h351v-76h-259zM320 785q0 -24 -17 -41t-41 -17t-41 17t-17 41t17 41t41 17t41 -16.5t17 -41.5z" />
<glyph unicode="&#x1e1f;" horiz-adv-x="350" d="M374 652q-9 3 -30 7t-44 4q-52 0 -76.5 -31t-24.5 -98v-37h138v-70h-138v-427h-90v427h-102v70h102v31q0 105 50 156.5t143 51.5q40 0 80 -8zM310 854q0 -24 -17 -41t-41 -17t-41 17t-17 41t17 41t41 17t41 -16.5t17 -41.5z" />
<glyph unicode="&#x1e40;" horiz-adv-x="894" d="M752 0l-53 394q-8 63 -13 112t-6 84h-2q-7 -29 -17 -64.5t-24 -79.5l-156 -446h-84l-148 423q-15 44 -28.5 89t-21.5 78h-1q-1 -41 -5.5 -91t-10.5 -109l-44 -390h-91l87 675h126l150 -426q11 -33 19.5 -63t13.5 -58h1q7 32 15 63t17 58l150 426h130l91 -675h-95z M504 785q0 -24 -17 -41t-41 -17t-41 17t-17 41t17 41t41 17t41 -16.5t17 -41.5z" />
<glyph unicode="&#x1e41;" horiz-adv-x="879" d="M704 0v319q0 56 -17.5 84.5t-63.5 28.5q-27 0 -52 -13.5t-44.5 -39.5t-31 -62.5t-11.5 -80.5v-236h-89v319q0 26 -3.5 46t-12 35t-24.5 23.5t-41 8.5q-28 0 -53.5 -14.5t-44.5 -41t-30 -62.5t-11 -78v-236h-90v497h87q0 -25 -2 -54.5t-5 -50.5l1 -1q22 53 68 84t105 31 q37 0 63.5 -11t42 -28.5t22.5 -36.5t9 -37q9 20 23 39t35 36t49.5 27.5t62.5 10.5q72 0 110 -40t38 -123v-343h-90zM497 657q0 -24 -17 -41t-41 -17t-41 16.5t-17 41.5q0 24 17 41t41 17t41 -17t17 -41z" />
<glyph unicode="&#x1e56;" d="M518 469q0 -51 -18.5 -94.5t-54 -76t-85.5 -50t-112 -17.5q-22 0 -42 1t-29 2v-234h-92v675q24 1 75 2.5t102 1.5q126 0 191 -59t65 -151zM423 456q0 68 -43 108t-129 40q-22 0 -43 -0.5t-31 -1.5v-290q10 -1 32 -3.5t46 -2.5q81 0 124.5 41.5t43.5 108.5zM325 785 q0 -24 -17 -41t-41 -17t-41 17t-17 41t17 41t41 17t41 -16.5t17 -41.5z" />
<glyph unicode="&#x1e57;" horiz-adv-x="558" d="M421 264q0 82 -27.5 125t-82.5 43q-32 0 -58 -17t-43 -45.5t-26 -62t-9 -67.5v-164q39 -12 88 -12q36 0 65 11.5t50 35.5t32 62.5t11 90.5zM515 272q0 -132 -67.5 -205t-188.5 -73q-25 0 -44.5 1t-39.5 5v-247h-90v744h87q0 -25 -2 -53.5t-6 -47.5l2 -1q21 52 64.5 81.5 t102.5 29.5q87 0 134.5 -60.5t47.5 -173.5zM364 657q0 -24 -17 -41t-41 -17t-41 16.5t-17 41.5q0 24 17 41t41 17t41 -17t17 -41z" />
<glyph unicode="&#x1e60;" horiz-adv-x="503" d="M455 191q0 -44 -16 -80.5t-48 -63.5t-78.5 -41.5t-105.5 -14.5q-41 0 -80 5t-72 14l12 87q34 -13 71.5 -20t74.5 -7q32 0 58.5 6.5t46 20t30 34.5t10.5 50q0 35 -20.5 58.5t-45 36t-80.5 36.5t-87.5 45t-52.5 55.5t-21 85.5q0 41 16 75.5t46 59t74.5 38t99.5 13.5 q31 0 63 -3.5t59 -9.5l-11 -81q-28 8 -58 13t-59 5q-67 0 -101.5 -26.5t-34.5 -74.5q0 -34 19.5 -56t44 -35t82 -37t90 -46.5t53.5 -56.5t21 -85zM310 788q0 -24 -17 -41t-41 -17t-41 17t-17 41t17 41t41 17t41 -16.5t17 -41.5z" />
<glyph unicode="&#x1e61;" horiz-adv-x="425" d="M376 143q0 -32 -13.5 -59.5t-39.5 -48.5t-64.5 -32.5t-87.5 -11.5q-31 0 -62 3.5t-55 9.5l7 80q25 -9 56.5 -15t60.5 -6q51 0 78 19t27 54q0 25 -15.5 41t-48 28.5t-60.5 22.5t-52.5 25t-40.5 41.5t-16 67.5q0 63 51 103.5t145 40.5q25 0 50 -2.5t46 -6.5l-6 -75 q-22 7 -48 11t-50 4q-47 0 -71.5 -18t-24.5 -49q0 -25 15.5 -40.5t48.5 -28.5t60.5 -23t52.5 -25.5t41 -42t16 -67.5zM270 657q0 -24 -17 -41t-41 -17t-41 16.5t-17 41.5q0 24 17 41t41 17t41 -17t17 -41z" />
<glyph unicode="&#x1e6a;" horiz-adv-x="516" d="M304 598v-598h-92v598h-194v77h481v-77h-195zM316 785q0 -24 -17 -41t-41 -17t-41 17t-17 41t17 41t41 17t41 -16.5t17 -41.5z" />
<glyph unicode="&#x1e6b;" horiz-adv-x="371" d="M339 3q-21 -5 -47.5 -8t-50.5 -3q-39 0 -64.5 8.5t-40.5 26t-22 46t-7 70.5v284h-100v70h100v161l90 25v-186h138v-70h-138v-262q0 -29 3.5 -47.5t11 -29.5t20.5 -15.5t33 -4.5q29 0 67 8zM210 785q0 -24 -17 -41t-41 -17t-41 17t-17 41t17 41t41 17t41 -16.5t17 -41.5z " />
<glyph unicode="&#x1e80;" horiz-adv-x="955" d="M742 0h-115l-128 444q-6 22 -11.5 47.5t-10.5 56.5h-2q-7 -52 -20 -104l-125 -444h-116l-180 675h98l116 -438q10 -40 17 -75t12 -70h2q16 88 30 141l125 442h92l130 -448q10 -34 18 -69t13 -66h1q7 40 12 68.5t12 56.5l119 458h90zM526 725l-190 56l26 70l181 -74z" />
<glyph unicode="&#x1e81;" horiz-adv-x="793" d="M617 0h-103l-98 295q-8 26 -15 52t-13 50h-1q-7 -30 -15.5 -61.5t-18.5 -66.5l-83 -269h-102l-152 497h100l78 -274q9 -33 18.5 -68.5t14.5 -58.5h1q7 30 15.5 63t17.5 65l86 273h97l87 -273q7 -23 12.5 -41t9.5 -33t7.5 -28t6.5 -27h1q5 25 13 53.5t20 74.5l81 274h95z M410 569l-140 128l55 54l129 -139z" />
<glyph unicode="&#x1e82;" horiz-adv-x="955" d="M742 0h-115l-128 444q-6 22 -11.5 47.5t-10.5 56.5h-2q-7 -52 -20 -104l-125 -444h-116l-180 675h98l116 -438q10 -40 17 -75t12 -70h2q16 88 30 141l125 442h92l130 -448q10 -34 18 -69t13 -66h1q7 40 12 68.5t12 56.5l119 458h90zM431 725l-17 52l182 74l25 -70z" />
<glyph unicode="&#x1e83;" horiz-adv-x="793" d="M617 0h-103l-98 295q-8 26 -15 52t-13 50h-1q-7 -30 -15.5 -61.5t-18.5 -66.5l-83 -269h-102l-152 497h100l78 -274q9 -33 18.5 -68.5t14.5 -58.5h1q7 30 15.5 63t17.5 65l86 273h97l87 -273q7 -23 12.5 -41t9.5 -33t7.5 -28t6.5 -27h1q5 25 13 53.5t20 74.5l81 274h95z M374 569l-44 43l129 139l55 -53z" />
<glyph unicode="&#x1e84;" horiz-adv-x="955" d="M742 0h-115l-128 444q-6 22 -11.5 47.5t-10.5 56.5h-2q-7 -52 -20 -104l-125 -444h-116l-180 675h98l116 -438q10 -40 17 -75t12 -70h2q16 88 30 141l125 442h92l130 -448q10 -34 18 -69t13 -66h1q7 40 12 68.5t12 56.5l119 458h90zM641 782q0 -22 -15.5 -38t-38.5 -16 q-22 0 -37.5 15.5t-15.5 38.5t15.5 38.5t37.5 15.5q23 0 38.5 -15.5t15.5 -38.5zM428 782q0 -22 -15.5 -38t-38.5 -16q-22 0 -38 16t-16 38q0 23 16 38.5t38 15.5q23 0 38.5 -15.5t15.5 -38.5z" />
<glyph unicode="&#x1e85;" horiz-adv-x="793" d="M617 0h-103l-98 295q-8 26 -15 52t-13 50h-1q-7 -30 -15.5 -61.5t-18.5 -66.5l-83 -269h-102l-152 497h100l78 -274q9 -33 18.5 -68.5t14.5 -58.5h1q7 30 15.5 63t17.5 65l86 273h97l87 -273q7 -23 12.5 -41t9.5 -33t7.5 -28t6.5 -27h1q5 25 13 53.5t20 74.5l81 274h95z M353 654q0 -22 -16 -38t-38 -16t-38 16t-16 38t16 38t38 16t38 -16t16 -38zM545 654q0 -22 -16 -38t-38 -16t-38 16t-16 38t16 38t38 16t38 -16t16 -38z" />
<glyph unicode="&#x1ef2;" horiz-adv-x="537" d="M313 259v-259h-91v259l-220 416h101l116 -220q27 -54 50 -111h2q13 32 29 65t25 50l112 216h98zM263 725l-190 56l26 70l181 -74z" />
<glyph unicode="&#x1ef3;" horiz-adv-x="480" d="M272 -42q-22 -60 -46 -100.5t-52.5 -65.5t-62.5 -36t-77 -11q-17 0 -33 2t-23 4l9 78q7 -2 24 -5t35 -3q21 0 39 6t33.5 20.5t30 38.5t28.5 60l20 54l-188 497h103l94 -260q10 -30 20.5 -64.5t18.5 -62.5h1q3 13 8 29.5t11 36t15 45.5t14 43l80 233h97zM223 569l-140 128 l55 54l129 -139z" />
<glyph unicode="&#x2010;" horiz-adv-x="330" d="M47 250v74h236v-74h-236z" />
<glyph unicode="&#x2013;" d="M0 259v78h550v-78h-550z" />
<glyph unicode="&#x2014;" horiz-adv-x="1000" d="M118 259v78h764v-78h-764z" />
<glyph unicode="&#x2015;" horiz-adv-x="1000" d="M118 259v78h764v-78h-764z" />
<glyph unicode="&#x2018;" horiz-adv-x="244" d="M203 715q-48 -52 -54.5 -86.5t11.5 -56.5q10 -14 11.5 -29.5t-4.5 -29t-19.5 -22.5t-31.5 -9q-27 0 -45 22t-16.5 59.5t26.5 85.5t83 101l39 -35v0z" />
<glyph unicode="&#x2019;" horiz-adv-x="244" d="M126 743q28 0 45.5 -22t16 -60.5t-28 -87t-81.5 -98.5l-39 35q45 49 53.5 84t-10.5 59q-10 13 -11.5 29t5 30t19.5 22.5t31 8.5z" />
<glyph unicode="&#x201a;" horiz-adv-x="244" d="M126 113q27 0 45 -22t17 -58.5t-26.5 -85t-83.5 -101.5l-39 34q48 53 54.5 87.5t-11.5 56.5q-11 13 -12 28.5t5 29t19.5 22.5t31.5 9z" />
<glyph unicode="&#x201c;" horiz-adv-x="433" d="M203 715q-45 -49 -53.5 -84t10.5 -59q10 -13 11.5 -29t-5 -30t-19.5 -22.5t-31 -8.5q-28 0 -45.5 22t-16 60.5t28 87t81.5 98.5zM393 715q-45 -49 -53.5 -84t10.5 -59q10 -13 11.5 -29t-5 -30t-19.5 -22.5t-31 -8.5q-28 0 -45.5 22t-16 60.5t28 87t81.5 98.5z" />
<glyph unicode="&#x201d;" horiz-adv-x="433" d="M126 743q27 0 45 -22t16.5 -59t-26.5 -85.5t-83 -101.5l-39 35q48 52 54 86.5t-11 56.5q-11 13 -12 29t5 29.5t19.5 22.5t31.5 9zM316 743q27 0 45 -22t16.5 -59t-26.5 -85.5t-83 -101.5l-39 35q48 52 54 86.5t-11 56.5q-11 13 -12 29t5 29.5t19.5 22.5t31.5 9z" />
<glyph unicode="&#x201e;" horiz-adv-x="433" d="M126 113q27 0 45 -22t17 -58.5t-26.5 -85t-83.5 -101.5l-39 34q48 54 54.5 88t-11.5 56q-11 13 -12 28.5t5 29t19.5 22.5t31.5 9zM316 113q27 0 45 -22t17 -58.5t-26.5 -85t-83.5 -101.5l-39 34q48 53 54.5 87.5t-11.5 56.5q-11 13 -12 28.5t5 29t19.5 22.5t31.5 9z" />
<glyph unicode="&#x2020;" horiz-adv-x="449" d="M260 557l17 -98l-19 -251h-67l-19 251l16 98h-140v70h140l-16 137h105l-17 -137h140v-70h-140z" />
<glyph unicode="&#x2021;" horiz-adv-x="449" d="M261 295l16 -130h-106l17 130h-140v70h140l-16 100l16 99h-140v70h140l-16 130h105l-16 -130h139v-70h-139l16 -99l-16 -100h139v-70h-139z" />
<glyph unicode="&#x2022;" horiz-adv-x="420" d="M331 297q0 -25 -9.5 -47t-26 -38.5t-38.5 -26t-47 -9.5t-47 9.5t-38.5 26t-26 38.5t-9.5 47t9.5 47t26 38.5t38.5 26t47 9.5t47 -9.5t38.5 -26t26 -38.5t9.5 -47z" />
<glyph unicode="&#x2030;" horiz-adv-x="1026" d="M321 539q0 -37 -11 -67t-30.5 -50.5t-45.5 -31.5t-55 -11q-62 0 -97 36.5t-35 110.5q0 36 11 65.5t30.5 50t45 31.5t54.5 11q61 0 97 -35.5t36 -109.5zM249 532q0 47 -15.5 69.5t-48.5 22.5q-31 0 -48.5 -25t-17.5 -68q0 -47 15.5 -69.5t48.5 -22.5q31 0 48.5 25t17.5 68 zM112 -16l-55 42l527 665l56 -44zM651 151q0 -37 -11 -67t-30.5 -51t-45.5 -32t-55 -11q-62 0 -97 36.5t-35 110.5q0 36 11 66t30.5 50.5t45 31t54.5 10.5q61 0 97 -35t36 -109zM580 144q0 47 -15.5 69t-49.5 22q-31 0 -48.5 -25t-17.5 -67q0 -48 15 -70t49 -22q31 0 49 25 t18 68zM969 151q0 -37 -11 -67.5t-30.5 -51t-45 -31.5t-54.5 -11q-62 0 -97 36.5t-35 110.5q0 36 11 66t30.5 50.5t45 31t54.5 10.5q61 0 96.5 -35t35.5 -109zM898 144q0 47 -15.5 69t-48.5 22q-31 0 -49 -25t-18 -67q0 -92 65 -92q31 0 48.5 25t17.5 68z" />
<glyph unicode="&#x2039;" horiz-adv-x="313" d="M172 115l-119 178l120 181l66 -36l-96 -144l97 -142z" />
<glyph unicode="&#x203a;" horiz-adv-x="313" d="M139 115l-66 36l98 144l-97 142l68 37l118 -178z" />
<glyph unicode="&#x203d;" horiz-adv-x="514" d="M267 651q55 -5 93 -19t61.5 -35.5t34.5 -48t11 -55.5q0 -38 -15.5 -64.5t-39 -48.5t-50.5 -42t-50.5 -43t-39 -54t-15.5 -73h-77l-9 407q-27 -1 -58.5 -5t-68.5 -11l-3 76q35 7 67 10t60 5l-1 56h101zM217 109q13 0 24 -4.5t19 -12.5t13 -18.5t5 -23.5q0 -12 -5 -23 t-13 -19t-19 -12.5t-24 -4.5q-12 0 -23.5 4.5t-19 12.5t-12.5 19t-5 23q0 13 5 23.5t12.5 18.5t19 12.5t23.5 4.5zM260 342q18 22 38 39t36.5 32.5t27 32.5t10.5 40q0 15 -5 29.5t-17.5 26.5t-32.5 20.5t-52 12.5z" />
<glyph unicode="&#x2044;" horiz-adv-x="207" d="M-176 -141l-58 41l639 904l58 -41z" />
<glyph unicode="&#x2215;" horiz-adv-x="207" d="M-176 -141l-58 41l639 904l58 -41z" />
<glyph unicode="&#x2070;" horiz-adv-x="440" d="M397 577q0 -49 -11.5 -89t-34.5 -69.5t-57.5 -45.5t-79.5 -16t-78 15t-53.5 42.5t-30 66.5t-9.5 88q0 48 11.5 88.5t34.5 70t57.5 45.5t79.5 16q44 0 76.5 -15t53.5 -43.5t31 -67t10 -86.5zM311 571q0 34 -4.5 61.5t-14.5 48.5t-28 33t-44 12q-25 0 -43 -11.5 t-28.5 -32.5t-15 -48t-4.5 -59q0 -34 4.5 -61.5t14.5 -48.5t28 -33t44 -12q25 0 43 11.5t28.5 32.5t15 48t4.5 59z" />
<glyph unicode="&#x2074;" horiz-adv-x="390" d="M299 457v-93h-79v93h-194l-6 56l162 269h117v-258h67v-67h-67zM220 725l-122 -203q12 0 28.5 0.5t33.5 0.5h31h29v202z" />
<glyph unicode="&#x2075;" horiz-adv-x="344" d="M304 502q0 -34 -12 -60.5t-36.5 -46.5t-57.5 -29t-69 -9q-23 0 -44.5 3t-37.5 7l7 61q14 -5 35 -8t41 -3q41 0 64 21.5t23 51.5q0 33 -23.5 52t-76.5 19q-11 0 -23 -0.5t-32 -2.5v224h220v-66h-142v-96q10 1 11 1h4q71 -1 110 -32.5t39 -86.5z" />
<glyph unicode="&#x2076;" horiz-adv-x="404" d="M364 504q0 -34 -12.5 -61.5t-35 -46.5t-52.5 -29t-64 -10q-40 0 -69 12.5t-48 36t-28 56.5t-9 76q0 56 13 101.5t40 79t69 52t98 18.5q15 0 32 -1.5t30 -3.5l-7 -61q-10 3 -27.5 4.5t-33.5 1.5q-30 0 -52 -8t-38 -23q-12 -12 -19.5 -27t-11.5 -29t-7.5 -30t-5.5 -21 q14 18 40.5 28.5t55.5 10.5q32 0 58 -8.5t45 -24.5t29 -39.5t10 -53.5zM282 494q0 39 -20.5 59t-53.5 20q-17 0 -31.5 -5t-25 -14.5t-16.5 -23t-6 -30.5q0 -19 5.5 -34.5t15.5 -26.5t24 -17t32 -6q35 0 55.5 21.5t20.5 56.5z" />
<glyph unicode="&#x2077;" horiz-adv-x="328" d="M298 719q-18 -38 -36.5 -82t-35 -91t-30.5 -93.5t-23 -88.5h-91q12 47 28.5 97.5t34.5 97.5t35.5 87t32.5 67q-5 0 -26.5 -0.5t-50.5 -1t-58.5 -0.5h-50.5v71h271v-63z" />
<glyph unicode="&#x2078;" horiz-adv-x="392" d="M351 477q0 -27 -10.5 -49t-31.5 -38t-51 -25t-68 -9q-71 0 -110 28t-39 80q0 32 20.5 58t61.5 51q-36 19 -55 44t-19 57q0 26 10 47.5t30 36.5t48.5 23.5t64.5 8.5q66 0 103.5 -27.5t37.5 -75.5q0 -30 -19.5 -54.5t-55.5 -47.5q42 -22 62.5 -47.5t20.5 -60.5zM264 681 q0 26 -18 39.5t-50 13.5t-50 -14t-18 -36q0 -21 17.5 -38.5t54.5 -34.5q30 16 47 33.5t17 36.5zM271 467q0 23 -19.5 42t-60.5 36q-33 -17 -51.5 -36t-18.5 -39q0 -28 20 -43t55 -15t55 15t20 40z" />
<glyph unicode="&#x2079;" horiz-adv-x="402" d="M356 603q0 -64 -16.5 -111.5t-45.5 -77t-69 -43.5t-88 -14q-20 0 -40 2t-35 5l7 62q17 -4 36 -7t37 -3q53 0 83.5 27t40.5 78q3 12 5 18.5t6 18.5q-14 -19 -40 -30t-55 -11q-32 0 -58 8.5t-44.5 24t-28 39.5t-9.5 53q0 35 12.5 63t34.5 46.5t51 28t64 9.5q24 0 51 -6.5 t49.5 -26t37 -57t14.5 -96.5zM274 648q0 13 -3.5 28t-12 27t-23.5 19.5t-37 7.5q-33 0 -54 -20.5t-21 -56.5q1 -43 21.5 -61t52.5 -18q20 0 35 6t24.5 17t13.5 23.5t4 27.5z" />
<glyph unicode="&#x2080;" horiz-adv-x="440" d="M397 108q0 -49 -11.5 -89t-34.5 -69.5t-57.5 -45.5t-79.5 -16t-78 15t-53.5 42.5t-30 66.5t-9.5 88q0 48 11.5 88.5t34.5 70t57.5 45.5t79.5 16q44 0 76.5 -15t53.5 -43.5t31 -67t10 -86.5zM311 102q0 34 -4.5 61.5t-14.5 48.5t-28 33t-44 12q-25 0 -43 -11.5 t-28.5 -32.5t-15 -48t-4.5 -59q0 -34 4.5 -61.5t14.5 -48.5t28 -33t44 -12q25 0 43 11.5t28.5 32.5t15 48t4.5 59z" />
<glyph unicode="&#x2081;" horiz-adv-x="276" d="M118 -105v340l-88 -34l-15 70l118 42h71v-418h-86z" />
<glyph unicode="&#x2082;" horiz-adv-x="357" d="M39 -105v62l93 93q41 41 61 73t20 61q0 32 -17.5 50.5t-52.5 18.5q-22 0 -45.5 -6.5t-41.5 -16.5l-13 64q25 11 57 18.5t63 7.5q65 0 102 -32.5t37 -88.5q0 -45 -20 -83t-64 -83l-69 -69q30 1 68 1.5t102 0.5v-71h-280z" />
<glyph unicode="&#x2083;" horiz-adv-x="348" d="M301 22q0 -30 -13 -55t-36.5 -42.5t-56.5 -27t-72 -9.5q-19 0 -43 2.5t-44 6.5l9 63q15 -5 37 -8t43 -3q42 0 65.5 18.5t23.5 49.5q0 36 -38 53t-111 8v59q67 0 101.5 16.5t34.5 53.5q0 25 -17.5 39t-49.5 14q-20 0 -42 -5t-41 -13l-9 59q25 9 54.5 14t55.5 5 q63 0 98.5 -26.5t35.5 -76.5q0 -37 -17.5 -61t-51.5 -36q40 -9 62 -36t22 -62z" />
<glyph unicode="&#x2084;" horiz-adv-x="390" d="M299 -12v-93h-79v93h-194l-6 56l162 269h117v-258h67v-67h-67zM220 256l-122 -203q12 0 28.5 0.5t33.5 0.5h31h29v202z" />
<glyph unicode="&#x2085;" horiz-adv-x="344" d="M304 33q0 -34 -12 -60.5t-36.5 -46.5t-57.5 -29t-69 -9q-23 0 -44.5 3t-37.5 7l7 61q14 -5 35 -8t41 -3q41 0 64 21.5t23 51.5q0 33 -23.5 52t-76.5 19q-11 0 -23 -0.5t-32 -2.5v224h220v-66h-142v-96q10 1 11 1h4q71 -1 110 -32.5t39 -86.5z" />
<glyph unicode="&#x2086;" horiz-adv-x="404" d="M364 35q0 -34 -12.5 -61.5t-35 -46.5t-52.5 -29t-64 -10q-40 0 -69 12.5t-48 36t-28 56.5t-9 76q0 56 13 101.5t40 79t69 52t98 18.5q15 0 32 -1.5t30 -3.5l-7 -61q-10 3 -27.5 4.5t-33.5 1.5q-30 0 -52 -8t-38 -23q-12 -12 -19.5 -27t-11.5 -29t-7.5 -30t-5.5 -21 q14 18 40.5 28.5t55.5 10.5q32 0 58 -8.5t45 -24.5t29 -39.5t10 -53.5zM282 25q0 39 -20.5 59t-53.5 20q-17 0 -31.5 -5t-25 -14.5t-16.5 -23t-6 -30.5q0 -19 5.5 -34.5t15.5 -26.5t24 -17t32 -6q35 0 55.5 21.5t20.5 56.5z" />
<glyph unicode="&#x2087;" horiz-adv-x="328" d="M298 250q-18 -38 -36.5 -82t-35 -91t-30.5 -93.5t-23 -88.5h-91q12 47 28.5 97.5t34.5 97.5t35.5 87t32.5 67q-5 0 -26.5 -0.5t-50.5 -1t-58.5 -0.5h-50.5v71h271v-63z" />
<glyph unicode="&#x2088;" horiz-adv-x="392" d="M351 8q0 -27 -10.5 -49t-31.5 -38t-51 -25t-68 -9q-71 0 -110 28t-39 80q0 32 20.5 58t61.5 51q-36 19 -55 44t-19 57q0 26 10 47.5t30 36.5t48.5 23.5t64.5 8.5q66 0 103.5 -27.5t37.5 -75.5q0 -30 -19.5 -54.5t-55.5 -47.5q42 -22 62.5 -47.5t20.5 -60.5zM264 212 q0 26 -18 39.5t-50 13.5t-50 -14t-18 -36q0 -21 17.5 -38.5t54.5 -34.5q30 16 47 33.5t17 36.5zM271 -2q0 23 -19.5 42t-60.5 36q-33 -17 -51.5 -36t-18.5 -39q0 -28 20 -43t55 -15t55 15t20 40z" />
<glyph unicode="&#x2089;" horiz-adv-x="402" d="M356 134q0 -64 -16.5 -111.5t-45.5 -77t-69 -43.5t-88 -14q-20 0 -40 2t-35 5l7 62q17 -4 36 -7t37 -3q53 0 83.5 27t40.5 78q3 12 5 18.5t6 18.5q-14 -19 -40 -30t-55 -11q-32 0 -58 8.5t-44.5 24t-28 39.5t-9.5 53q0 35 12.5 63t34.5 46.5t51 28t64 9.5q24 0 51 -6.5 t49.5 -26t37 -57t14.5 -96.5zM274 179q0 13 -3.5 28t-12 27t-23.5 19.5t-37 7.5q-33 0 -54 -20.5t-21 -56.5q1 -43 21.5 -61t52.5 -18q20 0 35 6t24.5 17t13.5 23.5t4 27.5z" />
<glyph unicode="&#x20a2;" horiz-adv-x="609" d="M566 201q0 -69 -42 -118.5t-120 -73.5v-160h-59v148q-16 -4 -35 -5.5t-41 -1.5v-141h-59v143q-39 2 -77 7.5t-65 12.5l6 88q27 -9 63 -15.5t73 -10.5v244q-37 9 -66 23t-50.5 34.5t-33.5 49.5t-12 67q0 62 40 108.5t122 68.5v123h59v-112q18 2 36 3.5t40 1.5v107h59v-108 q35 -3 63.5 -6.5t52.5 -8.5l-5 -84q-22 7 -50.5 12t-60.5 8v-232q38 -9 67.5 -23t50.5 -35t32.5 -49.5t11.5 -64.5zM210 592q-39 -14 -54.5 -37.5t-15.5 -50.5q0 -32 18.5 -52.5t51.5 -34.5v175zM345 608q-27 0 -44.5 -1t-31.5 -3v-199q16 -5 35 -10t41 -11v224zM345 286 q-19 5 -38 10.5t-38 10.5v-237q17 0 37 1t39 4v211zM472 184q0 32 -17.5 52.5t-50.5 36.5v-185q34 11 51 35.5t17 60.5z" />
<glyph unicode="&#x20ac;" horiz-adv-x="592" d="M564 45q-42 -26 -87 -40.5t-107 -14.5q-117 0 -185 61t-83 179h-89v59h84q-1 13 -1 19.5v16.5q0 15 0.5 27t1.5 28h-85v58h92q11 65 37 111.5t63 76.5t84 44.5t100 14.5q47 0 92 -11.5t74 -28.5l-26 -72q-26 16 -64 27t-83 11q-33 0 -62 -10t-52.5 -31t-40 -53.5 t-24.5 -78.5h223v-58h-230q-1 -15 -1 -24v-21v-21t1 -25h230v-59h-224q11 -79 57 -122t127 -43q38 0 78 13t73 35z" />
<glyph unicode="&#x2113;" horiz-adv-x="498" d="M333 591q0 35 -12.5 54t-41.5 19t-47.5 -24.5t-18.5 -84.5v-152q59 63 89.5 107t30.5 81zM461 182q-17 -100 -62.5 -146t-120.5 -46t-115 38.5t-40 126.5v75l-75 -82l-35 69l110 114v216q0 93 44 141t121 48q69 0 103 -34t34 -94q0 -34 -12.5 -66t-38.5 -68t-66 -78 t-95 -94v-125q0 -64 19.5 -87t54.5 -23q36 0 58 28.5t36 101.5l80 -15v0z" />
<glyph unicode="&#x2117;" horiz-adv-x="756" d="M376 669q71 0 132 -26t106.5 -71t71.5 -105.5t26 -130.5t-26.5 -131t-72 -106.5t-106.5 -72t-131 -26.5q-71 0 -132.5 26t-106.5 71t-71 106t-26 131t26.5 131t72 106.5t106.5 71.5t131 26zM376 605q-55 0 -103.5 -21.5t-84.5 -58t-57 -85.5t-21 -104q0 -56 21 -105 t57 -86t84.5 -58.5t103.5 -21.5q56 0 104.5 21.5t84 57.5t56.5 85.5t21 104.5t-21 104.5t-56.5 86t-84 58.5t-104.5 22zM262 155v353q32 0 60 1t57 1q75 0 114.5 -31.5t39.5 -85.5q0 -29 -12 -53.5t-34 -42t-51.5 -27t-64.5 -9.5h-21t-18 2v-108h-70zM332 321 q8 -1 16.5 -1.5t22.5 -0.5q40 0 64.5 18t24.5 50q0 31 -21.5 48t-69.5 17h-19t-18 -1v-130z" />
<glyph unicode="&#x2120;" horiz-adv-x="699" d="M578 394l-22 147l-7 54l-12 -47l-45 -154h-69l-44 157l-11 44l-3 -37l-24 -164h-64l44 281h86l45 -154l10 -46l9 42l47 158h86l43 -281h-69zM60 450q14 -5 29 -8.5t32 -3.5q20 0 33.5 9t13.5 28t-18 27t-40.5 17t-40.5 24.5t-18 49.5q0 38 29 62.5t85 24.5q12 0 26 -1.5 t28 -3.5l-4 -49q-13 4 -25.5 5.5t-26.5 1.5q-24 0 -34.5 -9t-10.5 -24q0 -12 9 -19.5t22.5 -13.5t29 -11.5t28.5 -14.5t22 -23t9 -36q0 -41 -31.5 -67t-87.5 -26q-18 0 -34 2t-30 6z" />
<glyph unicode="&#x2122;" horiz-adv-x="699" d="M578 394l-22 147l-7 54l-12 -47l-45 -154h-69l-44 157l-11 44l-3 -37l-24 -164h-64l44 281h86l45 -154l10 -46l9 42l47 158h86l43 -281h-69zM187 620v-226h-69v226h-74v55h216v-55h-73z" />
<glyph unicode="&#x2153;" horiz-adv-x="844" d="M787 22q0 -30 -13 -55t-36.5 -42.5t-56.5 -27t-72 -9.5q-19 0 -43 2.5t-44 6.5l9 63q15 -5 37 -8t43 -3q42 0 65.5 18.5t23.5 49.5q0 36 -38 53t-111 8v59q67 0 101.5 16.5t34.5 53.5q0 25 -17.5 39t-49.5 14q-20 0 -42 -5t-41 -13l-9 59q25 9 54.5 14t55.5 5 q63 0 98.5 -26.5t35.5 -76.5q0 -37 -17.5 -61t-51.5 -36q40 -9 62 -36t22 -62zM118 364v340l-88 -34l-15 70l118 42h71v-418h-86zM96 -141l-58 41l639 904l58 -41z" />
<glyph unicode="&#x2154;" horiz-adv-x="920" d="M39 364v62l93 93q41 41 61 73t20 61q0 32 -17.5 50.5t-52.5 18.5q-22 0 -45.5 -6.5t-41.5 -16.5l-13 64q25 11 57 18.5t63 7.5q65 0 102 -32.5t37 -88.5q0 -45 -20 -83t-64 -83l-69 -69q30 1 68 1.5t102 0.5v-71h-280zM176 -141l-58 41l639 904l58 -41zM864 22 q0 -30 -13 -55t-36.5 -42.5t-56.5 -27t-72 -9.5q-19 0 -43 2.5t-44 6.5l9 63q15 -5 37 -8t43 -3q42 0 65.5 18.5t23.5 49.5q0 36 -38 53t-111 8v59q67 0 101.5 16.5t34.5 53.5q0 25 -17.5 39t-49.5 14q-20 0 -42 -5t-41 -13l-9 59q25 9 54.5 14t55.5 5q63 0 98.5 -26.5 t35.5 -76.5q0 -37 -17.5 -61t-51.5 -36q40 -9 62 -36t22 -62z" />
<glyph unicode="&#x2155;" horiz-adv-x="830" d="M118 364v340l-88 -34l-15 70l118 42h71v-418h-86zM96 -141l-58 41l639 904l58 -41zM781 33q0 -34 -12 -60.5t-36.5 -46.5t-57.5 -29t-69 -9q-23 0 -44.5 3t-37.5 7l7 61q14 -5 35 -8t41 -3q41 0 64 21.5t23 51.5q0 33 -23.5 52t-76.5 19q-11 0 -23 -0.5t-32 -2.5v224h220 v-66h-142v-96q10 1 11 1h4q71 -1 110 -32.5t39 -86.5z" />
<glyph unicode="&#x2156;" horiz-adv-x="910" d="M39 364v62l93 93q41 41 61 73t20 61q0 32 -17.5 50.5t-52.5 18.5q-22 0 -45.5 -6.5t-41.5 -16.5l-13 64q25 11 57 18.5t63 7.5q65 0 102 -32.5t37 -88.5q0 -45 -20 -83t-64 -83l-69 -69q30 1 68 1.5t102 0.5v-71h-280zM176 -141l-58 41l639 904l58 -41zM860 33 q0 -34 -12 -60.5t-36.5 -46.5t-57.5 -29t-69 -9q-23 0 -44.5 3t-37.5 7l7 61q14 -5 35 -8t41 -3q41 0 64 21.5t23 51.5q0 33 -23.5 52t-76.5 19q-11 0 -23 -0.5t-32 -2.5v224h220v-66h-142v-96q10 1 11 1h4q71 -1 110 -32.5t39 -86.5z" />
<glyph unicode="&#x2157;" horiz-adv-x="851" d="M802 33q0 -34 -12 -60.5t-36.5 -46.5t-57.5 -29t-69 -9q-23 0 -44.5 3t-37.5 7l7 61q14 -5 35 -8t41 -3q41 0 64 21.5t23 51.5q0 33 -23.5 52t-76.5 19q-11 0 -23 -0.5t-32 -2.5v224h220v-66h-142v-96q10 1 11 1h4q71 -1 110 -32.5t39 -86.5zM301 491q0 -30 -13 -55 t-36.5 -42.5t-56.5 -27t-72 -9.5q-19 0 -43 2.5t-44 6.5l9 63q15 -5 37 -8t43 -3q42 0 65.5 18.5t23.5 49.5q0 36 -38 53t-111 8v59q67 0 101.5 16.5t34.5 53.5q0 25 -17.5 39t-49.5 14q-20 0 -42 -5t-41 -13l-9 59q25 9 54.5 14t55.5 5q63 0 98.5 -26.5t35.5 -76.5 q0 -37 -17.5 -61t-51.5 -36q40 -9 62 -36t22 -62zM117 -141l-58 41l639 904l58 -41z" />
<glyph unicode="&#x2158;" horiz-adv-x="930" d="M299 457v-93h-79v93h-194l-6 56l162 269h117v-258h67v-67h-67zM220 725l-122 -203q12 0 28.5 0.5t33.5 0.5h31h29v202zM195 -141l-58 41l639 904l58 -41zM880 33q0 -34 -12 -60.5t-36.5 -46.5t-57.5 -29t-69 -9q-23 0 -44.5 3t-37.5 7l7 61q14 -5 35 -8t41 -3 q41 0 64 21.5t23 51.5q0 33 -23.5 52t-76.5 19q-11 0 -23 -0.5t-32 -2.5v224h220v-66h-142v-96q10 1 11 1h4q71 -1 110 -32.5t39 -86.5z" />
<glyph unicode="&#x2159;" horiz-adv-x="863" d="M811 35q0 -34 -12.5 -61.5t-35 -46.5t-52.5 -29t-64 -10q-40 0 -69 12.5t-48 36t-28 56.5t-9 76q0 56 13 101.5t40 79t69 52t98 18.5q15 0 32 -1.5t30 -3.5l-7 -61q-10 3 -27.5 4.5t-33.5 1.5q-30 0 -52 -8t-38 -23q-12 -12 -19.5 -27t-11.5 -29t-7.5 -30t-5.5 -21 q14 18 40.5 28.5t55.5 10.5q32 0 58 -8.5t45 -24.5t29 -39.5t10 -53.5zM729 25q0 39 -20.5 59t-53.5 20q-17 0 -31.5 -5t-25 -14.5t-16.5 -23t-6 -30.5q0 -19 5.5 -34.5t15.5 -26.5t24 -17t32 -6q35 0 55.5 21.5t20.5 56.5zM118 364v340l-88 -34l-15 70l118 42h71v-418h-86z M96 -141l-58 41l639 904l58 -41z" />
<glyph unicode="&#x215a;" horiz-adv-x="909" d="M304 502q0 -34 -12 -60.5t-36.5 -46.5t-57.5 -29t-69 -9q-23 0 -44.5 3t-37.5 7l7 61q14 -5 35 -8t41 -3q41 0 64 21.5t23 51.5q0 33 -23.5 52t-76.5 19q-11 0 -23 -0.5t-32 -2.5v224h220v-66h-142v-96q10 1 11 1h4q71 -1 110 -32.5t39 -86.5zM857 35q0 -34 -12.5 -61.5 t-35 -46.5t-52.5 -29t-64 -10q-40 0 -69 12.5t-48 36t-28 56.5t-9 76q0 56 13 101.5t40 79t69 52t98 18.5q15 0 32 -1.5t30 -3.5l-7 -61q-10 3 -27.5 4.5t-33.5 1.5q-30 0 -52 -8t-38 -23q-12 -12 -19.5 -27t-11.5 -29t-7.5 -30t-5.5 -21q14 18 40.5 28.5t55.5 10.5 q32 0 58 -8.5t45 -24.5t29 -39.5t10 -53.5zM775 25q0 39 -20.5 59t-53.5 20q-17 0 -31.5 -5t-25 -14.5t-16.5 -23t-6 -30.5q0 -19 5.5 -34.5t15.5 -26.5t24 -17t32 -6q35 0 55.5 21.5t20.5 56.5zM142 -141l-58 41l639 904l58 -41z" />
<glyph unicode="&#x215b;" horiz-adv-x="865" d="M118 364v340l-88 -34l-15 70l118 42h71v-418h-86zM96 -141l-58 41l639 904l58 -41zM808 7q0 -27 -10.5 -49t-31.5 -38t-51 -25t-68 -9q-71 0 -110 28t-39 80q0 32 20.5 58t61.5 51q-36 19 -55 44t-19 57q0 26 10 47.5t30 36.5t48.5 23.5t64.5 8.5q66 0 103.5 -27.5 t37.5 -75.5q0 -30 -19.5 -54.5t-55.5 -47.5q42 -22 62.5 -47.5t20.5 -60.5zM721 211q0 26 -18 39.5t-50 13.5t-50 -14t-18 -36q0 -21 17.5 -38.5t54.5 -34.5q30 16 47 33.5t17 36.5zM728 -3q0 23 -19.5 42t-60.5 36q-33 -17 -51.5 -36t-18.5 -39q0 -28 20 -43t55 -15t55 15 t20 40z" />
<glyph unicode="&#x215c;" horiz-adv-x="886" d="M301 491q0 -30 -13 -55t-36.5 -42.5t-56.5 -27t-72 -9.5q-19 0 -43 2.5t-44 6.5l9 63q15 -5 37 -8t43 -3q42 0 65.5 18.5t23.5 49.5q0 36 -38 53t-111 8v59q67 0 101.5 16.5t34.5 53.5q0 25 -17.5 39t-49.5 14q-20 0 -42 -5t-41 -13l-9 59q25 9 54.5 14t55.5 5 q63 0 98.5 -26.5t35.5 -76.5q0 -37 -17.5 -61t-51.5 -36q40 -9 62 -36t22 -62zM117 -141l-58 41l639 904l58 -41zM829 7q0 -27 -10.5 -49t-31.5 -38t-51 -25t-68 -9q-71 0 -110 28t-39 80q0 32 20.5 58t61.5 51q-36 19 -55 44t-19 57q0 26 10 47.5t30 36.5t48.5 23.5 t64.5 8.5q66 0 103.5 -27.5t37.5 -75.5q0 -30 -19.5 -54.5t-55.5 -47.5q42 -22 62.5 -47.5t20.5 -60.5zM742 211q0 26 -18 39.5t-50 13.5t-50 -14t-18 -36q0 -21 17.5 -38.5t54.5 -34.5q30 16 47 33.5t17 36.5zM749 -3q0 23 -19.5 42t-60.5 36q-33 -17 -51.5 -36t-18.5 -39 q0 -28 20 -43t55 -15t55 15t20 40z" />
<glyph unicode="&#x215d;" horiz-adv-x="911" d="M304 502q0 -34 -12 -60.5t-36.5 -46.5t-57.5 -29t-69 -9q-23 0 -44.5 3t-37.5 7l7 61q14 -5 35 -8t41 -3q41 0 64 21.5t23 51.5q0 33 -23.5 52t-76.5 19q-11 0 -23 -0.5t-32 -2.5v224h220v-66h-142v-96q10 1 11 1h4q71 -1 110 -32.5t39 -86.5zM142 -141l-58 41l639 904 l58 -41zM854 7q0 -27 -10.5 -49t-31.5 -38t-51 -25t-68 -9q-71 0 -110 28t-39 80q0 32 20.5 58t61.5 51q-36 19 -55 44t-19 57q0 26 10 47.5t30 36.5t48.5 23.5t64.5 8.5q66 0 103.5 -27.5t37.5 -75.5q0 -30 -19.5 -54.5t-55.5 -47.5q42 -22 62.5 -47.5t20.5 -60.5zM767 211 q0 26 -18 39.5t-50 13.5t-50 -14t-18 -36q0 -21 17.5 -38.5t54.5 -34.5q30 16 47 33.5t17 36.5zM774 -3q0 23 -19.5 42t-60.5 36q-33 -17 -51.5 -36t-18.5 -39q0 -28 20 -43t55 -15t55 15t20 40z" />
<glyph unicode="&#x215e;" horiz-adv-x="854" d="M797 7q0 -27 -10.5 -49t-31.5 -38t-51 -25t-68 -9q-71 0 -110 28t-39 80q0 32 20.5 58t61.5 51q-36 19 -55 44t-19 57q0 26 10 47.5t30 36.5t48.5 23.5t64.5 8.5q66 0 103.5 -27.5t37.5 -75.5q0 -30 -19.5 -54.5t-55.5 -47.5q42 -22 62.5 -47.5t20.5 -60.5zM710 211 q0 26 -18 39.5t-50 13.5t-50 -14t-18 -36q0 -21 17.5 -38.5t54.5 -34.5q30 16 47 33.5t17 36.5zM717 -3q0 23 -19.5 42t-60.5 36q-33 -17 -51.5 -36t-18.5 -39q0 -28 20 -43t55 -15t55 15t20 40zM298 719q-18 -38 -36.5 -82t-35 -91t-30.5 -93.5t-23 -88.5h-91 q12 47 28.5 97.5t34.5 97.5t35.5 87t32.5 67q-5 0 -26.5 -0.5t-50.5 -1t-58.5 -0.5h-50.5v71h271v-63zM85 -141l-58 41l639 904l58 -41z" />
<glyph unicode="&#x215f;" horiz-adv-x="480" d="M118 364v340l-88 -34l-15 70l118 42h71v-418h-86zM96 -141l-58 41l639 904l58 -41z" />
<glyph unicode="&#x2190;" horiz-adv-x="1000" d="M189 259l313 -303l-57 -58l-400 400l400 400l57 -58l-312 -303h810v-78h-811z" />
<glyph unicode="&#x2191;" horiz-adv-x="1000" d="M842 328l-303 313v-810h-78v810l-303 -313l-58 58l400 400l400 -400z" />
<glyph unicode="&#x2192;" horiz-adv-x="1000" d="M0 259v78h810l-312 303l57 58l400 -400l-400 -400l-57 58l313 303h-811z" />
<glyph unicode="&#x2193;" horiz-adv-x="1000" d="M900 210l-400 -400l-400 400l58 57l303 -312v810h78v-810l303 312z" />
<glyph unicode="&#x2194;" horiz-adv-x="1350" d="M1005 14l-57 58l213 202h-972l213 -202l-57 -58l-300 300l300 299l57 -58l-212 -202h970l-212 202l57 58l300 -299z" />
<glyph unicode="&#x2195;" horiz-adv-x="762" d="M381 -258l-300 299l58 58l203 -213v824l-203 -213l-58 58l300 299l300 -299l-58 -58l-203 213v-824l203 213l58 -58z" />
<glyph unicode="&#x2196;" horiz-adv-x="811" d="M731 -28l-572 573l7 -435h-82v565h565v-82l-435 7l573 -573z" />
<glyph unicode="&#x2197;" horiz-adv-x="811" d="M24 27l574 573l-436 -7v82h566v-565h-83l8 435l-573 -573z" />
<glyph unicode="&#x2198;" horiz-adv-x="811" d="M80 625l573 -573l-8 435h83v-565h-566v82l436 -7l-574 573z" />
<glyph unicode="&#x2199;" horiz-adv-x="811" d="M787 570l-573 -573l435 7v-82h-565v565h82l-7 -435l572 573z" />
<glyph unicode="&#x21a8;" horiz-adv-x="762" d="M381 -137l-280 280l58 58l183 -193v713l-183 -192l-58 58l280 279l280 -279l-58 -58l-183 193v-714l183 193l58 -58zM106 -240v71h550v-71h-550z" />
<glyph unicode="&#x2202;" horiz-adv-x="637" d="M440 238q0 54 -33 90t-98 36q-32 0 -58.5 -12t-46 -33t-29.5 -49.5t-10 -61.5q0 -69 34.5 -103.5t90.5 -34.5q32 0 59.5 13t47.5 35.5t31.5 53t11.5 66.5zM564 409q0 -88 -21.5 -174t-70.5 -149q-33 -42 -83.5 -68t-110.5 -26q-100 0 -152 56t-52 152q0 51 17.5 95t49 76 t75.5 50t98 18q58 0 98 -26t58 -68v45t-1 39q-3 59 -21 102.5t-47 72.5t-68.5 43t-84.5 14l10 74q69 -1 125.5 -23.5t96.5 -64.5t62 -102t22 -136z" />
<glyph unicode="&#x2206;" horiz-adv-x="616" d="M10 0l243 675h107l246 -675h-596zM323 512q-9 27 -13 41.5t-6 28.5h-2q-4 -18 -9.5 -37t-11.5 -38l-151 -426h346z" />
<glyph unicode="&#x220f;" horiz-adv-x="784" d="M634 653v-900h-87v900h-309v-900h-87v900h-106v77h694v-77h-105z" />
<glyph unicode="&#x2211;" horiz-adv-x="609" d="M36 -247v70l309 427l-290 410v70h483v-77h-371l284 -399l-307 -421h409v-80h-517z" />
<glyph unicode="&#x2212;" d="M42 259v78h466v-78h-466z" />
<glyph unicode="&#x221a;" horiz-adv-x="608" d="M345 0h-104l-148 428h-92v69h165l95 -289q11 -34 19 -60.5t15 -53.5h2q12 55 27 106l158 558h97z" />
<glyph unicode="&#x221e;" horiz-adv-x="975" d="M417 297q-61 46 -102 68.5t-77 22.5q-42 0 -66.5 -26t-24.5 -63q0 -40 24.5 -64.5t69.5 -24.5q36 0 77 22t99 65zM828 298q0 40 -24.5 65t-69.5 25q-35 0 -77 -22.5t-99 -65.5q60 -45 101.5 -67.5t77.5 -22.5q42 0 66.5 25.5t24.5 62.5zM918 303q0 -35 -12.5 -66 t-36.5 -55t-59 -37.5t-78 -13.5q-56 0 -115 29.5t-133 84.5q-33 -25 -62 -44.5t-60 -35t-63 -25t-64 -9.5q-44 0 -77.5 12.5t-56 35t-33.5 52t-11 63.5q0 36 13 67.5t37 55t58 36.5t75 13q58 0 118 -29.5t133 -84.5q33 25 62 44t60 35t63 25.5t63 9.5q43 0 76.5 -12.5 t56.5 -35t34.5 -52t11.5 -63.5z" />
<glyph unicode="&#x222b;" horiz-adv-x="339" d="M317 895q-11 3 -24.5 5.5t-25.5 2.5q-20 0 -33.5 -6.5t-22 -24t-12.5 -49.5t-4 -83q0 -37 1 -94t2 -112.5t3.5 -163t4 -178t2.5 -137.5t1 -116q0 -71 -9.5 -120t-28.5 -80t-47.5 -45t-67.5 -14q-12 0 -25 1.5t-28 4.5v79q10 -3 23 -5t25 -2q20 0 33.5 6.5t22.5 23.5 t13 48.5t4 81.5q0 35 -1 91t-2 107.5t-3.5 163t-4 184t-2.5 139.5t-1 117q0 71 10 121t29.5 80.5t48.5 44.5t68 14q12 0 25.5 -1.5t25.5 -4.5v-79z" />
<glyph unicode="&#x2248;" d="M504 194q-26 -23 -59.5 -38t-69.5 -15q-33 0 -56.5 7.5t-52.5 23t-48 22.5t-45 7q-27 0 -50.5 -12t-46.5 -31l-30 63q27 24 59 40t69 16q31 0 54.5 -8t53 -23t50 -22.5t47.5 -7.5q25 0 48 10t48 30zM504 373q-26 -26 -58.5 -42t-70.5 -16q-31 0 -54.5 7.5t-52 22.5 t-48.5 22.5t-47 7.5q-28 0 -52 -12t-46 -30l-29 62q26 25 60 41t71 16q31 0 55 -8t54 -23.5t49 -22.5t43 -7q25 0 48 11t48 33z" />
<glyph unicode="&#x2260;" d="M266 175l-56 -139h-80l56 139h-130v74h159l38 96h-197v75h226l57 141h80l-56 -141h131v-75h-161l-39 -96h200v-74h-228z" />
<glyph unicode="&#x2264;" d="M68 0v75h414v-75h-414zM418 127l-361 248l360 248l53 -62l-286 -185l286 -183z" />
<glyph unicode="&#x2265;" d="M68 0v75h414v-75h-414zM133 127l-53 62l286 186l-286 183l52 65l361 -247z" />
<glyph unicode="&#x23af;" horiz-adv-x="960" d="M-10 259v78h980v-78h-980z" />
<glyph unicode="&#x25ca;" horiz-adv-x="619" d="M304 585l-171 -242l182 -252l172 239zM341 -9h-57l-250 350l246 343h55l250 -349z" />
<glyph unicode="&#xe000;" horiz-adv-x="495" d="M0 495h495v-495h-495v495z" />
<glyph unicode="&#xe020;" horiz-adv-x="1189" d="M1055 333l-110 257q-8 18 -14 36t-13 41h-1q1 -37 2 -87t1 -117v-130h-58v402h90l107 -245q7 -17 14 -37.5t12 -38.5h2q-1 21 -2 48t-1.5 56t-0.5 57.5v52.5v107h58v-402h-86zM501 333l-25 91h-135l-25 -91h-62l113 402h88l114 -402h-68zM517 -165q-19 -9 -42 -14.5 t-50 -5.5q-81 0 -117 52t-36 146q0 46 9.5 85.5t29.5 68t51 44.5t73 16q21 0 41.5 -4t37.5 -11l-15 -51q-29 13 -62 13q-26 0 -44.5 -11.5t-30 -32t-17 -49t-5.5 -61.5q0 -75 23.5 -113.5t72.5 -38.5q20 0 36 4t30 11zM704 684v-351h-62v351h-91v51h245v-51h-92zM48 -180 v402h63v-351h113v-51h-176zM48 333v402h63v-351h113v-51h-176zM422 624q-4 15 -7 29.5t-6 30.5q-3 -15 -6 -29.5t-7 -28.5l-43 -154h111z" />
<glyph unicode="&#xe021;" horiz-adv-x="1189" d="M1055 333l-110 257q-8 18 -14 36t-13 41h-1q1 -37 2 -87t1 -117v-130h-58v402h90l107 -245q7 -17 14 -37.5t12 -38.5h2q-1 21 -2 48t-1.5 56t-0.5 57.5v52.5v107h58v-402h-86zM549 -180l-25 91h-135l-25 -91h-62l112 402h89l114 -402h-68zM501 333l-25 91h-135l-25 -91 h-62l113 402h88l114 -402h-68zM678 -180v402q20 1 44.5 1.5t48.5 0.5q68 0 99.5 -32.5t31.5 -89.5q0 -63 -37 -98.5t-101 -35.5h-11.5t-11.5 1v-149h-63zM277 -165q-18 -9 -41.5 -14.5t-50.5 -5.5q-82 0 -117.5 52t-35.5 146q0 46 9.5 85.5t29.5 68t51 44.5t73 16 q21 0 41.5 -4t37.5 -11l-15 -51q-29 13 -62 13q-26 0 -44.5 -11.5t-30 -32t-17 -49t-5.5 -61.5q0 -75 23.5 -113.5t72.5 -38.5q20 0 36 4t30 11zM704 684v-351h-62v351h-91v51h245v-51h-92zM48 333v402h63v-351h113v-51h-176zM741 18q5 -1 11.5 -1.5t14.5 -0.5q36 0 53 21.5 t17 58.5q0 38 -16.5 58.5t-53.5 20.5h-12t-14 -1v-156zM422 624q-4 15 -7 29.5t-6 30.5q-3 -15 -6 -29.5t-7 -28.5l-43 -154h111zM469 111q-4 15 -6.5 29.5t-6.5 30.5q-5 -32 -13 -58l-42 -154h111z" />
<glyph unicode="&#xe040;" horiz-adv-x="896" d="M622 735q21 1 49 1.5t58 0.5q65 0 94 -27t29 -75q0 -29 -14 -52.5t-43 -36.5v-1q35 -8 52 -33.5t17 -58.5q0 -23 -8 -45t-25.5 -39t-44.5 -27.5t-65 -10.5q-16 0 -41.5 0.5t-57.5 2.5v401zM640 -180l-110 257q-15 34 -27 77h-1q2 -37 2.5 -87t0.5 -117v-130h-57v402h89 l107 -245q7 -17 14.5 -37.5t12.5 -38.5q-1 21 -1.5 48t-1 56t-0.5 57.5v52.5v107h58v-402h-86zM492 333l-25 91h-134l-26 -91h-62l113 402h88l114 -402h-68zM172 684v-351h-63v351h-90v51h244v-51h-91zM48 -180v402h63v-351h113v-51h-176zM288 -180v402h63v-402h-63z M685 382q6 -1 17 -2t22 -1q36 0 54.5 20t18.5 52q0 66 -82 66h-30v-135zM685 563h31q71 0 71 66q0 26 -14.5 43t-49.5 17h-18t-20 -1v-125zM414 624q-8 28 -13 60h-1q-3 -15 -6 -29.5t-7 -28.5l-43 -154h112z" />
<glyph unicode="&#xe041;" horiz-adv-x="1277" d="M948 538q0 -46 -10 -84.5t-31 -66.5t-52 -44t-73 -16t-71 15t-47 41.5t-26.5 64t-8.5 82.5q0 46 10 84.5t30.5 66.5t51.5 43.5t73 15.5t71 -14.5t47.5 -41.5t27 -64t8.5 -82zM640 -180l-110 257q-15 34 -27 77h-1q2 -37 2.5 -87t0.5 -117v-130h-57v402h89l107 -245 q7 -17 14.5 -37.5t12.5 -38.5q-1 21 -1.5 48t-1 56t-0.5 57.5v52.5v107h58v-402h-86zM513 333l-91 174h-13v-174h-63v402q20 1 43.5 1.5t51.5 0.5q60 0 92.5 -26t32.5 -84q0 -48 -24 -75.5t-59 -34.5q6 -10 13 -20.5t12 -21.5l77 -142h-72zM48 333v402q20 1 44.5 1.5 t49.5 0.5q67 0 99 -32.5t32 -89.5q0 -63 -37.5 -98.5t-101.5 -35.5h-12t-11 1v-149h-63zM1028 333v402q20 1 44.5 1.5t48.5 0.5q68 0 100 -32.5t32 -89.5q0 -63 -37.5 -98.5t-101.5 -35.5h-11.5t-11.5 1v-149h-63zM882 533q0 156 -93 156q-46 0 -70.5 -39.5t-24.5 -114.5 q0 -156 95 -156q45 0 69 39.5t24 114.5zM48 -180v402h63v-351h113v-51h-176zM288 -180v402h63v-402h-63zM111 531q5 -1 11.5 -1.5t13.5 -0.5q36 0 54 21.5t18 58.5q0 38 -17 58.5t-54 20.5h-12t-14 -1v-156zM1091 531q5 -1 11.5 -1.5t14.5 -0.5q36 0 53 21.5t17 58.5 q0 38 -16.5 58.5t-53.5 20.5h-12t-14 -1v-156zM409 556q3 0 10 -0.5t16 -0.5q35 0 50.5 18t15.5 50q0 35 -16 50.5t-49 15.5q-7 0 -14 -0.5t-13 -0.5v-132z" />
<glyph unicode="&#xe048;" horiz-adv-x="943" d="M217 679q-31 11 -59 11q-31 0 -46 -15.5t-15 -40.5q0 -20 11 -33.5t28 -24.5t36 -22t36 -25.5t28 -35.5t11 -52q0 -47 -33.5 -80t-96.5 -33q-47 0 -84 12l13 56q17 -8 35.5 -13t35.5 -5q32 0 47.5 16.5t15.5 42.5q0 22 -11 36t-27.5 25t-36 21.5t-36 25t-27.5 34.5 t-11 50q0 46 32.5 78.5t94.5 32.5q35 0 71 -9zM598 478q0 -71 -33.5 -111t-106.5 -40q-72 0 -102 38t-30 104v266h63v-261q0 -47 16 -71.5t57 -24.5t57 24.5t16 70.5v262h63v-257zM693 333v402q20 1 44.5 1.5t48.5 0.5q69 0 100.5 -32.5t31.5 -89.5q0 -63 -37.5 -98.5 t-100.5 -35.5h-12t-11 1v-149h-64zM757 531q5 -1 11.5 -1.5t13.5 -0.5q36 0 53.5 21.5t17.5 58.5q0 38 -17 58.5t-53 20.5h-12.5t-13.5 -1v-156z" />
<glyph unicode="&#xe049;" horiz-adv-x="765" d="M55 -227v375h59v-375h-59zM383 -227l-103 241q-7 17 -13 34t-12 37h-1q3 -68 3 -190v-122h-54v375h84l100 -228q6 -15 13 -34.5t12 -36.5h1q-1 19 -1.5 44.5t-1 52.5t-0.5 54v50v98h53v-375h-80zM612 103v-118h105v-45h-105v-167h-59v375h169v-45h-110z" />
<glyph unicode="&#xf6c9;" horiz-adv-x="373" d="M100 725l-17 52l182 74l25 -70z" />
<glyph unicode="&#xf6ca;" horiz-adv-x="483" d="M240 724l-157 82l25 51l134 -60l135 60l24 -50z" />
<glyph unicode="&#xf6cb;" horiz-adv-x="487" d="M404 782q0 -22 -15.5 -38t-38.5 -16q-22 0 -37.5 15.5t-15.5 38.5t15.5 38.5t37.5 15.5q23 0 38.5 -15.5t15.5 -38.5zM191 782q0 -22 -15.5 -38t-38.5 -16q-22 0 -38 16t-16 38q0 23 16 38.5t38 15.5q23 0 38.5 -15.5t15.5 -38.5z" />
<glyph unicode="&#xf6ce;" horiz-adv-x="373" d="M273 725l-190 56l26 70l181 -74z" />
<glyph unicode="&#xf6cf;" horiz-adv-x="526" d="M127 724l-44 40l113 130l55 -50zM302 724l-42 40l131 127l52 -53z" />
<glyph unicode="&#xf6d0;" horiz-adv-x="442" d="M83 748v62h276v-62h-276z" />
<glyph unicode="&#xf8e6;" horiz-adv-x="1000" d="M461 -320v1300h78v-1300h-78z" />
<glyph unicode="&#xfb00;" horiz-adv-x="652" d="M433 633q-27 10 -57 15.5t-58 5.5q-60 0 -89.5 -31t-29.5 -92v-34h213v31q0 65 21 105zM677 652q-9 3 -30.5 7t-44.5 4q-52 0 -76 -31t-24 -98v-37h138v-70h-138v-427h-90v427h-213v-427h-90v427h-102v70h102v25q0 43 11.5 80t37 65.5t67 44.5t100.5 16q36 0 77 -7.5 t80 -19.5q49 35 123 35q39 0 79 -8z" />
<glyph unicode="&#xfb01;" horiz-adv-x="590" d="M415 0v427h-216v-427h-90v427h-102v70h102v21q0 105 57 162t172 57q38 0 76 -5t70 -14l-17 -75q-32 9 -67 14.5t-69 5.5q-66 0 -99 -35t-33 -99v-32h306v-497h-90z" />
<glyph unicode="&#xfb02;" horiz-adv-x="590" d="M415 0v656q-46 8 -93 8q-63 0 -93 -30.5t-30 -97.5v-39h135v-70h-135v-427h-90v427h-102v70h102v35q0 102 54.5 153t170.5 51q50 0 99 -5t72 -8v-723h-90z" />
<glyph unicode="&#xfb03;" horiz-adv-x="891" d="M437 631q-28 11 -59 17t-60 6q-60 0 -89.5 -31t-29.5 -92v-34h213v21q0 31 6 60t19 53zM718 0v427h-216v-427h-90v427h-213v-427h-90v427h-102v70h102v25q0 43 11.5 80t37 65.5t67 44.5t100.5 16q38 0 83.5 -8.5t83.5 -22.5q28 20 64.5 30t84.5 10q38 0 76 -5t70 -14 l-18 -75q-32 9 -67 14.5t-68 5.5q-67 0 -99.5 -34.5t-32.5 -99.5v-32h306v-497h-90z" />
<glyph unicode="&#xfb04;" horiz-adv-x="891" d="M433 633q-27 10 -57 15.5t-58 5.5q-60 0 -89.5 -31t-29.5 -92v-34h213v35q0 59 21 101zM718 0v656q-46 8 -93 8q-64 0 -93.5 -30t-29.5 -98v-39h134v-70h-134v-427h-90v427h-213v-427h-90v427h-102v70h102v25q0 43 11.5 80t37 65t67 44t100.5 16q38 0 80.5 -7.5 t81.5 -20.5q26 18 63 27.5t86 9.5q51 0 100 -5t72 -8v-723h-90z" />
<glyph horiz-adv-x="483" d="M375 724l-133 60l-135 -60l-24 50l160 83l158 -81z" />
<glyph horiz-adv-x="336" d="M135 606l-52 32l104 157l66 -39z" />
<glyph horiz-adv-x="519" d="M436 808q-20 -35 -48.5 -54t-63.5 -19q-26 0 -43.5 8t-32 18t-27.5 18t-29 8q-36 0 -63 -45l-46 33q20 35 48.5 54.5t63.5 19.5q25 0 43 -8t32.5 -18t27.5 -18t29 -8q34 0 63 44l46 -33v0z" />
<glyph horiz-adv-x="297" d="M191 654q0 -22 -15.5 -38t-38.5 -16q-22 0 -38 16t-16 38q0 23 16 38.5t38 15.5q23 0 38.5 -15.5t15.5 -38.5zM366 654q0 -22 -15.5 -38t-38.5 -16q-22 0 -38 16t-16 38q0 23 16 38.5t38 15.5q23 0 38.5 -15.5t15.5 -38.5z" />
<glyph horiz-adv-x="425" d="M342 852q0 -52 -34.5 -87t-96.5 -35q-32 0 -55.5 9.5t-40 26t-24.5 39t-8 47.5h58q0 -26 20 -43.5t52 -17.5t51 17.5t19 43.5h59z" />
<glyph horiz-adv-x="400" d="M317 821q0 -48 -33.5 -79t-88.5 -31q-53 0 -82.5 26.5t-29.5 77.5q0 47 33.5 78t87.5 31t83.5 -26t29.5 -77zM250 817q0 57 -50 57q-22 0 -36.5 -14.5t-14.5 -41.5q0 -57 51 -57q22 0 36 14.5t14 41.5z" />
<glyph horiz-adv-x="282" d="M199 785q0 -24 -17 -41t-41 -17t-41 17t-17 41t17 41t41 17t41 -16.5t17 -41.5z" />
<glyph horiz-adv-x="313" d="M172 155l-119 178l120 181l66 -36l-96 -144l97 -142z" />
<glyph horiz-adv-x="313" d="M139 155l-66 36l98 144l-97 142l68 37l118 -178z" />
<glyph horiz-adv-x="509" d="M167 154l-113 179l114 182l68 -35l-92 -146l93 -144zM369 156l-122 177l123 180l66 -35l-100 -144l101 -142z" />
<glyph horiz-adv-x="509" d="M138 156l-66 35l101 144l-100 142l68 36l122 -177zM340 154l-67 35l92 146l-92 144l70 36l112 -179z" />
<glyph horiz-adv-x="330" d="M47 296v74h236v-74h-236z" />
<glyph d="M0 299v78h550v-78h-550z" />
<glyph horiz-adv-x="1000" d="M118 299v78h764v-78h-764z" />
<glyph horiz-adv-x="1000" d="M118 299v78h764v-78h-764z" />
<glyph horiz-adv-x="234" d="M181 337q0 -26 -18.5 -45t-45.5 -19t-45.5 19t-18.5 45q0 27 18.5 46t45.5 19t45.5 -19t18.5 -46z" />
<glyph horiz-adv-x="320" d="M97 -26l15 535h76l16 -535h-107zM211 627q0 -25 -17.5 -42t-42.5 -17t-42.5 17t-17.5 42t17.5 42t42.5 17t42.5 -17t17.5 -42z" />
<glyph horiz-adv-x="445" d="M350 -34q-68 2 -122.5 18.5t-91.5 43t-56.5 61t-19.5 71.5q0 38 13.5 67t28.5 45.5t48 48.5t48.5 55.5t20.5 56t-8 75.5h88q15 -47 12 -83t-18 -63t-40.5 -52.5t-46.5 -47t-34 -44t-13 -49.5q0 -50 55.5 -83.5t147.5 -37.5zM314 626q0 -25 -17.5 -42t-42.5 -17t-42.5 17 t-17.5 42t17.5 42t42.5 17t42.5 -17t17.5 -42z" />
<glyph horiz-adv-x="303" d="M216 -169q-43 68 -71.5 133t-45 126t-23 118t-6.5 116q0 58 7.5 117t24.5 121.5t45.5 128t69.5 130.5l65 -31q-61 -104 -92.5 -221.5t-31.5 -239.5q0 -255 125 -465z" />
<glyph horiz-adv-x="303" d="M238 329q0 -58 -7.5 -117t-24 -122t-45.5 -128.5t-70 -130.5l-65 32q61 104 92.5 221t31.5 239q0 128 -31 244t-94 222l68 32q42 -68 71 -132.5t45 -125.5t22.5 -118t6.5 -116z" />
<glyph horiz-adv-x="322" d="M86 -159v970h198v-69h-114v-830h114v-71h-198z" />
<glyph horiz-adv-x="322" d="M38 -159v71h114v830h-114v69h198v-970h-198z" />
<glyph horiz-adv-x="341" d="M291 -159q-84 0 -120 47.5t-36 147.5v175q0 59 -24 83t-82 27v71q31 2 51 7.5t32 17.5t17.5 32t5.5 51v117q0 45 8 80t26 60.5t48.5 39.5t73.5 14h18v-69q-27 0 -44 -6t-27.5 -20t-15 -37t-4.5 -59v-116q0 -66 -23.5 -102t-69.5 -44v-2q45 -7 69 -44.5t24 -103.5v-174 q0 -36 4.5 -59t15 -37t27.5 -20t44 -6v-71h-18z" />
<glyph horiz-adv-x="338" d="M318 321q-58 -3 -82 -27t-24 -83v-175q0 -100 -36 -147.5t-120 -47.5h-18v71q27 0 44 6t27.5 20t15 37t4.5 59v174q0 66 24 103.5t69 44.5v2q-93 12 -93 142v120q0 36 -4.5 59t-15 37t-27.5 20t-44 6v69h18q43 0 73.5 -14t48.5 -39.5t26 -60.5t8 -80v-113q0 -32 5.5 -53 t17.5 -33.5t32 -18t51 -7.5v-71z" />
<glyph horiz-adv-x="999" d="M796 427q0 -115 -24 -197.5t-72.5 -135.5t-120.5 -78.5t-168 -25.5q-82 0 -144 15.5t-103 44t-61 68.5t-20 90q0 38 11 69.5t30.5 56.5t46 42.5t57.5 27.5q-47 12 -76 48t-29 92q0 41 15.5 76.5t45 60.5t73 39.5t99.5 14.5q31 0 60 -2t50 -6l-6 -81q-19 6 -49 9.5 t-59 3.5q-69 0 -101 -29.5t-32 -74.5q0 -25 9.5 -46t32.5 -36t61 -22t95 -4v-70q-58 1 -102 -9.5t-74 -31.5t-44.5 -50.5t-14.5 -65.5q0 -70 60 -108t183 -38q74 0 127 18t87.5 59.5t50.5 108.5t16 167h-116v70h116v141l90 22v-163h121v-70h-121z" />
<glyph horiz-adv-x="829" d="M791 -171q-21 -5 -46 -8t-49 -3q-39 0 -64.5 8.5t-41 26.5t-21.5 46.5t-6 68.5v286h-429q-3 -100 37.5 -145t119.5 -45q38 0 76.5 8.5t68.5 22.5l8 -73q-36 -16 -78.5 -23.5t-89.5 -7.5q-114 0 -174.5 62t-60.5 194q0 56 15 104t43.5 83t70 55t94.5 20q49 0 84.5 -15 t59.5 -40t37 -58.5t16 -72.5h102v158l89 25v-183h139v-69h-138v-254q0 -31 3 -51t11 -32t22 -16.5t34 -4.5q18 0 35.5 2t32.5 7v-76zM370 321q2 55 -28 88t-83 33q-48 0 -80.5 -33t-40.5 -88h232z" />
<glyph horiz-adv-x="951" d="M615 299q-56 7 -118 6t-121.5 -7.5t-115 -17t-98.5 -23.5q-1 -51 14.5 -87.5t44 -59t68 -32.5t86.5 -10q98 0 171.5 33t122.5 89.5t73.5 131t24.5 159.5q0 79 -23 144.5t-67 113t-108 73.5t-145 26q-11 0 -20.5 -0.5t-16.5 -2.5v76q6 1 17.5 1.5t25.5 0.5 q103 0 182.5 -33.5t133.5 -91t82 -135t28 -166.5q0 -98 -31 -188t-92.5 -159t-154 -110.5t-217.5 -41.5q-145 0 -218.5 69t-73.5 189q0 71 22 129t58.5 100t83 65t94.5 23q59 0 89 -26t30 -65q0 -30 -20.5 -60t-50.5 -46q54 10 118.5 12t124.5 -3zM362 451q0 16 -12.5 27 t-34.5 11q-27 0 -50.5 -14.5t-43 -37.5t-33.5 -51t-20 -56q49 10 86 23.5t61 29t35.5 33t11.5 35.5z" />
<glyph horiz-adv-x="1328" d="M889 -223q-48 -16 -101 -24.5t-112 -8.5q-131 0 -243 48t-194 131.5t-129 196t-47 241.5q0 136 47 249t126.5 194t185 126t224.5 45q121 0 214.5 -38.5t157 -103t96.5 -150t33 -178.5q0 -99 -30 -189.5t-87 -158.5q35 -20 70 -36t66 -27.5t58.5 -18t48.5 -6.5 q42 0 76.5 11.5t65.5 31.5l27 -69q-21 -14 -42.5 -23.5t-44.5 -16.5t-48 -10t-54 -3q-27 0 -62.5 9.5t-74 24.5t-77 34t-71.5 39q-26 -23 -58.5 -42.5t-69.5 -34t-78.5 -22.5t-88.5 -8q-56 0 -98.5 15t-71.5 41t-43.5 61.5t-14.5 78.5q0 33 9.5 62t27 54.5t42 49t56.5 46.5 q-48 54 -69.5 96.5t-21.5 77.5q0 38 12 69.5t36 54.5t57.5 36t76.5 13q38 0 69 -11.5t52.5 -31.5t33 -46t11.5 -55q0 -30 -9 -57t-27 -51.5t-44 -48t-59 -48.5q22 -23 52 -48.5t64 -51.5t71 -51t73 -47q48 57 74.5 133t26.5 164q0 84 -28 157.5t-81.5 128.5t-132 86.5 t-179.5 31.5q-98 0 -186 -38.5t-154.5 -109t-105 -168.5t-38.5 -216q0 -114 40 -212.5t111.5 -172t170 -115.5t212.5 -42q48 0 92.5 7.5t84.5 21.5zM747 592q0 32 -21 56t-64 24q-37 0 -61 -25t-24 -68q0 -24 16.5 -57.5t53.5 -73.5q20 14 37.5 29.5t31.5 33.5t22.5 37.5 t8.5 43.5zM688 66q63 0 114.5 21.5t90.5 54.5q-37 23 -71.5 47.5t-67.5 49.5t-63.5 51t-59.5 55q-48 -38 -70.5 -72.5t-22.5 -76.5q0 -27 10 -50t29 -41t46.5 -28.5t64.5 -10.5z" />
<glyph horiz-adv-x="1281" d="M1249 43q-21 -14 -42.5 -23.5t-44.5 -16.5t-48.5 -10t-55.5 -3q-29 0 -67 10.5t-77.5 26.5t-77 35t-66.5 36q-26 -23 -58 -42.5t-69.5 -34t-79.5 -23t-87 -8.5q-54 0 -95.5 15t-70 41t-42.5 61.5t-14 78.5q0 33 9.5 62.5t27 54.5t42 48.5t55.5 47.5q-48 55 -69 97.5 t-21 77.5q0 34 11.5 64.5t34.5 53.5t56.5 37t78.5 14q39 0 69.5 -11.5t51 -31t31.5 -45.5t11 -54q0 -30 -8.5 -56.5t-25.5 -51t-43 -48t-59 -48.5q23 -23 52 -48t62.5 -50.5t69 -50t70.5 -46.5q48 58 74.5 133t26.5 160t-26.5 157t-75.5 124.5t-119.5 82t-159.5 29.5 q-86 0 -155.5 -29t-119 -80.5t-76.5 -123.5t-27 -158h-88q0 103 34 188.5t96 147.5t150 96.5t195 34.5q108 0 193.5 -36.5t145 -99.5t91 -147t31.5 -178q0 -95 -31 -185t-88 -158q77 -42 141.5 -66.5t107.5 -24.5q42 0 77 11.5t65 31.5zM553 592q0 32 -20.5 55t-61.5 23 q-37 0 -60.5 -24.5t-23.5 -66.5q0 -22 15.5 -54t53.5 -75q19 14 36 29.5t31 33t22 36.5t8 43zM491 67q64 0 114.5 22t90.5 55q-72 46 -135 94t-121 106q-45 -35 -69 -69.5t-24 -78.5q0 -26 9.5 -49t27.5 -40.5t45.5 -28.5t61.5 -11z" />
<glyph horiz-adv-x="819" d="M615 314v-29q0 -73 -19.5 -126.5t-57.5 -89t-94 -52.5t-129 -17h-230v675h347v-76h-255v-211h348v152l90 22v-174h136v-74h-136zM526 314h-349v-237h145q109 0 156.5 48.5t47.5 153.5v35z" />
<glyph horiz-adv-x="999" d="M797 427q24 -14 40 -47.5t16 -75.5q0 -66 -29.5 -123.5t-85 -100t-136.5 -66.5t-183 -24q-85 0 -148.5 16t-105 45t-62 70.5t-20.5 91.5q0 32 11 61.5t30 54.5t43.5 43t50.5 27q-47 20 -73 56.5t-26 83.5q0 43 15.5 79.5t45 62t73 40t99.5 14.5q31 0 59.5 -1.5t49.5 -6.5 l-5 -80q-20 5 -49.5 8.5t-59.5 3.5q-69 0 -101 -29.5t-32 -78.5q0 -27 14.5 -48t40.5 -34.5t63.5 -19.5t84.5 -2v-70q-56 1 -99.5 -9.5t-74 -31t-46 -48.5t-15.5 -61q0 -72 61 -112.5t190 -40.5q78 0 140 17t104 46.5t64 71t22 89.5q0 63 -31 96t-93 33h-52v70h331v-70h-121 z" />
<glyph horiz-adv-x="1024" d="M596 484q-26 7 -62 7q-35 0 -62 -18.5t-45 -49t-26.5 -66t-8.5 -68.5q0 -93 54 -93q20 0 40.5 15t39.5 44.5t34.5 73t25.5 98.5zM940 424q0 -69 -18 -125.5t-51 -96.5t-76.5 -60.5t-93.5 -20.5q-32 0 -56 10t-38.5 27t-20.5 39t-4 46h-2q-10 -23 -24.5 -44.5t-34.5 -39 t-45 -28t-53 -10.5q-55 0 -87 40t-32 113q0 59 16 111t47.5 92.5t78.5 63t107 22.5q48 0 87 -6t56 -10l-42 -222q-13 -63 3 -96t57 -33q30 0 56.5 15t46 44t30.5 70.5t11 92.5q0 55 -17.5 106t-55 91.5t-97 64t-139.5 23.5q-79 0 -149.5 -30t-123.5 -85t-82.5 -130 t-29.5 -162q0 -76 21.5 -137t64 -104t106 -66t146.5 -23q45 0 92 7t94 20l11 -69q-47 -14 -102.5 -22t-104.5 -8q-97 0 -173.5 27.5t-129 79t-80 124t-27.5 161.5q0 105 36.5 195t102 156t151.5 101.5t181 35.5q94 0 167.5 -27.5t122 -76.5t73 -112t24.5 -134z" />
<glyph horiz-adv-x="539" d="M189 -113l12 125q-35 2 -71.5 7t-67.5 13l12 80q66 -21 135 -26l22 223q-40 13 -69 25.5t-54 32t-39.5 48.5t-14.5 68q0 76 57 124.5t156 54.5l11 108h63l-11 -107q27 -1 56 -5t60 -9l-10 -76q-27 6 -56 10.5t-58 6.5l-21 -210q41 -13 71.5 -26t56.5 -33t41 -50t15 -71 q0 -81 -59 -131t-161 -57l-13 -125h-63zM272 86q58 5 89 30.5t31 71.5q0 20 -7.5 36t-21 27.5t-30.5 20.5t-40 17zM259 590q-55 -4 -84 -28.5t-29 -66.5q0 -36 24 -57.5t70 -38.5z" />
<glyph horiz-adv-x="489" d="M444 118q-65 -26 -148 -28l-13 -125h-63l13 127q-92 11 -143 68.5t-51 164.5q0 57 16 104t47 81.5t77 54.5t104 23l11 107h63l-11 -109q50 -3 96 -20l-17 -76q-18 7 -40 12t-46 9l-36 -346q66 1 126 25zM131 339q0 -69 26.5 -112t83.5 -55l34 341q-67 -4 -105.5 -51.5 t-38.5 -122.5z" />
<glyph d="M405 338q0 74 -8 126t-24 84t-40.5 46.5t-58.5 14.5q-29 0 -52.5 -14.5t-41 -46t-27 -82t-9.5 -120.5q0 -146 29.5 -212.5t100.5 -66.5q63 0 97 68.5t34 202.5zM502 344q0 -92 -19 -160t-52 -111t-74.5 -63t-87.5 -20q-55 0 -96 19t-69 60.5t-42.5 108.5t-14.5 162 q0 86 17 151t48.5 108t74 64t94.5 21q50 0 90.5 -17.5t69.5 -57t45 -105.5t16 -160z" />
<glyph d="M71 0v81h177v501l-159 -55l-17 78l198 70h71v-594h156v-81h-426z" />
<glyph d="M58 0v72l143 149q50 52 81 88.5t49 65t25 53.5t7 53q0 53 -34.5 88t-94.5 35q-41 0 -81.5 -15t-68.5 -37l-19 80q40 25 86.5 38.5t99.5 13.5q50 0 90 -14.5t66.5 -40.5t40 -60.5t13.5 -74.5q0 -35 -7.5 -65.5t-26 -63.5t-49 -71t-78.5 -86l-122 -123l-4 -2 q43 2 110.5 2.5t199.5 0.5v-86h-426z" />
<glyph d="M474 207q0 -48 -19.5 -87.5t-56.5 -68t-89 -44t-115 -15.5q-29 0 -60.5 4t-56.5 11l10 82q55 -20 120 -20q80 0 124.5 35.5t44.5 92.5q0 55 -42 87t-120 32q-29 0 -51.5 -1t-46.5 -4v74h23q107 0 165.5 31.5t58.5 93.5q0 46 -33 72t-90 26q-39 0 -74.5 -9.5t-68.5 -27.5 l-9 80q38 16 79.5 24.5t88.5 8.5q98 0 150 -43.5t52 -116.5q0 -59 -32.5 -99.5t-91.5 -57.5l-1 -2q30 -3 56 -16.5t45 -35t29.5 -49t10.5 -57.5z" />
<glyph d="M333 585h-1l-217 -345q27 1 68.5 2t78 1h71.5v342zM421 161v-161h-89v161h-302l-7 73l276 441h122v-432h107v-82h-107z" />
<glyph d="M474 224q0 -50 -19.5 -93t-57 -74.5t-90 -48.5t-115.5 -17q-48 0 -107 12v84q27 -9 57 -13.5t58 -4.5q85 0 131 40t46 103q0 62 -46 95t-127 33q-30 0 -58 -2.5t-47 -5.5v343h352v-86h-268v-178q14 1 29 1.5t25 0.5q57 0 101.5 -14.5t75 -40t45.5 -60t15 -74.5z" />
<glyph d="M411 215q0 62 -34.5 99t-97.5 37q-30 0 -54.5 -11.5t-41.5 -31t-26 -42.5t-9 -45q0 -32 8.5 -59.5t26 -49t43 -33.5t57.5 -12q59 0 93.5 41t34.5 107zM502 230q0 -53 -16 -97.5t-46.5 -76.5t-72.5 -49t-92 -17q-106 0 -166 75.5t-60 210.5q0 105 24.5 183t69 127.5 t105 73t133.5 23.5q16 0 32 -1t27 -2v-80q-17 2 -33 3.5t-34 1.5q-95 0 -151 -54.5t-76 -160.5q-2 -8 -4 -20.5t-5 -30.5h1q24 42 66 64.5t91 22.5t87.5 -15t65.5 -41.5t40.5 -62.5t13.5 -77z" />
<glyph d="M495 597q-75 -140 -141.5 -294.5t-114.5 -302.5h-102q53 156 118 307.5t136 281.5q-14 -1 -72 -1.5t-122 -0.5h-141v88h439v-78z" />
<glyph d="M402 162q0 43 -32 75t-107 67q-59 -35 -86.5 -67.5t-27.5 -69.5q0 -46 33 -74t94 -28q27 0 50 6.5t40 19t26.5 31t9.5 40.5zM384 524q0 42 -30 66t-81 24q-26 0 -47 -7.5t-35.5 -20.5t-22.5 -30.5t-8 -36.5q0 -36 26 -65t89 -62q60 37 84.5 67.5t24.5 64.5zM496 174 q0 -42 -17 -76t-48.5 -58.5t-74 -37t-91.5 -12.5q-51 0 -91 12.5t-66.5 35.5t-40 53.5t-13.5 67.5q0 23 6.5 44.5t21.5 44t41.5 46t65.5 47.5q-64 37 -91.5 77t-27.5 92q0 38 15 70.5t43 56.5t66.5 37t85.5 13q45 0 82 -11.5t62.5 -32.5t39 -49.5t13.5 -62.5 q0 -49 -29.5 -90t-99.5 -85q80 -41 114 -84.5t34 -97.5z" />
<glyph d="M393 456q0 68 -34.5 110.5t-94.5 42.5q-29 0 -52.5 -11t-40.5 -31t-26 -46t-9 -56q0 -64 33 -102t91 -38q31 0 56 10.5t42 29t26 42t9 49.5zM495 403q0 -107 -23.5 -185.5t-68 -128.5t-106.5 -74t-141 -24q-20 0 -39.5 1.5t-38.5 5.5v82q21 -5 44.5 -7.5t46.5 -2.5 q93 0 148.5 51.5t70.5 150.5q3 16 5 28t3 20h-1q-23 -36 -63.5 -55.5t-91.5 -19.5q-46 0 -82.5 15t-61.5 42t-38 65t-13 84q0 52 16.5 95.5t47 74.5t72 47.5t90.5 16.5q50 0 91 -16.5t71 -50.5t46 -88t16 -127z" />
<glyph d="M184 235q10 -77 49.5 -122.5t116.5 -45.5q39 0 72.5 9t58.5 20l21 -68q-35 -17 -79 -27.5t-89 -10.5q-108 0 -169.5 61t-76.5 184h-80v60h75q-1 8 -1 12.5v12.5q0 16 0.5 33t1.5 31h-76v60h85q23 122 91 181.5t173 59.5q33 0 70 -6.5t65 -16.5l-19 -76q-27 10 -59.5 17 t-62.5 7q-63 0 -106 -40t-58 -126h201v-60h-211q-1 -16 -1 -26.5v-22.5v-20.5t1 -19.5h211v-60h-204z" />
<glyph d="M470 201q0 -34 -12.5 -63.5t-35 -52.5t-54.5 -38t-71 -21v-131h-67v126q-38 1 -72.5 6t-67.5 13l9 82q32 -11 70.5 -18t80.5 -7q54 0 90.5 22.5t36.5 71.5q0 35 -22 56t-54.5 36.5t-70.5 29.5t-70.5 34.5t-54.5 52t-22 82.5q0 31 11.5 58.5t32.5 50t52 37.5t70 21v106h67 v-101q28 -1 56 -4t55 -9l-10 -79q-29 8 -59.5 13t-62.5 5q-55 0 -88 -22.5t-33 -64.5q0 -33 22 -53.5t55 -36t71 -30t71 -36t55 -53.5t22 -83z" />
<glyph d="M204 12q-66 3 -131 20l12 80q32 -10 64.5 -16.5t63.5 -8.5l25 223q-32 10 -62.5 23t-55 32.5t-39.5 48t-15 69.5q0 38 14.5 70t42.5 55t67.5 37t89.5 17l13 108h63l-13 -108q27 -2 55 -5t53 -8l-10 -76q-26 6 -53 10.5t-54 6.5l-24 -211q33 -11 65 -24t57.5 -33.5 t41 -49.5t15.5 -72q0 -82 -60 -132t-162 -56l-14 -125h-63zM156 495q0 -39 27.5 -60t66.5 -36l21 191q-57 -4 -86 -28.5t-29 -66.5zM397 188q0 21 -7.5 36.5t-21 27.5t-31.5 20.5t-38 16.5l-22 -203q56 4 88 29t32 73z" />
<glyph d="M471 134q-23 -10 -52.5 -17.5t-61.5 -9.5v-132h-71v132q-100 9 -153 70t-53 165q0 97 54.5 162.5t151.5 79.5v113h71v-109q27 -1 55 -5.5t56 -14.5l-7 -78q-55 25 -120 25q-78 0 -123 -44t-45 -124q0 -34 8.5 -63.5t28 -52t51.5 -35.5t78 -13q34 0 67 8t58 22z" />
<glyph d="M479 118q-33 -14 -72.5 -20.5t-83.5 -8.5l-14 -124h-63l14 127q-44 6 -80 22.5t-61.5 45t-39.5 69.5t-14 96q0 57 16.5 104.5t49 82t79.5 54.5t108 22l13 107h63l-13 -109q49 -4 96 -20l-17 -76q-20 7 -42 12.5t-46 8.5l-39 -346q68 1 131 25zM157 339q0 -66 27 -110.5 t87 -57.5l37 342q-72 -3 -111.5 -50.5t-39.5 -123.5z" />
<glyph d="M69 0v62q27 19 47 37.5t33 39t19 44.5t6 54q0 16 -2 38t-6 37h-114v70h101q-7 30 -11.5 58t-4.5 60q0 48 13.5 82.5t39.5 57.5t63 34t83 11q24 0 58 -4.5t62 -13.5l-20 -76q-24 10 -52.5 15.5t-54.5 5.5q-51 0 -76.5 -26t-25.5 -78q0 -34 5.5 -63.5t12.5 -62.5h173v-70 h-160q2 -13 4.5 -31t2.5 -36q0 -31 -7 -56.5t-18.5 -45.5t-27.5 -37t-34 -32q22 2 44.5 2.5t52.5 0.5h205v-77h-411z" />
<glyph d="M321 90v-90h-92v90h-158v61h158v89h-158v62h158v14l-204 359h104l100 -183q13 -25 25.5 -51t22.5 -50h1q9 24 21.5 50.5t27.5 53.5l98 180h100l-204 -359v-14h158v-62h-158v-89h158v-61h-158z" />
<glyph d="M295 317l-22 -204q-7 -58 -23 -99t-42.5 -67.5t-61.5 -38.5t-80 -12q-22 0 -44 2t-42 7l14 75q20 -6 39 -8.5t38 -2.5q50 0 75.5 32.5t34.5 108.5l22 207h-135v70h144l11 101q6 58 22.5 99t42.5 67.5t61.5 38.5t79.5 12q22 0 44 -2.5t43 -7.5l-15 -74q-19 5 -38.5 8 t-38.5 3q-50 0 -75.5 -33t-33.5 -108l-12 -104h180v-70h-188z" />
<glyph d="M410 186l-18 -186h-77l18 186h-144l-18 -186h-77l18 186h-82v66h88l17 184h-105v66h111l17 173h77l-17 -173h144l17 173h77l-17 -173h81v-66h-87l-17 -184h104v-66h-110zM195 252h144l17 184h-144z" />
<glyph horiz-adv-x="387" d="M302 544l-73 76v-620h-71v620l-72 -76l-48 47l155 155l156 -155z" />
<glyph horiz-adv-x="387" d="M349 142l-156 -155l-155 155l48 47l72 -76v620h71v-620l73 76z" />
<glyph horiz-adv-x="308" d="M190 584v-584h-71v584h-69l104 159l104 -159h-68z" />
<glyph horiz-adv-x="308" d="M258 149l-104 -159l-104 159h69v584h71v-584h68z" />
<glyph horiz-adv-x="1000" d="M701 457l-162 171v-475h-78v475l-162 -171l-57 57l258 259l258 -259zM94 -256v621h79v-542h654v542h79v-621h-812z" />
<glyph horiz-adv-x="1000" d="M758 -12l-258 -258l-258 258l57 57l162 -171v476h78v-476l162 171zM906 758v-621h-79v543h-654v-543h-79v621h812z" />
<glyph horiz-adv-x="1028" d="M408 -117v79h541v654h-541v79h620v-812h-620zM144 250l171 -162l-57 -57l-258 258l258 258l57 -57l-170 -162h475v-78h-476z" />
<glyph horiz-adv-x="1028" d="M0 -117v812h621v-79h-541v-654h541v-79h-621zM409 250v78h475l-171 162l57 57l258 -258l-258 -258l-57 57l171 162h-475z" />
<glyph horiz-adv-x="960" d="M295 42q0 -8 -4.5 -13t-9.5 -10q-4 -1 -8 -4t-9 0q-7 2 -5 7.5t3 10.5q0 6 9 10q6 0 10 4q3 -1 7.5 -0.5t6.5 -4.5zM430 77q7 -14 4 -29t-13 -26q-2 -4 -5.5 -4.5t-6.5 -2.5q-13 2 -14.5 13t-3.5 20q2 8 2.5 16.5t5.5 15.5q7 4 10 11t11 7l3 -3q-2 -7 2 -10t5 -8z M248 181q-12 2 -25.5 1.5t-26.5 -1.5q-8 -1 -15 -2.5t-12 -5.5q-1 -16 -3 -32.5t-4 -32.5q2 -26 1 -54.5t1 -55.5q4 0 7.5 1.5t6.5 -0.5q6 2 11.5 -0.5t11.5 0.5q1 16 1 31q0 16 1 32q2 5 6.5 7.5t9.5 4.5q4 2 8 0t7 3l-1 28q-4 5 -9.5 4.5t-11.5 -0.5q-4 -4 -7 -4 q-8 2 -7.5 9.5t-1.5 12.5q-2 4 4 10q10 3 19.5 4.5t19.5 3.5l6 4q-2 9 0.5 16.5t2.5 15.5zM333 34q-3 11 -3 22t0.5 22t-0.5 21.5t-7 19.5q-11 7 -23 12l-8 5q-8 -2 -16.5 -0.5t-16.5 -4.5q-7 -4 -7 -11t-1 -15q5 -2 11.5 -1.5t12.5 1t11.5 -1t9.5 -7.5q-1 -4 1.5 -6 t-0.5 -6q-3 -5 1 -8q2 -2 1 -5t-4 -4q-7 -2 -13.5 -1.5t-14.5 -1.5q-11 -5 -17 -15.5t-8 -21.5q-3 -5 -0.5 -10.5t-1.5 -10.5q0 -7 5 -11t10 -6q5 5 8 2q8 -2 14.5 4.5t14.5 11.5q5 1 6 -1t1 -6q0 -3 -0.5 -7t2.5 -6q5 -2 8 0t8 2q4 2 8 2.5t7 3.5l1 39v0zM458 30 q9 17 6.5 35t-6.5 38q1 3 -2.5 6t-8 5t-8.5 4.5t-6 3.5q-2 2 -5 2q-2 0 -3 -3q-11 1 -19 -4q-5 -3 -7.5 -8t-6.5 -7q-5 -3 -9 3q4 18 2 36.5t-5 37.5l-2 7h-8q-9 -3 -8 -11t-1 -14q-3 -17 -2 -34t-2 -34q2 -17 0 -33t0 -31q0 -9 -1.5 -17.5t-0.5 -18.5q7 -4 15.5 -1t15.5 6 q5 2 8 1t5.5 -4l5 -6t5.5 -5q8 0 13 1q11 6 23.5 19.5t11.5 25.5zM560 123q-8 -1 -16.5 -2.5t-13.5 -10.5q-4 -4 -5 -11.5t-10 -5.5q-2 8 -2 14v15q-4 2 -7.5 0t-7.5 0q-7 -4 -11 -13q0 -29 0.5 -55.5t3.5 -55.5l3 -4q5 -4 11.5 -1.5t11.5 0.5q-3 11 -0.5 20.5t-1.5 20.5 q2 11 5 22.5t11 21.5q6 5 13 6.5t13 6.5q1 8 3 16t0 16zM610 15q0 20 -1 39t-1 37q0 7 1 13.5t-1 12.5q-7 5 -13.5 2t-14.5 -2q-7 -11 -5 -24t0 -26q-2 -5 -2 -12t-1 -14q2 -10 0.5 -22t5.5 -22q15 0 30 5q2 3 2 6v7zM608 179q-2 5 -4.5 9t-7.5 6q-2 2 -5 2.5t-5 -2.5 q-5 -6 -7 -15t3 -15q2 -5 8 -5.5t11 1.5q9 6 7 19zM739 -10q-4 8 -8 16.5t-10 15.5q-6 11 -13 20.5t-9 22.5q-2 5 -5 8.5t-1 8.5q7 8 16.5 13t16.5 13l-9 17q-9 -1 -16 -4.5t-15 -5.5q-4 -2 -9 -6t-10 1q1 20 1.5 39.5t-0.5 38.5l-2 3q-8 0 -14 2.5t-13 4.5 q-2 -11 -3.5 -23.5t0.5 -24.5q-3 -8 -0.5 -19.5t-1.5 -19.5q1 -15 0.5 -27.5t-1.5 -24.5t-1 -24t1 -27l-1 -7h24q3 1 6.5 -1t5.5 1v13q0 7 -1 15q1 8 -2 16.5t7 11.5q5 -2 5.5 -6.5t3.5 -8.5q-1 -7 3.5 -12t6.5 -11q10 -6 15 -16t14 -17q3 1 5.5 -1.5t7.5 -0.5q6 0 6 6z M425 539q-2 11 -7.5 21.5t-18.5 12.5q-2 -5 -6.5 -3.5t-7.5 0.5q-7 3 -14 1t-12 -7q-11 -15 -3.5 -29t15.5 -27q2 -4 5 -3t7 0q7 -2 13 1.5t12 5.5q6 6 13.5 11t3.5 16zM767 -62q-22 2 -49 -2.5t-48 -1.5q-56 2 -109 -4t-108 0q-25 -4 -48.5 -1.5t-47.5 4.5q-29 2 -59.5 1.5 t-61.5 -0.5q-21 0 -50 -1.5t-50 -6.5q-4 -1 -9 -1q-4 0 -6 5q0 16 -1 32.5t4 32.5q2 20 1 40t2 40q-4 23 -0.5 44.5t-0.5 44.5q0 32 2.5 64.5t4.5 66.5q2 36 0.5 71.5t0.5 71.5q4 8 11.5 6.5t14.5 0.5q8 -5 18.5 -2.5t18.5 1.5q3 3 7.5 5.5t5.5 -4.5q2 -2 0.5 -6t2.5 -6 q-2 -14 -1.5 -38t2 -52t3.5 -57.5t3 -53.5q32 10 58.5 27.5t57.5 28.5q5 2 9.5 6t11.5 6q2 1 4 3t6 0q5 -2 4 -7t-1 -10q-10 -29 -5 -61q2 -5 6.5 -3t7.5 2q8 7 17 11.5t17 10.5q10 6 20 11.5t21 9.5q12 8 23.5 16t24.5 13l20 16q1 4 6 7q3 0 5.5 -2t5.5 -4q0 -14 3 -28.5 t3 -28.5q1 -3 3 -2.5t3 -1.5q4 -5 2 -10l-4 -10l2 -2q17 4 31.5 13t29 19t29 19t31.5 13q5 5 11 6.5t11 6.5q5 1 9 4.5t8.5 6.5t9.5 4.5t11 -3.5q2 0 4 -1t3 -3q-1 -4 0.5 -6.5t3.5 -5.5q-2 -8 0 -14.5t-2 -12.5q1 -13 0 -25t5 -23q-2 -7 2.5 -12.5t-0.5 -10.5q1 -8 0 -14.5 t4 -12.5q1 -5 1.5 -9.5t-2.5 -8.5q2 -11 2.5 -23t4.5 -23q-2 -4 -1 -8t1 -8q0 -38 5.5 -73.5t6.5 -73.5q0 -2 1.5 -4.5t-0.5 -4.5zM452 664q-12 -13 -29 -8q-5 6 -9 11.5t-5 12.5q-13 20 -35 25t-43 11l-31 2q-2 -2 -6 -1t-7 -1q-33 -10 -55 -21q-6 -8 -15.5 -13.5 t-11.5 -16.5q-6 -15 -8 -34t-3 -36q5 -4 11 -2.5t11 0.5q21 2 42 2h44q4 -2 1 -7q-8 -6 -15.5 -0.5t-15.5 2.5q-10 1 -20.5 -0.5t-20.5 -0.5q-9 -2 -19 -2q-9 0 -17 -5l-3 -4q-2 -19 -1.5 -31t2.5 -32q2 -7 0.5 -14t3.5 -14q13 -1 20.5 -0.5t14 1t14 1.5t20.5 1q3 2 6.5 1 t6.5 -2q1 -1 0.5 -2t0.5 -2l-4 -2q-12 2 -21 1.5t-18 -1.5t-20 -2t-26 0q-11 -1 -23 -2t-23 0q-16 -1 -33 -1t-31 4l-2 3q3 3 9 5q8 -4 18 -4.5t21 -2.5q7 1 14 0.5t12 3.5q-1 26 4 46t7 47q-1 2 -3 4q-15 1 -28.5 0t-27.5 5q-2 5 3 5q14 -4 28 -4t28 1l2 3q2 17 5.5 34.5 t9.5 31.5v3q23 26 52.5 42t66.5 20q18 2 36 -2t34 -11q5 -2 10 -2t10 -2q17 -4 34 -12t28 -23q2 -2 0 -9zM447 559q3 -19 -7 -31q-11 -7 -20 -15.5t-22 -10.5q-6 2 -7 -3.5t-6 -1.5t-12 2t-13 -1q-6 0 -11 0.5t-10 2.5q-8 7 -15.5 15.5t-2.5 20.5q3 9 8.5 17t15.5 13 q11 5 22 10.5t25 2.5q16 -1 31.5 -4t23.5 -17zM648 502q-12 0 -25.5 -0.5t-25.5 -4.5q-4 2 -7.5 2.5t-5.5 5.5q2 14 3.5 28t-2.5 28q-2 3 -6.5 0.5t-7.5 -4.5q-14 -8 -26.5 -19.5t-14.5 -28.5q-4 -4 -9 -5.5t-10 0.5q-5 7 -3 15t0 16l-1 31q-3 3 -8 1.5t-10 0.5q-2 2 -6.5 1 t-4.5 4q13 -1 25.5 1t26.5 0q3 -3 3 -7v-8t1 -7t5 -5q14 6 26 14.5t26 13.5q6 -4 14 -1.5t10 -7.5q2 -11 1.5 -21.5t0.5 -21.5q2 -3 1.5 -6.5t2.5 -5.5q9 -2 13 0q4 0 8 -1t9 -1q3 -2 0 -5zM880 571q0 -4 -2 -4q-11 2 -21 0.5t-21 -2.5q-34 -2 -53.5 -3t-36.5 -4 q-8 -7 -7 -16t-3 -17q0 -5 1.5 -8t2.5 -7q4 -5 14 -7q7 1 13.5 4t9.5 9q0 7 -7 12q-5 4 -10.5 3t-9.5 4q3 5 9.5 4t12.5 -1q10 -3 15 -16q-1 -15 -18 -27q-5 -2 -10.5 -2.5t-10.5 -2.5q-12 3 -24.5 8t-20.5 16q-4 12 -1 22.5t4 21.5q-2 5 -6 4t-9 0l-33 -1q0 2 -1 2t-1 2 q3 2 7 2t7 1q9 -2 19 -1t19 1q4 3 4.5 7.5t0.5 9.5q3 7 3.5 16t5.5 14q5 3 8 -1t6 -6q5 -8 3 -17.5t2 -18.5q4 -6 10.5 -4t11.5 0q23 2 49 1.5t64 4.5q3 -2 4 -3z" />
<glyph horiz-adv-x="1316" d="M947 -32q-5 -6 -11.5 -8t-13.5 -3l-14 -2t-12 -5q-17 -2 -32 -6.5t-22 -21.5q-4 -10 -9.5 -19.5t-10.5 -19.5t-8 -20.5t0 -22.5q2 -9 11 -8.5t15 2.5q4 0 6.5 4.5t7.5 1.5t1 -6t-6 -7q-8 -5 -18 -7.5t-20 2.5q-8 8 -12 16.5t-1 19.5q2 8 8.5 24t26.5 50q-8 4 -16 3 t-15.5 -2.5t-15.5 -2.5t-16 2q5 6 12.5 9t14.5 5q13 3 27.5 2t22.5 12q7 11 5 22.5t0 23.5q-5 2 -5 6v6q-6 11 -15 17t-19.5 8.5t-21.5 3t-21 0.5q-23 -2 -42.5 -17t-27.5 -35q-7 -16 -5.5 -32t8.5 -33q-2 -12 2.5 -23t10 -21.5t8 -22.5t-3.5 -25q-5 -5 -12.5 -4t-13.5 3 q-14 7 -15.5 22t-6.5 28q8 6 7 16.5t5 18.5q2 5 1 13t-8 11q-17 -2 -37.5 -2t-34.5 -12q1 -11 2.5 -22t1 -22t-4.5 -21t-14 -17q-11 -3 -24 4q-11 9 -9.5 21.5t1.5 24.5q8 15 15.5 31.5t24.5 22.5q8 -5 16.5 -3t16.5 4l49 1q5 5 4.5 12.5t1.5 13.5q9 29 31.5 51.5t54.5 24.5 q17 2 33 1t31 -9q1 -5 4 -8t7 -5t7.5 -5t4.5 -8q9 -14 6.5 -33t-5.5 -35q23 0 45 4t42 8zM541 -52q-4 -3 -8 -1.5t-8 3.5t-8.5 3.5t-8.5 -1.5q-7 -5 -10 -11t-4.5 -12.5t-3.5 -13t-6 -11.5q-2 -14 -5 -26.5t-3 -25.5l-6 -4t-8 0q-6 8 -3 18t2 18q7 9 5.5 21.5t3.5 22.5 q-3 5 -2.5 12.5t-1.5 12.5q-5 2 -7.5 -2t-7.5 1q2 10 14 18q8 0 12 -6t7 -12q4 1 7.5 5.5t7 8t8 4.5t9.5 -4zM408 -7q-1 -38 1.5 -76t0.5 -74.5t-13.5 -69.5t-39.5 -61q-32 -20 -70.5 -24.5t-74.5 5.5q-4 2 -8 5.5t-4 8.5q2 10 6 20t16 14q-3 -8 -6.5 -16t-5.5 -17 q13 -8 29 -11t33.5 -2t34 6t29.5 12q14 5 22.5 14t13.5 20t9 22.5t9 22.5q6 35 7 75.5t-1 70.5q4 11 1 24t-1 24q-2 5 -6 3.5t-6 -2.5q-8 -8 -11 -17.5t-11 -15.5q1 -8 -2 -12t-7.5 -7.5t-8.5 -7.5t-4 -11q-20 -23 -37.5 -46.5t-34.5 -47.5q-4 -6 -7 -12t-11 -5 q-5 7 -5.5 14.5t0 15t1.5 15.5t0 16q5 17 9 35t17 35q9 24 25.5 47.5t40.5 38.5q14 4 24.5 -2.5t21.5 -13.5q8 10 12 24q12 -5 12 -20q-5 -5 -1.5 -8.5t1.5 -8.5zM731 211q-18 -3 -35 -8l-34 -10t-34 -8.5t-35 -1.5q-3 -3 -5 -11t-0.5 -16t5.5 -13t13 -2q3 4 4.5 11.5 t7.5 9.5q5 -9 1.5 -17.5t-9.5 -15.5q-3 -2 -10.5 -2.5t-14.5 4t-11.5 15.5t-1.5 32q-2 3 -4.5 6t-0.5 8q11 8 12 20.5t3 25.5q-2 1 -2 2t-2 2q-17 -11 -26 -29t-22 -32q0 -7 -4 -12.5t-8.5 -11t-8 -11.5t-1.5 -14q-3 -3 -3.5 -8t-1 -9.5t-2.5 -8t-9 -4.5q-9 2 -12 7.5t-3 12 t1 13.5t0 13q-3 19 1 35t1 33q-9 -5 -11.5 -14t-9.5 -17q-5 -6 -9.5 -14t-9.5 -15t-12.5 -10.5t-17.5 -1.5q-11 17 -4 36t17 36q4 5 9 11.5t10.5 11.5t12.5 7.5t15 -0.5q5 -3 10 0q9 21 13.5 44t6.5 46l10 8q6 -2 7 -5t-0.5 -7l-3 -8t-0.5 -8q-4 -28 -9.5 -55.5t-7.5 -54.5 q-1 -15 -4 -29t2 -29q16 21 30 46t36 46q6 8 14 16t18 14q8 -6 15 -14.5t15 -13.5q0 -9 -1 -20t1 -20q27 6 51.5 10t50.5 12q8 -5 7 -13zM1064 583q-2 29 -16 58t-44 43q6 9 12.5 8t12.5 -6t11 -12.5t9 -11.5q16 -19 23 -41.5t7.5 -46.5t-5 -48t-14.5 -46q-14 -34 -41 -63.5 t-63 -44.5q14 10 26.5 21.5t21.5 26.5q16 16 30 35t18 45q12 20 13 41t-1 42zM974 482q-3 -8 -9 -15.5t-15 -9.5q-8 2 -11.5 6.5t-8.5 10.5l2 14q5 -2 4.5 -8t6.5 -8q5 -2 9.5 3t6.5 8q4 23 0.5 45t-15.5 42l-6 -3q-12 -11 -22.5 -20.5t-17.5 -24.5l-8 -4q-14 -14 -24 -29.5 t-22 -26.5q-6 -1 -8.5 1.5t-4 6.5t-2 9t-2.5 8q4 10 -3 17q-6 1 -6.5 -3.5t-3.5 -6.5q-8 -8 -14.5 -11.5t-17.5 -4.5q-11 3 -14 9t-1.5 13.5t4 16.5t2.5 17q4 15 13 26.5t20 23.5q10 2 22 6t20 -8l4 -6q-6 -17 -7.5 -35.5t-3.5 -36.5q1 -3 2.5 -6.5t5.5 -3.5q11 0 13.5 9 t9.5 15q22 19 41 38.5t37 39.5q6 -2 8.5 -7.5t3 -11.5t1 -12.5t3.5 -10.5q5 -2 3 -8q8 -15 7.5 -31t-2.5 -33zM838 678q-3 -5 -9.5 -10t-14.5 -4q-2 3 -4.5 7t-7.5 -1q-29 -23 -55.5 -48.5t-37.5 -59.5q-3 -20 -5 -42t1 -43t11.5 -39.5t25.5 -31.5q10 -8 22 -6.5t24 0.5 q6 4 10.5 8.5t10.5 8.5q2 -9 -6.5 -13t-14.5 -10q-15 -6 -32.5 -2.5t-29.5 14.5q-23 21 -27 46q-5 2 -5 5t1 6t1.5 6t-3.5 5q2 3 1 6.5t-2.5 7.5t-2 7.5t2.5 8.5q-1 30 8.5 55.5t25.5 48t37 42t43 36.5q4 0 9 1.5t10 1.5t8.5 -2t4.5 -9zM655 500q-7 -17 -22 -29.5t-35 -12.5 t-37.5 7.5t-26.5 24.5q-8 11 -7.5 23.5t2.5 26.5q2 9 7.5 15t6.5 15q29 24 64 12q4 -3 8 -4.5t3 -7.5q-3 -4 -7 0t-9 4q-27 7 -50 -16q-8 -12 -12 -26.5t2 -28.5q22 -30 54 -34q9 4 19.5 4t18.5 10q6 4 9.5 12.5t11.5 4.5zM501 472q-5 -12 -9 -24.5t-13 -23.5 q-7 -3 -12.5 0.5t-8.5 9.5q-16 37 -10 75q-2 1 -1 8t1.5 16t0.5 18t-3 13q-6 -15 -6.5 -31t-1 -31.5t-4 -30t-15.5 -27.5q-2 -2 -7 -3.5t-12 1.5t-13 11.5t-9 28.5q3 19 4 36.5t4 35.5q2 7 -2 14.5t4 13.5q7 4 13 -4q1 -15 -1 -31.5t-3 -32t-0.5 -29t6.5 -23.5q7 -5 10.5 -2 t5 9t2.5 12.5t3 8.5q4 20 3 42t5 42q3 3 5 7.5t4 8t5.5 5t9.5 -2.5q7 -20 7.5 -38.5t-0.5 -37.5t-0.5 -38t6.5 -38q1 -3 4.5 -4t6.5 3l2 5.5t4.5 11.5t6 11t8.5 5zM345 442l-4 -4t-10 -4t-24 -4.5t-46 -4.5q-34 -3 -64.5 -8.5t-62.5 -16.5q-5 -11 -13.5 -8t-14.5 6q-1 4 1 7 t5 5.5l6 5t4 6.5q6 12 10.5 24t8.5 24q-2 6 2 13t7 13q22 51 42 102.5t32 105.5q-4 14 3 21q6 2 8 -2t5 -7q-7 -39 -20 -75t-28 -71.5t-29.5 -71.5t-24.5 -74l2 -2q38 6 73 13t75 8q12 -2 27 -2t27 5zM706 -152q6 13 2 28t-12 26q-5 -6 -6 -13l-2 -14q2 -8 4.5 -16.5 t13.5 -10.5zM572 -90q-2 -11 -3.5 -23t2.5 -23q3 -3 8 -2.5t9.5 3.5t6.5 8.5t-1 13.5q1 4 2.5 11t1 13.5t-3 11.5t-8.5 6zM372 -4q-3 11 -15 13t-21 -2q-11 -9 -21.5 -19t-18.5 -21q-5 -15 -12 -30t-13 -30t-9.5 -30.5t-1.5 -32.5q3 -1 3.5 0.5t2.5 3.5q13 18 28.5 35 t30.5 35t27 37t20 41zM599 210q2 5 4 13.5t-6 10.5l-5 -29q5 1 5 2t2 3zM461 232q-7 2 -13 -3t-10 -11q-11 -14 -19.5 -30t-1.5 -33q5 -2 7 1l4 6q11 11 19.5 23t15.5 27zM828 577q-5 4 -7 -0.5t-5 -2.5q-23 -11 -30.5 -34t-6.5 -46q7 -2 12 4t12 4q3 7 8.5 14.5t10 15t6 16 t-5.5 16.5q6 0 6 5.5v7.5z" />
<glyph horiz-adv-x="369" d="M195 564l-99 158l69 36l85 -165z" />
<glyph horiz-adv-x="389" d="M135 568l-52 35l104 152l64 -43z" />
<glyph horiz-adv-x="433" d="M301 570l-87 85l-88 -85l-37 42l126 131l125 -130z" />
<glyph horiz-adv-x="489" d="M391 671q-16 -35 -40 -54.5t-57 -19.5q-18 0 -32.5 7.5t-27 16t-23 16t-20.5 7.5q-16 0 -27.5 -12.5t-19.5 -29.5l-44 32q12 31 36.5 54t61.5 23q18 0 32.5 -7.5t27 -16.5t23 -16.5t19.5 -7.5q16 0 27.5 12.5t20.5 29.5z" />
<glyph horiz-adv-x="470" d="M387 782q0 -22 -15.5 -38t-38.5 -16q-22 0 -38 16t-16 38q0 23 16 38.5t38 15.5q23 0 38.5 -15.5t15.5 -38.5zM191 782q0 -22 -15.5 -38t-38.5 -16q-22 0 -38 16t-16 38q0 23 16 38.5t38 15.5q23 0 38.5 -15.5t15.5 -38.5z" />
<glyph horiz-adv-x="395" d="M79 616v68h237v-68h-237z" />
<glyph horiz-adv-x="400" d="M317 718q0 -66 -31.5 -100.5t-87.5 -34.5q-55 0 -85 35t-30 100h61q0 -27 14 -47.5t41 -20.5q26 0 41 18t15 50h62z" />
<glyph horiz-adv-x="413" d="M145 780l-17 46l178 70l25 -62zM303 649q0 -45 -31 -75t-84 -30q-49 0 -77 24.5t-28 74.5q0 45 30.5 75t83.5 30q50 0 78 -24.5t28 -74.5zM242 646q0 55 -49 55q-20 0 -34.5 -13.5t-14.5 -41.5q0 -55 48 -55q20 0 35 13.5t15 41.5z" />
<glyph horiz-adv-x="400" d="M142 882l-15 41l169 57l21 -54zM294 785q0 -38 -29.5 -64t-80.5 -26q-47 0 -74 20.5t-27 64.5q0 38 29.5 64t80.5 26q47 0 74 -20.5t27 -64.5zM237 782q0 23 -12.5 34t-35.5 11q-19 0 -34 -10.5t-15 -34.5q0 -23 12.5 -33.5t35.5 -10.5q19 0 34 10.5t15 33.5z" />
</font>
</defs>
</svg>
