<?xml version="1.0" standalone="no"?>
<!DOCTYPE svg PUBLIC "-//W3C//DTD SVG 1.1//EN" "http://www.w3.org/Graphics/SVG/1.1/DTD/svg11.dtd" >
<svg xmlns="http://www.w3.org/2000/svg">
<metadata>
Copyright   : Copyright 1994-2012 Luc(as) de Groot. Published by LucasFonts www.lucasfonts.com. All rights reserved.
Designer    : Luc(as) de Groot
Foundry     : LucasFonts
Foundry URL : http://LucasFonts.com
</metadata>
<defs>
<font id="TheSansRio2016TT-Bold" horiz-adv-x="550" >
<font-face units-per-em="1000" ascent="740" descent="-260" />
<missing-glyph horiz-adv-x="218" />
<glyph horiz-adv-x="0" />
<glyph horiz-adv-x="0" />
<glyph unicode="&#xd;" horiz-adv-x="500" />
<glyph unicode=" "  horiz-adv-x="218" />
<glyph unicode="&#x09;" horiz-adv-x="218" />
<glyph unicode="&#xa0;" horiz-adv-x="218" />
<glyph unicode="!" horiz-adv-x="321" d="M247 65q0 -32 -22.5 -54t-56.5 -22q-33 0 -55.5 22t-22.5 54t22.5 54t55.5 22q34 0 56.5 -22t22.5 -54zM225 188h-110l-21 520h150z" />
<glyph unicode="&#x22;" horiz-adv-x="405" d="M156 448h-96l-16 254h128zM344 448h-95l-16 254h128z" />
<glyph unicode="#" horiz-adv-x="583" d="M467 411l-15 -143h80v-90h-90l-18 -178h-102l19 178h-132l-19 -178h-102l19 178h-79v90h88l16 143h-80v89h89l18 175h102l-19 -175h132l19 175h102l-19 -175h79v-89h-88zM234 411l-16 -143h132l15 143h-131z" />
<glyph unicode="$" horiz-adv-x="494" d="M448 215q0 -34 -11 -64.5t-32.5 -55.5t-52.5 -42.5t-69 -26.5v-122h-92v115q-32 1 -60.5 4t-60.5 9l9 116q14 -5 30.5 -9t33 -6.5t32.5 -4t31 -1.5q24 0 43.5 4.5t34 13.5t22 23.5t7.5 33.5q0 26 -17.5 42.5t-51.5 30.5t-69 28.5t-63.5 34t-47 52.5t-18.5 82 q0 33 11 62.5t32 53t50.5 39t64.5 22.5v101h91v-94q26 -1 52 -4t50 -8l-8 -109q-30 8 -58.5 12.5t-52.5 4.5q-26 0 -45.5 -5t-31.5 -14.5t-17.5 -21.5t-5.5 -26q0 -24 18 -40t51 -30t69.5 -29.5t65.5 -36t47.5 -53.5t18.5 -81z" />
<glyph unicode="%" horiz-adv-x="760" d="M247 527q0 43 -13.5 61.5t-42.5 18.5q-24 0 -39.5 -21t-15.5 -57q0 -43 14 -62t42 -19q24 0 39.5 21t15.5 58zM625 148q0 42 -13.5 60.5t-41.5 18.5q-25 0 -40.5 -20.5t-15.5 -56.5q0 -43 14 -62t43 -19q23 0 38.5 21.5t15.5 57.5zM343 534q0 -36 -12 -67t-33 -53 t-50 -34t-62 -12q-72 0 -110 41.5t-38 114.5q0 35 12 65.5t33 52t50 33.5t62 12q70 0 109 -39t39 -114zM168 -22l-80 57l501 661l80 -58zM722 154q0 -36 -12 -66.5t-33.5 -52.5t-50 -34t-61.5 -12q-72 0 -110 41t-38 115q0 35 11.5 65.5t33 52t50 33.5t61.5 12 q70 0 109.5 -39t39.5 -115z" />
<glyph unicode="&#x26;" horiz-adv-x="797" d="M441 147q-26 20 -53.5 42.5t-53 45t-48 43t-40.5 38.5q-17 -15 -29.5 -29.5t-20.5 -28.5t-12 -28t-4 -29q0 -21 7.5 -40t22.5 -33t37 -22t50 -8q41 0 77.5 13.5t66.5 35.5zM340 581q0 27 -15.5 44t-46.5 17q-28 0 -45.5 -17.5t-17.5 -45.5q0 -11 2.5 -23t9 -26t17 -30 t25.5 -33q17 14 30 28t22 27.5t14 28.5t5 30zM673 -25q-17 13 -34.5 25.5t-34.5 25.5t-34.5 25.5t-34.5 25.5q-24 -19 -52.5 -35t-61 -28t-69 -18.5t-76.5 -6.5q-58 0 -101.5 15t-71.5 42t-42 63t-14 77q0 26 6 49.5t17 44.5t26 40t33.5 36.5t41.5 35.5q-22 26 -37 49.5 t-25 45t-15 43t-5 42.5q0 34 13 64t38.5 53t63 36t84.5 13q85 0 131.5 -40t46.5 -107q0 -18 -3.5 -35t-10 -33t-16.5 -32t-23.5 -31.5t-31 -31.5t-38.5 -33q34 -34 84 -75.5t103 -81.5q10 15 18 31.5t15 34.5t12 36.5t8 38t4.5 39.5t0.5 40h127q1 -39 -4.5 -78t-17 -76 t-29 -71.5t-39.5 -64.5q25 -19 49 -36t78 -56z" />
<glyph unicode="'" horiz-adv-x="216" d="M156 448h-96l-16 254h128z" />
<glyph unicode="(" horiz-adv-x="306" d="M200 -215q-84 132 -116 256t-32 244q0 118 34.5 245t114.5 257l93 -43q-57 -101 -86.5 -216t-29.5 -238q0 -254 119 -460z" />
<glyph unicode=")" horiz-adv-x="306" d="M256 288q0 -121 -33 -247t-116 -256l-93 43q57 101 87 216t30 239q0 253 -118 460l97 44q82 -132 114 -255.5t32 -243.5z" />
<glyph unicode="*" horiz-adv-x="384" d="M305 453l-85 68l16 -108h-91l16 108l-86 -68l-44 78l101 40l-101 40l45 79l85 -68l-16 108h91l-16 -108l85 68l45 -78l-101 -40l101 -41z" />
<glyph unicode="+" d="M335 244v-186h-121v186h-175v107h175v185h121v-185h176v-107h-176z" />
<glyph unicode="," horiz-adv-x="258" d="M128 149q35 0 58 -27.5t23 -72.5t-29.5 -103t-99.5 -119l-53 47q52 55 58.5 90t-17.5 63q-14 17 -16 38t6 40t26 31.5t44 12.5z" />
<glyph unicode="-" horiz-adv-x="334" d="M44 226v103h246v-103h-246z" />
<glyph unicode="." horiz-adv-x="258" d="M210 71q0 -34 -23.5 -58t-57.5 -24t-58 24t-24 58q0 33 24 57t58 24t57.5 -24t23.5 -57z" />
<glyph unicode="/" horiz-adv-x="463" d="M115 -161h-126l350 918h126z" />
<glyph unicode="0" horiz-adv-x="605" d="M424 337q0 63 -7.5 108.5t-22.5 74.5t-37.5 43t-53.5 14q-28 0 -50.5 -13t-38.5 -41.5t-25 -74.5t-9 -110q0 -124 30 -181.5t92 -57.5q28 0 50 13t38 41t25 74t9 110zM561 348q0 -83 -18 -149.5t-52.5 -113t-84 -71t-111.5 -24.5q-65 0 -112 21t-78 63.5t-46 105.5 t-15 147q0 83 18 149.5t52.5 113t84 71t110.5 24.5q129 0 190.5 -84t61.5 -253z" />
<glyph unicode="1" horiz-adv-x="367" d="M162 0v543l-128 -46l-20 115l179 65h101v-677h-132z" />
<glyph unicode="2" horiz-adv-x="501" d="M48 0v113l102 115q43 47 71.5 84t45.5 66t24 53t7 46q0 41 -25 66t-72 25q-30 0 -63.5 -10.5t-60.5 -27.5l-19 116q37 18 81 28.5t95 10.5q50 0 89 -14t65 -39.5t39 -59.5t13 -74q0 -32 -9.5 -66t-29.5 -71.5t-51 -79.5t-75 -90l-62 -71l1 -1q47 3 102 3.5t145 0.5v-123 h-413z" />
<glyph unicode="3" horiz-adv-x="484" d="M444 209q0 -49 -19.5 -89.5t-56.5 -70t-87 -44.5t-110 -15q-34 0 -66.5 3t-60.5 8l15 114q54 -15 116 -15q63 0 96.5 27t33.5 72q0 23 -11 44t-37.5 34.5t-66.5 18t-105 -2.5v102q61 -1 98 6.5t58.5 21t31.5 33t10 40.5q0 38 -25.5 59.5t-73.5 21.5q-28 0 -57 -6.5 t-59 -19.5l-13 105q34 13 75.5 21t83.5 8q48 0 88 -12t65.5 -34t38.5 -51.5t13 -64.5q0 -55 -30 -95t-82 -59v-1q61 -13 99 -57t38 -102z" />
<glyph unicode="4" horiz-adv-x="555" d="M311 557h-1l-171 -294q20 0 52.5 0.5t62 0.5h57.5v293zM436 154v-154h-126v154h-282l-10 101l248 420h170v-409h102v-112h-102z" />
<glyph unicode="5" horiz-adv-x="469" d="M439 221q0 -51 -18.5 -93.5t-53.5 -73.5t-84 -47.5t-110 -16.5q-33 0 -66 3.5t-60 9.5l14 115q27 -9 57 -13.5t61 -4.5q58 0 90.5 27.5t32.5 77.5q0 52 -38.5 80t-119.5 28q-37 0 -75 -3v365h331v-122l-210 1v-137q122 1 185.5 -52t63.5 -144z" />
<glyph unicode="6" horiz-adv-x="571" d="M399 210q0 52 -28.5 83t-77.5 31t-78 -30.5t-29 -80.5t28 -82.5t79 -32.5q48 0 77 30.5t29 81.5zM533 228q0 -54 -18.5 -99t-52.5 -76.5t-78 -47.5t-97 -16q-63 0 -111 22.5t-76.5 62.5t-41.5 96.5t-13 127.5q0 89 20.5 162t63.5 123.5t107.5 76t148.5 25.5 q22 0 45.5 -1.5t50.5 -4.5l-9 -114q-28 5 -50 7t-46 2q-84 0 -131.5 -40.5t-63.5 -128.5q-2 -15 -3.5 -23.5t-3.5 -14.5h1q24 29 63.5 46t86.5 17q48 0 87 -14.5t64.5 -40t41 -62.5t15.5 -85z" />
<glyph unicode="7" horiz-adv-x="465" d="M441 565q-28 -62 -54.5 -133.5t-50.5 -146t-44 -147t-34 -138.5h-145q16 71 39 148.5t48.5 152.5t50.5 139.5t46 111.5q-13 -1 -35 -1t-50 -0.5t-59 -0.5h-60h-71v125h419v-110z" />
<glyph unicode="8" horiz-adv-x="567" d="M388 174q0 19 -7.5 35t-21.5 29.5t-34 25.5t-48 26q-51 -29 -74.5 -55.5t-23.5 -61.5q0 -37 26.5 -58.5t78.5 -21.5q48 0 76 21.5t28 59.5zM378 512q0 31 -23.5 52t-70.5 21q-44 0 -69 -19.5t-25 -51.5t24 -56t77 -50q45 25 66 50t21 54zM520 181q0 -47 -18 -83 t-51.5 -60.5t-78.5 -37t-99 -12.5q-110 0 -168.5 47.5t-58.5 128.5q0 29 8.5 54t24.5 46t38.5 39.5t52.5 37.5q-57 33 -84.5 72t-27.5 93q0 42 16 75.5t47 57.5t75 36.5t98 12.5q51 0 91.5 -12t67.5 -33.5t41 -52t14 -67.5q0 -28 -8 -51.5t-22.5 -43.5t-34.5 -37t-47 -34 q62 -35 93 -76t31 -100z" />
<glyph unicode="9" horiz-adv-x="571" d="M385 462q0 47 -27.5 81t-81.5 34q-47 0 -75.5 -31t-28.5 -81q0 -51 28 -82.5t77 -31.5q27 0 48 9t35.5 27t19.5 37t5 38zM526 377q0 -192 -83.5 -289t-242.5 -97q-51 0 -117 9l9 115q28 -6 58 -9.5t61 -3.5q77 0 120.5 39.5t55.5 118.5q2 10 4.5 26t4.5 22h-1 q-23 -29 -62 -46t-87 -17q-43 0 -80 12t-67 38t-46 65.5t-16 86.5q0 50 17 94t49.5 76.5t78.5 50.5t101 18q63 0 111 -23t76.5 -62.5t42 -94t13.5 -129.5z" />
<glyph unicode=":" horiz-adv-x="298" d="M242 71q0 -34 -23.5 -58t-57.5 -24t-58 24t-24 58q0 33 24 57t58 24t57.5 -24t23.5 -57zM242 354q0 -34 -23.5 -58t-57.5 -24t-58 24t-24 58q0 33 24 57t58 24t57.5 -24t23.5 -57z" />
<glyph unicode=";" horiz-adv-x="298" d="M160 149q36 0 59 -27.5t23 -72.5t-29.5 -103t-99.5 -119l-53 47q51 55 57.5 90t-16.5 63q-14 17 -16 38t6 40t25.5 31.5t43.5 12.5zM242 354q0 -34 -23.5 -58t-57.5 -24t-58 24t-24 58q0 33 24 57t58 24t57.5 -24t23.5 -57z" />
<glyph unicode="&#x3c;" d="M382 6l-319 295l318 294l84 -84l-237 -209l238 -209z" />
<glyph unicode="=" d="M53 150v103h444v-103h-444zM53 341v103h444v-103h-444z" />
<glyph unicode="&#x3e;" d="M169 6l-84 84l237 209l-238 209l84 87l319 -295z" />
<glyph unicode="?" horiz-adv-x="451" d="M271 65q0 -32 -22.5 -54t-55.5 -22t-55.5 22t-22.5 54t22.5 54t55.5 22t55.5 -22t22.5 -54zM404 513q0 -42 -14.5 -71.5t-35 -52t-43.5 -42t-40 -42t-23.5 -50t5.5 -67.5h-124q-16 47 -12 81.5t19 60.5t36.5 46.5t42 39t35 38.5t14.5 45q0 45 -52 72t-145 30l16 116 q82 -2 142.5 -19.5t100.5 -45.5t59 -64t19 -75z" />
<glyph unicode="@" horiz-adv-x="1024" d="M574 401q-20 6 -48 6t-50 -16t-36.5 -42.5t-22 -57.5t-7.5 -61q0 -76 40 -76q34 0 65.5 50.5t49.5 147.5zM952 364q0 -72 -18.5 -131t-53 -100.5t-81.5 -63t-103 -21.5q-60 0 -92 31t-31 78h-2q-11 -22 -26.5 -41t-35 -34.5t-43.5 -24.5t-51 -9q-56 0 -90.5 42.5 t-34.5 121.5q0 62 16.5 115.5t50 94t83 63t113.5 22.5q53 0 95 -8.5t60 -14.5l-40 -213q-11 -59 0.5 -89t45.5 -30q26 0 48.5 13.5t39.5 40t26.5 65t9.5 87.5q0 51 -16 97t-50.5 82.5t-89 58t-129.5 21.5q-76 0 -143 -28t-117.5 -80t-79 -124t-28.5 -157q0 -146 81 -227 t243 -81q94 0 201 33l15 -95q-54 -18 -117 -28t-114 -10q-102 0 -181 27.5t-132.5 80t-81 125.5t-27.5 163q0 107 37 199.5t104 160t155.5 104t189.5 36.5q95 0 169.5 -27t124.5 -75.5t75 -112t25 -137.5z" />
<glyph unicode="A" horiz-adv-x="626" d="M335 458q-8 26 -15 51.5t-12 49.5h-2q-5 -24 -12 -50t-14 -50l-70 -212h195zM480 0l-46 144h-254l-47 -144h-131l226 675h169l227 -675h-144z" />
<glyph unicode="B" horiz-adv-x="581" d="M403 201q0 47 -34 71.5t-108 24.5h-35t-26 -1v-191q11 -1 32.5 -2t40.5 -1q64 0 97 27t33 72zM383 488q0 41 -27 64.5t-88 23.5q-16 0 -32.5 -0.5t-35.5 -1.5v-179q11 -1 23 -1h35q62 0 93.5 24.5t31.5 69.5zM543 207q0 -40 -16 -77t-49.5 -67t-86 -47.5t-122.5 -17.5 q-18 0 -85 1t-114 1v674q27 1 85.5 3t121.5 2q121 0 182 -44t61 -128q0 -49 -26 -89t-72 -58v-1q28 -7 50 -21t38 -33.5t24.5 -44t8.5 -53.5z" />
<glyph unicode="C" horiz-adv-x="566" d="M526 23q-38 -15 -84 -23t-92 -8q-85 0 -145.5 26t-97 71.5t-53 103t-16.5 123.5q0 81 21 148t63.5 115.5t106.5 75t147 26.5q37 0 75 -5t69 -15l-18 -120q-61 24 -132 24q-47 0 -82.5 -16.5t-59 -47t-35.5 -72t-12 -91.5q0 -112 48 -170.5t147 -58.5q31 0 67 8t63 21z " />
<glyph unicode="D" horiz-adv-x="667" d="M490 339q0 56 -11.5 98.5t-36.5 72t-65.5 45t-97.5 15.5q-23 0 -43 -1t-36 -2v-455q14 -2 33 -3.5t38 -1.5q48 0 88 14t69.5 42.5t45.5 72.5t16 103zM630 349q0 -85 -26.5 -151.5t-76 -111t-118 -67.5t-151.5 -23q-44 0 -98.5 2t-89.5 3v673q58 2 110.5 3.5t107.5 1.5 q80 0 143 -18.5t107.5 -58.5t68 -103t23.5 -150z" />
<glyph unicode="E" horiz-adv-x="510" d="M70 0v675h382v-109h-252v-166h231v-106h-231v-182h252v-112h-382z" />
<glyph unicode="F" horiz-adv-x="471" d="M200 564v-176h223v-106h-223v-282h-130v675h370v-111h-240z" />
<glyph unicode="G" horiz-adv-x="675" d="M608 32q-50 -20 -110 -31t-121 -11q-82 0 -146 22.5t-107.5 65.5t-65.5 103.5t-22 135.5q0 82 24.5 150t72 116.5t118 75t160.5 26.5q50 0 99 -8t92 -21l-26 -119q-78 32 -173 32q-58 0 -101.5 -18t-71 -50.5t-40.5 -75t-13 -91.5q0 -108 55.5 -167.5t159.5 -59.5 q47 0 86 12v235h130v-322z" />
<glyph unicode="H" horiz-adv-x="686" d="M486 0v293h-286v-293h-130v675h130v-270h286v270h131v-675h-131z" />
<glyph unicode="I" horiz-adv-x="270" d="M70 0v675h130v-675h-130z" />
<glyph unicode="J" horiz-adv-x="347" d="M279 192q0 -44 -10.5 -80.5t-33.5 -63.5t-59.5 -42t-87.5 -15q-24 0 -45.5 2t-42.5 6v112q12 -4 31.5 -7t38.5 -3q39 0 58.5 21t19.5 72v481h131v-483z" />
<glyph unicode="K" horiz-adv-x="597" d="M417 0l-217 324v-324h-130v675h130v-306l218 306h158l-247 -324l259 -351h-171z" />
<glyph unicode="L" horiz-adv-x="429" d="M70 0v675h130v-562h219v-113h-349z" />
<glyph unicode="M" horiz-adv-x="896" d="M732 0l-41 332q-7 57 -11 115.5t-5 104.5h-2q-9 -45 -21.5 -92t-28.5 -96l-122 -364h-121l-117 350q-15 46 -31 104t-24 98h-2q-1 -44 -4.5 -102t-9.5 -121l-35 -329h-126l81 675h181l118 -350q10 -30 19.5 -66t15.5 -71h2q8 41 16 75.5t17 61.5l118 350h183l83 -675 h-133z" />
<glyph unicode="N" horiz-adv-x="690" d="M494 0h-11l-212 342q-46 76 -59.5 102.5t-26.5 57.5q2 -23 3.5 -53t3 -64.5t3 -82.5t1.5 -118v-184h-126v675h126h27l198 -320q46 -75 57 -97t26 -56q-2 31 -4.5 82.5t-3.5 85t-1.5 65.5t-0.5 76v164h126v-675h-126z" />
<glyph unicode="O" horiz-adv-x="713" d="M538 335q0 110 -46 172t-136 62q-40 0 -73 -15t-57.5 -44t-37.5 -72t-13 -97q0 -55 11.5 -98.5t34 -74t56.5 -46.5t79 -16q40 0 73.5 15t57.5 44t37.5 72t13.5 98zM677 350q0 -85 -26 -153t-71.5 -114.5t-105.5 -70t-128 -23.5q-75 0 -133.5 22.5t-97.5 66t-59 105.5 t-20 142q0 85 26 153t71.5 114.5t105.5 70t128 23.5q75 0 133.5 -22.5t97.5 -66t59 -105.5t20 -142z" />
<glyph unicode="P" horiz-adv-x="553" d="M530 462q0 -52 -18 -96.5t-54 -78.5t-88 -52.5t-117 -18.5q-12 0 -23.5 0.5t-20.5 1l-9 0.5v-218h-130v675q11 0 38.5 1t70.5 2t85 1q130 0 198 -58t68 -159zM396 448q0 57 -34.5 90.5t-105.5 33.5q-32 0 -56 -1v-243q3 -1 11.5 -2t22 -2t27.5 -1q64 0 99.5 34.5 t35.5 90.5z" />
<glyph unicode="Q" horiz-adv-x="713" d="M539 335q0 110 -46.5 172t-136.5 62q-40 0 -73.5 -15t-57.5 -44t-37.5 -72t-13.5 -97q0 -55 11.5 -98.5t34.5 -74t57 -46.5t79 -16q40 0 73.5 15t58 44t38 72t13.5 98zM706 -66q-59 -8 -99.5 -2.5t-90 24t-74.5 26t-68 7.5h-28q-75 0 -133.5 22.5t-97.5 66t-59 105.5 t-20 142q0 85 26 153t71.5 114.5t105.5 70t128 23.5q75 0 133.5 -22.5t97.5 -66t59 -105.5t20 -142q0 -42 -6.5 -80t-18.5 -71t-29.5 -60t-39.5 -46.5t-47 -31.5q18 1 38.5 -4t37.5 -9t40 -6t54 2v-110z" />
<glyph unicode="R" horiz-adv-x="575" d="M381 472q0 101 -122 101q-17 0 -34 -1t-25 -2v-200q7 0 23 -0.5t32 -0.5q60 0 93 27t33 76zM406 0l-170 272h-36v-272h-130v675q23 1 77.5 2.5t120.5 1.5q59 0 105 -11.5t78.5 -35t49.5 -60.5t17 -88q0 -39 -11.5 -71t-32 -55.5t-48 -39.5t-60.5 -24q7 -9 22.5 -29.5 t29.5 -43.5l146 -221h-158z" />
<glyph unicode="S" horiz-adv-x="503" d="M467 199q0 -46 -17 -84.5t-50.5 -66.5t-82.5 -43.5t-111 -15.5q-83 0 -157 18l14 125q34 -14 73.5 -22t76.5 -8q25 0 46 5t36.5 15t24 26t8.5 38q0 30 -19 49.5t-57.5 37t-74.5 33t-66.5 37.5t-50.5 57t-20 87q0 44 17 80.5t50 63t80.5 41t107.5 14.5q28 0 61 -3.5 t61 -9.5l-12 -114q-28 9 -58 14t-60 5q-55 0 -83 -20.5t-28 -57.5q0 -28 19.5 -47.5t57 -36.5t75 -33.5t68.5 -38.5t51 -57.5t20 -87.5z" />
<glyph unicode="T" horiz-adv-x="510" d="M320 564v-564h-130v564h-175v111h480v-111h-175z" />
<glyph unicode="U" horiz-adv-x="681" d="M611 262q0 -137 -72 -205t-208 -68q-77 0 -128.5 19.5t-80.5 53t-40.5 76.5t-11.5 96v441h130v-433q0 -34 6.5 -60t22 -45t43 -29.5t68.5 -10.5q76 0 109 36t33 121v421h129v-413z" />
<glyph unicode="V" horiz-adv-x="628" d="M399 0h-169l-227 675h144l130 -404q11 -39 21.5 -78t18.5 -72h2q9 37 19.5 77t21.5 75l131 402h134z" />
<glyph unicode="W" horiz-adv-x="958" d="M765 0h-161l-103 369q-7 26 -12.5 59t-9.5 64h-2q-12 -88 -21 -123l-101 -369h-162l-169 675h139l90 -369q9 -46 16.5 -87t12.5 -81h2q6 41 13.5 82.5t18.5 83.5l102 371h130l105 -375q11 -39 20 -81t15 -81h2q6 46 12 85t14 75l89 377h128z" />
<glyph unicode="X" horiz-adv-x="628" d="M454 0l-145 248l-145 -248h-154l215 345l-202 330h151l137 -234l136 234h148l-199 -329l222 -346h-164z" />
<glyph unicode="Y" horiz-adv-x="561" d="M345 249v-249h-130v248l-217 427h143l94 -190q14 -29 25 -55t21 -52h2q10 25 22.5 53t29.5 63l90 181h138z" />
<glyph unicode="Z" horiz-adv-x="537" d="M45 0v100l243 396q15 23 24 36.5t20 27.5q-22 -1 -50 -1.5t-73 -0.5h-156v117h436v-105l-257 -405q-13 -20 -18 -28.5t-13 -18.5q8 1 26 1.5t43.5 0.5h76.5h146v-120h-448z" />
<glyph unicode="[" horiz-adv-x="328" d="M71 -205v982h221v-101h-101v-778h101v-103h-221z" />
<glyph unicode="\" horiz-adv-x="479" d="M357 -161l-350 918h126l350 -918h-126z" />
<glyph unicode="]" horiz-adv-x="328" d="M36 -205v103h100v778h-100v101h220v-982h-220z" />
<glyph unicode="^" d="M396 337l-131 247l-125 -247l-85 45l164 293h98l171 -292z" />
<glyph unicode="_" d="M0 -246v103h550v-103h-550z" />
<glyph unicode="`" horiz-adv-x="350" d="M228 558l-163 129l70 76l150 -144z" />
<glyph unicode="a" horiz-adv-x="524" d="M325 221q-47 0 -79 -5.5t-50.5 -15.5t-26.5 -23.5t-8 -30.5q0 -25 16.5 -41.5t43.5 -16.5q22 0 41.5 10t33.5 27t21.5 38t7.5 43v15zM335 0q0 24 1 45t4 39l-1 1q-18 -43 -61 -69t-98 -26q-66 0 -104 40t-38 102q0 44 20 76.5t57.5 54t90.5 32t119 10.5v21q0 44 -20.5 64 t-68.5 20q-33 0 -73.5 -9t-77.5 -24l-20 97q45 15 94 24.5t92 9.5q57 0 96 -11.5t62.5 -34t33.5 -54.5t10 -75v-205q0 -33 1 -66t3 -62h-122z" />
<glyph unicode="b" horiz-adv-x="559" d="M389 261q0 140 -85 140q-25 0 -45 -13.5t-33.5 -35.5t-21 -51t-7.5 -60v-140q27 -9 67 -9q27 0 50 9t39.5 29.5t26 52.5t9.5 78zM523 274q0 -63 -18 -115.5t-52.5 -90t-84.5 -58t-114 -20.5q-54 0 -98 6t-87 18v716h128v-214q0 -23 -2 -50t-6 -47h1q19 41 58.5 64.5 t91.5 23.5q90 0 136.5 -61t46.5 -172z" />
<glyph unicode="c" horiz-adv-x="425" d="M398 14q-29 -11 -66 -17t-74 -6q-52 0 -93.5 14t-70.5 43t-44.5 75t-15.5 109q0 58 15.5 108t46.5 87t78.5 58t112.5 21q29 0 57 -4.5t52 -12.5l-20 -110q-20 8 -44 13.5t-49 5.5q-57 0 -86 -42t-29 -111q0 -32 6 -58.5t20 -45.5t36 -29.5t54 -10.5q52 0 97 20l17 -107v0 z" />
<glyph unicode="d" horiz-adv-x="559" d="M362 397q-18 4 -34.5 6t-32.5 2q-58 0 -91.5 -40.5t-33.5 -128.5q0 -141 85 -141q24 0 44 13t34 36t21.5 52.5t7.5 61.5v139zM370 0q0 19 1.5 41t4.5 42h-2q-21 -43 -62 -68.5t-95 -25.5q-89 0 -135 62t-46 171q0 63 18 115t52 90t83 58.5t110 20.5q17 0 32 -1t31 -3v228 h127v-730h-119z" />
<glyph unicode="e" horiz-adv-x="514" d="M349 307q1 51 -22 78.5t-64 27.5q-40 0 -67 -28t-31 -78h184zM476 296q0 -24 -1.5 -45t-2.5 -30h-308q0 -132 132 -132q72 0 150 26l13 -95q-42 -14 -88.5 -22t-89.5 -8q-121 0 -184 62.5t-63 191.5q0 56 16 104t47 84t75 55.5t98 19.5q53 0 92.5 -16t64.5 -44.5t37 -67 t12 -83.5z" />
<glyph unicode="f" horiz-adv-x="354" d="M365 625q-8 2 -26 5.5t-38 3.5q-41 0 -60 -23.5t-19 -75.5v-38h116v-99h-116v-398h-127v398h-87v99h87v29q0 108 51.5 160t151.5 52q24 0 45.5 -2.5t30.5 -4.5z" />
<glyph unicode="g" horiz-adv-x="540" d="M454 397q11 -28 11 -58q0 -41 -13.5 -74.5t-40 -58.5t-66.5 -38.5t-94 -13.5h-18t-17 1q-18 -14 -18 -30q0 -14 13.5 -21.5t57.5 -9.5l70 -2q87 -3 131.5 -39.5t44.5 -108.5q0 -41 -18.5 -76.5t-53.5 -62t-84.5 -41.5t-112.5 -15q-101 0 -159.5 36.5t-58.5 108.5 q0 38 22 70.5t57 54.5q-43 25 -43 74q0 58 59 91q-39 23 -57 58.5t-18 78.5q0 39 13.5 73.5t40 59.5t66.5 39.5t94 14.5q43 0 81 -11h167v-100h-56zM206 -4v-1q-24 -16 -36 -36t-12 -40q0 -35 28.5 -55t79.5 -20q62 0 92 24t30 59q0 27 -18.5 45t-66.5 20l-76 2zM343 329 q0 38 -22.5 62t-64.5 24t-64.5 -24t-22.5 -62t22.5 -62t64.5 -24t64.5 24t22.5 62z" />
<glyph unicode="h" horiz-adv-x="571" d="M374 0v318q0 41 -14 61.5t-48 20.5q-24 0 -45 -12.5t-36.5 -35t-24.5 -52t-9 -61.5v-239h-128v730h128v-214q0 -26 -2 -53t-7 -48h2q22 43 64.5 67.5t98.5 24.5q41 0 69.5 -12t46 -33.5t25 -50t7.5 -62.5v-349h-127z" />
<glyph unicode="i" horiz-adv-x="266" d="M69 0v497h128v-497h-128zM213 648q0 -32 -23.5 -54.5t-56.5 -22.5t-56 22.5t-23 54.5t23 55t56 23t56.5 -22.5t23.5 -55.5z" />
<glyph unicode="j" horiz-adv-x="271" d="M201 -37q0 -51 -10.5 -90t-33 -66t-58 -41t-85.5 -14q-24 0 -46 3t-31 5l9 109q7 -3 25 -6.5t41 -3.5q34 0 48 20t14 71v547h127v-534zM217 648q0 -32 -23.5 -54.5t-56.5 -22.5t-56.5 22.5t-23.5 54.5t23.5 55t56.5 23t56.5 -22.5t23.5 -55.5z" />
<glyph unicode="k" horiz-adv-x="523" d="M351 0l-154 246v-246h-128v730h128v-440l145 207h150l-171 -222l190 -275h-160z" />
<glyph unicode="l" horiz-adv-x="266" d="M69 0v730h128v-730h-128z" />
<glyph unicode="m" horiz-adv-x="866" d="M669 0v314q0 43 -13 64.5t-46 21.5q-21 0 -41.5 -11.5t-37 -33.5t-26 -52t-9.5 -65v-238h-126v315q0 41 -12.5 63t-46.5 22q-22 0 -42.5 -12t-36.5 -34t-25.5 -52t-9.5 -64v-238h-128v497h121q0 -19 -1.5 -44t-4.5 -45l1 -1q23 46 66 73t98 27q32 0 56 -8.5t40 -22.5 t26 -31.5t15 -36.5q9 19 24 36.5t35.5 31.5t46.5 22.5t56 8.5q73 0 111 -41t38 -124v-342h-128z" />
<glyph unicode="n" horiz-adv-x="571" d="M374 0v318q0 41 -14 61.5t-48 20.5q-24 0 -45 -12.5t-36.5 -35t-24.5 -51.5t-9 -61v-240h-128v497h121q0 -20 -2 -45.5t-5 -43.5h1q23 45 66.5 72t102.5 27q41 0 69.5 -12t46 -33.5t25 -50t7.5 -62.5v-349h-127z" />
<glyph unicode="o" horiz-adv-x="553" d="M388 248q0 73 -29 112t-81 39q-26 0 -47 -9.5t-35.5 -28.5t-22.5 -47t-8 -65q0 -150 111 -150q51 0 81.5 37.5t30.5 111.5zM520 260q0 -58 -17 -107t-49.5 -86t-80 -57t-106.5 -20q-54 0 -97 15t-73.5 45.5t-47 77t-16.5 109.5q0 58 17 107t49.5 86t80 57t106.5 20 q113 0 173.5 -63t60.5 -184z" />
<glyph unicode="p" horiz-adv-x="559" d="M389 261q0 141 -85 141q-24 0 -44 -13t-34 -36t-21.5 -52.5t-7.5 -61.5v-138q30 -9 67 -9q28 0 50.5 9.5t39.5 29.5t26 52.5t9 77.5zM523 275q0 -65 -17 -117t-50 -89t-82 -56.5t-113 -19.5q-19 0 -34 1t-30 3v-238h-128v738h119q0 -21 -1 -43t-4 -40h2q21 44 61 68.5 t95 24.5q88 0 135 -60.5t47 -171.5z" />
<glyph unicode="q" horiz-adv-x="559" d="M362 398q-18 3 -34 5t-33 2q-58 0 -91.5 -40.5t-33.5 -128.5q0 -141 84 -141q24 0 44.5 13t34.5 36.5t21.5 53t7.5 62.5v138zM362 -241v225q0 25 1.5 49.5t5.5 46.5l-2 1q-20 -43 -59 -67.5t-88 -24.5q-90 0 -137 59.5t-47 173.5q0 63 18 115.5t52.5 90t85 58t115.5 20.5 q50 0 94.5 -4t87.5 -11v-732h-127z" />
<glyph unicode="r" horiz-adv-x="355" d="M335 382q-138 27 -138 -179v-203h-128v497h121q0 -20 -2.5 -47.5t-6.5 -52.5h2q10 25 23.5 46t33 36.5t45 23t56.5 4.5z" />
<glyph unicode="s" horiz-adv-x="417" d="M378 152q0 -35 -13.5 -64.5t-41 -51.5t-68 -34t-93.5 -12q-30 0 -60 3.5t-54 9.5l7 106q23 -9 54 -14.5t59 -5.5q37 0 57 13.5t20 37.5q0 20 -13.5 32.5t-38 22.5t-52.5 21t-50 27t-36 43t-14 66q0 33 13 61t39 49.5t65.5 33.5t91.5 12q21 0 44.5 -2.5t47.5 -6.5l-7 -101 q-22 6 -45 10t-46 4q-35 0 -53.5 -13t-18.5 -35q0 -19 13.5 -31.5t38.5 -22.5t53.5 -22t50.5 -28.5t36 -42.5t14 -65z" />
<glyph unicode="t" horiz-adv-x="375" d="M345 4q-25 -6 -54 -10t-52 -4q-42 0 -70 8.5t-44.5 26.5t-24 48t-7.5 76v249h-85v99h85v153l128 34v-187h119v-99h-119v-225q0 -44 12 -60t44 -16q29 0 59 7z" />
<glyph unicode="u" horiz-adv-x="570" d="M381 0q0 23 1.5 47.5t4.5 41.5h-1q-24 -46 -67 -72.5t-102 -26.5q-41 0 -69.5 12t-46 33.5t-25 50t-7.5 62.5v349h127v-318q0 -41 14 -61.5t48 -20.5q24 0 45 12.5t37 35t24.5 51.5t8.5 61v240h128v-497h-120z" />
<glyph unicode="v" horiz-adv-x="506" d="M328 0h-152l-171 497h138l80 -240q11 -38 18.5 -66.5t13.5 -57.5h2q6 31 13.5 60.5t16.5 62.5l78 241h135z" />
<glyph unicode="w" horiz-adv-x="796" d="M632 0h-143l-71 226q-8 30 -15 59.5t-12 56.5h-1q-6 -29 -13.5 -59t-18.5 -72l-62 -211h-137l-149 497h141l56 -207l14.5 -58t19.5 -84h1q7 35 15.5 72.5t17.5 70.5l62 206h127l63 -206q12 -43 20.5 -77t14.5 -67h2q5 32 13 64.5t20 78.5l58 207h130z" />
<glyph unicode="x" horiz-adv-x="528" d="M356 0l-96 167l-96 -167h-143h-10l171 251l-161 246h10h143l96 -164l97 164h131h11l-156 -245l164 -252h-10h-151z" />
<glyph unicode="y" horiz-adv-x="502" d="M309 -28q-23 -63 -49.5 -105.5t-58 -68t-68 -36.5t-81.5 -11q-19 0 -38 2t-27 4l13 109q7 -2 24 -5t36 -3t35 5t30 16.5t25.5 30.5t21.5 46l16 44l-183 497h144l67 -195q11 -35 21 -70t20 -73h1q4 18 9 36.5t10.5 38.5t12 41.5t13.5 42.5l58 179h137z" />
<glyph unicode="z" horiz-adv-x="450" d="M45 0v91l200 293q-16 -1 -44 -1.5t-62 -0.5h-88v115h348v-91l-196 -290q14 1 43 1h70h87v-117h-358z" />
<glyph unicode="{" horiz-adv-x="362" d="M309 -205q-98 0 -140 53t-42 170v135q0 62 -25 85.5t-75 26.5v96q25 1 44 6.5t31.5 17.5t18.5 32t6 52v87q0 109 41.5 165t140.5 56h21v-101q-24 0 -40.5 -5t-26 -18t-13.5 -36t-4 -59v-86q0 -80 -25 -115t-67 -43v-1q42 -7 67 -44.5t25 -117.5v-134q0 -36 4 -59.5 t13.5 -36.5t26 -18t40.5 -5v-103h-21z" />
<glyph unicode="|" horiz-adv-x="288" d="M91 -241v1000h102v-1000h-102z" />
<glyph unicode="}" horiz-adv-x="360" d="M338 265q-50 -3 -75 -26.5t-25 -85.5v-135q0 -117 -42 -170t-139 -53h-22v103q24 0 40.5 5t26.5 18t14 36.5t4 59.5v134q0 80 25 117.5t67 44.5v1q-43 6 -67.5 41.5t-24.5 113.5v89q0 36 -4 59t-14 36t-26.5 18t-40.5 5v101h22q99 0 140 -56t41 -165v-84q0 -33 6 -53.5 t18.5 -33t31 -18t44.5 -6.5v-96v0z" />
<glyph unicode="~" d="M509 566q0 -72 -41 -116t-110 -44q-39 0 -64 14t-48.5 43.5t-35.5 38t-26 8.5q-24 0 -35 -20t-12 -60h-95v18q0 72 41 116t110 44q37 0 63 -14t49.5 -44t35 -38.5t26.5 -8.5q24 0 35 20t12 61h95v-18z" />
<glyph unicode="&#xa1;" horiz-adv-x="321" d="M227 -211h-150l19 520h110zM232 432q0 -32 -22.5 -54t-56.5 -22q-33 0 -55.5 22t-22.5 54t22.5 54t55.5 22q34 0 56.5 -22t22.5 -54z" />
<glyph unicode="&#xa2;" horiz-adv-x="454" d="M409 124q-20 -8 -43 -13.5t-47 -7.5v-127h-96v127q-45 6 -79.5 24.5t-57.5 49.5t-34.5 71.5t-11.5 89.5q0 47 12.5 88t36 73.5t57.5 54t77 29.5v111h96v-104q23 -2 45.5 -6t43.5 -11l-12 -108q-42 21 -96 21q-59 0 -93.5 -37t-34.5 -104q0 -30 7 -54.5t22.5 -42.5 t39.5 -28t57 -10q27 0 52.5 6.5t49.5 18.5z" />
<glyph unicode="&#xa3;" horiz-adv-x="476" d="M42 0v89q47 33 67.5 68t20.5 83q0 14 -0.5 27.5t-3.5 33.5h-97v98h86q-5 31 -8 55.5t-3 45.5q0 91 53 139t151 48q28 0 58.5 -4t52.5 -11l-22 -105q-18 7 -39.5 11t-42.5 4q-39 0 -60.5 -20.5t-21.5 -61.5q0 -15 2.5 -36.5l7.5 -64.5h135v-98h-123q1 -10 1.5 -17t0.5 -13 v-19q0 -46 -16 -81t-51 -66q9 1 22 2.5t28 2l30 1t27 0.5h154v-111h-409z" />
<glyph unicode="&#xa4;" d="M361 334q0 47 -20 73t-67 26q-34 0 -59.5 -25.5t-25.5 -76.5q0 -45 20 -74.5t66 -29.5q33 0 59.5 25.5t26.5 81.5zM417 47l-77 103q-35 -16 -74 -16q-16 0 -29.5 2.5t-25.5 6.5l-69 -95l-99 70l68 85q-16 23 -25 53t-9 70q0 73 39 123l-72 92l97 69l71 -97q32 13 72 13 q16 0 32.5 -2.5t31.5 -8.5l70 96l97 -71l-71 -89q14 -20 21.5 -48.5t7.5 -66.5q0 -35 -10 -65.5t-27 -53.5l79 -99z" />
<glyph unicode="&#xa5;" horiz-adv-x="601" d="M395 309h124v-81h-155v-58h155v-83h-155v-87h-129v87h-155v83h155v58h-155v81h125l-183 366h142l89 -184q15 -30 26.5 -58t20.5 -55h2q10 30 24 62t31 64l87 171h137z" />
<glyph unicode="&#xa6;" horiz-adv-x="288" d="M91 -241v378h102v-378h-102zM91 391v368h102v-368h-102z" />
<glyph unicode="&#xa7;" horiz-adv-x="530" d="M342 230q0 24 -11 45t-29.5 41.5t-42.5 42t-51 47.5q-17 -13 -24.5 -30t-7.5 -34q0 -22 9 -41.5t26 -39.5t42 -43t57 -51q17 12 24.5 29t7.5 34zM458 247q0 -44 -21 -81.5t-56 -63.5q17 -21 27 -46.5t10 -57.5q0 -31 -12 -60.5t-39 -53t-70 -37.5t-104 -14q-17 0 -40 2.5 t-43 7.5l8 107q40 -12 77 -12q45 0 65.5 17.5t20.5 43.5q0 23 -16.5 43.5t-41 41.5t-53 45t-53 52.5t-41 63.5t-16.5 80t20.5 82t55.5 63q-18 23 -27.5 47.5t-9.5 56.5q0 33 11.5 62.5t37 52t65 36t96.5 13.5q20 0 41.5 -1.5t40.5 -6.5l-7 -106q-34 10 -71 10 q-41 0 -59 -14.5t-18 -41.5q0 -22 16.5 -42.5t41 -42.5t53.5 -46.5t53.5 -54t41 -65.5t16.5 -80z" />
<glyph unicode="&#xa8;" horiz-adv-x="471" d="M203 648q0 -29 -20 -49t-49 -20t-49 20t-20 49t20 49t49 20t49 -20t20 -49zM406 648q0 -29 -20 -49t-49 -20t-49 20t-20 49t20 49t49 20t49 -20t20 -49z" />
<glyph unicode="&#xa9;" horiz-adv-x="762" d="M480 177q-43 -20 -102 -20q-77 0 -119 47t-42 126q0 36 10 69t31.5 58t55 40t79.5 15q25 0 45 -4t37 -11l-14 -85q-11 8 -28 12.5t-35 4.5q-40 0 -57.5 -26t-17.5 -71q0 -87 70 -87q19 0 36.5 3t33.5 11l17 -82v0zM625 333q0 51 -19 96t-52.5 78.5t-78 53t-95.5 19.5 t-96 -19.5t-78 -52.5t-52.5 -78t-19.5 -96t19.5 -96t52.5 -78.5t78 -53t96 -19.5t95.5 19.5t78 52.5t52.5 78t19 96zM722 334q0 -71 -27 -133t-73.5 -108.5t-108.5 -73.5t-133 -27q-72 0 -134.5 26.5t-108.5 73t-72.5 108.5t-26.5 133t27 133t73.5 108.5t108.5 73.5t133 27 t133 -26.5t108.5 -73t73.5 -108.5t27 -133z" />
<glyph unicode="&#xaa;" horiz-adv-x="403" d="M239 477q-55 0 -79 -11.5t-24 -37.5q0 -15 10 -24t27 -9q16 0 28.5 7t20.5 18t12.5 23.5t4.5 23.5v10zM50 176v99h311v-99h-311zM244 325q0 12 1 25t3 24h-1q-13 -27 -40.5 -42.5t-60.5 -15.5q-53 0 -79.5 27t-26.5 71q0 33 14.5 57.5t41.5 40t63 23t80 7.5v15q0 9 -2 17 t-8.5 15t-18 11t-30.5 4q-27 0 -55.5 -7t-53.5 -18l-9 83q28 11 63 17t71 6q41 0 69 -9.5t44.5 -26t23.5 -37.5t7 -47v-155q0 -17 0.5 -36t1 -31.5t0.5 -17.5h-98z" />
<glyph unicode="&#xab;" horiz-adv-x="534" d="M149 98l-107 194l110 197l98 -45l-85 -151l87 -149zM377 103l-118 189l120 192l96 -46l-92 -145l94 -143z" />
<glyph unicode="&#xac;" d="M376 95v149h-337v107h450v-256h-113z" />
<glyph unicode="&#xad;" horiz-adv-x="334" d="M44 226v103h246v-103h-246z" />
<glyph unicode="&#xae;" horiz-adv-x="564" d="M306 573q0 24 -30 24h-16v-51h11q18 0 26.5 8t8.5 19zM305 420l-38 85h-7v-85h-60v223h93q42 0 60.5 -17t18.5 -45q0 -26 -12.5 -41.5t-32.5 -21.5q9 -11 17 -27l33 -71h-72zM438 530q0 32 -12.5 61t-33.5 50.5t-49.5 34t-60.5 12.5q-33 0 -61.5 -12.5t-49.5 -33.5 t-33.5 -49.5t-12.5 -61.5q0 -32 12.5 -61t33.5 -50.5t49.5 -34t61.5 -12.5q32 0 60.5 12.5t49.5 33.5t33.5 49.5t12.5 61.5zM516 530q0 -48 -18.5 -90t-50.5 -73t-74.5 -49t-90.5 -18q-49 0 -92 18t-74.5 49t-49.5 73t-18 90t18.5 90.5t50 73.5t74.5 49t91 18 q49 0 91.5 -17.5t74 -48.5t50 -73.5t18.5 -91.5z" />
<glyph unicode="&#xaf;" horiz-adv-x="400" d="M65 600v92h270v-92h-270z" />
<glyph unicode="&#x2c9;" horiz-adv-x="400" d="M65 600v92h270v-92h-270z" />
<glyph unicode="&#xb0;" horiz-adv-x="388" d="M245 604q0 20 -12.5 39t-40.5 19q-24 0 -39.5 -16.5t-15.5 -43.5q0 -28 15 -43.5t39 -15.5q25 0 39.5 17t14.5 44zM340 604q0 -35 -13 -61.5t-34.5 -44.5t-49.5 -27t-57 -9q-67 0 -105.5 37t-38.5 102q0 33 13 59.5t34.5 44.5t48.5 27.5t55 9.5q39 0 67 -11t45.5 -30 t26 -44t8.5 -53z" />
<glyph unicode="&#xb1;" d="M43 0v107h464v-107h-464zM336 346v-183h-122v183h-175v106h175v182h122v-182h175v-106h-175z" />
<glyph unicode="&#xb2;" horiz-adv-x="372" d="M35 358v86l72 73q46 47 68 76.5t22 56.5q0 25 -15 39t-44 14q-19 0 -42.5 -6t-41.5 -14l-15 89q25 11 61.5 17.5t68.5 6.5q73 0 114 -30.5t41 -91.5q0 -26 -5.5 -48t-16 -41.5t-25.5 -38.5t-36 -42l-50 -51q26 1 58.5 1.5t87.5 0.5v-97h-302z" />
<glyph unicode="&#xb3;" horiz-adv-x="364" d="M323 493q0 -65 -52.5 -104t-141.5 -39q-22 0 -50.5 3t-50.5 8l13 80q15 -5 37 -7.5t43 -2.5q38 0 59.5 15t21.5 40q0 31 -37.5 45.5t-106.5 5.5v76q65 0 99 15t34 46q0 21 -15.5 32t-44.5 11q-20 0 -44 -4.5t-42 -12.5l-11 77q25 9 60 14t65 5q73 0 111.5 -27t38.5 -80 q0 -36 -15.5 -59.5t-46.5 -37.5q38 -11 57 -37.5t19 -61.5z" />
<glyph unicode="&#xb4;" horiz-adv-x="350" d="M123 558l-58 61l150 144l70 -75z" />
<glyph unicode="&#xb5;" horiz-adv-x="582" d="M556 -4q-28 -5 -51 -5q-32 0 -53.5 7t-34.5 20t-18.5 30t-6.5 39h-1q-19 -44 -55 -69t-87 -25q-43 0 -64 23l15 -257h-131v738h128v-322q0 -78 61 -78q25 0 46.5 11.5t37 33.5t24 51.5t8.5 65.5v238h127v-318q0 -26 2.5 -42t8.5 -24.5t16.5 -12t27.5 -3.5v-101z" />
<glyph unicode="&#xb6;" horiz-adv-x="595" d="M293 231q-60 0 -105.5 17t-75 48t-44 71.5t-14.5 86.5q0 50 17.5 90.5t49.5 70t76 45t96 15.5v-444zM479 573v-669h-179v102h70v669h174v-102h-65z" />
<glyph unicode="&#xb7;" horiz-adv-x="269" d="M218 298q0 -35 -24.5 -59t-58.5 -24q-35 0 -59 24t-24 59q0 34 24 58t59 24q34 0 58.5 -24t24.5 -58z" />
<glyph unicode="&#x2219;" horiz-adv-x="269" d="M218 298q0 -35 -24.5 -59t-58.5 -24q-35 0 -59 24t-24 59q0 34 24 58t59 24q34 0 58.5 -24t24.5 -58z" />
<glyph unicode="&#xb8;" horiz-adv-x="279" d="M182 -40q37 -51 30.5 -100t-50.5 -94h-97q38 45 42 81.5t-31 79.5z" />
<glyph unicode="&#xb9;" horiz-adv-x="296" d="M112 358v324l-82 -30l-19 94l119 42h105v-430h-123z" />
<glyph unicode="&#xba;" horiz-adv-x="426" d="M283 502q0 46 -18 70.5t-52 24.5q-32 0 -51 -24.5t-19 -71.5q0 -23 4.5 -41t13.5 -30t22 -18.5t29 -6.5q33 0 52 25t19 72zM54 176v99h318v-99h-318zM386 509q0 -41 -12 -76t-35 -61t-56.5 -40.5t-76.5 -14.5q-38 0 -69 10.5t-53 32.5t-33.5 55t-11.5 78q0 41 12 76 t35.5 61.5t57 41t76.5 14.5q38 0 68.5 -10.5t52.5 -32.5t33.5 -55.5t11.5 -78.5z" />
<glyph unicode="&#xbb;" horiz-adv-x="534" d="M154 103l-96 46l93 145l-94 143l100 47l118 -189zM382 98l-99 45l86 151l-87 149l103 46l107 -194z" />
<glyph unicode="&#xbc;" horiz-adv-x="850" d="M112 358v324l-82 -30l-19 94l119 42h105v-430h-123zM109 -150l-79 54l652 905l78 -55zM756 -21v-90h-108v90h-197l-7 79l147 261h165v-250h63v-90h-63zM647 249l-100 -182q9 0 22.5 0.5t28 0.5h26h23.5v181z" />
<glyph unicode="&#xbd;" horiz-adv-x="858" d="M112 358v324l-82 -30l-19 94l119 42h105v-430h-123zM109 -150l-79 54l652 905l78 -55zM515 -111v86l72 73q46 47 68 76.5t22 56.5q0 25 -15 39t-44 14q-19 0 -42.5 -6t-41.5 -14l-15 89q25 11 61.5 17.5t68.5 6.5q73 0 114 -30.5t41 -91.5q0 -26 -5.5 -48t-16 -41.5 t-25.5 -38.5t-36 -42l-50 -51q26 1 58.5 1.5t87.5 0.5v-97h-302z" />
<glyph unicode="&#xbe;" horiz-adv-x="868" d="M127 -150l-79 54l652 905l78 -55zM323 493q0 -65 -52.5 -104t-141.5 -39q-22 0 -50.5 3t-50.5 8l13 80q15 -5 37 -7.5t43 -2.5q38 0 59.5 15t21.5 40q0 31 -37.5 45.5t-106.5 5.5v76q65 0 99 15t34 46q0 21 -15.5 32t-44.5 11q-20 0 -44 -4.5t-42 -12.5l-11 77 q25 9 60 14t65 5q73 0 111.5 -27t38.5 -80q0 -36 -15.5 -59.5t-46.5 -37.5q38 -11 57 -37.5t19 -61.5zM775 -21v-90h-108v90h-197l-7 79l147 261h165v-250h63v-90h-63zM666 249l-100 -182q9 0 22.5 0.5t28 0.5h26h23.5v181z" />
<glyph unicode="&#xbf;" horiz-adv-x="451" d="M368 -220q-83 2 -143 19.5t-100 45.5t-59 64t-19 75q0 42 14.5 71.5t35 52t43.5 42t39.5 42t23 50t-5.5 67.5h125q16 -47 12 -81.5t-19 -60.5t-36.5 -46.5t-42 -39t-35 -38.5t-14.5 -45q0 -45 52 -72t145 -30zM336 432q0 -32 -22.5 -54t-55.5 -22t-55.5 22t-22.5 54 t22.5 54t55.5 22t55.5 -22t22.5 -54z" />
<glyph unicode="&#xc0;" horiz-adv-x="626" d="M335 458q-8 26 -15 51.5t-12 49.5h-2q-5 -24 -12 -50t-14 -50l-70 -212h195zM480 0l-46 144h-254l-47 -144h-131l226 675h169l227 -675h-144zM372 716l-216 53l30 92l207 -75z" />
<glyph unicode="&#xc1;" horiz-adv-x="626" d="M335 458q-8 26 -15 51.5t-12 49.5h-2q-5 -24 -12 -50t-14 -50l-70 -212h195zM480 0l-46 144h-254l-47 -144h-131l226 675h169l227 -675h-144zM243 716l-21 70l208 75l29 -92z" />
<glyph unicode="&#xc2;" horiz-adv-x="626" d="M335 458q-8 26 -15 51.5t-12 49.5h-2q-5 -24 -12 -50t-14 -50l-70 -212h195zM480 0l-46 144h-254l-47 -144h-131l226 675h169l227 -675h-144zM446 715l-136 55l-137 -55l-29 66l168 84l164 -83z" />
<glyph unicode="&#xc3;" horiz-adv-x="626" d="M335 458q-8 26 -15 51.5t-12 49.5h-2q-5 -24 -12 -50t-14 -50l-70 -212h195zM480 0l-46 144h-254l-47 -144h-131l226 675h169l227 -675h-144zM499 810q-46 -82 -126 -82q-23 0 -40 6.5t-37 19t-28.5 17t-21.5 4.5q-33 0 -58 -43l-64 44q46 82 126 82q23 0 40.5 -6.5 t37 -19t28.5 -17t22 -4.5q17 0 31 10.5t26 31.5z" />
<glyph unicode="&#xc4;" horiz-adv-x="626" d="M335 458q-8 26 -15 51.5t-12 49.5h-2q-5 -24 -12 -50t-14 -50l-70 -212h195zM480 0l-46 144h-254l-47 -144h-131l226 675h169l227 -675h-144zM486 788q0 -29 -20 -49t-49 -20t-49 20t-20 49t20 49t49 20t49 -20t20 -49zM270 788q0 -29 -20 -49t-49 -20t-49 20t-20 49 t20 49t49 20t49 -20t20 -49z" />
<glyph unicode="&#xc5;" horiz-adv-x="626" d="M335 458q-8 26 -15 51.5t-12 49.5h-2q-5 -24 -12 -50t-14 -50l-70 -212h195zM480 0l-46 144h-254l-47 -144h-131l226 675h169l227 -675h-144zM447 828q0 -54 -38.5 -87t-99.5 -33q-62 0 -95.5 28t-33.5 83q0 54 39 87t100 33t94.5 -28t33.5 -83zM361 823q0 53 -47 53 q-21 0 -34 -13.5t-13 -38.5q0 -53 46 -53q21 0 34.5 13.5t13.5 38.5z" />
<glyph unicode="&#xc6;" horiz-adv-x="799" d="M371 567h-9q-14 -36 -28.5 -69.5t-33.5 -72.5l-89 -174h160v316zM371 0v149h-204l-72 -149h-133l334 675h443v-109h-241v-166h222v-106h-222v-182h244v-112h-371z" />
<glyph unicode="&#xc7;" horiz-adv-x="566" d="M526 23q-38 -15 -84 -23t-92 -8q-85 0 -145.5 26t-97 71.5t-53 103t-16.5 123.5q0 81 21 148t63.5 115.5t106.5 75t147 26.5q37 0 75 -5t69 -15l-18 -120q-61 24 -132 24q-47 0 -82.5 -16.5t-59 -47t-35.5 -72t-12 -91.5q0 -112 48 -170.5t147 -58.5q31 0 67 8t63 21z M363 -40q37 -51 30.5 -100t-50.5 -94h-97q38 45 42 81.5t-31 79.5z" />
<glyph unicode="&#xc8;" horiz-adv-x="510" d="M70 0v675h382v-109h-252v-166h231v-106h-231v-182h252v-112h-382zM320 716l-216 53l30 92l207 -75z" />
<glyph unicode="&#xc9;" horiz-adv-x="510" d="M70 0v675h382v-109h-252v-166h231v-106h-231v-182h252v-112h-382zM191 716l-21 70l208 75l29 -92z" />
<glyph unicode="&#xca;" horiz-adv-x="510" d="M70 0v675h382v-109h-252v-166h231v-106h-231v-182h252v-112h-382zM395 715l-136 55l-137 -55l-29 66l168 84l164 -83z" />
<glyph unicode="&#xcb;" horiz-adv-x="510" d="M70 0v675h382v-109h-252v-166h231v-106h-231v-182h252v-112h-382zM432 788q0 -29 -20 -49t-49 -20t-49 20t-20 49t20 49t49 20t49 -20t20 -49zM216 788q0 -29 -20 -49t-49 -20t-49 20t-20 49t20 49t49 20t49 -20t20 -49z" />
<glyph unicode="&#xcc;" horiz-adv-x="270" d="M70 0v675h130v-675h-130zM198 716l-216 53l30 92l207 -75z" />
<glyph unicode="&#xcd;" horiz-adv-x="270" d="M70 0v675h130v-675h-130zM75 716l-21 70l208 75l29 -92z" />
<glyph unicode="&#xce;" horiz-adv-x="270" d="M70 0v675h130v-675h-130zM272 715l-136 55l-137 -55l-29 66l168 84l164 -83z" />
<glyph unicode="&#xcf;" horiz-adv-x="270" d="M70 0v675h130v-675h-130zM306 788q0 -29 -20 -49t-49 -20t-49 20t-20 49t20 49t49 20t49 -20t20 -49zM104 788q0 -29 -20 -49t-49 -20t-49 20t-20 49t20 49t49 20t49 -20t20 -49z" />
<glyph unicode="&#xd0;" horiz-adv-x="676" d="M499 339q0 56 -11.5 98.5t-37 72t-66 45t-97.5 15.5q-23 0 -43 -1t-36 -2v-172h122v-99h-122v-184q14 -2 33 -3.5t38 -1.5q49 0 89 14t69.5 42.5t45.5 72.5t16 103zM639 349q0 -84 -26 -150t-74.5 -111t-117.5 -68.5t-154 -23.5q-44 0 -98.5 2t-89.5 3v295h-75v99h75v279 q58 2 111 3.5t108 1.5q80 0 142.5 -18.5t107 -58.5t68 -103t23.5 -150z" />
<glyph unicode="&#xd1;" horiz-adv-x="690" d="M494 0h-11l-212 342q-46 76 -59.5 102.5t-26.5 57.5q2 -23 3.5 -53t3 -64.5t3 -82.5t1.5 -118v-184h-126v675h126h27l198 -320q46 -75 57 -97t26 -56q-2 31 -4.5 82.5t-3.5 85t-1.5 65.5t-0.5 76v164h126v-675h-126zM536 810q-46 -82 -126 -82q-23 0 -40 6.5t-37 19 t-28.5 17t-21.5 4.5q-33 0 -58 -43l-64 44q46 82 126 82q23 0 40.5 -6.5t37 -19t28.5 -17t22 -4.5q17 0 31 10.5t26 31.5z" />
<glyph unicode="&#xd2;" horiz-adv-x="713" d="M538 335q0 110 -46 172t-136 62q-40 0 -73 -15t-57.5 -44t-37.5 -72t-13 -97q0 -55 11.5 -98.5t34 -74t56.5 -46.5t79 -16q40 0 73.5 15t57.5 44t37.5 72t13.5 98zM677 350q0 -85 -26 -153t-71.5 -114.5t-105.5 -70t-128 -23.5q-75 0 -133.5 22.5t-97.5 66t-59 105.5 t-20 142q0 85 26 153t71.5 114.5t105.5 70t128 23.5q75 0 133.5 -22.5t97.5 -66t59 -105.5t20 -142zM417 716l-216 53l30 92l207 -75z" />
<glyph unicode="&#xd3;" horiz-adv-x="713" d="M538 335q0 110 -46 172t-136 62q-40 0 -73 -15t-57.5 -44t-37.5 -72t-13 -97q0 -55 11.5 -98.5t34 -74t56.5 -46.5t79 -16q40 0 73.5 15t57.5 44t37.5 72t13.5 98zM677 350q0 -85 -26 -153t-71.5 -114.5t-105.5 -70t-128 -23.5q-75 0 -133.5 22.5t-97.5 66t-59 105.5 t-20 142q0 85 26 153t71.5 114.5t105.5 70t128 23.5q75 0 133.5 -22.5t97.5 -66t59 -105.5t20 -142zM302 716l-21 70l208 75l29 -92z" />
<glyph unicode="&#xd4;" horiz-adv-x="713" d="M538 335q0 110 -46 172t-136 62q-40 0 -73 -15t-57.5 -44t-37.5 -72t-13 -97q0 -55 11.5 -98.5t34 -74t56.5 -46.5t79 -16q40 0 73.5 15t57.5 44t37.5 72t13.5 98zM677 350q0 -85 -26 -153t-71.5 -114.5t-105.5 -70t-128 -23.5q-75 0 -133.5 22.5t-97.5 66t-59 105.5 t-20 142q0 85 26 153t71.5 114.5t105.5 70t128 23.5q75 0 133.5 -22.5t97.5 -66t59 -105.5t20 -142zM500 715l-136 55l-137 -55l-29 66l168 84l164 -83z" />
<glyph unicode="&#xd5;" horiz-adv-x="713" d="M538 335q0 110 -46 172t-136 62q-40 0 -73 -15t-57.5 -44t-37.5 -72t-13 -97q0 -55 11.5 -98.5t34 -74t56.5 -46.5t79 -16q40 0 73.5 15t57.5 44t37.5 72t13.5 98zM677 350q0 -85 -26 -153t-71.5 -114.5t-105.5 -70t-128 -23.5q-75 0 -133.5 22.5t-97.5 66t-59 105.5 t-20 142q0 85 26 153t71.5 114.5t105.5 70t128 23.5q75 0 133.5 -22.5t97.5 -66t59 -105.5t20 -142zM545 810q-46 -82 -126 -82q-23 0 -40 6.5t-37 19t-28.5 17t-21.5 4.5q-33 0 -58 -43l-64 44q46 82 126 82q23 0 40.5 -6.5t37 -19t28.5 -17t22 -4.5q17 0 31 10.5t26 31.5z " />
<glyph unicode="&#xd6;" horiz-adv-x="713" d="M538 335q0 110 -46 172t-136 62q-40 0 -73 -15t-57.5 -44t-37.5 -72t-13 -97q0 -55 11.5 -98.5t34 -74t56.5 -46.5t79 -16q40 0 73.5 15t57.5 44t37.5 72t13.5 98zM677 350q0 -85 -26 -153t-71.5 -114.5t-105.5 -70t-128 -23.5q-75 0 -133.5 22.5t-97.5 66t-59 105.5 t-20 142q0 85 26 153t71.5 114.5t105.5 70t128 23.5q75 0 133.5 -22.5t97.5 -66t59 -105.5t20 -142zM536 788q0 -29 -20 -49t-49 -20t-49 20t-20 49t20 49t49 20t49 -20t20 -49zM320 788q0 -29 -20 -49t-49 -20t-49 20t-20 49t20 49t49 20t49 -20t20 -49z" />
<glyph unicode="&#xd7;" d="M425 69l-154 154l-154 -154l-70 70l154 154l-154 154l78 78l154 -154l154 154l70 -70l-154 -154l154 -154z" />
<glyph unicode="&#xd8;" horiz-adv-x="713" d="M212 166l206 395q-12 6 -29 9t-33 3q-41 0 -75.5 -15t-59.5 -44.5t-38.5 -73t-13.5 -99.5q0 -32 4 -59t10.5 -48.5t13.5 -37t15 -30.5zM501 509q-48 -92 -82 -157.5t-67.5 -129.5t-56.5 -108q13 -5 29.5 -8.5t31.5 -3.5q41 0 75.5 15t60 45t39 73.5t13.5 99.5 q0 59 -12.5 100t-30.5 74zM616 730l-52 -101q55 -40 84 -110t29 -169q0 -85 -26 -153t-71.5 -114.5t-105.5 -70t-128 -23.5q-29 0 -56.5 4t-50.5 12l-52 -102l-90 42l52 101q-27 20 -48 47t-35.5 62t-22 77.5t-7.5 92.5q0 85 26 153t71.5 114.5t105.5 70t128 23.5 q29 0 56.5 -4t50.5 -12l52 102z" />
<glyph unicode="&#xd9;" horiz-adv-x="681" d="M611 262q0 -137 -72 -205t-208 -68q-77 0 -128.5 19.5t-80.5 53t-40.5 76.5t-11.5 96v441h130v-433q0 -34 6.5 -60t22 -45t43 -29.5t68.5 -10.5q76 0 109 36t33 121v421h129v-413zM380 716l-216 53l30 92l207 -75z" />
<glyph unicode="&#xda;" horiz-adv-x="681" d="M611 262q0 -137 -72 -205t-208 -68q-77 0 -128.5 19.5t-80.5 53t-40.5 76.5t-11.5 96v441h130v-433q0 -34 6.5 -60t22 -45t43 -29.5t68.5 -10.5q76 0 109 36t33 121v421h129v-413zM318 716l-21 70l208 75l29 -92z" />
<glyph unicode="&#xdb;" horiz-adv-x="681" d="M611 262q0 -137 -72 -205t-208 -68q-77 0 -128.5 19.5t-80.5 53t-40.5 76.5t-11.5 96v441h130v-433q0 -34 6.5 -60t22 -45t43 -29.5t68.5 -10.5q76 0 109 36t33 121v421h129v-413zM479 715l-136 55l-137 -55l-29 66l168 84l164 -83z" />
<glyph unicode="&#xdc;" horiz-adv-x="681" d="M611 262q0 -137 -72 -205t-208 -68q-77 0 -128.5 19.5t-80.5 53t-40.5 76.5t-11.5 96v441h130v-433q0 -34 6.5 -60t22 -45t43 -29.5t68.5 -10.5q76 0 109 36t33 121v421h129v-413zM517 788q0 -29 -20 -49t-49 -20t-49 20t-20 49t20 49t49 20t49 -20t20 -49zM301 788 q0 -29 -20 -49t-49 -20t-49 20t-20 49t20 49t49 20t49 -20t20 -49z" />
<glyph unicode="&#xdd;" horiz-adv-x="561" d="M345 249v-249h-130v248l-217 427h143l94 -190q14 -29 25 -55t21 -52h2q10 25 22.5 53t29.5 63l90 181h138zM251 716l-21 70l208 75l29 -92z" />
<glyph unicode="&#xde;" horiz-adv-x="545" d="M396 354q0 57 -34.5 90.5t-105.5 33.5q-16 0 -32 -0.5t-24 -1.5v-243q8 -1 25 -2.5t36 -1.5q64 0 99.5 34.5t35.5 90.5zM530 368q0 -52 -18 -96.5t-54 -78.5t-88 -52.5t-117 -18.5q-16 0 -31 1t-22 1v-124h-130v675h130v-91q8 0 26 0.5t38 0.5q130 0 198 -58t68 -159z " />
<glyph unicode="&#xdf;" horiz-adv-x="607" d="M576 157q0 -37 -15 -68.5t-42.5 -53.5t-65.5 -34t-84 -12q-67 0 -106 14l7 105q21 -9 44.5 -14.5t46.5 -5.5q42 0 62.5 16t20.5 40q0 20 -12 34.5t-35 29t-46 28.5t-42 31.5t-31 44t-12 62.5q0 39 15 64.5t43.5 52.5t41.5 44t13 45t-20 43t-55 15q-52 0 -79.5 -34 t-27.5 -104v-500h-128v494q0 64 18.5 111t51.5 76t76 42.5t94 13.5q46 0 83.5 -10t64 -29.5t41 -47.5t14.5 -62q0 -43 -15.5 -69.5t-46 -51.5t-42.5 -39t-12 -39q0 -20 12 -34.5t35.5 -29.5t46.5 -29.5t42 -32.5t31.5 -44t12.5 -62z" />
<glyph unicode="&#xe0;" horiz-adv-x="524" d="M325 221q-47 0 -79 -5.5t-50.5 -15.5t-26.5 -23.5t-8 -30.5q0 -25 16.5 -41.5t43.5 -16.5q22 0 41.5 10t33.5 27t21.5 38t7.5 43v15zM335 0q0 24 1 45t4 39l-1 1q-18 -43 -61 -69t-98 -26q-66 0 -104 40t-38 102q0 44 20 76.5t57.5 54t90.5 32t119 10.5v21q0 44 -20.5 64 t-68.5 20q-33 0 -73.5 -9t-77.5 -24l-20 97q45 15 94 24.5t92 9.5q57 0 96 -11.5t62.5 -34t33.5 -54.5t10 -75v-205q0 -33 1 -66t3 -62h-122zM281 558l-163 129l70 76l150 -144z" />
<glyph unicode="&#xe1;" horiz-adv-x="524" d="M325 221q-47 0 -79 -5.5t-50.5 -15.5t-26.5 -23.5t-8 -30.5q0 -25 16.5 -41.5t43.5 -16.5q22 0 41.5 10t33.5 27t21.5 38t7.5 43v15zM335 0q0 24 1 45t4 39l-1 1q-18 -43 -61 -69t-98 -26q-66 0 -104 40t-38 102q0 44 20 76.5t57.5 54t90.5 32t119 10.5v21q0 44 -20.5 64 t-68.5 20q-33 0 -73.5 -9t-77.5 -24l-20 97q45 15 94 24.5t92 9.5q57 0 96 -11.5t62.5 -34t33.5 -54.5t10 -75v-205q0 -33 1 -66t3 -62h-122zM247 558l-58 61l150 144l70 -75z" />
<glyph unicode="&#xe2;" horiz-adv-x="524" d="M325 221q-47 0 -79 -5.5t-50.5 -15.5t-26.5 -23.5t-8 -30.5q0 -25 16.5 -41.5t43.5 -16.5q22 0 41.5 10t33.5 27t21.5 38t7.5 43v15zM335 0q0 24 1 45t4 39l-1 1q-18 -43 -61 -69t-98 -26q-66 0 -104 40t-38 102q0 44 20 76.5t57.5 54t90.5 32t119 10.5v21q0 44 -20.5 64 t-68.5 20q-33 0 -73.5 -9t-77.5 -24l-20 97q45 15 94 24.5t92 9.5q57 0 96 -11.5t62.5 -34t33.5 -54.5t10 -75v-205q0 -33 1 -66t3 -62h-122zM369 560l-103 81l-105 -81l-49 58l155 136l152 -135z" />
<glyph unicode="&#xe3;" horiz-adv-x="524" d="M325 221q-47 0 -79 -5.5t-50.5 -15.5t-26.5 -23.5t-8 -30.5q0 -25 16.5 -41.5t43.5 -16.5q22 0 41.5 10t33.5 27t21.5 38t7.5 43v15zM335 0q0 24 1 45t4 39l-1 1q-18 -43 -61 -69t-98 -26q-66 0 -104 40t-38 102q0 44 20 76.5t57.5 54t90.5 32t119 10.5v21q0 44 -20.5 64 t-68.5 20q-33 0 -73.5 -9t-77.5 -24l-20 97q45 15 94 24.5t92 9.5q57 0 96 -11.5t62.5 -34t33.5 -54.5t10 -75v-205q0 -33 1 -66t3 -62h-122zM444 666q-45 -89 -121 -89q-23 0 -39.5 7t-35.5 20.5t-27.5 18.5t-21.5 5q-30 0 -55 -45l-61 47q45 89 122 89q22 0 38.5 -7 t36 -20.5t28 -18.5t20.5 -5q30 0 55 45z" />
<glyph unicode="&#xe4;" horiz-adv-x="524" d="M325 221q-47 0 -79 -5.5t-50.5 -15.5t-26.5 -23.5t-8 -30.5q0 -25 16.5 -41.5t43.5 -16.5q22 0 41.5 10t33.5 27t21.5 38t7.5 43v15zM335 0q0 24 1 45t4 39l-1 1q-18 -43 -61 -69t-98 -26q-66 0 -104 40t-38 102q0 44 20 76.5t57.5 54t90.5 32t119 10.5v21q0 44 -20.5 64 t-68.5 20q-33 0 -73.5 -9t-77.5 -24l-20 97q45 15 94 24.5t92 9.5q57 0 96 -11.5t62.5 -34t33.5 -54.5t10 -75v-205q0 -33 1 -66t3 -62h-122zM231 648q0 -29 -20 -49t-49 -20t-49 20t-20 49t20 49t49 20t49 -20t20 -49zM434 648q0 -29 -20 -49t-49 -20t-49 20t-20 49t20 49 t49 20t49 -20t20 -49z" />
<glyph unicode="&#xe5;" horiz-adv-x="524" d="M325 221q-47 0 -79 -5.5t-50.5 -15.5t-26.5 -23.5t-8 -30.5q0 -25 16.5 -41.5t43.5 -16.5q22 0 41.5 10t33.5 27t21.5 38t7.5 43v15zM335 0q0 24 1 45t4 39l-1 1q-18 -43 -61 -69t-98 -26q-66 0 -104 40t-38 102q0 44 20 76.5t57.5 54t90.5 32t119 10.5v21q0 44 -20.5 64 t-68.5 20q-33 0 -73.5 -9t-77.5 -24l-20 97q45 15 94 24.5t92 9.5q57 0 96 -11.5t62.5 -34t33.5 -54.5t10 -75v-205q0 -33 1 -66t3 -62h-122zM398 675q0 -56 -38 -91t-98 -35q-61 0 -93.5 29t-32.5 87q0 27 10 50t28.5 40t43.5 26t55 9q61 0 93 -29t32 -86zM314 669 q0 29 -11.5 42t-34.5 13q-21 0 -34.5 -14t-13.5 -40q0 -55 47 -55q21 0 34 14t13 40z" />
<glyph unicode="&#xe6;" horiz-adv-x="800" d="M325 221q-47 0 -79 -5.5t-50.5 -15.5t-26.5 -23.5t-8 -30.5q0 -25 16.5 -41.5t43.5 -16.5q22 0 41.5 10t33.5 27t21.5 38t7.5 43v15zM635 309q1 50 -22 77t-64 27q-40 0 -66.5 -28t-31.5 -76h184zM762 296q0 -22 -1.5 -42.5t-2.5 -29.5h-308q0 -135 132 -135 q36 0 73.5 6.5t76.5 19.5l13 -95q-42 -14 -88.5 -22t-89.5 -8q-80 0 -131 27t-71 74h-1q-25 -46 -72 -73.5t-108 -27.5q-69 0 -107.5 39.5t-38.5 102.5q0 44 20 76.5t57.5 54t90.5 32t119 10.5v21q0 44 -20.5 64t-68.5 20q-33 0 -73.5 -9t-77.5 -24l-20 97q45 15 94 24.5 t92 9.5q53 0 92 -14.5t63 -47.5h1q23 28 62 44.5t87 16.5q53 0 92.5 -16t64.5 -44.5t37 -67t12 -83.5z" />
<glyph unicode="&#xe7;" horiz-adv-x="425" d="M398 14q-29 -11 -66 -17t-74 -6q-52 0 -93.5 14t-70.5 43t-44.5 75t-15.5 109q0 58 15.5 108t46.5 87t78.5 58t112.5 21q29 0 57 -4.5t52 -12.5l-20 -110q-20 8 -44 13.5t-49 5.5q-57 0 -86 -42t-29 -111q0 -32 6 -58.5t20 -45.5t36 -29.5t54 -10.5q52 0 97 20l17 -107v0 zM278 -40q37 -51 30.5 -100t-50.5 -94h-97q38 45 42 81.5t-31 79.5z" />
<glyph unicode="&#xe8;" horiz-adv-x="514" d="M349 307q1 51 -22 78.5t-64 27.5q-40 0 -67 -28t-31 -78h184zM476 296q0 -24 -1.5 -45t-2.5 -30h-308q0 -132 132 -132q72 0 150 26l13 -95q-42 -14 -88.5 -22t-89.5 -8q-121 0 -184 62.5t-63 191.5q0 56 16 104t47 84t75 55.5t98 19.5q53 0 92.5 -16t64.5 -44.5t37 -67 t12 -83.5zM283 558l-163 129l70 76l150 -144z" />
<glyph unicode="&#xe9;" horiz-adv-x="514" d="M349 307q1 51 -22 78.5t-64 27.5q-40 0 -67 -28t-31 -78h184zM476 296q0 -24 -1.5 -45t-2.5 -30h-308q0 -132 132 -132q72 0 150 26l13 -95q-42 -14 -88.5 -22t-89.5 -8q-121 0 -184 62.5t-63 191.5q0 56 16 104t47 84t75 55.5t98 19.5q53 0 92.5 -16t64.5 -44.5t37 -67 t12 -83.5zM250 558l-58 61l150 144l70 -75z" />
<glyph unicode="&#xea;" horiz-adv-x="514" d="M349 307q1 51 -22 78.5t-64 27.5q-40 0 -67 -28t-31 -78h184zM476 296q0 -24 -1.5 -45t-2.5 -30h-308q0 -132 132 -132q72 0 150 26l13 -95q-42 -14 -88.5 -22t-89.5 -8q-121 0 -184 62.5t-63 191.5q0 56 16 104t47 84t75 55.5t98 19.5q53 0 92.5 -16t64.5 -44.5t37 -67 t12 -83.5zM370 560l-103 81l-105 -81l-49 58l155 136l152 -135z" />
<glyph unicode="&#xeb;" horiz-adv-x="514" d="M349 307q1 51 -22 78.5t-64 27.5q-40 0 -67 -28t-31 -78h184zM476 296q0 -24 -1.5 -45t-2.5 -30h-308q0 -132 132 -132q72 0 150 26l13 -95q-42 -14 -88.5 -22t-89.5 -8q-121 0 -184 62.5t-63 191.5q0 56 16 104t47 84t75 55.5t98 19.5q53 0 92.5 -16t64.5 -44.5t37 -67 t12 -83.5zM234 648q0 -29 -20 -49t-49 -20t-49 20t-20 49t20 49t49 20t49 -20t20 -49zM437 648q0 -29 -20 -49t-49 -20t-49 20t-20 49t20 49t49 20t49 -20t20 -49z" />
<glyph unicode="&#xec;" horiz-adv-x="266" d="M69 0v497h128v-497h-128zM123 554l-111 167l92 49l94 -175z" />
<glyph unicode="&#xed;" horiz-adv-x="266" d="M69 0v497h128v-497h-128zM135 556l-70 50l114 162l86 -58z" />
<glyph unicode="&#xee;" horiz-adv-x="266" d="M69 0v497h128v-497h-128zM222 560l-88 81l-91 -81l-46 57l137 136l137 -134z" />
<glyph unicode="&#xef;" horiz-adv-x="266" d="M69 0v497h128v-497h-128zM296 648q0 -28 -20.5 -48.5t-48.5 -20.5q-29 0 -49 20.5t-20 48.5q0 29 20 49t49 20t49 -20t20 -49zM111 648q0 -28 -20.5 -48.5t-48.5 -20.5q-29 0 -49 20t-20 49t20 49t49 20t49 -20t20 -49z" />
<glyph unicode="&#xf0;" horiz-adv-x="555" d="M385 260q0 64 -26.5 101.5t-82.5 37.5q-22 0 -42 -9t-35 -27t-24 -46t-9 -67q0 -74 30 -112.5t83 -38.5q46 0 76 38.5t30 122.5zM518 278q0 -73 -19.5 -127t-53.5 -90t-79 -53.5t-97 -17.5t-95 15t-74.5 46t-49 78t-17.5 111q0 60 18 108.5t50.5 83.5t76.5 54t96 19 q23 0 45 -7t34 -24q-7 12 -13.5 22.5t-11.5 18.5q-10 17 -23 34t-30 35l-92 -41l-52 60l84 37q-17 14 -36 28.5t-40 28.5l125 53q36 -27 69 -60l89 39l51 -60l-86 -37q63 -78 97 -167.5t34 -186.5z" />
<glyph unicode="&#xf1;" horiz-adv-x="571" d="M374 0v318q0 41 -14 61.5t-48 20.5q-24 0 -45 -12.5t-36.5 -35t-24.5 -51.5t-9 -61v-240h-128v497h121q0 -20 -2 -45.5t-5 -43.5h1q23 45 66.5 72t102.5 27q41 0 69.5 -12t46 -33.5t25 -50t7.5 -62.5v-349h-127zM468 666q-45 -89 -121 -89q-23 0 -39.5 7t-35.5 20.5 t-27.5 18.5t-21.5 5q-30 0 -55 -45l-61 47q45 89 122 89q22 0 38.5 -7t36 -20.5t28 -18.5t20.5 -5q30 0 55 45z" />
<glyph unicode="&#xf2;" horiz-adv-x="553" d="M388 248q0 73 -29 112t-81 39q-26 0 -47 -9.5t-35.5 -28.5t-22.5 -47t-8 -65q0 -150 111 -150q51 0 81.5 37.5t30.5 111.5zM520 260q0 -58 -17 -107t-49.5 -86t-80 -57t-106.5 -20q-54 0 -97 15t-73.5 45.5t-47 77t-16.5 109.5q0 58 17 107t49.5 86t80 57t106.5 20 q113 0 173.5 -63t60.5 -184zM296 558l-163 129l70 76l150 -144z" />
<glyph unicode="&#xf3;" horiz-adv-x="553" d="M388 248q0 73 -29 112t-81 39q-26 0 -47 -9.5t-35.5 -28.5t-22.5 -47t-8 -65q0 -150 111 -150q51 0 81.5 37.5t30.5 111.5zM520 260q0 -58 -17 -107t-49.5 -86t-80 -57t-106.5 -20q-54 0 -97 15t-73.5 45.5t-47 77t-16.5 109.5q0 58 17 107t49.5 86t80 57t106.5 20 q113 0 173.5 -63t60.5 -184zM262 558l-58 61l150 144l70 -75z" />
<glyph unicode="&#xf4;" horiz-adv-x="553" d="M388 248q0 73 -29 112t-81 39q-26 0 -47 -9.5t-35.5 -28.5t-22.5 -47t-8 -65q0 -150 111 -150q51 0 81.5 37.5t30.5 111.5zM520 260q0 -58 -17 -107t-49.5 -86t-80 -57t-106.5 -20q-54 0 -97 15t-73.5 45.5t-47 77t-16.5 109.5q0 58 17 107t49.5 86t80 57t106.5 20 q113 0 173.5 -63t60.5 -184zM386 560l-103 81l-105 -81l-49 58l155 136l152 -135z" />
<glyph unicode="&#xf5;" horiz-adv-x="553" d="M388 248q0 73 -29 112t-81 39q-26 0 -47 -9.5t-35.5 -28.5t-22.5 -47t-8 -65q0 -150 111 -150q51 0 81.5 37.5t30.5 111.5zM520 260q0 -58 -17 -107t-49.5 -86t-80 -57t-106.5 -20q-54 0 -97 15t-73.5 45.5t-47 77t-16.5 109.5q0 58 17 107t49.5 86t80 57t106.5 20 q113 0 173.5 -63t60.5 -184zM465 666q-45 -89 -121 -89q-23 0 -39.5 7t-35.5 20.5t-27.5 18.5t-21.5 5q-30 0 -55 -45l-61 47q45 89 122 89q22 0 38.5 -7t36 -20.5t28 -18.5t20.5 -5q30 0 55 45z" />
<glyph unicode="&#xf6;" horiz-adv-x="553" d="M388 248q0 73 -29 112t-81 39q-26 0 -47 -9.5t-35.5 -28.5t-22.5 -47t-8 -65q0 -150 111 -150q51 0 81.5 37.5t30.5 111.5zM520 260q0 -58 -17 -107t-49.5 -86t-80 -57t-106.5 -20q-54 0 -97 15t-73.5 45.5t-47 77t-16.5 109.5q0 58 17 107t49.5 86t80 57t106.5 20 q113 0 173.5 -63t60.5 -184zM249 648q0 -29 -20 -49t-49 -20t-49 20t-20 49t20 49t49 20t49 -20t20 -49zM452 648q0 -29 -20 -49t-49 -20t-49 20t-20 49t20 49t49 20t49 -20t20 -49z" />
<glyph unicode="&#xf7;" d="M352 97q0 -32 -23 -55t-55 -23t-55 23t-23 55t23 55t55 23t55 -23t23 -55zM39 244v107h472v-107h-472zM352 498q0 -32 -23 -55t-55 -23t-55 23t-23 55t23 55t55 23t55 -23t23 -55z" />
<glyph unicode="&#xf8;" horiz-adv-x="553" d="M314 401q-7 3 -16.5 4.5t-18.5 1.5q-29 0 -52 -10.5t-39 -30.5t-24.5 -50t-8.5 -68q0 -55 20 -108zM398 249q0 56 -20 108l-139 -261q15 -6 35 -6q58 0 91 41.5t33 117.5zM520 260q0 -58 -17 -107t-49.5 -86t-80 -57t-106.5 -20q-43 0 -78 11l-50 -94l-71 31l50 93 q-42 31 -63.5 83t-21.5 123q0 58 17 107t49.5 86t80 57t106.5 20q43 0 78 -11l50 94l71 -31l-50 -93q42 -31 63.5 -83t21.5 -123z" />
<glyph unicode="&#xf9;" horiz-adv-x="570" d="M381 0q0 23 1.5 47.5t4.5 41.5h-1q-24 -46 -67 -72.5t-102 -26.5q-41 0 -69.5 12t-46 33.5t-25 50t-7.5 62.5v349h127v-318q0 -41 14 -61.5t48 -20.5q24 0 45 12.5t37 35t24.5 51.5t8.5 61v240h128v-497h-120zM295 558l-163 129l70 76l150 -144z" />
<glyph unicode="&#xfa;" horiz-adv-x="570" d="M381 0q0 23 1.5 47.5t4.5 41.5h-1q-24 -46 -67 -72.5t-102 -26.5q-41 0 -69.5 12t-46 33.5t-25 50t-7.5 62.5v349h127v-318q0 -41 14 -61.5t48 -20.5q24 0 45 12.5t37 35t24.5 51.5t8.5 61v240h128v-497h-120zM278 558l-58 61l150 144l70 -75z" />
<glyph unicode="&#xfb;" horiz-adv-x="570" d="M381 0q0 23 1.5 47.5t4.5 41.5h-1q-24 -46 -67 -72.5t-102 -26.5q-41 0 -69.5 12t-46 33.5t-25 50t-7.5 62.5v349h127v-318q0 -41 14 -61.5t48 -20.5q24 0 45 12.5t37 35t24.5 51.5t8.5 61v240h128v-497h-120zM388 560l-103 81l-105 -81l-49 58l155 136l152 -135z" />
<glyph unicode="&#xfc;" horiz-adv-x="570" d="M381 0q0 23 1.5 47.5t4.5 41.5h-1q-24 -46 -67 -72.5t-102 -26.5q-41 0 -69.5 12t-46 33.5t-25 50t-7.5 62.5v349h127v-318q0 -41 14 -61.5t48 -20.5q24 0 45 12.5t37 35t24.5 51.5t8.5 61v240h128v-497h-120zM252 648q0 -29 -20 -49t-49 -20t-49 20t-20 49t20 49t49 20 t49 -20t20 -49zM455 648q0 -29 -20 -49t-49 -20t-49 20t-20 49t20 49t49 20t49 -20t20 -49z" />
<glyph unicode="&#xfd;" horiz-adv-x="502" d="M309 -28q-23 -63 -49.5 -105.5t-58 -68t-68 -36.5t-81.5 -11q-19 0 -38 2t-27 4l13 109q7 -2 24 -5t36 -3t35 5t30 16.5t25.5 30.5t21.5 46l16 44l-183 497h144l67 -195q11 -35 21 -70t20 -73h1q4 18 9 36.5t10.5 38.5t12 41.5t13.5 42.5l58 179h137zM253 558l-58 61 l150 144l70 -75z" />
<glyph unicode="&#xfe;" horiz-adv-x="559" d="M389 261q0 141 -85 141q-24 0 -44 -13t-34 -36t-21.5 -52.5t-7.5 -61.5v-138q30 -9 67 -9q28 0 50.5 9.5t39.5 29.5t26 52.5t9 77.5zM523 275q0 -65 -17 -117t-50 -89t-82 -56.5t-113 -19.5q-19 0 -34 1t-30 3v-238h-128v971h128v-204q0 -28 -1 -54.5t-4 -47.5h2 q20 38 57 60.5t90 22.5q88 0 135 -60.5t47 -171.5z" />
<glyph unicode="&#xff;" horiz-adv-x="502" d="M309 -28q-23 -63 -49.5 -105.5t-58 -68t-68 -36.5t-81.5 -11q-19 0 -38 2t-27 4l13 109q7 -2 24 -5t36 -3t35 5t30 16.5t25.5 30.5t21.5 46l16 44l-183 497h144l67 -195q11 -35 21 -70t20 -73h1q4 18 9 36.5t10.5 38.5t12 41.5t13.5 42.5l58 179h137zM222 648 q0 -29 -20 -49t-49 -20t-49 20t-20 49t20 49t49 20t49 -20t20 -49zM425 648q0 -29 -20 -49t-49 -20t-49 20t-20 49t20 49t49 20t49 -20t20 -49z" />
<glyph unicode="&#x100;" horiz-adv-x="626" d="M335 458q-8 26 -15 51.5t-12 49.5h-2q-5 -24 -12 -50t-14 -50l-70 -212h195zM480 0l-46 144h-254l-47 -144h-131l226 675h169l227 -675h-144zM162 741v81h293v-81h-293z" />
<glyph unicode="&#x101;" horiz-adv-x="524" d="M325 221q-47 0 -79 -5.5t-50.5 -15.5t-26.5 -23.5t-8 -30.5q0 -25 16.5 -41.5t43.5 -16.5q22 0 41.5 10t33.5 27t21.5 38t7.5 43v15zM335 0q0 24 1 45t4 39l-1 1q-18 -43 -61 -69t-98 -26q-66 0 -104 40t-38 102q0 44 20 76.5t57.5 54t90.5 32t119 10.5v21q0 44 -20.5 64 t-68.5 20q-33 0 -73.5 -9t-77.5 -24l-20 97q45 15 94 24.5t92 9.5q57 0 96 -11.5t62.5 -34t33.5 -54.5t10 -75v-205q0 -33 1 -66t3 -62h-122zM130 600v92h270v-92h-270z" />
<glyph unicode="&#x102;" horiz-adv-x="626" d="M335 458q-8 26 -15 51.5t-12 49.5h-2q-5 -24 -12 -50t-14 -50l-70 -212h195zM480 0l-46 144h-254l-47 -144h-131l226 675h169l227 -675h-144zM451 859q0 -28 -9 -53t-27.5 -43.5t-45.5 -29t-61 -10.5t-60.5 10.5t-44.5 29.5t-27 43.5t-9 52.5h76q0 -24 19 -40.5t47 -16.5 q30 0 48 16t18 41h76z" />
<glyph unicode="&#x103;" horiz-adv-x="524" d="M325 221q-47 0 -79 -5.5t-50.5 -15.5t-26.5 -23.5t-8 -30.5q0 -25 16.5 -41.5t43.5 -16.5q22 0 41.5 10t33.5 27t21.5 38t7.5 43v15zM335 0q0 24 1 45t4 39l-1 1q-18 -43 -61 -69t-98 -26q-66 0 -104 40t-38 102q0 44 20 76.5t57.5 54t90.5 32t119 10.5v21q0 44 -20.5 64 t-68.5 20q-33 0 -73.5 -9t-77.5 -24l-20 97q45 15 94 24.5t92 9.5q57 0 96 -11.5t62.5 -34t33.5 -54.5t10 -75v-205q0 -33 1 -66t3 -62h-122zM404 720q0 -31 -8.5 -58.5t-25.5 -49t-43.5 -33.5t-61.5 -12t-61 12.5t-42.5 33.5t-24 48.5t-7.5 58.5h83q0 -27 14 -44t39 -17 t39.5 15.5t14.5 45.5h84z" />
<glyph unicode="&#x104;" horiz-adv-x="626" d="M335 458q-8 26 -15 51.5t-12 49.5h-2q-5 -24 -12 -50t-14 -50l-70 -212h195zM661 -187q-28 -25 -61 -37.5t-70 -12.5q-58 0 -91.5 27t-33.5 75q0 35 19 70t56 65l-46 144h-254l-47 -144h-131l226 675h169l227 -675q-54 -24 -76.5 -52t-22.5 -57q0 -33 35 -33q31 0 65 24z " />
<glyph unicode="&#x105;" horiz-adv-x="524" d="M325 221q-47 0 -79 -5.5t-50.5 -15.5t-26.5 -23.5t-8 -30.5q0 -25 16.5 -41.5t43.5 -16.5q22 0 41.5 10t33.5 27t21.5 38t7.5 43v15zM514 -187q-28 -25 -61 -37.5t-70 -12.5q-57 0 -90.5 27t-33.5 75q0 40 21 76t64 69q-6 47 -5 71h-1q-21 -41 -62.5 -66t-95.5 -25 q-66 0 -104 40t-38 102q0 44 20 76.5t57.5 54t90.5 32t119 10.5v21q0 44 -20.5 64t-68.5 20q-33 0 -73.5 -9t-77.5 -24l-20 97q45 15 94 24.5t92 9.5q57 0 96 -11.5t62.5 -34t33.5 -54.5t10 -75v-169q0 -47 3 -88.5t9 -75.5q-47 -28 -67 -55.5t-20 -53.5q0 -16 9 -24.5 t26 -8.5q16 0 32.5 6t33.5 18z" />
<glyph unicode="&#x106;" horiz-adv-x="566" d="M526 23q-38 -15 -84 -23t-92 -8q-85 0 -145.5 26t-97 71.5t-53 103t-16.5 123.5q0 81 21 148t63.5 115.5t106.5 75t147 26.5q37 0 75 -5t69 -15l-18 -120q-61 24 -132 24q-47 0 -82.5 -16.5t-59 -47t-35.5 -72t-12 -91.5q0 -112 48 -170.5t147 -58.5q31 0 67 8t63 21z M283 716l-21 70l208 75l29 -92z" />
<glyph unicode="&#x107;" horiz-adv-x="425" d="M398 14q-29 -11 -66 -17t-74 -6q-52 0 -93.5 14t-70.5 43t-44.5 75t-15.5 109q0 58 15.5 108t46.5 87t78.5 58t112.5 21q29 0 57 -4.5t52 -12.5l-20 -110q-20 8 -44 13.5t-49 5.5q-57 0 -86 -42t-29 -111q0 -32 6 -58.5t20 -45.5t36 -29.5t54 -10.5q52 0 97 20l17 -107v0 zM255 556l-70 50l114 162l86 -58z" />
<glyph unicode="&#x108;" horiz-adv-x="566" d="M526 23q-38 -15 -84 -23t-92 -8q-85 0 -145.5 26t-97 71.5t-53 103t-16.5 123.5q0 81 21 148t63.5 115.5t106.5 75t147 26.5q37 0 75 -5t69 -15l-18 -120q-61 24 -132 24q-47 0 -82.5 -16.5t-59 -47t-35.5 -72t-12 -91.5q0 -112 48 -170.5t147 -58.5q31 0 67 8t63 21z M477 715l-136 55l-137 -55l-29 66l168 84l164 -83z" />
<glyph unicode="&#x109;" horiz-adv-x="425" d="M398 14q-29 -11 -66 -17t-74 -6q-52 0 -93.5 14t-70.5 43t-44.5 75t-15.5 109q0 58 15.5 108t46.5 87t78.5 58t112.5 21q29 0 57 -4.5t52 -12.5l-20 -110q-20 8 -44 13.5t-49 5.5q-57 0 -86 -42t-29 -111q0 -32 6 -58.5t20 -45.5t36 -29.5t54 -10.5q52 0 97 20l17 -107v0 zM353 560l-103 81l-105 -81l-49 58l155 136l152 -135z" />
<glyph unicode="&#x10a;" horiz-adv-x="566" d="M526 23q-38 -15 -84 -23t-92 -8q-85 0 -145.5 26t-97 71.5t-53 103t-16.5 123.5q0 81 21 148t63.5 115.5t106.5 75t147 26.5q37 0 75 -5t69 -15l-18 -120q-61 24 -132 24q-47 0 -82.5 -16.5t-59 -47t-35.5 -72t-12 -91.5q0 -112 48 -170.5t147 -58.5q31 0 67 8t63 21z M423 794q0 -32 -22.5 -54.5t-53.5 -22.5q-32 0 -54.5 22.5t-22.5 54.5q0 31 22.5 53.5t54.5 22.5t54 -22t22 -54z" />
<glyph unicode="&#x10b;" horiz-adv-x="425" d="M398 14q-29 -11 -66 -17t-74 -6q-52 0 -93.5 14t-70.5 43t-44.5 75t-15.5 109q0 58 15.5 108t46.5 87t78.5 58t112.5 21q29 0 57 -4.5t52 -12.5l-20 -110q-20 8 -44 13.5t-49 5.5q-57 0 -86 -42t-29 -111q0 -32 6 -58.5t20 -45.5t36 -29.5t54 -10.5q52 0 97 20l17 -107v0 zM334 647q0 -32 -22 -54t-54 -22t-54.5 22t-22.5 54t22.5 54.5t54.5 22.5t54 -22.5t22 -54.5z" />
<glyph unicode="&#x10c;" horiz-adv-x="566" d="M526 23q-38 -15 -84 -23t-92 -8q-85 0 -145.5 26t-97 71.5t-53 103t-16.5 123.5q0 81 21 148t63.5 115.5t106.5 75t147 26.5q37 0 75 -5t69 -15l-18 -120q-61 24 -132 24q-47 0 -82.5 -16.5t-59 -47t-35.5 -72t-12 -91.5q0 -112 48 -170.5t147 -58.5q31 0 67 8t63 21z M338 715l-164 82l31 68l135 -55l137 55l29 -64z" />
<glyph unicode="&#x10d;" horiz-adv-x="425" d="M398 14q-29 -11 -66 -17t-74 -6q-52 0 -93.5 14t-70.5 43t-44.5 75t-15.5 109q0 58 15.5 108t46.5 87t78.5 58t112.5 21q29 0 57 -4.5t52 -12.5l-20 -110q-20 8 -44 13.5t-49 5.5q-57 0 -86 -42t-29 -111q0 -32 6 -58.5t20 -45.5t36 -29.5t54 -10.5q52 0 97 20l17 -107v0 zM253 560l-152 134l50 60l104 -82l105 82l48 -59z" />
<glyph unicode="&#x10e;" horiz-adv-x="667" d="M490 339q0 56 -11.5 98.5t-36.5 72t-65.5 45t-97.5 15.5q-23 0 -43 -1t-36 -2v-455q14 -2 33 -3.5t38 -1.5q48 0 88 14t69.5 42.5t45.5 72.5t16 103zM630 349q0 -85 -26.5 -151.5t-76 -111t-118 -67.5t-151.5 -23q-44 0 -98.5 2t-89.5 3v673q58 2 110.5 3.5t107.5 1.5 q80 0 143 -18.5t107.5 -58.5t68 -103t23.5 -150zM291 715l-164 82l31 68l135 -55l137 55l29 -64z" />
<glyph unicode="&#x10f;" horiz-adv-x="611" d="M362 397q-18 4 -34.5 6t-32.5 2q-58 0 -91.5 -40.5t-33.5 -128.5q0 -141 85 -141q24 0 44 13t34 36t21.5 52.5t7.5 61.5v139zM370 0q0 19 1.5 41t4.5 42h-2q-21 -43 -62 -68.5t-95 -25.5q-89 0 -135 62t-46 171q0 63 18 115t52 90t83 58.5t110 20.5q17 0 32 -1t31 -3v228 h127v-730h-119zM607 553l-83 18l50 205l102 -22z" />
<glyph unicode="&#x110;" horiz-adv-x="676" d="M499 339q0 56 -11.5 98.5t-37 72t-66 45t-97.5 15.5q-23 0 -43 -1t-36 -2v-172h122v-99h-122v-184q14 -2 33 -3.5t38 -1.5q49 0 89 14t69.5 42.5t45.5 72.5t16 103zM639 349q0 -84 -26 -150t-74.5 -111t-117.5 -68.5t-154 -23.5q-44 0 -98.5 2t-89.5 3v295h-75v99h75v279 q58 2 111 3.5t108 1.5q80 0 142.5 -18.5t107 -58.5t68 -103t23.5 -150z" />
<glyph unicode="&#x111;" horiz-adv-x="559" d="M362 397q-18 4 -34.5 6t-32.5 2q-58 0 -91.5 -40.5t-33.5 -128.5q0 -141 85 -141q24 0 44 13t34 36t21.5 52.5t7.5 61.5v139zM489 582v-582h-119q0 19 1.5 41t4.5 42h-2q-21 -43 -62 -68.5t-95 -25.5q-89 0 -135 62t-46 171q0 63 18 115t52 90t83 58.5t110 20.5 q17 0 32 -1t31 -3v80h-105v81h105v67h127v-67h61v-81h-61z" />
<glyph unicode="&#x112;" horiz-adv-x="510" d="M70 0v675h382v-109h-252v-166h231v-106h-231v-182h252v-112h-382zM109 741v81h293v-81h-293z" />
<glyph unicode="&#x113;" horiz-adv-x="514" d="M349 307q1 51 -22 78.5t-64 27.5q-40 0 -67 -28t-31 -78h184zM476 296q0 -24 -1.5 -45t-2.5 -30h-308q0 -132 132 -132q72 0 150 26l13 -95q-42 -14 -88.5 -22t-89.5 -8q-121 0 -184 62.5t-63 191.5q0 56 16 104t47 84t75 55.5t98 19.5q53 0 92.5 -16t64.5 -44.5t37 -67 t12 -83.5zM128 600v92h270v-92h-270z" />
<glyph unicode="&#x114;" horiz-adv-x="510" d="M70 0v675h382v-109h-252v-166h231v-106h-231v-182h252v-112h-382zM402 859q0 -28 -9 -53t-27.5 -43.5t-45.5 -29t-61 -10.5t-60.5 10.5t-44.5 29.5t-27 43.5t-9 52.5h76q0 -24 19 -40.5t47 -16.5q30 0 48 16t18 41h76z" />
<glyph unicode="&#x115;" horiz-adv-x="514" d="M349 307q1 51 -22 78.5t-64 27.5q-40 0 -67 -28t-31 -78h184zM476 296q0 -24 -1.5 -45t-2.5 -30h-308q0 -132 132 -132q72 0 150 26l13 -95q-42 -14 -88.5 -22t-89.5 -8q-121 0 -184 62.5t-63 191.5q0 56 16 104t47 84t75 55.5t98 19.5q53 0 92.5 -16t64.5 -44.5t37 -67 t12 -83.5zM398 720q0 -31 -8.5 -58.5t-25.5 -49t-43.5 -33.5t-61.5 -12t-61 12.5t-42.5 33.5t-24 48.5t-7.5 58.5h83q0 -27 14 -44t39 -17t39.5 15.5t14.5 45.5h84z" />
<glyph unicode="&#x116;" horiz-adv-x="510" d="M70 0v675h382v-109h-252v-166h231v-106h-231v-182h252v-112h-382zM334 794q0 -32 -22.5 -54.5t-53.5 -22.5q-32 0 -54.5 22.5t-22.5 54.5q0 31 22.5 53.5t54.5 22.5t54 -22t22 -54z" />
<glyph unicode="&#x117;" horiz-adv-x="514" d="M349 307q1 51 -22 78.5t-64 27.5q-40 0 -67 -28t-31 -78h184zM476 296q0 -24 -1.5 -45t-2.5 -30h-308q0 -132 132 -132q72 0 150 26l13 -95q-42 -14 -88.5 -22t-89.5 -8q-121 0 -184 62.5t-63 191.5q0 56 16 104t47 84t75 55.5t98 19.5q53 0 92.5 -16t64.5 -44.5t37 -67 t12 -83.5zM343 653q0 -32 -22 -54t-54 -22t-54.5 22t-22.5 54t22.5 54.5t54.5 22.5t54 -22.5t22 -54.5z" />
<glyph unicode="&#x118;" horiz-adv-x="510" d="M481 -187q-28 -25 -61 -37.5t-70 -12.5q-57 0 -90.5 27t-33.5 75q0 37 21.5 74.5t57.5 60.5h-235v675h382v-109h-252v-166h231v-106h-231v-182h252v-109q-49 -14 -78 -47.5t-29 -64.5q0 -16 9.5 -24.5t26.5 -8.5q31 0 65 24z" />
<glyph unicode="&#x119;" horiz-adv-x="514" d="M349 307q1 51 -22 78.5t-64 27.5q-40 0 -67 -28t-31 -78h184zM473 -187q-28 -25 -61 -37.5t-69 -12.5q-58 0 -91.5 27t-33.5 75q0 33 17.5 67.5t51.5 62.5q-6 -1 -13.5 -2t-14.5 -1q-45 0 -84.5 12.5t-71.5 41.5t-50.5 78.5t-18.5 119.5q0 56 16 104t47 84t75 55.5 t98 19.5q53 0 92.5 -16t64.5 -44.5t37 -67t12 -83.5q0 -22 -1.5 -43.5t-2.5 -31.5h-308q0 -132 132 -132q36 0 73.5 6.5t76.5 19.5l13 -94q-27 -10 -49.5 -25t-38.5 -32.5t-25 -36t-9 -36.5q0 -16 9.5 -24.5t26.5 -8.5q31 0 65 24z" />
<glyph unicode="&#x11a;" horiz-adv-x="510" d="M70 0v675h382v-109h-252v-166h231v-106h-231v-182h252v-112h-382zM254 715l-164 82l31 68l135 -55l137 55l29 -64z" />
<glyph unicode="&#x11b;" horiz-adv-x="514" d="M349 307q1 51 -22 78.5t-64 27.5q-40 0 -67 -28t-31 -78h184zM476 296q0 -24 -1.5 -45t-2.5 -30h-308q0 -132 132 -132q72 0 150 26l13 -95q-42 -14 -88.5 -22t-89.5 -8q-121 0 -184 62.5t-63 191.5q0 56 16 104t47 84t75 55.5t98 19.5q53 0 92.5 -16t64.5 -44.5t37 -67 t12 -83.5zM264 560l-152 134l50 60l104 -82l105 82l48 -59z" />
<glyph unicode="&#x11c;" horiz-adv-x="675" d="M608 32q-50 -20 -110 -31t-121 -11q-82 0 -146 22.5t-107.5 65.5t-65.5 103.5t-22 135.5q0 82 24.5 150t72 116.5t118 75t160.5 26.5q50 0 99 -8t92 -21l-26 -119q-78 32 -173 32q-58 0 -101.5 -18t-71 -50.5t-40.5 -75t-13 -91.5q0 -108 55.5 -167.5t159.5 -59.5 q47 0 86 12v235h130v-322zM517 715l-136 55l-137 -55l-29 66l168 84l164 -83z" />
<glyph unicode="&#x11d;" horiz-adv-x="540" d="M454 397q11 -28 11 -58q0 -41 -13.5 -74.5t-40 -58.5t-66.5 -38.5t-94 -13.5h-18t-17 1q-18 -14 -18 -30q0 -14 13.5 -21.5t57.5 -9.5l70 -2q87 -3 131.5 -39.5t44.5 -108.5q0 -41 -18.5 -76.5t-53.5 -62t-84.5 -41.5t-112.5 -15q-101 0 -159.5 36.5t-58.5 108.5 q0 38 22 70.5t57 54.5q-43 25 -43 74q0 58 59 91q-39 23 -57 58.5t-18 78.5q0 39 13.5 73.5t40 59.5t66.5 39.5t94 14.5q43 0 81 -11h167v-100h-56zM206 -4v-1q-24 -16 -36 -36t-12 -40q0 -35 28.5 -55t79.5 -20q62 0 92 24t30 59q0 27 -18.5 45t-66.5 20l-76 2zM343 329 q0 38 -22.5 62t-64.5 24t-64.5 -24t-22.5 -62t22.5 -62t64.5 -24t64.5 24t22.5 62zM364 560l-103 81l-105 -81l-49 58l155 136l152 -135z" />
<glyph unicode="&#x11e;" horiz-adv-x="675" d="M608 32q-50 -20 -110 -31t-121 -11q-82 0 -146 22.5t-107.5 65.5t-65.5 103.5t-22 135.5q0 82 24.5 150t72 116.5t118 75t160.5 26.5q50 0 99 -8t92 -21l-26 -119q-78 32 -173 32q-58 0 -101.5 -18t-71 -50.5t-40.5 -75t-13 -91.5q0 -108 55.5 -167.5t159.5 -59.5 q47 0 86 12v235h130v-322zM532 859q0 -28 -9 -53t-27.5 -43.5t-45.5 -29t-61 -10.5t-60.5 10.5t-44.5 29.5t-27 43.5t-9 52.5h76q0 -24 19 -40.5t47 -16.5q30 0 48 16t18 41h76z" />
<glyph unicode="&#x11f;" horiz-adv-x="540" d="M454 397q11 -28 11 -58q0 -41 -13.5 -74.5t-40 -58.5t-66.5 -38.5t-94 -13.5h-18t-17 1q-18 -14 -18 -30q0 -14 13.5 -21.5t57.5 -9.5l70 -2q87 -3 131.5 -39.5t44.5 -108.5q0 -41 -18.5 -76.5t-53.5 -62t-84.5 -41.5t-112.5 -15q-101 0 -159.5 36.5t-58.5 108.5 q0 38 22 70.5t57 54.5q-43 25 -43 74q0 58 59 91q-39 23 -57 58.5t-18 78.5q0 39 13.5 73.5t40 59.5t66.5 39.5t94 14.5q43 0 81 -11h167v-100h-56zM206 -4v-1q-24 -16 -36 -36t-12 -40q0 -35 28.5 -55t79.5 -20q62 0 92 24t30 59q0 27 -18.5 45t-66.5 20l-76 2zM343 329 q0 38 -22.5 62t-64.5 24t-64.5 -24t-22.5 -62t22.5 -62t64.5 -24t64.5 24t22.5 62zM405 720q0 -31 -8.5 -58.5t-25.5 -49t-43.5 -33.5t-61.5 -12t-61 12.5t-42.5 33.5t-24 48.5t-7.5 58.5h83q0 -27 14 -44t39 -17t39.5 15.5t14.5 45.5h84z" />
<glyph unicode="&#x120;" horiz-adv-x="675" d="M608 32q-50 -20 -110 -31t-121 -11q-82 0 -146 22.5t-107.5 65.5t-65.5 103.5t-22 135.5q0 82 24.5 150t72 116.5t118 75t160.5 26.5q50 0 99 -8t92 -21l-26 -119q-78 32 -173 32q-58 0 -101.5 -18t-71 -50.5t-40.5 -75t-13 -91.5q0 -108 55.5 -167.5t159.5 -59.5 q47 0 86 12v235h130v-322zM459 800q0 -32 -22.5 -54.5t-53.5 -22.5q-32 0 -54.5 22.5t-22.5 54.5q0 31 22.5 53.5t54.5 22.5t54 -22t22 -54z" />
<glyph unicode="&#x121;" horiz-adv-x="540" d="M454 397q11 -28 11 -58q0 -41 -13.5 -74.5t-40 -58.5t-66.5 -38.5t-94 -13.5h-18t-17 1q-18 -14 -18 -30q0 -14 13.5 -21.5t57.5 -9.5l70 -2q87 -3 131.5 -39.5t44.5 -108.5q0 -41 -18.5 -76.5t-53.5 -62t-84.5 -41.5t-112.5 -15q-101 0 -159.5 36.5t-58.5 108.5 q0 38 22 70.5t57 54.5q-43 25 -43 74q0 58 59 91q-39 23 -57 58.5t-18 78.5q0 39 13.5 73.5t40 59.5t66.5 39.5t94 14.5q43 0 81 -11h167v-100h-56zM206 -4v-1q-24 -16 -36 -36t-12 -40q0 -35 28.5 -55t79.5 -20q62 0 92 24t30 59q0 27 -18.5 45t-66.5 20l-76 2zM343 329 q0 38 -22.5 62t-64.5 24t-64.5 -24t-22.5 -62t22.5 -62t64.5 -24t64.5 24t22.5 62zM336 653q0 -32 -22 -54t-54 -22t-54.5 22t-22.5 54t22.5 54.5t54.5 22.5t54 -22.5t22 -54.5z" />
<glyph unicode="&#x122;" horiz-adv-x="675" d="M608 32q-50 -20 -110 -31t-121 -11q-82 0 -146 22.5t-107.5 65.5t-65.5 103.5t-22 135.5q0 82 24.5 150t72 116.5t118 75t160.5 26.5q50 0 99 -8t92 -21l-26 -119q-78 32 -173 32q-58 0 -101.5 -18t-71 -50.5t-40.5 -75t-13 -91.5q0 -108 55.5 -167.5t159.5 -59.5 q47 0 86 12v235h130v-322zM383 -47q27 0 44 -18t17 -48q0 -19 -8 -37.5t-24.5 -35.5t-43 -31.5t-65.5 -24.5l-20 46q29 16 39 28t10 26q0 11 -4 20.5t-4 18.5q0 23 16 39.5t43 16.5z" />
<glyph unicode="&#x123;" horiz-adv-x="540" d="M454 397q11 -28 11 -58q0 -41 -13.5 -74.5t-40 -58.5t-66.5 -38.5t-94 -13.5h-18t-17 1q-18 -14 -18 -30q0 -14 13.5 -21.5t57.5 -9.5l70 -2q87 -3 131.5 -39.5t44.5 -108.5q0 -41 -18.5 -76.5t-53.5 -62t-84.5 -41.5t-112.5 -15q-101 0 -159.5 36.5t-58.5 108.5 q0 38 22 70.5t57 54.5q-43 25 -43 74q0 58 59 91q-39 23 -57 58.5t-18 78.5q0 39 13.5 73.5t40 59.5t66.5 39.5t94 14.5q43 0 81 -11h167v-100h-56zM206 -4v-1q-24 -16 -36 -36t-12 -40q0 -35 28.5 -55t79.5 -20q62 0 92 24t30 59q0 27 -18.5 45t-66.5 20l-76 2zM343 329 q0 38 -22.5 62t-64.5 24t-64.5 -24t-22.5 -62t22.5 -62t64.5 -24t64.5 24t22.5 62zM252 561q-29 0 -46 23.5t-13 56.5t37.5 65.5t101.5 49.5l21 -46q-39 -20 -46.5 -37.5t0.5 -36.5q10 -28 -6 -51.5t-49 -23.5z" />
<glyph unicode="&#x124;" horiz-adv-x="686" d="M486 0v293h-286v-293h-130v675h130v-270h286v270h131v-675h-131zM480 715l-136 55l-137 -55l-29 66l168 84l164 -83z" />
<glyph unicode="&#x125;" horiz-adv-x="571" d="M374 0v318q0 41 -14 61.5t-48 20.5q-24 0 -45 -12.5t-36.5 -35t-24.5 -52t-9 -61.5v-239h-128v730h128v-214q0 -26 -2 -53t-7 -48h2q22 43 64.5 67.5t98.5 24.5q41 0 69.5 -12t46 -33.5t25 -50t7.5 -62.5v-349h-127zM417 751l-136 55l-137 -55l-29 66l168 84l164 -83z " />
<glyph unicode="&#x126;" horiz-adv-x="706" d="M210 482v-99h286v99h-286zM692 588v-106h-65v-482h-131v277h-286v-277h-130v482h-65v106h65v87h130v-87h286v87h131v-87h65z" />
<glyph unicode="&#x127;" horiz-adv-x="577" d="M380 0v315q0 41 -14 61.5t-48 20.5q-24 0 -45 -12.5t-37 -35t-24.5 -51.5t-8.5 -62v-236h-128v562h-75v99h75v69h128v-69h119v-99h-119v-58q0 -24 -2.5 -48t-6.5 -43l1 -1q22 43 64.5 67.5t99.5 24.5q41 0 69.5 -12t46 -33.5t25 -50t7.5 -62.5v-346h-127z" />
<glyph unicode="&#x128;" horiz-adv-x="270" d="M70 0v675h130v-675h-130zM324 810q-46 -82 -126 -82q-23 0 -40 6.5t-37 19t-28.5 17t-21.5 4.5q-33 0 -58 -43l-64 44q46 82 126 82q23 0 40.5 -6.5t37 -19t28.5 -17t22 -4.5q17 0 31 10.5t26 31.5z" />
<glyph unicode="&#x129;" horiz-adv-x="266" d="M69 0v497h128v-497h-128zM294 667q-17 -42 -45 -65t-67 -23q-17 0 -31 6.5t-25.5 15t-24 17t-20.5 8.5q-14 0 -26 -12.5t-20 -29.5l-59 44q13 39 42 64t69 25q17 0 31.5 -6.5t26.5 -15t24.5 -17t19.5 -8.5q14 0 25.5 12t20.5 30z" />
<glyph unicode="&#x12a;" horiz-adv-x="270" d="M70 0v675h130v-675h-130zM-11 741v81h293v-81h-293z" />
<glyph unicode="&#x12b;" horiz-adv-x="266" d="M69 0v497h128v-497h-128zM7 600v92h255v-92h-255z" />
<glyph unicode="&#x12c;" horiz-adv-x="270" d="M70 0v675h130v-675h-130zM277 859q0 -28 -9 -53t-27.5 -43.5t-45.5 -29t-61 -10.5t-60.5 10.5t-44.5 29.5t-27 43.5t-9 52.5h76q0 -24 19 -40.5t47 -16.5q30 0 48 16t18 41h76z" />
<glyph unicode="&#x12d;" horiz-adv-x="266" d="M69 0v497h128v-497h-128zM264 720q0 -73 -33.5 -113t-96.5 -40q-62 0 -94.5 40t-32.5 113h82q0 -26 12.5 -43.5t33.5 -17.5q22 0 34 16t12 45h83z" />
<glyph unicode="&#x12e;" horiz-adv-x="270" d="M260 -187q-28 -25 -61 -37.5t-70 -12.5q-57 0 -90.5 27t-33.5 75q0 36 17 69t48 67v674h130v-675q-41 -29 -58.5 -56.5t-17.5 -52.5q0 -16 9 -24.5t26 -8.5q16 0 32.5 6t33.5 18z" />
<glyph unicode="&#x12f;" horiz-adv-x="266" d="M258 -187q-28 -25 -61 -37.5t-69 -12.5q-58 0 -91.5 27t-33.5 75q0 36 17 69.5t49 66.5v496h128v-497q-40 -29 -57.5 -57t-17.5 -52q0 -16 9.5 -24.5t26.5 -8.5q16 0 32 6t33 18zM213 648q0 -32 -23.5 -54.5t-56.5 -22.5t-56 22.5t-23 54.5t23 55t56 23t56.5 -22.5 t23.5 -55.5z" />
<glyph unicode="&#x130;" horiz-adv-x="270" d="M70 0v675h130v-675h-130zM213 794q0 -32 -22.5 -54.5t-53.5 -22.5q-32 0 -54.5 22.5t-22.5 54.5q0 31 22.5 53.5t54.5 22.5t54 -22t22 -54z" />
<glyph unicode="&#x131;" horiz-adv-x="266" d="M69 0v497h128v-497h-128z" />
<glyph unicode="&#x134;" horiz-adv-x="347" d="M279 192q0 -44 -10.5 -80.5t-33.5 -63.5t-59.5 -42t-87.5 -15q-24 0 -45.5 2t-42.5 6v112q12 -4 31.5 -7t38.5 -3q39 0 58.5 21t19.5 72v481h131v-483zM349 715l-136 55l-137 -55l-29 66l168 84l164 -83z" />
<glyph unicode="&#x135;" horiz-adv-x="271" d="M201 -37q0 -51 -10.5 -90t-33 -66t-58 -41t-85.5 -14q-24 0 -46 3t-31 5l9 109q7 -3 25 -6.5t41 -3.5q34 0 48 20t14 71v547h127v-534zM228 560l-88 81l-91 -81l-46 57l137 136l137 -134z" />
<glyph unicode="&#x136;" horiz-adv-x="597" d="M417 0l-217 324v-324h-130v675h130v-306l218 306h158l-247 -324l259 -351h-171zM301 -47q27 0 44 -18t17 -48q0 -19 -8 -37.5t-24.5 -35.5t-43 -31.5t-65.5 -24.5l-20 46q29 16 39 28t10 26q0 11 -4 20.5t-4 18.5q0 23 16 39.5t43 16.5z" />
<glyph unicode="&#x137;" horiz-adv-x="523" d="M351 0l-154 246v-246h-128v730h128v-440l145 207h150l-171 -222l190 -275h-160zM269 -47q27 0 44 -18t17 -48q0 -19 -8 -37.5t-24.5 -35.5t-43 -31.5t-65.5 -24.5l-20 46q29 16 39 28t10 26q0 11 -4 20.5t-4 18.5q0 23 16 39.5t43 16.5z" />
<glyph unicode="&#x138;" horiz-adv-x="522" d="M348 0l-151 238v-238h-128v497h128v-215l151 215h149l-175 -226l184 -271h-158z" />
<glyph unicode="&#x139;" horiz-adv-x="429" d="M70 0v675h130v-562h219v-113h-349zM124 716l-21 70l208 75l29 -92z" />
<glyph unicode="&#x13a;" horiz-adv-x="266" d="M69 0v730h128v-730h-128zM87 776l-21 70l208 75l29 -92z" />
<glyph unicode="&#x13b;" horiz-adv-x="429" d="M70 0v675h130v-562h219v-113h-349zM252 -47q27 0 44 -18t17 -48q0 -19 -8 -37.5t-24.5 -35.5t-43 -31.5t-65.5 -24.5l-20 46q29 16 39 28t10 26q0 11 -4 20.5t-4 18.5q0 23 16 39.5t43 16.5z" />
<glyph unicode="&#x13c;" horiz-adv-x="266" d="M69 0v730h128v-730h-128zM137 -47q27 0 44 -18t17 -48q0 -19 -8 -37.5t-24.5 -35.5t-43 -31.5t-65.5 -24.5l-20 46q29 16 39 28t10 26q0 11 -4 20.5t-4 18.5q0 23 16 39.5t43 16.5z" />
<glyph unicode="&#x13d;" horiz-adv-x="434" d="M70 0v675h130v-562h219v-113h-349zM323 588l-74 40l104 183l92 -48z" />
<glyph unicode="&#x13e;" horiz-adv-x="319" d="M69 0v730h128v-730h-128zM315 553l-83 18l50 205l102 -22z" />
<glyph unicode="&#x13f;" horiz-adv-x="569" d="M70 0v675h130v-562h219v-113h-349zM521 348q0 -35 -24.5 -59t-58.5 -24q-35 0 -59 24t-24 59q0 34 24 58t59 24q34 0 58.5 -24t24.5 -58z" />
<glyph unicode="&#x140;" horiz-adv-x="431" d="M69 0v730h128v-730h-128zM432 298q0 -35 -24.5 -59t-58.5 -24q-35 0 -59 24t-24 59q0 34 24 58t59 24q34 0 58.5 -24t24.5 -58z" />
<glyph unicode="&#x141;" horiz-adv-x="438" d="M79 0v315l-66 -31l-23 101l89 41v249h130v-188l98 45l24 -101l-122 -55v-263h219v-113h-349z" />
<glyph unicode="&#x142;" horiz-adv-x="300" d="M215 393v-393h-128v326l-51 -29l-25 95l76 42v296h128v-229l54 31l26 -95z" />
<glyph unicode="&#x143;" horiz-adv-x="690" d="M494 0h-11l-212 342q-46 76 -59.5 102.5t-26.5 57.5q2 -23 3.5 -53t3 -64.5t3 -82.5t1.5 -118v-184h-126v675h126h27l198 -320q46 -75 57 -97t26 -56q-2 31 -4.5 82.5t-3.5 85t-1.5 65.5t-0.5 76v164h126v-675h-126zM316 716l-21 70l208 75l29 -92z" />
<glyph unicode="&#x144;" horiz-adv-x="571" d="M374 0v318q0 41 -14 61.5t-48 20.5q-24 0 -45 -12.5t-36.5 -35t-24.5 -51.5t-9 -61v-240h-128v497h121q0 -20 -2 -45.5t-5 -43.5h1q23 45 66.5 72t102.5 27q41 0 69.5 -12t46 -33.5t25 -50t7.5 -62.5v-349h-127zM291 558l-58 61l150 144l70 -75z" />
<glyph unicode="&#x145;" horiz-adv-x="690" d="M494 0h-11l-212 342q-46 76 -59.5 102.5t-26.5 57.5q2 -23 3.5 -53t3 -64.5t3 -82.5t1.5 -118v-184h-126v675h126h27l198 -320q46 -75 57 -97t26 -56q-2 31 -4.5 82.5t-3.5 85t-1.5 65.5t-0.5 76v164h126v-675h-126zM348 -47q27 0 44 -18t17 -48q0 -19 -8 -37.5 t-24.5 -35.5t-43 -31.5t-65.5 -24.5l-20 46q29 16 39 28t10 26q0 11 -4 20.5t-4 18.5q0 23 16 39.5t43 16.5z" />
<glyph unicode="&#x146;" horiz-adv-x="571" d="M374 0v318q0 41 -14 61.5t-48 20.5q-24 0 -45 -12.5t-36.5 -35t-24.5 -51.5t-9 -61v-240h-128v497h121q0 -20 -2 -45.5t-5 -43.5h1q23 45 66.5 72t102.5 27q41 0 69.5 -12t46 -33.5t25 -50t7.5 -62.5v-349h-127zM290 -47q27 0 44 -18t17 -48q0 -19 -8 -37.5t-24.5 -35.5 t-43 -31.5t-65.5 -24.5l-20 46q29 16 39 28t10 26q0 11 -4 20.5t-4 18.5q0 23 16 39.5t43 16.5z" />
<glyph unicode="&#x147;" horiz-adv-x="690" d="M494 0h-11l-212 342q-46 76 -59.5 102.5t-26.5 57.5q2 -23 3.5 -53t3 -64.5t3 -82.5t1.5 -118v-184h-126v675h126h27l198 -320q46 -75 57 -97t26 -56q-2 31 -4.5 82.5t-3.5 85t-1.5 65.5t-0.5 76v164h126v-675h-126zM346 715l-164 82l31 68l135 -55l137 55l29 -64z" />
<glyph unicode="&#x148;" horiz-adv-x="571" d="M374 0v318q0 41 -14 61.5t-48 20.5q-24 0 -45 -12.5t-36.5 -35t-24.5 -51.5t-9 -61v-240h-128v497h121q0 -20 -2 -45.5t-5 -43.5h1q23 45 66.5 72t102.5 27q41 0 69.5 -12t46 -33.5t25 -50t7.5 -62.5v-349h-127zM281 560l-152 134l50 60l104 -82l105 82l48 -59z" />
<glyph unicode="&#x14a;" horiz-adv-x="690" d="M620 -1q0 -61 -13 -104.5t-39.5 -73t-64 -46.5t-89.5 -26l-28 102q52 9 79.5 36t27.5 91l-241 389q-36 60 -64 123q1 -22 2.5 -59t2.5 -80t1.5 -87t0.5 -81v-183h-125v675h148l224 -358q17 -28 31.5 -55t28.5 -56q-2 25 -3.5 69.5t-2 77.5t-1 75t-0.5 77v170h125v-676z " />
<glyph unicode="&#x14b;" horiz-adv-x="571" d="M506 184q0 -83 -4 -139.5t-12.5 -93.5t-22 -61t-33.5 -44q-22 -22 -53.5 -37.5t-76.5 -27.5l-30 100q44 14 65 33q12 12 19 26t12 38.5t7 66.5t2 109v21q0 72 -4.5 116.5t-13 68t-22 32t-34.5 8.5t-40.5 -12t-35 -33t-24 -48.5t-8.5 -57.5v-249h-128v497h121 q0 -24 -2 -48.5t-5 -39.5h1q23 45 65.5 71.5t93.5 26.5q46 0 76.5 -15.5t49.5 -50t28 -92t9 -143.5v-22z" />
<glyph unicode="&#x14c;" horiz-adv-x="713" d="M538 335q0 110 -46 172t-136 62q-40 0 -73 -15t-57.5 -44t-37.5 -72t-13 -97q0 -55 11.5 -98.5t34 -74t56.5 -46.5t79 -16q40 0 73.5 15t57.5 44t37.5 72t13.5 98zM677 350q0 -85 -26 -153t-71.5 -114.5t-105.5 -70t-128 -23.5q-75 0 -133.5 22.5t-97.5 66t-59 105.5 t-20 142q0 85 26 153t71.5 114.5t105.5 70t128 23.5q75 0 133.5 -22.5t97.5 -66t59 -105.5t20 -142zM212 741v81h293v-81h-293z" />
<glyph unicode="&#x14d;" horiz-adv-x="553" d="M388 248q0 73 -29 112t-81 39q-26 0 -47 -9.5t-35.5 -28.5t-22.5 -47t-8 -65q0 -150 111 -150q51 0 81.5 37.5t30.5 111.5zM520 260q0 -58 -17 -107t-49.5 -86t-80 -57t-106.5 -20q-54 0 -97 15t-73.5 45.5t-47 77t-16.5 109.5q0 58 17 107t49.5 86t80 57t106.5 20 q113 0 173.5 -63t60.5 -184zM148 600v92h270v-92h-270z" />
<glyph unicode="&#x14e;" horiz-adv-x="713" d="M538 335q0 110 -46 172t-136 62q-40 0 -73 -15t-57.5 -44t-37.5 -72t-13 -97q0 -55 11.5 -98.5t34 -74t56.5 -46.5t79 -16q40 0 73.5 15t57.5 44t37.5 72t13.5 98zM677 350q0 -85 -26 -153t-71.5 -114.5t-105.5 -70t-128 -23.5q-75 0 -133.5 22.5t-97.5 66t-59 105.5 t-20 142q0 85 26 153t71.5 114.5t105.5 70t128 23.5q75 0 133.5 -22.5t97.5 -66t59 -105.5t20 -142zM499 859q0 -28 -9 -53t-27.5 -43.5t-45.5 -29t-61 -10.5t-60.5 10.5t-44.5 29.5t-27 43.5t-9 52.5h76q0 -24 19 -40.5t47 -16.5q30 0 48 16t18 41h76z" />
<glyph unicode="&#x14f;" horiz-adv-x="553" d="M388 248q0 73 -29 112t-81 39q-26 0 -47 -9.5t-35.5 -28.5t-22.5 -47t-8 -65q0 -150 111 -150q51 0 81.5 37.5t30.5 111.5zM520 260q0 -58 -17 -107t-49.5 -86t-80 -57t-106.5 -20q-54 0 -97 15t-73.5 45.5t-47 77t-16.5 109.5q0 58 17 107t49.5 86t80 57t106.5 20 q113 0 173.5 -63t60.5 -184zM414 720q0 -31 -8.5 -58.5t-25.5 -49t-43.5 -33.5t-61.5 -12t-61 12.5t-42.5 33.5t-24 48.5t-7.5 58.5h83q0 -27 14 -44t39 -17t39.5 15.5t14.5 45.5h84z" />
<glyph unicode="&#x150;" horiz-adv-x="713" d="M538 335q0 110 -46 172t-136 62q-40 0 -73 -15t-57.5 -44t-37.5 -72t-13 -97q0 -55 11.5 -98.5t34 -74t56.5 -46.5t79 -16q40 0 73.5 15t57.5 44t37.5 72t13.5 98zM677 350q0 -85 -26 -153t-71.5 -114.5t-105.5 -70t-128 -23.5q-75 0 -133.5 22.5t-97.5 66t-59 105.5 t-20 142q0 85 26 153t71.5 114.5t105.5 70t128 23.5q75 0 133.5 -22.5t97.5 -66t59 -105.5t20 -142zM273 714l-59 51l127 149l73 -63zM465 713l-57 53l145 141l68 -67z" />
<glyph unicode="&#x151;" horiz-adv-x="553" d="M388 248q0 73 -29 112t-81 39q-26 0 -47 -9.5t-35.5 -28.5t-22.5 -47t-8 -65q0 -150 111 -150q51 0 81.5 37.5t30.5 111.5zM520 260q0 -58 -17 -107t-49.5 -86t-80 -57t-106.5 -20q-54 0 -97 15t-73.5 45.5t-47 77t-16.5 109.5q0 58 17 107t49.5 86t80 57t106.5 20 q113 0 173.5 -63t60.5 -184zM200 560l-60 51l129 155l74 -62zM389 560l-56 51l143 147l69 -67z" />
<glyph unicode="&#x152;" horiz-adv-x="871" d="M449 557q-19 6 -44 9t-49 3q-40 0 -73.5 -15t-57.5 -44t-37.5 -72t-13.5 -97q0 -55 11.5 -98.5t34.5 -74t57 -46.5t79 -16q21 0 46.5 3.5t46.5 8.5v439zM464 0q-57 -11 -118 -11q-75 0 -133.5 22.5t-97.5 66t-59 105.5t-20 142q0 85 26 153t71.5 114.5t105.5 70t128 23.5 q28 0 58 -3t56 -8h334v-109h-236v-166h225v-106h-225v-182h236v-112h-351z" />
<glyph unicode="&#x153;" horiz-adv-x="860" d="M388 248q0 73 -29 112t-81 39q-26 0 -47 -9.5t-35.5 -28.5t-22.5 -47t-8 -65q0 -150 111 -150q51 0 81.5 37.5t30.5 111.5zM695 309q1 50 -22 77t-64 27q-40 0 -66.5 -28t-31.5 -76h184zM821 296q0 -22 -1 -42.5t-2 -29.5h-308q-2 -135 131 -135q37 0 74.5 6.5t75.5 19.5 l14 -95q-42 -14 -88.5 -22t-89.5 -8q-69 0 -114.5 20t-71.5 59q-25 -36 -71 -57.5t-103 -21.5q-54 0 -97 15t-73.5 45.5t-47 77t-16.5 109.5q0 58 17 107t49.5 86t80 57t106.5 20q56 0 99 -18t71 -56q23 34 64.5 54t95.5 20q53 0 92 -16t64 -44.5t37 -67t12 -83.5z" />
<glyph unicode="&#x154;" horiz-adv-x="575" d="M381 472q0 101 -122 101q-17 0 -34 -1t-25 -2v-200q7 0 23 -0.5t32 -0.5q60 0 93 27t33 76zM406 0l-170 272h-36v-272h-130v675q23 1 77.5 2.5t120.5 1.5q59 0 105 -11.5t78.5 -35t49.5 -60.5t17 -88q0 -39 -11.5 -71t-32 -55.5t-48 -39.5t-60.5 -24q7 -9 22.5 -29.5 t29.5 -43.5l146 -221h-158zM220 716l-21 70l208 75l29 -92z" />
<glyph unicode="&#x155;" horiz-adv-x="355" d="M335 382q-138 27 -138 -179v-203h-128v497h121q0 -20 -2.5 -47.5t-6.5 -52.5h2q10 25 23.5 46t33 36.5t45 23t56.5 4.5zM197 558l-58 61l150 144l70 -75z" />
<glyph unicode="&#x156;" horiz-adv-x="575" d="M381 472q0 101 -122 101q-17 0 -34 -1t-25 -2v-200q7 0 23 -0.5t32 -0.5q60 0 93 27t33 76zM406 0l-170 272h-36v-272h-130v675q23 1 77.5 2.5t120.5 1.5q59 0 105 -11.5t78.5 -35t49.5 -60.5t17 -88q0 -39 -11.5 -71t-32 -55.5t-48 -39.5t-60.5 -24q7 -9 22.5 -29.5 t29.5 -43.5l146 -221h-158zM290 -47q27 0 44 -18t17 -48q0 -19 -8 -37.5t-24.5 -35.5t-43 -31.5t-65.5 -24.5l-20 46q29 16 39 28t10 26q0 11 -4 20.5t-4 18.5q0 23 16 39.5t43 16.5z" />
<glyph unicode="&#x157;" horiz-adv-x="355" d="M335 382q-138 27 -138 -179v-203h-128v497h121q0 -20 -2.5 -47.5t-6.5 -52.5h2q10 25 23.5 46t33 36.5t45 23t56.5 4.5zM146 -47q27 0 44 -18t17 -48q0 -19 -8 -37.5t-24.5 -35.5t-43 -31.5t-65.5 -24.5l-20 46q29 16 39 28t10 26q0 11 -4 20.5t-4 18.5q0 23 16 39.5 t43 16.5z" />
<glyph unicode="&#x158;" horiz-adv-x="575" d="M381 472q0 101 -122 101q-17 0 -34 -1t-25 -2v-200q7 0 23 -0.5t32 -0.5q60 0 93 27t33 76zM406 0l-170 272h-36v-272h-130v675q23 1 77.5 2.5t120.5 1.5q59 0 105 -11.5t78.5 -35t49.5 -60.5t17 -88q0 -39 -11.5 -71t-32 -55.5t-48 -39.5t-60.5 -24q7 -9 22.5 -29.5 t29.5 -43.5l146 -221h-158zM265 715l-164 82l31 68l135 -55l137 55l29 -64z" />
<glyph unicode="&#x159;" horiz-adv-x="355" d="M335 382q-138 27 -138 -179v-203h-128v497h121q0 -20 -2.5 -47.5t-6.5 -52.5h2q10 25 23.5 46t33 36.5t45 23t56.5 4.5zM204 560l-152 134l50 60l104 -82l105 82l48 -59z" />
<glyph unicode="&#x15a;" horiz-adv-x="503" d="M467 199q0 -46 -17 -84.5t-50.5 -66.5t-82.5 -43.5t-111 -15.5q-83 0 -157 18l14 125q34 -14 73.5 -22t76.5 -8q25 0 46 5t36.5 15t24 26t8.5 38q0 30 -19 49.5t-57.5 37t-74.5 33t-66.5 37.5t-50.5 57t-20 87q0 44 17 80.5t50 63t80.5 41t107.5 14.5q28 0 61 -3.5 t61 -9.5l-12 -114q-28 9 -58 14t-60 5q-55 0 -83 -20.5t-28 -57.5q0 -28 19.5 -47.5t57 -36.5t75 -33.5t68.5 -38.5t51 -57.5t20 -87.5zM210 716l-21 70l208 75l29 -92z" />
<glyph unicode="&#x15b;" horiz-adv-x="417" d="M378 152q0 -35 -13.5 -64.5t-41 -51.5t-68 -34t-93.5 -12q-30 0 -60 3.5t-54 9.5l7 106q23 -9 54 -14.5t59 -5.5q37 0 57 13.5t20 37.5q0 20 -13.5 32.5t-38 22.5t-52.5 21t-50 27t-36 43t-14 66q0 33 13 61t39 49.5t65.5 33.5t91.5 12q21 0 44.5 -2.5t47.5 -6.5l-7 -101 q-22 6 -45 10t-46 4q-35 0 -53.5 -13t-18.5 -35q0 -19 13.5 -31.5t38.5 -22.5t53.5 -22t50.5 -28.5t36 -42.5t14 -65zM186 558l-58 61l150 144l70 -75z" />
<glyph unicode="&#x15c;" horiz-adv-x="503" d="M467 199q0 -46 -17 -84.5t-50.5 -66.5t-82.5 -43.5t-111 -15.5q-83 0 -157 18l14 125q34 -14 73.5 -22t76.5 -8q25 0 46 5t36.5 15t24 26t8.5 38q0 30 -19 49.5t-57.5 37t-74.5 33t-66.5 37.5t-50.5 57t-20 87q0 44 17 80.5t50 63t80.5 41t107.5 14.5q28 0 61 -3.5 t61 -9.5l-12 -114q-28 9 -58 14t-60 5q-55 0 -83 -20.5t-28 -57.5q0 -28 19.5 -47.5t57 -36.5t75 -33.5t68.5 -38.5t51 -57.5t20 -87.5zM398 715l-136 55l-137 -55l-29 66l168 84l164 -83z" />
<glyph unicode="&#x15d;" horiz-adv-x="417" d="M378 152q0 -35 -13.5 -64.5t-41 -51.5t-68 -34t-93.5 -12q-30 0 -60 3.5t-54 9.5l7 106q23 -9 54 -14.5t59 -5.5q37 0 57 13.5t20 37.5q0 20 -13.5 32.5t-38 22.5t-52.5 21t-50 27t-36 43t-14 66q0 33 13 61t39 49.5t65.5 33.5t91.5 12q21 0 44.5 -2.5t47.5 -6.5l-7 -101 q-22 6 -45 10t-46 4q-35 0 -53.5 -13t-18.5 -35q0 -19 13.5 -31.5t38.5 -22.5t53.5 -22t50.5 -28.5t36 -42.5t14 -65zM309 560l-103 81l-105 -81l-49 58l155 136l152 -135z" />
<glyph unicode="&#x15e;" horiz-adv-x="503" d="M467 199q0 -46 -17 -84.5t-50.5 -66.5t-82.5 -43.5t-111 -15.5q-83 0 -157 18l14 125q34 -14 73.5 -22t76.5 -8q25 0 46 5t36.5 15t24 26t8.5 38q0 30 -19 49.5t-57.5 37t-74.5 33t-66.5 37.5t-50.5 57t-20 87q0 44 17 80.5t50 63t80.5 41t107.5 14.5q28 0 61 -3.5 t61 -9.5l-12 -114q-28 9 -58 14t-60 5q-55 0 -83 -20.5t-28 -57.5q0 -28 19.5 -47.5t57 -36.5t75 -33.5t68.5 -38.5t51 -57.5t20 -87.5zM286 -40q37 -51 30.5 -100t-50.5 -94h-97q38 45 42 81.5t-31 79.5z" />
<glyph unicode="&#xf6c1;" horiz-adv-x="503" d="M467 199q0 -46 -17 -84.5t-50.5 -66.5t-82.5 -43.5t-111 -15.5q-83 0 -157 18l14 125q34 -14 73.5 -22t76.5 -8q25 0 46 5t36.5 15t24 26t8.5 38q0 30 -19 49.5t-57.5 37t-74.5 33t-66.5 37.5t-50.5 57t-20 87q0 44 17 80.5t50 63t80.5 41t107.5 14.5q28 0 61 -3.5 t61 -9.5l-12 -114q-28 9 -58 14t-60 5q-55 0 -83 -20.5t-28 -57.5q0 -28 19.5 -47.5t57 -36.5t75 -33.5t68.5 -38.5t51 -57.5t20 -87.5zM286 -40q37 -51 30.5 -100t-50.5 -94h-97q38 45 42 81.5t-31 79.5z" />
<glyph unicode="&#x15f;" horiz-adv-x="417" d="M378 152q0 -35 -13.5 -64.5t-41 -51.5t-68 -34t-93.5 -12q-30 0 -60 3.5t-54 9.5l7 106q23 -9 54 -14.5t59 -5.5q37 0 57 13.5t20 37.5q0 20 -13.5 32.5t-38 22.5t-52.5 21t-50 27t-36 43t-14 66q0 33 13 61t39 49.5t65.5 33.5t91.5 12q21 0 44.5 -2.5t47.5 -6.5l-7 -101 q-22 6 -45 10t-46 4q-35 0 -53.5 -13t-18.5 -35q0 -19 13.5 -31.5t38.5 -22.5t53.5 -22t50.5 -28.5t36 -42.5t14 -65zM250 -40q37 -51 30.5 -100t-50.5 -94h-97q38 45 42 81.5t-31 79.5z" />
<glyph unicode="&#xf6c2;" horiz-adv-x="417" d="M378 152q0 -35 -13.5 -64.5t-41 -51.5t-68 -34t-93.5 -12q-30 0 -60 3.5t-54 9.5l7 106q23 -9 54 -14.5t59 -5.5q37 0 57 13.5t20 37.5q0 20 -13.5 32.5t-38 22.5t-52.5 21t-50 27t-36 43t-14 66q0 33 13 61t39 49.5t65.5 33.5t91.5 12q21 0 44.5 -2.5t47.5 -6.5l-7 -101 q-22 6 -45 10t-46 4q-35 0 -53.5 -13t-18.5 -35q0 -19 13.5 -31.5t38.5 -22.5t53.5 -22t50.5 -28.5t36 -42.5t14 -65zM250 -40q37 -51 30.5 -100t-50.5 -94h-97q38 45 42 81.5t-31 79.5z" />
<glyph unicode="&#x160;" horiz-adv-x="503" d="M467 199q0 -46 -17 -84.5t-50.5 -66.5t-82.5 -43.5t-111 -15.5q-83 0 -157 18l14 125q34 -14 73.5 -22t76.5 -8q25 0 46 5t36.5 15t24 26t8.5 38q0 30 -19 49.5t-57.5 37t-74.5 33t-66.5 37.5t-50.5 57t-20 87q0 44 17 80.5t50 63t80.5 41t107.5 14.5q28 0 61 -3.5 t61 -9.5l-12 -114q-28 9 -58 14t-60 5q-55 0 -83 -20.5t-28 -57.5q0 -28 19.5 -47.5t57 -36.5t75 -33.5t68.5 -38.5t51 -57.5t20 -87.5zM252 715l-164 82l31 68l135 -55l137 55l29 -64z" />
<glyph unicode="&#x161;" horiz-adv-x="417" d="M378 152q0 -35 -13.5 -64.5t-41 -51.5t-68 -34t-93.5 -12q-30 0 -60 3.5t-54 9.5l7 106q23 -9 54 -14.5t59 -5.5q37 0 57 13.5t20 37.5q0 20 -13.5 32.5t-38 22.5t-52.5 21t-50 27t-36 43t-14 66q0 33 13 61t39 49.5t65.5 33.5t91.5 12q21 0 44.5 -2.5t47.5 -6.5l-7 -101 q-22 6 -45 10t-46 4q-35 0 -53.5 -13t-18.5 -35q0 -19 13.5 -31.5t38.5 -22.5t53.5 -22t50.5 -28.5t36 -42.5t14 -65zM210 560l-152 134l50 60l104 -82l105 82l48 -59z" />
<glyph unicode="&#x162;" horiz-adv-x="510" d="M320 564v-564h-130v564h-175v111h480v-111h-175zM300 -40q37 -51 30.5 -100t-50.5 -94h-97q38 45 42 81.5t-31 79.5z" />
<glyph unicode="&#x163;" horiz-adv-x="375" d="M345 4q-25 -6 -54 -10t-52 -4q-42 0 -70 8.5t-44.5 26.5t-24 48t-7.5 76v249h-85v99h85v153l128 34v-187h119v-99h-119v-225q0 -44 12 -60t44 -16q29 0 59 7zM258 -40q37 -51 30.5 -100t-50.5 -94h-97q38 45 42 81.5t-31 79.5z" />
<glyph unicode="&#x164;" horiz-adv-x="510" d="M320 564v-564h-130v564h-175v111h480v-111h-175zM252 715l-164 82l31 68l135 -55l137 55l29 -64z" />
<glyph unicode="&#x165;" horiz-adv-x="379" d="M345 4q-25 -6 -54 -10t-52 -4q-42 0 -70 8.5t-44.5 26.5t-24 48t-7.5 76v249h-85v99h85v153l128 34v-187h119v-99h-119v-225q0 -44 12 -60t44 -16q29 0 59 7zM343 553l-83 18l50 205l102 -22z" />
<glyph unicode="&#x166;" horiz-adv-x="510" d="M190 564h-175v111h480v-111h-175v-164h105v-106h-105v-294h-130v294h-104v106h104v164z" />
<glyph unicode="&#x167;" horiz-adv-x="400" d="M337 301v-93h-109v-39q0 -42 12.5 -58t44.5 -16q30 0 59 8l8 -99q-25 -6 -53.5 -10t-52.5 -4q-42 0 -70 8t-44.5 26.5t-23.5 48.5t-7 75v60h-78v93h78v101h-85v95h85v153l127 34v-187h120v-95h-120v-101h109z" />
<glyph unicode="&#x168;" horiz-adv-x="681" d="M611 262q0 -137 -72 -205t-208 -68q-77 0 -128.5 19.5t-80.5 53t-40.5 76.5t-11.5 96v441h130v-433q0 -34 6.5 -60t22 -45t43 -29.5t68.5 -10.5q76 0 109 36t33 121v421h129v-413zM528 810q-46 -82 -126 -82q-23 0 -40 6.5t-37 19t-28.5 17t-21.5 4.5q-33 0 -58 -43 l-64 44q46 82 126 82q23 0 40.5 -6.5t37 -19t28.5 -17t22 -4.5q17 0 31 10.5t26 31.5z" />
<glyph unicode="&#x169;" horiz-adv-x="570" d="M381 0q0 23 1.5 47.5t4.5 41.5h-1q-24 -46 -67 -72.5t-102 -26.5q-41 0 -69.5 12t-46 33.5t-25 50t-7.5 62.5v349h127v-318q0 -41 14 -61.5t48 -20.5q24 0 45 12.5t37 35t24.5 51.5t8.5 61v240h128v-497h-120zM465 666q-45 -89 -121 -89q-23 0 -39.5 7t-35.5 20.5 t-27.5 18.5t-21.5 5q-30 0 -55 -45l-61 47q45 89 122 89q22 0 38.5 -7t36 -20.5t28 -18.5t20.5 -5q30 0 55 45z" />
<glyph unicode="&#x16a;" horiz-adv-x="681" d="M611 262q0 -137 -72 -205t-208 -68q-77 0 -128.5 19.5t-80.5 53t-40.5 76.5t-11.5 96v441h130v-433q0 -34 6.5 -60t22 -45t43 -29.5t68.5 -10.5q76 0 109 36t33 121v421h129v-413zM195 741v81h293v-81h-293z" />
<glyph unicode="&#x16b;" horiz-adv-x="570" d="M381 0q0 23 1.5 47.5t4.5 41.5h-1q-24 -46 -67 -72.5t-102 -26.5q-41 0 -69.5 12t-46 33.5t-25 50t-7.5 62.5v349h127v-318q0 -41 14 -61.5t48 -20.5q24 0 45 12.5t37 35t24.5 51.5t8.5 61v240h128v-497h-120zM150 600v92h270v-92h-270z" />
<glyph unicode="&#x16c;" horiz-adv-x="681" d="M611 262q0 -137 -72 -205t-208 -68q-77 0 -128.5 19.5t-80.5 53t-40.5 76.5t-11.5 96v441h130v-433q0 -34 6.5 -60t22 -45t43 -29.5t68.5 -10.5q76 0 109 36t33 121v421h129v-413zM483 859q0 -28 -9 -53t-27.5 -43.5t-45.5 -29t-61 -10.5t-60.5 10.5t-44.5 29.5t-27 43.5 t-9 52.5h76q0 -24 19 -40.5t47 -16.5q30 0 48 16t18 41h76z" />
<glyph unicode="&#x16d;" horiz-adv-x="570" d="M381 0q0 23 1.5 47.5t4.5 41.5h-1q-24 -46 -67 -72.5t-102 -26.5q-41 0 -69.5 12t-46 33.5t-25 50t-7.5 62.5v349h127v-318q0 -41 14 -61.5t48 -20.5q24 0 45 12.5t37 35t24.5 51.5t8.5 61v240h128v-497h-120zM422 720q0 -31 -8.5 -58.5t-25.5 -49t-43.5 -33.5t-61.5 -12 t-61 12.5t-42.5 33.5t-24 48.5t-7.5 58.5h83q0 -27 14 -44t39 -17t39.5 15.5t14.5 45.5h84z" />
<glyph unicode="&#x16e;" horiz-adv-x="681" d="M611 262q0 -137 -72 -205t-208 -68q-77 0 -128.5 19.5t-80.5 53t-40.5 76.5t-11.5 96v441h130v-433q0 -34 6.5 -60t22 -45t43 -29.5t68.5 -10.5q76 0 109 36t33 121v421h129v-413zM474 815q0 -54 -38.5 -87t-99.5 -33q-62 0 -95.5 28t-33.5 83q0 54 39 87t100 33 t94.5 -28t33.5 -83zM388 810q0 53 -47 53q-21 0 -34 -13.5t-13 -38.5q0 -53 46 -53q21 0 34.5 13.5t13.5 38.5z" />
<glyph unicode="&#x16f;" horiz-adv-x="570" d="M381 0q0 23 1.5 47.5t4.5 41.5h-1q-24 -46 -67 -72.5t-102 -26.5q-41 0 -69.5 12t-46 33.5t-25 50t-7.5 62.5v349h127v-318q0 -41 14 -61.5t48 -20.5q24 0 45 12.5t37 35t24.5 51.5t8.5 61v240h128v-497h-120zM415 668q0 -56 -38 -91t-98 -35q-61 0 -93.5 29t-32.5 87 q0 27 10 50t28.5 40t43.5 26t55 9q61 0 93 -29t32 -86zM331 662q0 29 -11.5 42t-34.5 13q-21 0 -34.5 -14t-13.5 -40q0 -55 47 -55q21 0 34 14t13 40z" />
<glyph unicode="&#x170;" horiz-adv-x="681" d="M611 262q0 -137 -72 -205t-208 -68q-77 0 -128.5 19.5t-80.5 53t-40.5 76.5t-11.5 96v441h130v-433q0 -34 6.5 -60t22 -45t43 -29.5t68.5 -10.5q76 0 109 36t33 121v421h129v-413zM245 714l-59 51l127 149l73 -63zM437 713l-57 53l145 141l68 -67z" />
<glyph unicode="&#x171;" horiz-adv-x="570" d="M381 0q0 23 1.5 47.5t4.5 41.5h-1q-24 -46 -67 -72.5t-102 -26.5q-41 0 -69.5 12t-46 33.5t-25 50t-7.5 62.5v349h127v-318q0 -41 14 -61.5t48 -20.5q24 0 45 12.5t37 35t24.5 51.5t8.5 61v240h128v-497h-120zM200 560l-60 51l129 155l74 -62zM389 560l-56 51l143 147 l69 -67z" />
<glyph unicode="&#x172;" horiz-adv-x="681" d="M611 262q0 -134 -71 -205q-23 -23 -53.5 -43t-58.5 -48q-38 -38 -38 -75q0 -33 36 -33q30 0 65 24l35 -69q-29 -26 -62 -38t-68 -12q-57 0 -91 26.5t-34 75.5q0 34 18 67t53 59q-5 -1 -10.5 -1h-10.5q-75 0 -123.5 19.5t-77 53t-39.5 78t-11 93.5v441h130v-433 q0 -32 6 -58.5t22 -46t43 -30t69 -10.5q75 0 108.5 35.5t33.5 121.5v421h129v-413z" />
<glyph unicode="&#x173;" horiz-adv-x="570" d="M561 -187q-28 -25 -61 -37.5t-69 -12.5q-58 0 -91.5 27t-33.5 75q0 40 21.5 75.5t63.5 69.5q-2 18 -3.5 38.5t-0.5 36.5h-1q-26 -44 -68 -69.5t-101 -25.5q-41 0 -69.5 12t-46 33.5t-25 50t-7.5 62.5v349h127v-318q0 -41 14 -61.5t48 -20.5q24 0 45 12.5t37 35t24.5 51.5 t8.5 61v240h128v-333q0 -47 2.5 -88t8.5 -76q-47 -28 -67 -55.5t-20 -53.5q0 -16 9.5 -24.5t26.5 -8.5q16 0 32 6t33 18z" />
<glyph unicode="&#x174;" horiz-adv-x="958" d="M765 0h-161l-103 369q-7 26 -12.5 59t-9.5 64h-2q-12 -88 -21 -123l-101 -369h-162l-169 675h139l90 -369q9 -46 16.5 -87t12.5 -81h2q6 41 13.5 82.5t18.5 83.5l102 371h130l105 -375q11 -39 20 -81t15 -81h2q6 46 12 85t14 75l89 377h128zM618 715l-136 55l-137 -55 l-29 66l168 84l164 -83z" />
<glyph unicode="&#x175;" horiz-adv-x="796" d="M632 0h-143l-71 226q-8 30 -15 59.5t-12 56.5h-1q-6 -29 -13.5 -59t-18.5 -72l-62 -211h-137l-149 497h141l56 -207l14.5 -58t19.5 -84h1q7 35 15.5 72.5t17.5 70.5l62 206h127l63 -206q12 -43 20.5 -77t14.5 -67h2q5 32 13 64.5t20 78.5l58 207h130zM501 560l-103 81 l-105 -81l-49 58l155 136l152 -135z" />
<glyph unicode="&#x176;" horiz-adv-x="561" d="M345 249v-249h-130v248l-217 427h143l94 -190q14 -29 25 -55t21 -52h2q10 25 22.5 53t29.5 63l90 181h138zM416 715l-136 55l-137 -55l-29 66l168 84l164 -83z" />
<glyph unicode="&#x177;" horiz-adv-x="502" d="M309 -28q-23 -63 -49.5 -105.5t-58 -68t-68 -36.5t-81.5 -11q-19 0 -38 2t-27 4l13 109q7 -2 24 -5t36 -3t35 5t30 16.5t25.5 30.5t21.5 46l16 44l-183 497h144l67 -195q11 -35 21 -70t20 -73h1q4 18 9 36.5t10.5 38.5t12 41.5t13.5 42.5l58 179h137zM356 560l-103 81 l-105 -81l-49 58l155 136l152 -135z" />
<glyph unicode="&#x178;" horiz-adv-x="561" d="M345 249v-249h-130v248l-217 427h143l94 -190q14 -29 25 -55t21 -52h2q10 25 22.5 53t29.5 63l90 181h138zM460 788q0 -29 -20 -49t-49 -20t-49 20t-20 49t20 49t49 20t49 -20t20 -49zM244 788q0 -29 -20 -49t-49 -20t-49 20t-20 49t20 49t49 20t49 -20t20 -49z" />
<glyph unicode="&#x179;" horiz-adv-x="537" d="M45 0v100l243 396q15 23 24 36.5t20 27.5q-22 -1 -50 -1.5t-73 -0.5h-156v117h436v-105l-257 -405q-13 -20 -18 -28.5t-13 -18.5q8 1 26 1.5t43.5 0.5h76.5h146v-120h-448zM221 716l-21 70l208 75l29 -92z" />
<glyph unicode="&#x17a;" horiz-adv-x="450" d="M45 0v91l200 293q-16 -1 -44 -1.5t-62 -0.5h-88v115h348v-91l-196 -290q14 1 43 1h70h87v-117h-358zM217 558l-58 61l150 144l70 -75z" />
<glyph unicode="&#x17b;" horiz-adv-x="537" d="M45 0v100l243 396q15 23 24 36.5t20 27.5q-22 -1 -50 -1.5t-73 -0.5h-156v117h436v-105l-257 -405q-13 -20 -18 -28.5t-13 -18.5q8 1 26 1.5t43.5 0.5h76.5h146v-120h-448zM346 794q0 -32 -22.5 -54.5t-53.5 -22.5q-32 0 -54.5 22.5t-22.5 54.5q0 31 22.5 53.5t54.5 22.5 t54 -22t22 -54z" />
<glyph unicode="&#x17c;" horiz-adv-x="450" d="M45 0v91l200 293q-16 -1 -44 -1.5t-62 -0.5h-88v115h348v-91l-196 -290q14 1 43 1h70h87v-117h-358zM300 647q0 -32 -22 -54t-54 -22t-54.5 22t-22.5 54t22.5 54.5t54.5 22.5t54 -22.5t22 -54.5z" />
<glyph unicode="&#x17d;" horiz-adv-x="537" d="M45 0v100l243 396q15 23 24 36.5t20 27.5q-22 -1 -50 -1.5t-73 -0.5h-156v117h436v-105l-257 -405q-13 -20 -18 -28.5t-13 -18.5q8 1 26 1.5t43.5 0.5h76.5h146v-120h-448zM269 715l-164 82l31 68l135 -55l137 55l29 -64z" />
<glyph unicode="&#x17e;" horiz-adv-x="450" d="M45 0v91l200 293q-16 -1 -44 -1.5t-62 -0.5h-88v115h348v-91l-196 -290q14 1 43 1h70h87v-117h-358zM224 560l-152 134l50 60l104 -82l105 82l48 -59z" />
<glyph unicode="&#x192;" horiz-adv-x="454" d="M231 105q-8 -75 -24.5 -126.5t-43 -83t-65 -46t-91.5 -14.5q-18 0 -37.5 2.5t-36.5 6.5l19 111q16 -6 32 -9.5t32 -3.5q21 0 35 6.5t23.5 21.5t16 41t10.5 66l24 247h-111v98h120l11 99q11 111 62.5 165t149.5 54q17 0 36.5 -1.5t35.5 -5.5l-14 -105q-13 4 -30 6t-32 2 q-36 0 -55.5 -24.5t-25.5 -81.5l-10 -108h144v-98h-153z" />
<glyph unicode="&#x1e6;" horiz-adv-x="675" d="M608 32q-50 -20 -110 -31t-121 -11q-82 0 -146 22.5t-107.5 65.5t-65.5 103.5t-22 135.5q0 82 24.5 150t72 116.5t118 75t160.5 26.5q50 0 99 -8t92 -21l-26 -119q-78 32 -173 32q-58 0 -101.5 -18t-71 -50.5t-40.5 -75t-13 -91.5q0 -108 55.5 -167.5t159.5 -59.5 q47 0 86 12v235h130v-322zM372 715l-164 82l31 68l135 -55l137 55l29 -64z" />
<glyph unicode="&#x1e7;" horiz-adv-x="540" d="M454 397q11 -28 11 -58q0 -41 -13.5 -74.5t-40 -58.5t-66.5 -38.5t-94 -13.5h-18t-17 1q-18 -14 -18 -30q0 -14 13.5 -21.5t57.5 -9.5l70 -2q87 -3 131.5 -39.5t44.5 -108.5q0 -41 -18.5 -76.5t-53.5 -62t-84.5 -41.5t-112.5 -15q-101 0 -159.5 36.5t-58.5 108.5 q0 38 22 70.5t57 54.5q-43 25 -43 74q0 58 59 91q-39 23 -57 58.5t-18 78.5q0 39 13.5 73.5t40 59.5t66.5 39.5t94 14.5q43 0 81 -11h167v-100h-56zM206 -4v-1q-24 -16 -36 -36t-12 -40q0 -35 28.5 -55t79.5 -20q62 0 92 24t30 59q0 27 -18.5 45t-66.5 20l-76 2zM343 329 q0 38 -22.5 62t-64.5 24t-64.5 -24t-22.5 -62t22.5 -62t64.5 -24t64.5 24t22.5 62zM271 560l-152 134l50 60l104 -82l105 82l48 -59z" />
<glyph unicode="&#x1fa;" horiz-adv-x="626" d="M335 458q-8 26 -15 51.5t-12 49.5h-2q-5 -24 -12 -50t-14 -50l-70 -212h195zM480 0l-46 144h-254l-47 -144h-131l226 675h169l227 -675h-144zM259 877l-17 50l180 53l23 -64zM420 783q0 -41 -31.5 -66t-80.5 -25q-50 0 -77.5 20.5t-27.5 63.5q0 41 31.5 66t81.5 25 q49 0 76.5 -20.5t27.5 -63.5zM353 779q0 40 -41 40q-17 0 -29 -9.5t-12 -29.5q0 -40 40 -40q18 0 30 9.5t12 29.5z" />
<glyph unicode="&#x1fb;" horiz-adv-x="524" d="M325 221q-47 0 -79 -5.5t-50.5 -15.5t-26.5 -23.5t-8 -30.5q0 -25 16.5 -41.5t43.5 -16.5q22 0 41.5 10t33.5 27t21.5 38t7.5 43v15zM335 0q0 24 1 45t4 39l-1 1q-18 -43 -61 -69t-98 -26q-66 0 -104 40t-38 102q0 44 20 76.5t57.5 54t90.5 32t119 10.5v21q0 44 -20.5 64 t-68.5 20q-33 0 -73.5 -9t-77.5 -24l-20 97q45 15 94 24.5t92 9.5q57 0 96 -11.5t62.5 -34t33.5 -54.5t10 -75v-205q0 -33 1 -66t3 -62h-122zM199 777l-19 59l198 67l28 -77zM376 650q0 -49 -34.5 -80t-88.5 -31q-56 0 -85.5 26t-29.5 77q0 49 35 80t89 31q55 0 84.5 -26 t29.5 -77zM301 645q0 51 -43 51q-19 0 -31.5 -13t-12.5 -36q0 -51 43 -51q19 0 31.5 13t12.5 36z" />
<glyph unicode="&#x1fc;" horiz-adv-x="799" d="M371 567h-9q-14 -36 -28.5 -69.5t-33.5 -72.5l-89 -174h160v316zM371 0v149h-204l-72 -149h-133l334 675h443v-109h-241v-166h222v-106h-222v-182h244v-112h-371zM451 716l-21 70l208 75l29 -92z" />
<glyph unicode="&#x1fd;" horiz-adv-x="800" d="M325 221q-47 0 -79 -5.5t-50.5 -15.5t-26.5 -23.5t-8 -30.5q0 -25 16.5 -41.5t43.5 -16.5q22 0 41.5 10t33.5 27t21.5 38t7.5 43v15zM635 309q1 50 -22 77t-64 27q-40 0 -66.5 -28t-31.5 -76h184zM762 296q0 -22 -1.5 -42.5t-2.5 -29.5h-308q0 -135 132 -135 q36 0 73.5 6.5t76.5 19.5l13 -95q-42 -14 -88.5 -22t-89.5 -8q-80 0 -131 27t-71 74h-1q-25 -46 -72 -73.5t-108 -27.5q-69 0 -107.5 39.5t-38.5 102.5q0 44 20 76.5t57.5 54t90.5 32t119 10.5v21q0 44 -20.5 64t-68.5 20q-33 0 -73.5 -9t-77.5 -24l-20 97q45 15 94 24.5 t92 9.5q53 0 92 -14.5t63 -47.5h1q23 28 62 44.5t87 16.5q53 0 92.5 -16t64.5 -44.5t37 -67t12 -83.5zM419 558l-58 61l150 144l70 -75z" />
<glyph unicode="&#x1fe;" horiz-adv-x="713" d="M212 166l206 395q-12 6 -29 9t-33 3q-41 0 -75.5 -15t-59.5 -44.5t-38.5 -73t-13.5 -99.5q0 -32 4 -59t10.5 -48.5t13.5 -37t15 -30.5zM501 509q-48 -92 -82 -157.5t-67.5 -129.5t-56.5 -108q13 -5 29.5 -8.5t31.5 -3.5q41 0 75.5 15t60 45t39 73.5t13.5 99.5 q0 59 -12.5 100t-30.5 74zM616 730l-52 -101q55 -40 84 -110t29 -169q0 -85 -26 -153t-71.5 -114.5t-105.5 -70t-128 -23.5q-29 0 -56.5 4t-50.5 12l-52 -102l-90 42l52 101q-27 20 -48 47t-35.5 62t-22 77.5t-7.5 92.5q0 85 26 153t71.5 114.5t105.5 70t128 23.5 q29 0 56.5 -4t50.5 -12l52 102zM262 756l-21 70l208 75l29 -92z" />
<glyph unicode="&#x1ff;" horiz-adv-x="553" d="M314 401q-7 3 -16.5 4.5t-18.5 1.5q-29 0 -52 -10.5t-39 -30.5t-24.5 -50t-8.5 -68q0 -55 20 -108zM398 249q0 56 -20 108l-139 -261q15 -6 35 -6q58 0 91 41.5t33 117.5zM520 260q0 -58 -17 -107t-49.5 -86t-80 -57t-106.5 -20q-43 0 -78 11l-50 -94l-71 31l50 93 q-42 31 -63.5 83t-21.5 123q0 58 17 107t49.5 86t80 57t106.5 20q43 0 78 -11l50 94l71 -31l-50 -93q42 -31 63.5 -83t21.5 -123zM259 558l-58 61l150 144l70 -75z" />
<glyph unicode="&#x218;" horiz-adv-x="503" d="M467 199q0 -46 -17 -84.5t-50.5 -66.5t-82.5 -43.5t-111 -15.5q-83 0 -157 18l14 125q34 -14 73.5 -22t76.5 -8q25 0 46 5t36.5 15t24 26t8.5 38q0 30 -19 49.5t-57.5 37t-74.5 33t-66.5 37.5t-50.5 57t-20 87q0 44 17 80.5t50 63t80.5 41t107.5 14.5q28 0 61 -3.5 t61 -9.5l-12 -114q-28 9 -58 14t-60 5q-55 0 -83 -20.5t-28 -57.5q0 -28 19.5 -47.5t57 -36.5t75 -33.5t68.5 -38.5t51 -57.5t20 -87.5zM252 -47q27 0 44 -18t17 -48q0 -19 -8 -37.5t-24.5 -35.5t-43 -31.5t-65.5 -24.5l-20 46q29 16 39 28t10 26q0 11 -4 20.5t-4 18.5 q0 23 16 39.5t43 16.5z" />
<glyph unicode="&#x219;" horiz-adv-x="417" d="M378 152q0 -35 -13.5 -64.5t-41 -51.5t-68 -34t-93.5 -12q-30 0 -60 3.5t-54 9.5l7 106q23 -9 54 -14.5t59 -5.5q37 0 57 13.5t20 37.5q0 20 -13.5 32.5t-38 22.5t-52.5 21t-50 27t-36 43t-14 66q0 33 13 61t39 49.5t65.5 33.5t91.5 12q21 0 44.5 -2.5t47.5 -6.5l-7 -101 q-22 6 -45 10t-46 4q-35 0 -53.5 -13t-18.5 -35q0 -19 13.5 -31.5t38.5 -22.5t53.5 -22t50.5 -28.5t36 -42.5t14 -65zM216 -47q27 0 44 -18t17 -48q0 -19 -8 -37.5t-24.5 -35.5t-43 -31.5t-65.5 -24.5l-20 46q29 16 39 28t10 26q0 11 -4 20.5t-4 18.5q0 23 16 39.5t43 16.5z " />
<glyph unicode="&#x21a;" horiz-adv-x="510" d="M320 564v-564h-130v564h-175v111h480v-111h-175zM261 -47q27 0 44 -18t17 -48q0 -19 -8 -37.5t-24.5 -35.5t-43 -31.5t-65.5 -24.5l-20 46q29 16 39 28t10 26q0 11 -4 20.5t-4 18.5q0 23 16 39.5t43 16.5z" />
<glyph unicode="&#x21b;" horiz-adv-x="375" d="M345 4q-25 -6 -54 -10t-52 -4q-42 0 -70 8.5t-44.5 26.5t-24 48t-7.5 76v249h-85v99h85v153l128 34v-187h119v-99h-119v-225q0 -44 12 -60t44 -16q29 0 59 7zM223 -47q27 0 44 -18t17 -48q0 -19 -8 -37.5t-24.5 -35.5t-43 -31.5t-65.5 -24.5l-20 46q29 16 39 28t10 26 q0 11 -4 20.5t-4 18.5q0 23 16 39.5t43 16.5z" />
<glyph unicode="&#x237;" horiz-adv-x="271" d="M201 -37q0 -51 -10.5 -90t-33 -66t-58 -41t-85.5 -14q-24 0 -46 3t-31 5l9 109q7 -3 25 -6.5t41 -3.5q34 0 48 20t14 71v547h127v-534z" />
<glyph unicode="&#xf6be;" horiz-adv-x="271" d="M201 -37q0 -51 -10.5 -90t-33 -66t-58 -41t-85.5 -14q-24 0 -46 3t-31 5l9 109q7 -3 25 -6.5t41 -3.5q34 0 48 20t14 71v547h127v-534z" />
<glyph unicode="&#x2c6;" horiz-adv-x="437" d="M322 560l-103 81l-105 -81l-49 58l155 136l152 -135z" />
<glyph unicode="&#x2c7;" horiz-adv-x="437" d="M217 560l-152 134l50 60l104 -82l105 82l48 -59z" />
<glyph unicode="&#x2d8;" horiz-adv-x="404" d="M339 720q0 -31 -8.5 -58.5t-25.5 -49t-43.5 -33.5t-61.5 -12t-61 12.5t-42.5 33.5t-24 48.5t-7.5 58.5h83q0 -27 14 -44t39 -17t39.5 15.5t14.5 45.5h84z" />
<glyph unicode="&#x2d9;" horiz-adv-x="283" d="M218 647q0 -32 -22 -54t-54 -22t-54.5 22t-22.5 54t22.5 54.5t54.5 22.5t54 -22.5t22 -54.5z" />
<glyph unicode="&#x2da;" horiz-adv-x="393" d="M327 668q0 -56 -38 -91t-98 -35q-61 0 -93.5 29t-32.5 87q0 27 10 50t28.5 40t43.5 26t55 9q61 0 93 -29t32 -86zM243 662q0 29 -11.5 42t-34.5 13q-21 0 -34.5 -14t-13.5 -40q0 -55 47 -55q21 0 34 14t13 40z" />
<glyph unicode="&#x2db;" horiz-adv-x="386" d="M271 0q-46 -28 -66 -55.5t-20 -53.5q0 -16 9 -24.5t26 -8.5q16 0 32 6t33 18l36 -69q-28 -25 -61 -37.5t-70 -12.5q-58 0 -91.5 27t-33.5 75q0 39 21 74.5t63 69.5z" />
<glyph unicode="&#x2dc;" horiz-adv-x="491" d="M426 666q-45 -89 -121 -89q-23 0 -39.5 7t-35.5 20.5t-27.5 18.5t-21.5 5q-30 0 -55 -45l-61 47q45 89 122 89q22 0 38.5 -7t36 -20.5t28 -18.5t20.5 -5q30 0 55 45z" />
<glyph unicode="&#x2dd;" horiz-adv-x="535" d="M125 560l-60 51l129 155l74 -62zM314 560l-56 51l143 147l69 -67z" />
<glyph unicode="&#x312;" horiz-adv-x="0" d="M-288 561q-29 0 -46 23.5t-13 56.5t37.5 65.5t101.5 49.5l21 -46q-39 -20 -46.5 -37.5t0.5 -36.5q10 -28 -6 -51.5t-49 -23.5z" />
<glyph unicode="&#x315;" horiz-adv-x="63" d="M46 553l-83 18l50 205l102 -22z" />
<glyph unicode="&#x326;" horiz-adv-x="0" d="M-283 -47q27 0 44 -18t17 -48q0 -19 -8 -37.5t-24.5 -35.5t-43 -31.5t-65.5 -24.5l-20 46q29 16 39 28t10 26q0 11 -4 20.5t-4 18.5q0 23 16 39.5t43 16.5z" />
<glyph unicode="&#x394;" horiz-adv-x="614" d="M27 0v98l198 577h159l204 -577v-98h-561zM327 450q-8 25 -14.5 49.5t-11.5 52.5h-2q-5 -25 -11.5 -51t-15.5 -54l-111 -330h279z" />
<glyph unicode="&#x3a9;" horiz-adv-x="713" d="M413 0v103q59 45 88 103t29 143q0 50 -10.5 90.5t-32.5 70t-55 45t-77 15.5q-37 0 -68.5 -15t-55 -43.5t-36.5 -69t-13 -90.5q0 -45 6.5 -80t20 -64t36 -54.5t55.5 -50.5v-103h-263v105h123q-55 38 -86 100t-31 148q0 74 23.5 135.5t67.5 106t103.5 68t129.5 23.5 q64 0 119 -19t96 -58.5t63.5 -100t22.5 -141.5q0 -87 -32.5 -154t-87.5 -108h128v-105h-263z" />
<glyph unicode="&#x2126;" horiz-adv-x="713" d="M413 0v103q59 45 88 103t29 143q0 50 -10.5 90.5t-32.5 70t-55 45t-77 15.5q-37 0 -68.5 -15t-55 -43.5t-36.5 -69t-13 -90.5q0 -45 6.5 -80t20 -64t36 -54.5t55.5 -50.5v-103h-263v105h123q-55 38 -86 100t-31 148q0 74 23.5 135.5t67.5 106t103.5 68t129.5 23.5 q64 0 119 -19t96 -58.5t63.5 -100t22.5 -141.5q0 -87 -32.5 -154t-87.5 -108h128v-105h-263z" />
<glyph unicode="&#x3bc;" horiz-adv-x="582" d="M556 -4q-28 -5 -51 -5q-32 0 -53.5 7t-34.5 20t-18.5 30t-6.5 39h-1q-19 -44 -55 -69t-87 -25q-43 0 -64 23l15 -257h-131v738h128v-322q0 -78 61 -78q25 0 46.5 11.5t37 33.5t24 51.5t8.5 65.5v238h127v-318q0 -26 2.5 -42t8.5 -24.5t16.5 -12t27.5 -3.5v-101z" />
<glyph unicode="&#x3c0;" horiz-adv-x="630" d="M495 392q0 -159 15 -230q6 -36 17.5 -50.5t29.5 -14.5q6 0 13 1t18 3l12 -102q-30 -8 -72 -8q-66 0 -98.5 29.5t-46.5 104.5q-8 43 -12.5 112.5t-4.5 154.5h-127q1 -106 -12 -208.5t-44 -196.5l-136 26q36 102 53 193t16 186h-104v105h588v-105h-105z" />
<glyph unicode="&#x1e02;" horiz-adv-x="581" d="M403 201q0 47 -34 71.5t-108 24.5h-35t-26 -1v-191q11 -1 32.5 -2t40.5 -1q64 0 97 27t33 72zM383 488q0 41 -27 64.5t-88 23.5q-16 0 -32.5 -0.5t-35.5 -1.5v-179q11 -1 23 -1h35q62 0 93.5 24.5t31.5 69.5zM543 207q0 -40 -16 -77t-49.5 -67t-86 -47.5t-122.5 -17.5 q-18 0 -85 1t-114 1v674q27 1 85.5 3t121.5 2q121 0 182 -44t61 -128q0 -49 -26 -89t-72 -58v-1q28 -7 50 -21t38 -33.5t24.5 -44t8.5 -53.5zM351 794q0 -32 -22.5 -54.5t-53.5 -22.5q-32 0 -54.5 22.5t-22.5 54.5q0 31 22.5 53.5t54.5 22.5t54 -22t22 -54z" />
<glyph unicode="&#x1e03;" horiz-adv-x="559" d="M389 261q0 140 -85 140q-25 0 -45 -13.5t-33.5 -35.5t-21 -51t-7.5 -60v-140q27 -9 67 -9q27 0 50 9t39.5 29.5t26 52.5t9.5 78zM523 274q0 -63 -18 -115.5t-52.5 -90t-84.5 -58t-114 -20.5q-54 0 -98 6t-87 18v716h128v-214q0 -23 -2 -50t-6 -47h1q19 41 58.5 64.5 t91.5 23.5q90 0 136.5 -61t46.5 -172zM211 861q0 -32 -22.5 -54.5t-53.5 -22.5q-32 0 -54.5 22.5t-22.5 54.5q0 31 22.5 53.5t54.5 22.5t54 -22t22 -54z" />
<glyph unicode="&#x1e0a;" horiz-adv-x="667" d="M490 339q0 56 -11.5 98.5t-36.5 72t-65.5 45t-97.5 15.5q-23 0 -43 -1t-36 -2v-455q14 -2 33 -3.5t38 -1.5q48 0 88 14t69.5 42.5t45.5 72.5t16 103zM630 349q0 -85 -26.5 -151.5t-76 -111t-118 -67.5t-151.5 -23q-44 0 -98.5 2t-89.5 3v673q58 2 110.5 3.5t107.5 1.5 q80 0 143 -18.5t107.5 -58.5t68 -103t23.5 -150zM371 794q0 -32 -22.5 -54.5t-53.5 -22.5q-32 0 -54.5 22.5t-22.5 54.5q0 31 22.5 53.5t54.5 22.5t54 -22t22 -54z" />
<glyph unicode="&#x1e0b;" horiz-adv-x="559" d="M362 397q-18 4 -34.5 6t-32.5 2q-58 0 -91.5 -40.5t-33.5 -128.5q0 -141 85 -141q24 0 44 13t34 36t21.5 52.5t7.5 61.5v139zM370 0q0 19 1.5 41t4.5 42h-2q-21 -43 -62 -68.5t-95 -25.5q-89 0 -135 62t-46 171q0 63 18 115t52 90t83 58.5t110 20.5q17 0 32 -1t31 -3v228 h127v-730h-119zM501 861q0 -32 -22.5 -54.5t-53.5 -22.5q-32 0 -54.5 22.5t-22.5 54.5q0 31 22.5 53.5t54.5 22.5t54 -22t22 -54z" />
<glyph unicode="&#x1e1e;" horiz-adv-x="471" d="M200 564v-176h223v-106h-223v-282h-130v675h370v-111h-240zM327 794q0 -32 -22.5 -54.5t-53.5 -22.5q-32 0 -54.5 22.5t-22.5 54.5q0 31 22.5 53.5t54.5 22.5t54 -22t22 -54z" />
<glyph unicode="&#x1e1f;" horiz-adv-x="354" d="M365 625q-8 2 -26 5.5t-38 3.5q-41 0 -60 -23.5t-19 -75.5v-38h116v-99h-116v-398h-127v398h-87v99h87v29q0 108 51.5 160t151.5 52q24 0 45.5 -2.5t30.5 -4.5zM320 861q0 -32 -22.5 -54.5t-53.5 -22.5q-32 0 -54.5 22.5t-22.5 54.5q0 31 22.5 53.5t54.5 22.5t54 -22 t22 -54z" />
<glyph unicode="&#x1e40;" horiz-adv-x="896" d="M732 0l-41 332q-7 57 -11 115.5t-5 104.5h-2q-9 -45 -21.5 -92t-28.5 -96l-122 -364h-121l-117 350q-15 46 -31 104t-24 98h-2q-1 -44 -4.5 -102t-9.5 -121l-35 -329h-126l81 675h181l118 -350q10 -30 19.5 -66t15.5 -71h2q8 41 16 75.5t17 61.5l118 350h183l83 -675 h-133zM525 794q0 -32 -22.5 -54.5t-53.5 -22.5q-32 0 -54.5 22.5t-22.5 54.5q0 31 22.5 53.5t54.5 22.5t54 -22t22 -54z" />
<glyph unicode="&#x1e41;" horiz-adv-x="866" d="M669 0v314q0 43 -13 64.5t-46 21.5q-21 0 -41.5 -11.5t-37 -33.5t-26 -52t-9.5 -65v-238h-126v315q0 41 -12.5 63t-46.5 22q-22 0 -42.5 -12t-36.5 -34t-25.5 -52t-9.5 -64v-238h-128v497h121q0 -19 -1.5 -44t-4.5 -45l1 -1q23 46 66 73t98 27q32 0 56 -8.5t40 -22.5 t26 -31.5t15 -36.5q9 19 24 36.5t35.5 31.5t46.5 22.5t56 8.5q73 0 111 -41t38 -124v-342h-128zM509 653q0 -32 -22 -54t-54 -22t-54.5 22t-22.5 54t22.5 54.5t54.5 22.5t54 -22.5t22 -54.5z" />
<glyph unicode="&#x1e56;" horiz-adv-x="553" d="M530 462q0 -52 -18 -96.5t-54 -78.5t-88 -52.5t-117 -18.5q-12 0 -23.5 0.5t-20.5 1l-9 0.5v-218h-130v675q11 0 38.5 1t70.5 2t85 1q130 0 198 -58t68 -159zM396 448q0 57 -34.5 90.5t-105.5 33.5q-32 0 -56 -1v-243q3 -1 11.5 -2t22 -2t27.5 -1q64 0 99.5 34.5 t35.5 90.5zM347 794q0 -32 -22.5 -54.5t-53.5 -22.5q-32 0 -54.5 22.5t-22.5 54.5q0 31 22.5 53.5t54.5 22.5t54 -22t22 -54z" />
<glyph unicode="&#x1e57;" horiz-adv-x="559" d="M389 261q0 141 -85 141q-24 0 -44 -13t-34 -36t-21.5 -52.5t-7.5 -61.5v-138q30 -9 67 -9q28 0 50.5 9.5t39.5 29.5t26 52.5t9 77.5zM523 275q0 -65 -17 -117t-50 -89t-82 -56.5t-113 -19.5q-19 0 -34 1t-30 3v-238h-128v738h119q0 -21 -1 -43t-4 -40h2q21 44 61 68.5 t95 24.5q88 0 135 -60.5t47 -171.5zM378 653q0 -32 -22 -54t-54 -22t-54.5 22t-22.5 54t22.5 54.5t54.5 22.5t54 -22.5t22 -54.5z" />
<glyph unicode="&#x1e60;" horiz-adv-x="503" d="M467 199q0 -46 -17 -84.5t-50.5 -66.5t-82.5 -43.5t-111 -15.5q-83 0 -157 18l14 125q34 -14 73.5 -22t76.5 -8q25 0 46 5t36.5 15t24 26t8.5 38q0 30 -19 49.5t-57.5 37t-74.5 33t-66.5 37.5t-50.5 57t-20 87q0 44 17 80.5t50 63t80.5 41t107.5 14.5q28 0 61 -3.5 t61 -9.5l-12 -114q-28 9 -58 14t-60 5q-55 0 -83 -20.5t-28 -57.5q0 -28 19.5 -47.5t57 -36.5t75 -33.5t68.5 -38.5t51 -57.5t20 -87.5zM328 800q0 -32 -22.5 -54.5t-53.5 -22.5q-32 0 -54.5 22.5t-22.5 54.5q0 31 22.5 53.5t54.5 22.5t54 -22t22 -54z" />
<glyph unicode="&#x1e61;" horiz-adv-x="417" d="M378 152q0 -35 -13.5 -64.5t-41 -51.5t-68 -34t-93.5 -12q-30 0 -60 3.5t-54 9.5l7 106q23 -9 54 -14.5t59 -5.5q37 0 57 13.5t20 37.5q0 20 -13.5 32.5t-38 22.5t-52.5 21t-50 27t-36 43t-14 66q0 33 13 61t39 49.5t65.5 33.5t91.5 12q21 0 44.5 -2.5t47.5 -6.5l-7 -101 q-22 6 -45 10t-46 4q-35 0 -53.5 -13t-18.5 -35q0 -19 13.5 -31.5t38.5 -22.5t53.5 -22t50.5 -28.5t36 -42.5t14 -65zM284 653q0 -32 -22 -54t-54 -22t-54.5 22t-22.5 54t22.5 54.5t54.5 22.5t54 -22.5t22 -54.5z" />
<glyph unicode="&#x1e6a;" horiz-adv-x="510" d="M320 564v-564h-130v564h-175v111h480v-111h-175zM331 794q0 -32 -22.5 -54.5t-53.5 -22.5q-32 0 -54.5 22.5t-22.5 54.5q0 31 22.5 53.5t54.5 22.5t54 -22t22 -54z" />
<glyph unicode="&#x1e6b;" horiz-adv-x="375" d="M345 4q-25 -6 -54 -10t-52 -4q-42 0 -70 8.5t-44.5 26.5t-24 48t-7.5 76v249h-85v99h85v153l128 34v-187h119v-99h-119v-225q0 -44 12 -60t44 -16q29 0 59 7zM233 794q0 -32 -22.5 -54.5t-53.5 -22.5q-32 0 -54.5 22.5t-22.5 54.5q0 31 22.5 53.5t54.5 22.5t54 -22 t22 -54z" />
<glyph unicode="&#x1e80;" horiz-adv-x="958" d="M765 0h-161l-103 369q-7 26 -12.5 59t-9.5 64h-2q-12 -88 -21 -123l-101 -369h-162l-169 675h139l90 -369q9 -46 16.5 -87t12.5 -81h2q6 41 13.5 82.5t18.5 83.5l102 371h130l105 -375q11 -39 20 -81t15 -81h2q6 46 12 85t14 75l89 377h128zM548 716l-216 53l30 92 l207 -75z" />
<glyph unicode="&#x1e81;" horiz-adv-x="796" d="M632 0h-143l-71 226q-8 30 -15 59.5t-12 56.5h-1q-6 -29 -13.5 -59t-18.5 -72l-62 -211h-137l-149 497h141l56 -207l14.5 -58t19.5 -84h1q7 35 15.5 72.5t17.5 70.5l62 206h127l63 -206q12 -43 20.5 -77t14.5 -67h2q5 32 13 64.5t20 78.5l58 207h130zM420 558l-163 129 l70 76l150 -144z" />
<glyph unicode="&#x1e82;" horiz-adv-x="958" d="M765 0h-161l-103 369q-7 26 -12.5 59t-9.5 64h-2q-12 -88 -21 -123l-101 -369h-162l-169 675h139l90 -369q9 -46 16.5 -87t12.5 -81h2q6 41 13.5 82.5t18.5 83.5l102 371h130l105 -375q11 -39 20 -81t15 -81h2q6 46 12 85t14 75l89 377h128zM418 716l-21 70l208 75 l29 -92z" />
<glyph unicode="&#x1e83;" horiz-adv-x="796" d="M632 0h-143l-71 226q-8 30 -15 59.5t-12 56.5h-1q-6 -29 -13.5 -59t-18.5 -72l-62 -211h-137l-149 497h141l56 -207l14.5 -58t19.5 -84h1q7 35 15.5 72.5t17.5 70.5l62 206h127l63 -206q12 -43 20.5 -77t14.5 -67h2q5 32 13 64.5t20 78.5l58 207h130zM380 558l-58 61 l150 144l70 -75z" />
<glyph unicode="&#x1e84;" horiz-adv-x="958" d="M765 0h-161l-103 369q-7 26 -12.5 59t-9.5 64h-2q-12 -88 -21 -123l-101 -369h-162l-169 675h139l90 -369q9 -46 16.5 -87t12.5 -81h2q6 41 13.5 82.5t18.5 83.5l102 371h130l105 -375q11 -39 20 -81t15 -81h2q6 46 12 85t14 75l89 377h128zM662 788q0 -29 -20 -49 t-49 -20t-49 20t-20 49t20 49t49 20t49 -20t20 -49zM446 788q0 -29 -20 -49t-49 -20t-49 20t-20 49t20 49t49 20t49 -20t20 -49z" />
<glyph unicode="&#x1e85;" horiz-adv-x="796" d="M632 0h-143l-71 226q-8 30 -15 59.5t-12 56.5h-1q-6 -29 -13.5 -59t-18.5 -72l-62 -211h-137l-149 497h141l56 -207l14.5 -58t19.5 -84h1q7 35 15.5 72.5t17.5 70.5l62 206h127l63 -206q12 -43 20.5 -77t14.5 -67h2q5 32 13 64.5t20 78.5l58 207h130zM367 648 q0 -29 -20 -49t-49 -20t-49 20t-20 49t20 49t49 20t49 -20t20 -49zM570 648q0 -29 -20 -49t-49 -20t-49 20t-20 49t20 49t49 20t49 -20t20 -49z" />
<glyph unicode="&#x1ef2;" horiz-adv-x="561" d="M345 249v-249h-130v248l-217 427h143l94 -190q14 -29 25 -55t21 -52h2q10 25 22.5 53t29.5 63l90 181h138zM279 716l-216 53l30 92l207 -75z" />
<glyph unicode="&#x1ef3;" horiz-adv-x="502" d="M309 -28q-23 -63 -49.5 -105.5t-58 -68t-68 -36.5t-81.5 -11q-19 0 -38 2t-27 4l13 109q7 -2 24 -5t36 -3t35 5t30 16.5t25.5 30.5t21.5 46l16 44l-183 497h144l67 -195q11 -35 21 -70t20 -73h1q4 18 9 36.5t10.5 38.5t12 41.5t13.5 42.5l58 179h137zM236 558l-163 129 l70 76l150 -144z" />
<glyph unicode="&#x2010;" horiz-adv-x="334" d="M44 226v103h246v-103h-246z" />
<glyph unicode="&#x2013;" d="M0 242v112h550v-112h-550z" />
<glyph unicode="&#x2014;" horiz-adv-x="1000" d="M111 242v112h778v-112h-778z" />
<glyph unicode="&#x2015;" horiz-adv-x="1000" d="M111 242v112h778v-112h-778z" />
<glyph unicode="&#x2018;" horiz-adv-x="267" d="M230 709q-51 -55 -57.5 -90.5t16.5 -63.5q14 -17 16.5 -37.5t-5.5 -39.5t-26 -31.5t-44 -12.5q-35 0 -58.5 27.5t-23 72.5t30 103t99.5 119l52 -47v0z" />
<glyph unicode="&#x2019;" horiz-adv-x="267" d="M136 747q35 0 58 -27.5t23 -72.5t-29.5 -103t-99.5 -119l-52 47q51 55 57.5 90.5t-17.5 63.5q-14 16 -16 37t6 40t26 31.5t44 12.5z" />
<glyph unicode="&#x201a;" horiz-adv-x="267" d="M136 149q35 0 58 -27.5t23 -72.5t-29.5 -103t-99.5 -119l-52 47q51 55 57.5 90t-17.5 63q-14 17 -16 38t6 40t26 31.5t44 12.5z" />
<glyph unicode="&#x201c;" horiz-adv-x="485" d="M230 709q-51 -55 -57.5 -90.5t16.5 -63.5q14 -17 16.5 -37.5t-5.5 -39.5t-26 -31.5t-44 -12.5q-35 0 -58.5 27.5t-23 72.5t30 103t99.5 119l52 -47v0zM449 709q-51 -55 -57.5 -90.5t16.5 -63.5q14 -17 16 -37.5t-6 -39.5t-25.5 -31.5t-43.5 -12.5q-36 0 -59 27.5 t-23 72.5t29.5 103t99.5 119l53 -47v0z" />
<glyph unicode="&#x201d;" horiz-adv-x="485" d="M136 747q35 0 58 -27.5t23 -72.5t-29.5 -103t-99.5 -119l-52 47q51 55 57.5 90.5t-17.5 63.5q-14 16 -16 37t6 40t26 31.5t44 12.5zM354 747q36 0 59 -27.5t23 -72.5t-29.5 -103t-99.5 -119l-53 47q51 55 57.5 90.5t-16.5 63.5q-14 16 -16 37t6 40t25.5 31.5t43.5 12.5z " />
<glyph unicode="&#x201e;" horiz-adv-x="485" d="M136 149q35 0 58 -27.5t23 -72.5t-29.5 -103t-99.5 -119l-52 47q51 55 57.5 90t-17.5 63q-14 17 -16 38t6 40t26 31.5t44 12.5zM354 149q36 0 59 -27.5t23 -72.5t-29.5 -103t-99.5 -119l-53 47q51 55 57.5 90t-16.5 63q-14 17 -16 38t6 40t25.5 31.5t43.5 12.5z" />
<glyph unicode="&#x2020;" horiz-adv-x="457" d="M281 533l21 -88l-23 -255h-100l-24 255l21 88h-134v99h134l-21 136h147l-21 -136h135v-99h-135z" />
<glyph unicode="&#x2021;" horiz-adv-x="457" d="M282 287l21 -122h-149l21 122h-133v98h133l-20 81l20 82h-133v98h133l-20 122h147l-20 -122h134v-98h-134l20 -82l-20 -81h134v-98h-134z" />
<glyph unicode="&#x2022;" horiz-adv-x="423" d="M360 297q0 -30 -11.5 -57t-32 -47.5t-48 -32t-57.5 -11.5t-57 11.5t-47.5 32t-32 47.5t-11.5 57t11.5 57t32 47.5t47.5 32t57 11.5t57.5 -11.5t48 -32t32 -47.5t11.5 -57z" />
<glyph unicode="&#x2026;" horiz-adv-x="723" d="M204 67q0 -32 -23.5 -55t-55.5 -23t-55 23t-23 55t23 55t55 23t55.5 -23t23.5 -55zM437 67q0 -32 -23 -55t-55 -23t-55 23t-23 55t23 55t55 23t55 -23t23 -55zM670 67q0 -32 -23 -55t-55 -23t-55 23t-23 55t23 55t55 23t55 -23t23 -55z" />
<glyph unicode="&#x2030;" horiz-adv-x="1052" d="M329 536q0 -39 -12 -69.5t-32.5 -51.5t-47.5 -32t-57 -11q-64 0 -102 38.5t-38 113.5q0 38 12 68t32.5 51t47.5 32t57 11t55.5 -8.5t44 -26.5t29.5 -46.5t11 -68.5zM237 530q0 42 -12.5 59t-38.5 17q-23 0 -38 -20t-15 -57q0 -42 13.5 -59.5t37.5 -17.5q23 0 38 20t15 58 zM136 -20l-76 59l519 655l76 -59zM677 153q0 -39 -12 -69.5t-32.5 -51.5t-47.5 -32t-57 -11q-64 0 -102 38.5t-38 113.5q0 38 12 68t32.5 51t47 32t56.5 11t56 -8.5t44.5 -26.5t29.5 -46.5t11 -68.5zM584 147q0 42 -12.5 59t-37.5 17q-23 0 -38 -20t-15 -57q0 -43 13.5 -60 t37.5 -17q23 0 37.5 20t14.5 58zM1005 153q0 -39 -12 -69.5t-32.5 -51.5t-47.5 -32t-57 -11q-64 0 -102 38.5t-38 113.5q0 38 12 68t32.5 51t47 32t56.5 11t55.5 -8.5t44.5 -26.5t30 -46.5t11 -68.5zM912 147q0 42 -12.5 59t-37.5 17q-23 0 -38 -20t-15 -57q0 -43 13.5 -60 t37.5 -17q23 0 37.5 20t14.5 58z" />
<glyph unicode="&#x2039;" horiz-adv-x="312" d="M154 100l-113 192l115 195l97 -47l-89 -147l91 -145z" />
<glyph unicode="&#x203a;" horiz-adv-x="312" d="M156 100l-97 47l90 147l-91 145l101 48l113 -192z" />
<glyph unicode="&#x203d;" horiz-adv-x="534" d="M282 667q57 -5 98.5 -19t67.5 -36.5t38.5 -50.5t12.5 -62q0 -41 -17 -69.5t-42.5 -50t-55 -39.5t-55 -39t-43 -48t-17.5 -65h-110l-10 367q-24 -1 -52 -4.5t-59 -8.5l-5 108q30 6 58.5 9t53.5 5l-1 51h139zM213 141q16 0 30.5 -6t25 -16.5t16.5 -24t6 -29.5t-6 -30 t-16.5 -24t-25 -16t-30.5 -6q-17 0 -31 6t-24.5 16t-16.5 24t-6 30t6 29.5t16.5 24t24.5 16.5t31 6zM275 386q15 15 31 27t29 24t21 24t8 30q0 11 -4.5 22t-14 20t-26 15.5t-40.5 9.5z" />
<glyph unicode="&#x2044;" horiz-adv-x="201" d="M-177 -150l-79 54l652 905l78 -55z" />
<glyph unicode="&#x2215;" horiz-adv-x="201" d="M-177 -150l-79 54l652 905l78 -55z" />
<glyph unicode="&#x2070;" horiz-adv-x="464" d="M429 577q0 -107 -53 -167t-150 -60t-143.5 56t-46.5 164q0 106 53.5 166t148.5 60q93 0 142 -58t49 -161zM307 570q0 33 -3.5 58t-12 43.5t-23 28.5t-36.5 10q-41 0 -58 -34.5t-17 -99.5q0 -32 3.5 -57.5t12.5 -44t23.5 -28.5t35.5 -10q41 0 58 35t17 99z" />
<glyph unicode="&#x2074;" horiz-adv-x="415" d="M330 448v-90h-108v90h-197l-7 79l147 261h165v-250h63v-90h-63zM221 718l-100 -182q9 0 22.5 0.5t28 0.5h26h23.5v181z" />
<glyph unicode="&#x2075;" horiz-adv-x="358" d="M324 503q0 -73 -51.5 -113t-139.5 -40q-21 0 -48.5 3t-45.5 8l8 79q16 -5 37.5 -8t42.5 -3q33 0 53.5 17t20.5 43q0 29 -21.5 44.5t-63.5 15.5q-13 0 -31.5 -1.5t-31.5 -3.5v244h249v-86h-139v-76h11q72 -1 111 -33t39 -90z" />
<glyph unicode="&#x2076;" horiz-adv-x="421" d="M388 507q0 -39 -14.5 -68t-39.5 -49t-57.5 -30t-69.5 -10q-169 0 -169 190q0 56 13.5 103t42 81t73 53t107.5 19q20 0 40.5 -1.5t36.5 -5.5l-10 -78q-14 3 -35 5.5t-38 2.5q-30 0 -49.5 -8t-32.5 -21q-17 -18 -25 -41t-12 -42q15 14 38.5 21t49.5 7q69 0 110 -32.5 t41 -95.5zM276 494q0 34 -16.5 50.5t-45.5 16.5t-46.5 -17t-17.5 -46q0 -33 16 -52t47 -19t47 17.5t16 49.5z" />
<glyph unicode="&#x2077;" horiz-adv-x="344" d="M318 707q-18 -36 -36 -79t-34.5 -88.5t-30 -92t-22.5 -89.5h-127q11 45 26.5 93t33 93t35.5 84.5t33 66.5q-5 0 -21.5 -0.5t-40.5 -1t-52.5 -0.5h-56.5v95h293v-81z" />
<glyph unicode="&#x2078;" horiz-adv-x="412" d="M379 481q0 -57 -46 -94t-134 -37q-78 0 -122 27.5t-44 86.5q0 35 19 60t52 46q-29 17 -46 41.5t-17 58.5q0 55 44 91t128 36q71 0 114.5 -27.5t43.5 -82.5q0 -30 -17.5 -55t-46.5 -44q35 -19 53.5 -45t18.5 -62zM263 680q0 23 -15.5 34.5t-41.5 11.5t-41 -12t-15 -32 q0 -36 62 -61q22 11 36.5 26.5t14.5 32.5zM269 469q0 39 -69 66q-26 -14 -41.5 -30.5t-15.5 -33.5q0 -26 17.5 -38t45.5 -12q29 0 46 13t17 35z" />
<glyph unicode="&#x2079;" horiz-adv-x="416" d="M378 600q0 -57 -14 -103t-43 -79t-73.5 -50.5t-105.5 -17.5q-23 0 -46.5 3t-39.5 6l10 81q42 -12 82 -12q84 0 104 73q8 13 9.5 25t5.5 20q-14 -16 -36.5 -24.5t-48.5 -8.5q-70 0 -109 31t-39 95q0 39 13 68t37 49t56.5 30t71.5 10q89 0 127.5 -51.5t38.5 -144.5z M266 650q0 33 -14.5 51.5t-45.5 18.5q-29 0 -45 -18.5t-16 -47.5q0 -32 14.5 -49.5t45.5 -17.5q29 0 45 16t16 47z" />
<glyph unicode="&#x2080;" horiz-adv-x="464" d="M429 108q0 -107 -53 -167t-150 -60t-143.5 56t-46.5 164q0 106 53.5 166t148.5 60q93 0 142 -58t49 -161zM307 101q0 33 -3.5 58t-12 43.5t-23 28.5t-36.5 10q-41 0 -58 -34.5t-17 -99.5q0 -32 3.5 -57.5t12.5 -44t23.5 -28.5t35.5 -10q41 0 58 35t17 99z" />
<glyph unicode="&#x2081;" horiz-adv-x="296" d="M112 -111v324l-82 -30l-19 94l119 42h105v-430h-123z" />
<glyph unicode="&#x2082;" horiz-adv-x="372" d="M35 -111v86l72 73q46 47 68 76.5t22 56.5q0 25 -15 39t-44 14q-19 0 -42.5 -6t-41.5 -14l-15 89q25 11 61.5 17.5t68.5 6.5q73 0 114 -30.5t41 -91.5q0 -26 -5.5 -48t-16 -41.5t-25.5 -38.5t-36 -42l-50 -51q26 1 58.5 1.5t87.5 0.5v-97h-302z" />
<glyph unicode="&#x2083;" horiz-adv-x="364" d="M323 24q0 -65 -52.5 -104t-141.5 -39q-22 0 -50.5 3t-50.5 8l13 80q15 -5 37 -7.5t43 -2.5q38 0 59.5 15t21.5 40q0 31 -37.5 45.5t-106.5 5.5v76q65 0 99 15t34 46q0 21 -15.5 32t-44.5 11q-20 0 -44 -4.5t-42 -12.5l-11 77q25 9 60 14t65 5q73 0 111.5 -27t38.5 -80 q0 -36 -15.5 -59.5t-46.5 -37.5q38 -11 57 -37.5t19 -61.5z" />
<glyph unicode="&#x2084;" horiz-adv-x="415" d="M330 -21v-90h-108v90h-197l-7 79l147 261h165v-250h63v-90h-63zM221 249l-100 -182q9 0 22.5 0.5t28 0.5h26h23.5v181z" />
<glyph unicode="&#x2085;" horiz-adv-x="358" d="M324 34q0 -73 -51.5 -113t-139.5 -40q-21 0 -48.5 3t-45.5 8l8 79q16 -5 37.5 -8t42.5 -3q33 0 53.5 17t20.5 43q0 29 -21.5 44.5t-63.5 15.5q-13 0 -31.5 -1.5t-31.5 -3.5v244h249v-86h-139v-76h11q72 -1 111 -33t39 -90z" />
<glyph unicode="&#x2086;" horiz-adv-x="421" d="M388 38q0 -39 -14.5 -68t-39.5 -49t-57.5 -30t-69.5 -10q-169 0 -169 190q0 56 13.5 103t42 81t73 53t107.5 19q20 0 40.5 -1.5t36.5 -5.5l-10 -78q-14 3 -35 5.5t-38 2.5q-30 0 -49.5 -8t-32.5 -21q-17 -18 -25 -41t-12 -42q15 14 38.5 21t49.5 7q69 0 110 -32.5 t41 -95.5zM276 25q0 34 -16.5 50.5t-45.5 16.5t-46.5 -17t-17.5 -46q0 -33 16 -52t47 -19t47 17.5t16 49.5z" />
<glyph unicode="&#x2087;" horiz-adv-x="344" d="M318 238q-18 -36 -36 -79t-34.5 -88.5t-30 -92t-22.5 -89.5h-127q11 45 26.5 93t33 93t35.5 84.5t33 66.5q-5 0 -21.5 -0.5t-40.5 -1t-52.5 -0.5h-56.5v95h293v-81z" />
<glyph unicode="&#x2088;" horiz-adv-x="412" d="M379 12q0 -57 -46 -94t-134 -37q-78 0 -122 27.5t-44 86.5q0 35 19 60t52 46q-29 17 -46 41.5t-17 58.5q0 55 44 91t128 36q71 0 114.5 -27.5t43.5 -82.5q0 -30 -17.5 -55t-46.5 -44q35 -19 53.5 -45t18.5 -62zM263 211q0 23 -15.5 34.5t-41.5 11.5t-41 -12t-15 -32 q0 -36 62 -61q22 11 36.5 26.5t14.5 32.5zM269 0q0 39 -69 66q-26 -14 -41.5 -30.5t-15.5 -33.5q0 -26 17.5 -38t45.5 -12q29 0 46 13t17 35z" />
<glyph unicode="&#x2089;" horiz-adv-x="416" d="M378 131q0 -57 -14 -103t-43 -79t-73.5 -50.5t-105.5 -17.5q-23 0 -46.5 3t-39.5 6l10 81q42 -12 82 -12q84 0 104 73q8 13 9.5 25t5.5 20q-14 -16 -36.5 -24.5t-48.5 -8.5q-70 0 -109 31t-39 95q0 39 13 68t37 49t56.5 30t71.5 10q89 0 127.5 -51.5t38.5 -144.5z M266 181q0 33 -14.5 51.5t-45.5 18.5q-29 0 -45 -18.5t-16 -47.5q0 -32 14.5 -49.5t45.5 -17.5q29 0 45 16t16 47z" />
<glyph unicode="&#x20a2;" horiz-adv-x="664" d="M500 193q0 25 -14 40.5t-41 26.5v-140q55 18 55 73zM366 270q-21 4 -36.5 6.5t-26.5 4.5v-180q15 0 31.5 1t31.5 3v165zM366 578q-42 0 -63 -3v-156q11 -3 25.5 -5.5t37.5 -6.5v171zM224 562q-31 -12 -44 -30t-13 -40q0 -24 15 -40t42 -25v135zM633 220 q0 -77 -48.5 -132.5t-139.5 -80.5v-158h-79v144q-14 -2 -30.5 -3.5t-32.5 -1.5v-139h-79v141q-41 3 -82.5 9t-74.5 14l9 124q30 -11 68.5 -18.5t79.5 -12.5v181q-44 7 -78.5 20.5t-59 35t-37.5 53.5t-13 76q0 72 48 124t140 75v121h79v-109q12 2 30 2.5t33 1.5v105h79v-107 q70 -3 132 -17l-8 -117q-25 8 -56.5 13.5t-67.5 9.5v-174q93 -14 140.5 -58t47.5 -122z" />
<glyph unicode="&#x20ac;" horiz-adv-x="592" d="M565 40q-36 -23 -83.5 -37t-105.5 -14q-251 0 -286 231h-78v77h72v19q0 17 0.5 30t1.5 27h-74v77h83q25 119 103 177.5t193 58.5q48 0 92 -10.5t73 -25.5l-30 -103q-25 14 -61 23.5t-75 9.5q-60 0 -99.5 -32t-53.5 -98h194v-77h-206q-1 -20 -1 -26.5v-12.5v-17t1 -20h206 v-77h-196q11 -60 49 -92.5t110 -32.5q31 0 68.5 11t68.5 31z" />
<glyph unicode="&#x2113;" horiz-adv-x="514" d="M328 577q0 28 -10.5 43t-33.5 15q-27 0 -40.5 -21t-13.5 -67v-117q52 49 75 83t23 64zM488 208q-16 -112 -68.5 -165.5t-139.5 -53.5q-89 0 -133 40t-44 127v48l-57 -56l-39 108l96 87v190q0 205 191 205q85 0 125.5 -37.5t40.5 -105.5q0 -36 -12.5 -68.5t-39 -66.5 t-69 -74.5t-109.5 -95.5v-104q0 -47 14.5 -67t45.5 -20q16 0 28.5 6t22 20.5t17 39.5t13.5 63z" />
<glyph unicode="&#x2117;" horiz-adv-x="762" d="M380 675q71 0 133.5 -26.5t108.5 -72.5t73 -108.5t27 -133.5t-27 -133t-73.5 -108.5t-108.5 -73.5t-133 -27q-72 0 -134.5 27t-108.5 73t-72.5 108t-26.5 133t27 133.5t73 108.5t108.5 73t133.5 27zM380 587q-52 0 -97 -20t-79 -54t-54 -80.5t-20 -98.5t20 -98t54 -80.5 t79 -54.5t97 -20q51 0 96.5 19.5t79.5 54t53.5 80.5t19.5 98t-19.5 98.5t-53.5 81t-79.5 54.5t-96.5 20zM549 384q0 -30 -12 -56t-34 -45t-53.5 -29.5t-70.5 -10.5h-15t-16 1v-89h-92v353q32 1 62.5 1.5t62.5 0.5q81 0 124.5 -33t43.5 -93zM453 378q0 26 -18.5 42t-58.5 16 h-14t-14 -1v-116q6 -1 12.5 -1h15.5q33 0 55 15.5t22 44.5z" />
<glyph unicode="&#x2120;" horiz-adv-x="689" d="M559 394l-18 121l-5 47l-9 -43l-33 -125h-85l-33 128l-8 40l-2 -36l-19 -132h-86l45 281h109l34 -123l8 -41l7 39l34 125h110l46 -281h-95zM44 463q15 -6 30.5 -9t32.5 -3q18 0 27.5 7t9.5 20q0 15 -17 21t-38 14.5t-37.5 24.5t-16.5 51q0 41 32 66.5t95 25.5 q14 0 28.5 -1t28.5 -3l-4 -63q-14 4 -27 5.5t-26 1.5q-20 0 -28 -6.5t-8 -17.5q0 -10 8.5 -15.5t20.5 -10.5t26.5 -11t27 -15t20.5 -23t8 -35q0 -43 -33.5 -70.5t-98.5 -27.5q-18 0 -34 2t-32 6z" />
<glyph unicode="&#x2122;" horiz-adv-x="689" d="M188 598v-204h-91v204h-68v77h224v-77h-65zM559 394l-18 121l-5 47l-9 -43l-33 -125h-85l-33 128l-8 40l-2 -36l-19 -132h-86l45 281h109l34 -123l8 -41l7 39l34 125h109l47 -281h-95z" />
<glyph unicode="&#x2153;" horiz-adv-x="862" d="M112 358v324l-82 -30l-19 94l119 42h105v-430h-123zM814 24q0 -65 -52.5 -104t-141.5 -39q-22 0 -50.5 3t-50.5 8l13 80q15 -5 37 -7.5t43 -2.5q38 0 59.5 15t21.5 40q0 31 -37.5 45.5t-106.5 5.5v76q65 0 99 15t34 46q0 21 -15.5 32t-44.5 11q-20 0 -44 -4.5t-42 -12.5 l-11 77q25 9 60 14t65 5q73 0 111.5 -27t38.5 -80q0 -36 -15.5 -59.5t-46.5 -37.5q38 -11 57 -37.5t19 -61.5zM109 -150l-79 54l652 905l78 -55z" />
<glyph unicode="&#x2154;" horiz-adv-x="930" d="M883 24q0 -65 -52.5 -104t-141.5 -39q-22 0 -50.5 3t-50.5 8l13 80q15 -5 37 -7.5t43 -2.5q38 0 59.5 15t21.5 40q0 31 -37.5 45.5t-106.5 5.5v76q65 0 99 15t34 46q0 21 -15.5 32t-44.5 11q-20 0 -44 -4.5t-42 -12.5l-11 77q25 9 60 14t65 5q73 0 111.5 -27t38.5 -80 q0 -36 -15.5 -59.5t-46.5 -37.5q38 -11 57 -37.5t19 -61.5zM35 358v86l72 73q46 47 68 76.5t22 56.5q0 25 -15 39t-44 14q-19 0 -42.5 -6t-41.5 -14l-15 89q25 11 61.5 17.5t68.5 6.5q73 0 114 -30.5t41 -91.5q0 -26 -5.5 -48t-16 -41.5t-25.5 -38.5t-36 -42l-50 -51 q26 1 58.5 1.5t87.5 0.5v-97h-302zM183 -150l-79 54l652 905l78 -55z" />
<glyph unicode="&#x2155;" horiz-adv-x="848" d="M112 358v324l-82 -30l-19 94l119 42h105v-430h-123zM109 -150l-79 54l652 905l78 -55zM808 34q0 -73 -51.5 -113t-139.5 -40q-21 0 -48.5 3t-45.5 8l8 79q16 -5 37.5 -8t42.5 -3q33 0 53.5 17t20.5 43q0 29 -21.5 44.5t-63.5 15.5q-13 0 -31.5 -1.5t-31.5 -3.5v244h249 v-86h-139v-76h11q72 -1 111 -33t39 -90z" />
<glyph unicode="&#x2156;" horiz-adv-x="922" d="M35 358v86l72 73q46 47 68 76.5t22 56.5q0 25 -15 39t-44 14q-19 0 -42.5 -6t-41.5 -14l-15 89q25 11 61.5 17.5t68.5 6.5q73 0 114 -30.5t41 -91.5q0 -26 -5.5 -48t-16 -41.5t-25.5 -38.5t-36 -42l-50 -51q26 1 58.5 1.5t87.5 0.5v-97h-302zM183 -150l-79 54l652 905 l78 -55zM882 34q0 -73 -51.5 -113t-139.5 -40q-21 0 -48.5 3t-45.5 8l8 79q16 -5 37.5 -8t42.5 -3q33 0 53.5 17t20.5 43q0 29 -21.5 44.5t-63.5 15.5q-13 0 -31.5 -1.5t-31.5 -3.5v244h249v-86h-139v-76h11q72 -1 111 -33t39 -90z" />
<glyph unicode="&#x2157;" horiz-adv-x="867" d="M826 34q0 -73 -51.5 -113t-139.5 -40q-21 0 -48.5 3t-45.5 8l8 79q16 -5 37.5 -8t42.5 -3q33 0 53.5 17t20.5 43q0 29 -21.5 44.5t-63.5 15.5q-13 0 -31.5 -1.5t-31.5 -3.5v244h249v-86h-139v-76h11q72 -1 111 -33t39 -90zM323 493q0 -65 -52.5 -104t-141.5 -39 q-22 0 -50.5 3t-50.5 8l13 80q15 -5 37 -7.5t43 -2.5q38 0 59.5 15t21.5 40q0 31 -37.5 45.5t-106.5 5.5v76q65 0 99 15t34 46q0 21 -15.5 32t-44.5 11q-20 0 -44 -4.5t-42 -12.5l-11 77q25 9 60 14t65 5q73 0 111.5 -27t38.5 -80q0 -36 -15.5 -59.5t-46.5 -37.5 q38 -11 57 -37.5t19 -61.5zM127 -150l-79 54l652 905l78 -55z" />
<glyph unicode="&#x2158;" horiz-adv-x="953" d="M330 448v-90h-108v90h-197l-7 79l147 261h165v-250h63v-90h-63zM221 718l-100 -182q9 0 22.5 0.5t28 0.5h26h23.5v181zM213 -150l-79 54l652 905l78 -55zM912 34q0 -73 -51.5 -113t-139.5 -40q-21 0 -48.5 3t-45.5 8l8 79q16 -5 37.5 -8t42.5 -3q33 0 53.5 17t20.5 43 q0 29 -21.5 44.5t-63.5 15.5q-13 0 -31.5 -1.5t-31.5 -3.5v244h249v-86h-139v-76h11q72 -1 111 -33t39 -90z" />
<glyph unicode="&#x2159;" horiz-adv-x="871" d="M831 38q0 -39 -14.5 -68t-39.5 -49t-57.5 -30t-69.5 -10q-169 0 -169 190q0 56 13.5 103t42 81t73 53t107.5 19q20 0 40.5 -1.5t36.5 -5.5l-10 -78q-14 3 -35 5.5t-38 2.5q-30 0 -49.5 -8t-32.5 -21q-17 -18 -25 -41t-12 -42q15 14 38.5 21t49.5 7q69 0 110 -32.5 t41 -95.5zM719 25q0 34 -16.5 50.5t-45.5 16.5t-46.5 -17t-17.5 -46q0 -33 16 -52t47 -19t47 17.5t16 49.5zM112 358v324l-82 -30l-19 94l119 42h105v-430h-123zM109 -150l-79 54l652 905l78 -55z" />
<glyph unicode="&#x215a;" horiz-adv-x="902" d="M324 503q0 -73 -51.5 -113t-139.5 -40q-21 0 -48.5 3t-45.5 8l8 79q16 -5 37.5 -8t42.5 -3q33 0 53.5 17t20.5 43q0 29 -21.5 44.5t-63.5 15.5q-13 0 -31.5 -1.5t-31.5 -3.5v244h249v-86h-139v-76h11q72 -1 111 -33t39 -90zM862 38q0 -39 -14.5 -68t-39.5 -49t-57.5 -30 t-69.5 -10q-169 0 -169 190q0 56 13.5 103t42 81t73 53t107.5 19q20 0 40.5 -1.5t36.5 -5.5l-10 -78q-14 3 -35 5.5t-38 2.5q-30 0 -49.5 -8t-32.5 -21q-17 -18 -25 -41t-12 -42q15 14 38.5 21t49.5 7q69 0 110 -32.5t41 -95.5zM750 25q0 34 -16.5 50.5t-45.5 16.5 t-46.5 -17t-17.5 -46q0 -33 16 -52t47 -19t47 17.5t16 49.5zM140 -150l-79 54l652 905l78 -55z" />
<glyph unicode="&#x215b;" horiz-adv-x="885" d="M112 358v324l-82 -30l-19 94l119 42h105v-430h-123zM109 -150l-79 54l652 905l78 -55zM836 12q0 -57 -46 -94t-134 -37q-78 0 -122 27.5t-44 86.5q0 35 19 60t52 46q-29 17 -46 41.5t-17 58.5q0 55 44 91t128 36q71 0 114.5 -27.5t43.5 -82.5q0 -30 -17.5 -55t-46.5 -44 q35 -19 53.5 -45t18.5 -62zM720 211q0 23 -15.5 34.5t-41.5 11.5t-41 -12t-15 -32q0 -36 62 -61q22 11 36.5 26.5t14.5 32.5zM726 0q0 39 -69 66q-26 -14 -41.5 -30.5t-15.5 -33.5q0 -26 17.5 -38t45.5 -12q29 0 46 13t17 35z" />
<glyph unicode="&#x215c;" horiz-adv-x="904" d="M323 493q0 -65 -52.5 -104t-141.5 -39q-22 0 -50.5 3t-50.5 8l13 80q15 -5 37 -7.5t43 -2.5q38 0 59.5 15t21.5 40q0 31 -37.5 45.5t-106.5 5.5v76q65 0 99 15t34 46q0 21 -15.5 32t-44.5 11q-20 0 -44 -4.5t-42 -12.5l-11 77q25 9 60 14t65 5q73 0 111.5 -27t38.5 -80 q0 -36 -15.5 -59.5t-46.5 -37.5q38 -11 57 -37.5t19 -61.5zM127 -150l-79 54l652 905l78 -55zM854 12q0 -57 -46 -94t-134 -37q-78 0 -122 27.5t-44 86.5q0 35 19 60t52 46q-29 17 -46 41.5t-17 58.5q0 55 44 91t128 36q71 0 114.5 -27.5t43.5 -82.5q0 -30 -17.5 -55 t-46.5 -44q35 -19 53.5 -45t18.5 -62zM738 211q0 23 -15.5 34.5t-41.5 11.5t-41 -12t-15 -32q0 -36 62 -61q22 11 36.5 26.5t14.5 32.5zM744 0q0 39 -69 66q-26 -14 -41.5 -30.5t-15.5 -33.5q0 -26 17.5 -38t45.5 -12q29 0 46 13t17 35z" />
<glyph unicode="&#x215d;" horiz-adv-x="917" d="M324 503q0 -73 -51.5 -113t-139.5 -40q-21 0 -48.5 3t-45.5 8l8 79q16 -5 37.5 -8t42.5 -3q33 0 53.5 17t20.5 43q0 29 -21.5 44.5t-63.5 15.5q-13 0 -31.5 -1.5t-31.5 -3.5v244h249v-86h-139v-76h11q72 -1 111 -33t39 -90zM140 -150l-79 54l652 905l78 -55zM867 12 q0 -57 -46 -94t-134 -37q-78 0 -122 27.5t-44 86.5q0 35 19 60t52 46q-29 17 -46 41.5t-17 58.5q0 55 44 91t128 36q71 0 114.5 -27.5t43.5 -82.5q0 -30 -17.5 -55t-46.5 -44q35 -19 53.5 -45t18.5 -62zM751 211q0 23 -15.5 34.5t-41.5 11.5t-41 -12t-15 -32q0 -36 62 -61 q22 11 36.5 26.5t14.5 32.5zM757 0q0 39 -69 66q-26 -14 -41.5 -30.5t-15.5 -33.5q0 -26 17.5 -38t45.5 -12q29 0 46 13t17 35z" />
<glyph unicode="&#x215e;" horiz-adv-x="873" d="M823 12q0 -57 -46 -94t-134 -37q-78 0 -122 27.5t-44 86.5q0 35 19 60t52 46q-29 17 -46 41.5t-17 58.5q0 55 44 91t128 36q71 0 114.5 -27.5t43.5 -82.5q0 -30 -17.5 -55t-46.5 -44q35 -19 53.5 -45t18.5 -62zM707 211q0 23 -15.5 34.5t-41.5 11.5t-41 -12t-15 -32 q0 -36 62 -61q22 11 36.5 26.5t14.5 32.5zM713 0q0 39 -69 66q-26 -14 -41.5 -30.5t-15.5 -33.5q0 -26 17.5 -38t45.5 -12q29 0 46 13t17 35zM318 707q-18 -36 -36 -79t-34.5 -88.5t-30 -92t-22.5 -89.5h-127q11 45 26.5 93t33 93t35.5 84.5t33 66.5q-5 0 -21.5 -0.5 t-40.5 -1t-52.5 -0.5h-56.5v95h293v-81zM96 -150l-79 54l652 905l78 -55z" />
<glyph unicode="&#x215f;" horiz-adv-x="512" d="M112 358v324l-82 -30l-19 94l119 42h105v-430h-123zM109 -150l-79 54l652 905l78 -55z" />
<glyph unicode="&#x2190;" horiz-adv-x="1000" d="M249 242l285 -271l-81 -81l-408 408l408 408l81 -81l-284 -271h750v-112h-751z" />
<glyph unicode="&#x2191;" horiz-adv-x="1000" d="M827 299l-271 285v-750h-112v750l-271 -285l-81 81l408 409l408 -409z" />
<glyph unicode="&#x2192;" horiz-adv-x="1000" d="M0 242v112h750l-284 271l81 81l408 -408l-408 -408l-81 81l285 271h-751z" />
<glyph unicode="&#x2193;" horiz-adv-x="1000" d="M908 216l-408 -409l-408 409l81 81l271 -285v750h112v-750l271 285z" />
<glyph unicode="&#x2194;" horiz-adv-x="1350" d="M997 11l-81 81l185 172h-852l185 -172l-81 -81l-308 309l308 308l81 -81l-184 -172h850l-184 172l81 81l308 -308z" />
<glyph unicode="&#x2195;" horiz-adv-x="762" d="M381 -260l-308 308l81 82l171 -185v706l-171 -185l-81 82l308 308l308 -308l-81 -82l-171 186v-708l171 186l81 -82z" />
<glyph unicode="&#x2196;" horiz-adv-x="823" d="M725 -40l-530 531l10 -394h-115v578h577v-115l-393 10l531 -531z" />
<glyph unicode="&#x2197;" horiz-adv-x="823" d="M18 39l531 531l-393 -10v115h578v-578h-116l10 394l-530 -531z" />
<glyph unicode="&#x2198;" horiz-adv-x="823" d="M98 637l530 -531l-10 394h116v-578h-578v115l393 -10l-531 531z" />
<glyph unicode="&#x2199;" horiz-adv-x="823" d="M805 558l-531 -531l393 10v-115h-577v578h115l-10 -394l530 531z" />
<glyph unicode="&#x21a8;" horiz-adv-x="762" d="M381 -112l-288 288l81 82l151 -165v576l-151 -165l-81 81l288 288l288 -288l-81 -81l-151 165v-577l151 166l81 -82zM106 -237v103h550v-103h-550z" />
<glyph unicode="&#x2202;" horiz-adv-x="634" d="M414 238q0 45 -27 74.5t-82 29.5q-52 0 -84.5 -36t-32.5 -91t27.5 -83.5t75.5 -28.5q26 0 48.5 10t39 28t26 43t9.5 54zM572 399q0 -93 -24 -177t-79 -144q-35 -39 -86.5 -62t-109.5 -23q-52 0 -91.5 15t-66 43t-40 66.5t-13.5 86.5q0 53 17.5 98t50 78t78.5 51.5 t102 18.5q45 0 78 -17.5t52 -46.5q-2 22 -3.5 37t-3.5 29q-6 44 -23.5 77.5t-44 56t-61 33.5t-74.5 11l18 107q73 -1 133 -24.5t102.5 -67t65.5 -106t23 -140.5z" />
<glyph unicode="&#x2206;" horiz-adv-x="628" d="M1 0l234 675h150l240 -675h-624zM331 441q-7 22 -14 46t-11 45h-1q-5 -23 -12 -48t-15 -50l-109 -317h275z" />
<glyph unicode="&#x220f;" horiz-adv-x="784" d="M646 622v-863h-119v863h-268v-863h-121v863h-97v108h702v-108h-97z" />
<glyph unicode="&#x2211;" horiz-adv-x="607" d="M36 -241v99l291 396l-273 376v100h489v-108h-332l264 -364l-288 -387h371v-112h-522z" />
<glyph unicode="&#x2212;" d="M39 242v111h472v-111h-472z" />
<glyph unicode="&#x221a;" horiz-adv-x="616" d="M445 236l-72 -236h-148l-47 141l-88 260h-87v96h192l30 -96l50 -162q8 -23 15 -47.5t12 -49.5h1q5 26 10.5 48.5t10.5 43.5l141 524h140z" />
<glyph unicode="&#x221e;" horiz-adv-x="984" d="M392 296q-47 35 -82.5 55.5t-65.5 20.5q-38 0 -57.5 -22t-19.5 -51q0 -32 20.5 -52.5t57.5 -20.5q31 0 67.5 19t79.5 51zM818 300q0 31 -20.5 51.5t-57.5 20.5q-32 0 -69.5 -20t-79.5 -51q48 -35 83.5 -55t65.5 -20q38 0 58 22t20 52zM940 304q0 -39 -13.5 -73t-39.5 -60 t-64.5 -41t-88.5 -15q-57 0 -117 28t-129 79q-27 -20 -57 -39.5t-61.5 -34.5t-64.5 -24t-68 -9q-48 0 -84.5 14t-60.5 38.5t-36 57t-12 69.5q0 41 14.5 75.5t41 60t63.5 39.5t82 14q61 0 122 -29t128 -80q26 19 55.5 38.5t61.5 35.5t65 25.5t67 9.5q47 0 83.5 -13.5 t61.5 -37.5t38 -57t13 -71z" />
<glyph unicode="&#x222b;" horiz-adv-x="345" d="M316 863q-9 3 -21 5t-24 2q-16 0 -27 -5.5t-18.5 -19t-11 -39t-3.5 -65.5q0 -37 1.5 -94.5t3 -116.5t5 -164t5.5 -174t3.5 -134t1.5 -111q0 -142 -40.5 -204.5t-126.5 -62.5q-14 0 -29 1.5t-27 4.5v110q9 -3 21 -4.5t22 -1.5q17 0 28.5 5.5t18.5 19.5t10.5 39.5t3.5 66.5 q0 36 -1.5 93t-3 113t-4.5 162.5t-5 176.5t-3.5 135t-1.5 112q0 72 11.5 123t33 83t53.5 46.5t73 14.5q11 0 25.5 -2t26.5 -5v-110z" />
<glyph unicode="&#x2248;" d="M513 174q-28 -25 -66 -42.5t-75 -17.5q-35 0 -59.5 9t-45.5 20t-42 20t-47 9q-28 0 -52.5 -13t-45.5 -30l-42 86q24 23 59.5 43.5t77.5 20.5q34 0 58.5 -9t46.5 -20.5t44 -20.5t52 -9q51 0 96 39l41 -85v0zM512 375q-27 -27 -62 -45.5t-78 -18.5q-32 0 -55.5 9t-44.5 20 t-43 20t-51 9q-28 0 -53.5 -12.5t-46.5 -29.5l-40 85q28 26 65.5 45t78.5 19q33 0 58.5 -9t47.5 -20.5t42.5 -20.5t43.5 -9q26 0 50 12t45 32l43 -86v0z" />
<glyph unicode="&#x2260;" d="M274 150l-48 -121h-114l48 121h-107v103h147l35 88h-182v103h222l48 121h115l-48 -121h107v-103h-148l-35 -88h183v-103h-223z" />
<glyph unicode="&#x2264;" d="M71 0v107h408v-107h-408zM388 145l-333 257l332 257l81 -87l-242 -169l242 -169z" />
<glyph unicode="&#x2265;" d="M71 0v107h408v-107h-408zM163 145l-81 87l242 169l-242 169l80 89l333 -257z" />
<glyph unicode="&#x23af;" horiz-adv-x="960" d="M-10 242v112h980v-112h-980z" />
<glyph unicode="&#x25ca;" horiz-adv-x="626" d="M308 545l-145 -203l154 -213l147 202zM355 -9h-80l-253 348l251 345h78l253 -348z" />
<glyph unicode="&#xe000;" horiz-adv-x="495" d="M0 495h495v-495h-495v495z" />
<glyph unicode="&#xe020;" horiz-adv-x="1216" d="M38 -180v402h89v-331h102v-71h-191zM524 -167q-19 -8 -42 -13.5t-50 -5.5q-45 0 -76 14t-49.5 40t-27 62.5t-8.5 82.5q0 48 10.5 87t31.5 67.5t53 44t75 15.5q22 0 42.5 -4t36.5 -9l-18 -71q-27 11 -55 11q-42 0 -61 -35.5t-19 -98.5q0 -132 79 -132q31 0 59 13zM38 333 v402h89v-331h102v-71h-191zM497 333l-20 79h-119l-20 -79h-86l104 402h131l104 -402h-94zM429 610q-3 15 -6 29t-5 31h-1q-2 -16 -4.5 -30.5t-6.5 -28.5l-33 -133h90zM736 664v-331h-88v331h-81v71h250v-71h-81zM1057 333l-87 230q-14 37 -22 80h-2q2 -36 3 -77t1 -92v-141 h-79v402h128l80 -206q7 -17 12.5 -39t9.5 -39h2q-1 19 -2 42t-1.5 46t-0.5 45.5v40.5v110h79v-402h-121z" />
<glyph unicode="&#xe021;" horiz-adv-x="1216" d="M279 -167q-18 -8 -41 -13.5t-50 -5.5q-45 0 -76 14t-50 40t-27.5 62.5t-8.5 82.5q0 48 10.5 87t32 67.5t53.5 44t75 15.5q22 0 42.5 -4t36.5 -9l-18 -71q-27 11 -54 11q-43 0 -62.5 -35.5t-19.5 -98.5q0 -132 80 -132q17 0 31 3.5t28 9.5zM542 -180l-21 79h-119l-20 -79 h-86l104 402h131l105 -402h-94zM473 97q-3 15 -6 29t-5 31h-1q-2 -16 -4.5 -30.5t-6.5 -28.5l-33 -133h90zM681 -180v401q23 2 52.5 2.5t59.5 0.5q73 0 107 -33t34 -96q0 -66 -40.5 -102.5t-106.5 -36.5h-17v-136h-89zM770 23q10 -2 20 -2q27 0 40 18.5t13 50.5t-12.5 50 t-41.5 18h-19v-135zM38 333v402h89v-331h102v-71h-191zM497 333l-20 79h-119l-20 -79h-86l104 402h131l104 -402h-94zM429 610q-3 15 -6 29t-5 31h-1q-2 -16 -4.5 -30.5t-6.5 -28.5l-33 -133h90zM736 664v-331h-88v331h-81v71h250v-71h-81zM1057 333l-87 230q-14 37 -22 80 h-2q2 -36 3 -77t1 -92v-141h-79v402h128l80 -206q7 -17 12.5 -39t9.5 -39h2q-1 19 -2 42t-1.5 46t-0.5 45.5v40.5v110h79v-402h-121z" />
<glyph unicode="&#xe040;" horiz-adv-x="923" d="M185 664v-331h-88v331h-80v71h248v-71h-80zM486 333l-19 79h-120l-20 -79h-86l105 402h130l104 -402h-94zM419 610q-4 15 -6.5 29t-4.5 31h-1q-2 -16 -5 -30.5t-6 -28.5l-34 -133h90zM627 735q26 1 59.5 1.5t64.5 0.5q72 0 103.5 -27t31.5 -77q0 -26 -12 -49.5t-41 -37.5 q33 -10 48.5 -33.5t15.5 -56.5q0 -26 -9 -48.5t-28 -39.5t-48.5 -27t-69.5 -10q-16 0 -44.5 0.5t-70.5 1.5v402zM715 570h26q53 0 53 54q0 23 -12 36t-37 13h-14.5t-15.5 -1v-102zM715 399q6 -2 15 -2h16q27 0 42 15t15 41t-15.5 40t-46.5 14h-26v-108zM38 -180v402h89v-331 h102v-71h-191zM282 -180v402h89v-402h-89zM633 -180l-87 230q-14 37 -22 80h-1q2 -36 2.5 -77t0.5 -92v-141h-79v402h128l81 -206q6 -17 11.5 -39t10.5 -39q-1 19 -1.5 42l-1 46t-0.5 45.5v40.5v110h79v-402h-121z" />
<glyph unicode="&#xe041;" horiz-adv-x="1327" d="M38 -180v402h89v-331h102v-71h-191zM282 -180v402h89v-402h-89zM633 -180l-87 230q-14 37 -22 80h-1q2 -36 2.5 -77t0.5 -92v-141h-79v402h128l81 -206q6 -17 11.5 -39t10.5 -39q-1 19 -1.5 42l-1 46t-0.5 45.5v40.5v110h79v-402h-121zM38 333v401q23 2 52.5 2.5 t59.5 0.5q73 0 107 -33t34 -96q0 -66 -41 -102.5t-107 -36.5h-16v-136h-89zM127 536q10 -2 19 -2q27 0 40.5 18.5t13.5 50.5t-12.5 50t-41.5 18h-19v-135zM519 333l-71 160h-11v-160h-89v402q24 2 53.5 2h60.5q66 0 102 -27t36 -90q0 -45 -19.5 -73t-49.5 -37 q5 -11 11 -21.5t11 -21.5l65 -134h-99zM437 558q2 0 8 -0.5t11 -0.5q53 0 53 58q0 28 -12 42t-39 14h-21v-113zM990 538q0 -46 -10.5 -84.5t-32 -67t-55 -44.5t-78.5 -16t-76.5 14.5t-50.5 41.5t-27.5 64.5t-8.5 83.5q0 45 10.5 84t32.5 67t55 44t78 16q46 0 77 -14.5 t50 -41t27.5 -64t8.5 -83.5zM898 532q0 73 -19.5 105.5t-57.5 32.5q-77 0 -77 -134q0 -73 19.5 -105.5t57.5 -32.5q37 0 57 33t20 101zM1055 333v401q23 2 52 2.5t59 0.5q73 0 107 -33t34 -96q0 -66 -40.5 -102.5t-106.5 -36.5h-17v-136h-88zM1143 536q10 -2 20 -2 q27 0 40 18.5t13 50.5t-12.5 50t-40.5 18h-20v-135z" />
<glyph unicode="&#xe048;" horiz-adv-x="961" d="M223 662q-14 5 -30 8.5t-29 3.5q-23 0 -35 -12t-12 -32q0 -17 10.5 -28t26 -21t33.5 -20.5t33.5 -25t26 -36t10.5 -52.5q0 -52 -36.5 -86t-102.5 -34q-49 0 -89 12l16 75q19 -8 36 -13t34 -5q25 0 37 12.5t12 32.5q0 18 -10.5 30t-25.5 22t-33.5 20.5t-33.5 25 t-25.5 34.5t-10.5 51q0 51 36 84t101 33q39 0 77 -9zM614 481q0 -72 -35.5 -113.5t-115.5 -41.5q-42 0 -69.5 10.5t-44 30t-23.5 45.5t-7 58v265h89v-259q0 -38 12.5 -58.5t45.5 -20.5q34 0 46.5 20.5t12.5 58.5v259h89v-254zM689 333v401q23 2 52 2.5t60 0.5q73 0 107 -33 t34 -96q0 -66 -40.5 -102.5t-106.5 -36.5h-17v-136h-89zM778 536q10 -2 20 -2q26 0 39.5 18.5t13.5 50.5t-12.5 50t-41.5 18h-19v-135z" />
<glyph unicode="&#xe049;" horiz-adv-x="776" d="M46 -221v375h82v-375h-82zM373 -221l-81 215q-6 18 -11 35.5t-10 38.5h-1q2 -33 2.5 -71t0.5 -86v-132h-74v375h120l75 -191q6 -17 11.5 -37t9.5 -37h1q-1 18 -1.5 39.5l-1 43t-0.5 42.5v38v102h73v-375h-113zM640 91v-97h93v-61h-93v-154h-82v375h181v-63h-99z" />
<glyph unicode="&#xf6c9;" horiz-adv-x="367" d="M86 716l-21 70l208 75l29 -92z" />
<glyph unicode="&#xf6ca;" horiz-adv-x="462" d="M229 715l-164 82l31 68l135 -55l137 55l29 -64z" />
<glyph unicode="&#xf6cb;" horiz-adv-x="484" d="M419 788q0 -29 -20 -49t-49 -20t-49 20t-20 49t20 49t49 20t49 -20t20 -49zM203 788q0 -29 -20 -49t-49 -20t-49 20t-20 49t20 49t49 20t49 -20t20 -49z" />
<glyph unicode="&#xf6ce;" horiz-adv-x="367" d="M281 716l-216 53l30 92l207 -75z" />
<glyph unicode="&#xf6cf;" horiz-adv-x="538" d="M124 714l-59 51l127 149l73 -63zM316 713l-57 53l145 141l68 -67z" />
<glyph unicode="&#xf6d0;" horiz-adv-x="424" d="M65 741v81h293v-81h-293z" />
<glyph unicode="&#xf8e6;" horiz-adv-x="1000" d="M444 -320v1300h112v-1300h-112z" />
<glyph unicode="&#xfb00;" horiz-adv-x="656" d="M410 610q-20 7 -44.5 11t-46.5 4q-50 0 -73.5 -24.5t-23.5 -72.5v-31h174v29q0 48 14 84zM667 625q-8 2 -26 5.5t-38 3.5q-41 0 -60 -23.5t-19 -75.5v-38h116v-99h-116v-398h-128v398h-174v-398h-127v398h-87v99h87v24q0 48 13.5 86t41.5 65.5t72 42t105 14.5q36 0 76 -6 t73 -16q47 31 124 31q24 0 45.5 -2.5t30.5 -4.5z" />
<glyph unicode="&#xfb01;" horiz-adv-x="595" d="M399 0v398h-177v-398h-127v398h-87v99h87v16q0 108 61 167t189 59q39 0 78.5 -5t77.5 -13l-23 -107q-35 9 -71 14.5t-69 5.5q-59 0 -87.5 -28.5t-28.5 -82.5v-26h304v-497h-127z" />
<glyph unicode="&#xfb02;" horiz-adv-x="595" d="M399 0v629q-38 6 -76 6q-52 0 -76.5 -24.5t-24.5 -77.5v-36h109v-99h-109v-398h-127v398h-87v99h87v32q0 49 13 87.5t41.5 65.5t75 41.5t111.5 14.5q56 0 110.5 -5.5t79.5 -9.5v-723h-127z" />
<glyph unicode="&#xfb03;" horiz-adv-x="895" d="M414 608q-22 8 -47 12.5t-48 4.5q-50 0 -73.5 -24.5t-23.5 -72.5v-31h174v16q0 27 4.5 51t13.5 44zM700 0v398h-176v-398h-128v398h-174v-398h-127v398h-87v99h87v24q0 48 13.5 86t41.5 65.5t72 42t105 14.5q38 0 83.5 -7.5t80.5 -18.5q28 18 67 27t89 9q39 0 78.5 -5 t77.5 -13l-23 -107q-35 9 -71 14.5t-69 5.5q-59 0 -87.5 -28.5t-28.5 -82.5v-26h304v-497h-128z" />
<glyph unicode="&#xfb04;" horiz-adv-x="895" d="M411 610q-32 9 -50 12t-42 3q-50 0 -73.5 -25t-23.5 -72v-31h174v32q0 45 15 81zM700 0v629q-34 6 -76 6q-48 0 -74 -23t-26 -79v-36h109v-99h-109v-398h-128v398h-174v-398h-127v398h-87v99h87v24q0 47 13 85.5t41.5 65.5t71.5 41.5t106 14.5q32 0 72 -5.5t85 -17.5 q32 17 67.5 25t86.5 8q38 0 88.5 -4t101.5 -11v-723h-128z" />
<glyph horiz-adv-x="656" d="M410 610q-20 7 -44.5 11t-46.5 4q-50 0 -73.5 -24.5t-23.5 -72.5v-31h174v29q0 48 14 84zM667 625q-8 2 -26 5.5t-38 3.5q-41 0 -60 -23.5t-19 -75.5v-38h116v-99h-116v-398h-128v398h-174v-398h-127v398h-87v99h87v24q0 48 13.5 86t41.5 65.5t72 42t105 14.5q36 0 76 -6 t73 -16q47 31 124 31q24 0 45.5 -2.5t30.5 -4.5z" />
<glyph horiz-adv-x="895" d="M414 608q-22 8 -47 12.5t-48 4.5q-50 0 -73.5 -24.5t-23.5 -72.5v-31h174v16q0 27 4.5 51t13.5 44zM700 0v398h-176v-398h-128v398h-174v-398h-127v398h-87v99h87v24q0 48 13.5 86t41.5 65.5t72 42t105 14.5q38 0 83.5 -7.5t80.5 -18.5q28 18 67 27t89 9q39 0 78.5 -5 t77.5 -13l-23 -107q-35 9 -71 14.5t-69 5.5q-59 0 -87.5 -28.5t-28.5 -82.5v-26h304v-497h-128z" />
<glyph horiz-adv-x="895" d="M411 610q-32 9 -50 12t-42 3q-50 0 -73.5 -25t-23.5 -72v-31h174v32q0 45 15 81zM700 0v629q-34 6 -76 6q-48 0 -74 -23t-26 -79v-36h109v-99h-109v-398h-128v398h-174v-398h-127v398h-87v99h87v24q0 47 13 85.5t41.5 65.5t71.5 41.5t106 14.5q32 0 72 -5.5t85 -17.5 q32 17 67.5 25t86.5 8q38 0 88.5 -4t101.5 -11v-723h-128z" />
<glyph horiz-adv-x="595" d="M399 0v398h-177v-398h-127v398h-87v99h87v16q0 108 61 167t189 59q39 0 78.5 -5t77.5 -13l-23 -107q-35 9 -71 14.5t-69 5.5q-59 0 -87.5 -28.5t-28.5 -82.5v-26h304v-497h-127z" />
<glyph horiz-adv-x="595" d="M8 497h87v33q0 208 194 208q11 0 22.5 -0.5t20 -1.5t13.5 -2t7 -1l-9 -105q-29 6 -51 6q-35 0 -52.5 -23t-17.5 -71v-43h304v-497h-127v398h-177v-398h-127v398h-87v99zM542 646q0 -31 -22.5 -53t-54.5 -22t-54.5 22t-22.5 53t22.5 53t54.5 22t54.5 -22t22.5 -53z" />
<glyph horiz-adv-x="595" d="M399 0v629q-38 6 -76 6q-52 0 -76.5 -24.5t-24.5 -77.5v-36h109v-99h-109v-398h-127v398h-87v99h87v32q0 49 13 87.5t41.5 65.5t75 41.5t111.5 14.5q56 0 110.5 -5.5t79.5 -9.5v-723h-127z" />
<glyph horiz-adv-x="1190" d="M524 398v-398h-128v398h-174v-398h-127v398h-87v99h87v24q0 48 13.5 86t41.5 65t72 41.5t105 14.5q37 0 79.5 -6.5t77.5 -16.5q29 16 66.5 24.5t87.5 8.5q56 0 110.5 -5.5t79.5 -9.5v-207q0 -23 -2 -50.5t-6 -46.5h1q19 41 59 64.5t91 23.5q89 0 136 -61t47 -172 q0 -63 -18 -115t-52.5 -90t-85 -58.5t-113.5 -20.5q-62 0 -113 9t-72 15v615q-37 6 -76 6q-52 0 -76 -24.5t-24 -77.5v-36h109v-99h-109zM411 610q-21 7 -45.5 11t-46.5 4q-50 0 -73.5 -24.5t-23.5 -72.5v-31h174v32q0 45 15 81zM1019 261q0 70 -20.5 105t-63.5 35 q-24 0 -44 -13t-34 -35.5t-21.5 -51.5t-7.5 -60v-139q7 -2 25 -6t42 -4q28 0 50.5 9.5t39 29.5t25.5 52.5t9 77.5z" />
<glyph horiz-adv-x="888" d="M718 261q0 140 -85 140q-24 0 -44 -13t-34 -35.5t-21.5 -51.5t-7.5 -60v-139q7 -2 25 -6t42 -4q58 0 91.5 40.5t33.5 128.5zM852 274q0 -63 -18 -115t-52.5 -90t-85 -58.5t-113.5 -20.5q-62 0 -112.5 9t-71.5 15v615q-38 6 -76 6q-52 0 -76.5 -24.5t-24.5 -77.5v-36h109 v-99h-109v-398h-127v398h-87v99h87v32q0 49 13 87.5t41.5 65.5t75 41.5t111.5 14.5q56 0 110.5 -5.5t79.5 -9.5v-207q0 -23 -2 -50.5t-6 -46.5h2q19 41 58.5 64.5t90.5 23.5q89 0 136 -61t47 -172z" />
<glyph horiz-adv-x="1202" d="M524 398v-398h-128v398h-174v-398h-127v398h-87v99h87v24q0 48 13.5 86t41.5 65t72 41.5t105 14.5q37 0 79.5 -6.5t77.5 -16.5q29 16 66.5 24.5t87.5 8.5q56 0 110.5 -5.5t79.5 -9.5v-207q0 -26 -2 -53t-7 -48h2q22 43 64.5 67.5t98.5 24.5q41 0 69.5 -12t46 -33.5 t25 -50t7.5 -62.5v-349h-127v318q0 41 -14 61.5t-48 20.5q-24 0 -45 -12.5t-36.5 -35t-24.5 -52t-9 -61.5v-239h-128v629q-37 6 -76 6q-52 0 -76 -24.5t-24 -77.5v-36h109v-99h-109zM411 610q-21 7 -45.5 11t-46.5 4q-50 0 -73.5 -24.5t-23.5 -72.5v-31h174v32q0 45 15 81z " />
<glyph horiz-adv-x="898" d="M703 0v318q0 39 -13 60.5t-48 21.5q-24 0 -45.5 -12.5t-37 -34.5t-24.5 -51t-9 -62v-240h-127v629q-42 6 -76 6q-54 0 -77.5 -26t-23.5 -76v-36h109v-99h-109v-398h-127v398h-87v99h87v32q0 54 13.5 90.5t43 64t74 41t110.5 13.5q38 0 86 -3.5t104 -11.5v-206 q0 -23 -2 -51t-7 -51h2q22 42 63.5 67t99.5 25q42 0 70.5 -12t45.5 -34t24.5 -50.5t7.5 -61.5v-349h-127z" />
<glyph horiz-adv-x="897" d="M828 -37q0 -52 -10 -90.5t-32.5 -65.5t-59.5 -41t-91 -14q-17 0 -36 2.5t-35 7.5l8 109q15 -5 31 -8.5t29 -3.5q20 0 33 5t20.5 15.5t11 27.5t3.5 43v448h-176v-398h-128v398h-174v-398h-127v398h-87v99h87v24q0 48 13.5 86t41.5 65.5t72 42t105 14.5q38 0 83.5 -7.5 t80.5 -18.5q28 18 67 27t89 9q39 0 78.5 -5t77.5 -13l-23 -107q-35 9 -71 14.5t-69 5.5q-59 0 -87.5 -28.5t-28.5 -82.5v-26h304v-534zM414 608q-22 8 -47 12.5t-48 4.5q-50 0 -73.5 -24.5t-23.5 -72.5v-31h174v16q0 27 4.5 51t13.5 44z" />
<glyph horiz-adv-x="593" d="M526 -37q0 -52 -10 -90.5t-32.5 -65.5t-59.5 -41t-91 -14q-17 0 -36 2.5t-35 7.5l8 109q15 -5 31 -8.5t29 -3.5q39 0 54 20t15 71v448h-177v-398h-127v398h-87v99h87v16q0 108 61 167t189 59q39 0 78.5 -5t77.5 -13l-23 -107q-35 9 -71 14.5t-69 5.5q-59 0 -87.5 -28.5 t-28.5 -82.5v-26h304v-534z" />
<glyph horiz-adv-x="1154" d="M411 610q-21 7 -45.5 11t-46.5 4q-50 0 -73.5 -24.5t-23.5 -72.5v-31h174v32q0 45 15 81zM524 398v-398h-128v398h-174v-398h-127v398h-87v99h87v24q0 48 13.5 86t41.5 65t72 41.5t105 14.5q37 0 79.5 -6.5t77.5 -16.5q29 16 66.5 24.5t87.5 8.5q56 0 110.5 -5.5 t79.5 -9.5v-433l145 207h156l-174 -227l187 -270h-160l-154 246v-246h-128v629q-37 6 -76 6q-52 0 -76 -24.5t-24 -77.5v-36h109v-99h-109z" />
<glyph horiz-adv-x="852" d="M399 629q-38 6 -76 6q-52 0 -76.5 -24.5t-24.5 -77.5v-36h109v-99h-109v-398h-127v398h-87v99h87v32q0 49 13 87.5t41.5 65.5t75 41.5t111.5 14.5q56 0 110.5 -5.5t79.5 -9.5v-433l145 207h156l-174 -227l187 -270h-160l-154 246v-246h-127v629z" />
<glyph horiz-adv-x="462" d="M367 715l-136 55l-137 -55l-29 66l168 84l164 -83z" />
<glyph horiz-adv-x="326" d="M139 588l-74 40l104 183l92 -48z" />
<glyph horiz-adv-x="505" d="M440 810q-46 -82 -126 -82q-23 0 -40 6.5t-37 19t-28.5 17t-21.5 4.5q-33 0 -58 -43l-64 44q46 82 126 82q23 0 40.5 -6.5t37 -19t28.5 -17t22 -4.5q17 0 31 10.5t26 31.5z" />
<glyph horiz-adv-x="343" d="M333 648q0 -28 -20.5 -48.5t-48.5 -20.5q-29 0 -49 20.5t-20 48.5q0 29 20 49t49 20t49 -20t20 -49zM148 648q0 -28 -20.5 -48.5t-48.5 -20.5q-29 0 -49 20t-20 49t20 49t49 20t49 -20t20 -49z" />
<glyph horiz-adv-x="415" d="M349 859q0 -28 -9 -53t-27.5 -43.5t-45.5 -29t-61 -10.5t-60.5 10.5t-44.5 29.5t-27 43.5t-9 52.5h76q0 -24 19 -40.5t47 -16.5q30 0 48 16t18 41h76z" />
<glyph horiz-adv-x="397" d="M332 828q0 -54 -38.5 -87t-99.5 -33q-62 0 -95.5 28t-33.5 83q0 54 39 87t100 33t94.5 -28t33.5 -83zM246 823q0 53 -47 53q-21 0 -34 -13.5t-13 -38.5q0 -53 46 -53q21 0 34.5 13.5t13.5 38.5z" />
<glyph horiz-adv-x="283" d="M218 794q0 -32 -22.5 -54.5t-53.5 -22.5q-32 0 -54.5 22.5t-22.5 54.5q0 31 22.5 53.5t54.5 22.5t54 -22t22 -54z" />
<glyph horiz-adv-x="312" d="M154 140l-113 192l115 195l97 -47l-89 -147l91 -145z" />
<glyph horiz-adv-x="312" d="M156 140l-97 47l90 147l-91 145l101 48l113 -192z" />
<glyph horiz-adv-x="534" d="M149 138l-107 194l110 197l98 -45l-85 -151l87 -149zM377 143l-118 189l120 192l96 -46l-92 -145l94 -143z" />
<glyph horiz-adv-x="534" d="M154 143l-96 46l93 145l-94 143l100 47l118 -189zM382 138l-99 45l86 151l-87 149l103 46l107 -194z" />
<glyph horiz-adv-x="334" d="M44 278v103h246v-103h-246z" />
<glyph d="M0 282v112h550v-112h-550z" />
<glyph horiz-adv-x="1000" d="M111 282v112h778v-112h-778z" />
<glyph horiz-adv-x="1000" d="M111 282v112h778v-112h-778z" />
<glyph horiz-adv-x="269" d="M218 338q0 -35 -24.5 -59t-58.5 -24q-35 0 -59 24t-24 59q0 34 24 58t59 24q34 0 58.5 -24t24.5 -58z" />
<glyph horiz-adv-x="321" d="M227 -32h-150l19 520h110zM232 611q0 -32 -22.5 -54t-56.5 -22q-33 0 -55.5 22t-22.5 54t22.5 54t55.5 22q34 0 56.5 -22t22.5 -54z" />
<glyph horiz-adv-x="451" d="M368 -41q-83 2 -143 19.5t-100 45.5t-59 64t-19 75q0 42 14.5 71.5t35 52t43.5 42t39.5 42t23 50t-5.5 67.5h125q16 -47 12 -81.5t-19 -60.5t-36.5 -46.5t-42 -39t-35 -38.5t-14.5 -45q0 -45 52 -72t145 -30zM336 611q0 -32 -22.5 -54t-55.5 -22t-55.5 22t-22.5 54 t22.5 54t55.5 22t55.5 -22t22.5 -54z" />
<glyph horiz-adv-x="306" d="M200 -175q-84 132 -116 256t-32 244q0 118 34.5 245t114.5 257l93 -43q-57 -101 -86.5 -216t-29.5 -238q0 -254 119 -460z" />
<glyph horiz-adv-x="306" d="M256 328q0 -121 -33 -247t-116 -256l-93 43q57 101 87 216t30 239q0 253 -118 460l97 44q82 -132 114 -255.5t32 -243.5z" />
<glyph horiz-adv-x="328" d="M71 -165v982h221v-101h-101v-778h101v-103h-221z" />
<glyph horiz-adv-x="328" d="M36 -165v103h100v778h-100v101h220v-982h-220z" />
<glyph horiz-adv-x="362" d="M309 -165q-98 0 -140 53t-42 170v135q0 62 -25 85.5t-75 26.5v96q25 1 44 6.5t31.5 17.5t18.5 32t6 52v87q0 109 41.5 165t140.5 56h21v-101q-24 0 -40.5 -5t-26 -18t-13.5 -36t-4 -59v-86q0 -80 -25 -115t-67 -43v-1q42 -7 67 -44.5t25 -117.5v-134q0 -36 4 -59.5 t13.5 -36.5t26 -18t40.5 -5v-103h-21z" />
<glyph horiz-adv-x="360" d="M338 305q-50 -3 -75 -26.5t-25 -85.5v-135q0 -117 -42 -170t-139 -53h-22v103q24 0 40.5 5t26.5 18t14 36.5t4 59.5v134q0 80 25 117.5t67 44.5v1q-43 6 -67.5 41.5t-24.5 113.5v89q0 36 -4 59t-14 36t-26.5 18t-40.5 5v101h22q99 0 140 -56t41 -165v-84q0 -33 6 -53.5 t18.5 -33t31 -18t44.5 -6.5v-96v0z" />
<glyph horiz-adv-x="998" d="M815 398q0 -202 -96.5 -305t-292.5 -103q-174 0 -258.5 58t-84.5 166q0 62 33.5 108.5t89.5 70.5q-43 16 -68 51t-25 88q0 45 17 82.5t49.5 64.5t80 41.5t106.5 14.5q30 0 60 -2.5t51 -6.5l-8 -113q-19 7 -48.5 10.5t-60.5 3.5q-54 0 -81 -22.5t-27 -59.5q0 -22 8.5 -40 t29 -30.5t55.5 -18.5t86 -3v-98q-52 1 -90.5 -7t-63.5 -25t-37 -41t-12 -53q0 -59 54 -89.5t161 -30.5q66 0 112 15.5t75.5 50t43.5 89t14 134.5h-101v99h101v135l127 30v-165h103v-99h-103z" />
<glyph horiz-adv-x="843" d="M349 319q1 47 -22 73.5t-64 26.5q-39 0 -65.5 -27.5t-31.5 -72.5h183zM807 -168q-24 -5 -51 -8.5t-52 -3.5q-42 0 -69.5 8t-44 26t-23.5 47.5t-7 74.5v252h-396q-1 -138 137 -138q37 0 75 8t70 23l12 -99q-39 -16 -85 -24t-93 -8q-120 0 -183 63.5t-63 192.5 q0 57 15.5 106t46 85t74 56t98.5 20q48 0 85 -14t62.5 -40t40 -60t18.5 -75h85v147l128 35v-182h120v-96h-120v-218q0 -48 12.5 -65.5t46.5 -17.5q14 0 30.5 2.5t30.5 6.5v-104z" />
<glyph horiz-adv-x="965" d="M366 451q0 14 -11 23.5t-30 9.5q-21 0 -41 -11t-37.5 -30t-30 -42.5t-19.5 -48.5q47 10 79.5 21.5t52 24t28.5 25.5t9 28zM891 497q0 -99 -31.5 -190t-95.5 -163.5t-162 -114t-227 -41.5q-156 0 -236.5 69.5t-80.5 196.5q0 71 23.5 133t64.5 107.5t92 70.5t105 25 q68 0 104 -29.5t36 -76.5q0 -27 -18 -54.5t-47 -41.5q43 9 101 10t118 -4l-3 -105q-53 6 -112 6t-118 -6t-113.5 -16t-101.5 -22q6 -78 58.5 -113.5t143.5 -35.5q94 0 165 29t118 81.5t70 123t23 153.5q0 74 -22 136.5t-65.5 108t-106 70t-142.5 24.5q-27 0 -41 -3v107 q7 1 20 1.5t29 0.5q109 0 194.5 -34.5t143 -95.5t86 -140t28.5 -167z" />
<glyph horiz-adv-x="1346" d="M849 148q-60 39 -117 81.5t-102 87.5q-34 -28 -51 -55.5t-17 -59.5q0 -45 32.5 -75.5t94.5 -30.5q47 0 87.5 14.5t72.5 37.5zM730 582q0 26 -17.5 45.5t-50.5 19.5q-29 0 -49 -20t-20 -53q0 -22 15.5 -51t42.5 -59q32 26 55.5 53.5t23.5 64.5zM1398 44q-37 -26 -79.5 -41 t-103.5 -15q-23 0 -53 7.5t-64 20.5t-69.5 30t-68.5 35q-55 -41 -127.5 -67t-161.5 -26q-63 0 -108.5 16t-75 43t-44 63t-14.5 77q0 66 34.5 114t91.5 92q-41 48 -63.5 90t-22.5 80q0 41 14 75.5t40 59t63.5 38.5t84.5 14q42 0 76.5 -13t59 -34.5t37.5 -50.5t13 -61 q0 -31 -10 -58t-27.5 -51.5t-42 -46.5t-53.5 -44q19 -18 44.5 -39.5t54.5 -43.5t60.5 -43.5t61.5 -40.5q42 52 65 121.5t23 146.5q0 80 -26.5 148.5t-77 119t-124 79.5t-167.5 29q-91 0 -173.5 -35.5t-145.5 -101.5t-100 -159t-37 -208q0 -107 37 -200t104 -161.5 t159 -107.5t202 -39q51 0 92.5 7.5t76.5 20.5l38 -111q-47 -15 -103.5 -23.5t-120.5 -8.5q-135 0 -247.5 48.5t-193.5 132t-126 195.5t-45 239q0 141 48 255.5t129.5 195.5t189 125t225.5 44q123 0 218 -39t160 -104.5t98.5 -150.5t33.5 -178q0 -94 -27 -181.5t-81 -156.5 q56 -29 107 -47t85 -18q38 0 67.5 11t55.5 30l34 -98v0z" />
<glyph horiz-adv-x="1249" d="M663 152q-58 38 -109.5 77.5t-99.5 86.5q-32 -27 -49.5 -53.5t-17.5 -60.5q0 -20 7.5 -38.5t22.5 -33t36.5 -23.5t50.5 -9q48 0 87 15.5t72 38.5zM549 582q0 25 -15.5 43.5t-47.5 18.5q-28 0 -46.5 -19t-18.5 -51q0 -19 13 -45t42 -61q29 24 51 51.5t22 62.5zM1220 44 q-37 -26 -80 -41t-107 -15q-27 0 -61.5 9.5t-70.5 24t-70 31.5t-61 33q-53 -43 -126 -70.5t-161 -27.5q-59 0 -102 16t-71 43t-42 63t-14 77q0 67 35 116t90 91q-84 102 -84 172q0 34 12.5 66.5t37 57.5t62 40t88.5 15q43 0 77 -12.5t57 -33.5t35 -49t12 -59 q0 -60 -34 -106.5t-93 -91.5q40 -38 94.5 -80.5t112.5 -79.5q42 51 65.5 117.5t23.5 141.5q0 81 -25.5 148.5t-71.5 115.5t-110.5 75t-143.5 27q-77 0 -141.5 -25t-111 -72t-73 -114t-26.5 -150h-122q0 107 35.5 193.5t99 147t152.5 93.5t197 33t194.5 -36.5t147 -99.5 t93 -147t32.5 -178q0 -87 -29 -173.5t-84 -156.5q63 -34 116 -53t90 -19t67 11t56 30l33 -98v0z" />
<glyph horiz-adv-x="808" d="M508 296h-308v-184h134q95 0 134.5 38t39.5 122v24zM635 296v-19q0 -143 -82 -210t-228 -67h-255v675h367v-109h-237v-164h307v141l128 29v-170h119v-106h-119z" />
<glyph horiz-adv-x="998" d="M819 398q18 -12 31 -39t13 -63q0 -64 -30.5 -120t-87 -97t-136 -65t-178.5 -24q-91 0 -156.5 15.5t-108 45t-63 71t-20.5 93.5q0 27 9 53.5t24.5 49t35.5 40t42 27.5q-42 20 -66 56.5t-24 87.5q0 46 16.5 84t49 65t79.5 42t108 15q29 0 58.5 -2t51.5 -6l-7 -114 q-20 8 -49.5 11t-59.5 3q-57 0 -83 -23t-26 -60q0 -24 14.5 -42t40 -29.5t60 -16.5t74.5 -3v-98q-103 1 -153 -33t-50 -88q0 -61 53.5 -93t165.5 -32q66 0 118.5 14.5t89 39t56 57.5t19.5 69q0 109 -103 109h-42v99h334v-99h-100z" />
<glyph horiz-adv-x="1024" d="M574 465q-20 6 -48 6t-50 -16t-36.5 -42.5t-22 -57.5t-7.5 -61q0 -76 40 -76q34 0 65.5 50.5t49.5 147.5zM952 428q0 -72 -18.5 -131t-53 -100.5t-81.5 -63t-103 -21.5q-60 0 -92 31t-31 78h-2q-11 -22 -26.5 -41t-35 -34.5t-43.5 -24.5t-51 -9q-56 0 -90.5 42.5 t-34.5 121.5q0 62 16.5 115.5t50 94t83 63t113.5 22.5q53 0 95 -8.5t60 -14.5l-40 -213q-11 -59 0.5 -89t45.5 -30q26 0 48.5 13.5t39.5 40t26.5 65t9.5 87.5q0 51 -16 97t-50.5 82.5t-89 58t-129.5 21.5q-76 0 -143 -28t-117.5 -80t-79 -124t-28.5 -157q0 -146 81 -227 t243 -81q94 0 201 33l15 -95q-54 -18 -117 -28t-114 -10q-102 0 -181 27.5t-132.5 80t-81 125.5t-27.5 163q0 107 37 199.5t104 160t155.5 104t189.5 36.5q95 0 169.5 -27t124.5 -75.5t75 -112t25 -137.5z" />
<glyph horiz-adv-x="564" d="M192 -113l12 123q-41 2 -79 7t-70 14l14 111q34 -11 71 -18t75 -10l17 176q-42 12 -73.5 25.5t-58 33.5t-42.5 51t-16 73t16 76t46.5 58t72.5 38t93 18l11 107h82l-11 -106q31 -1 62.5 -5t63.5 -9l-14 -105q-27 7 -58 11.5t-64 6.5l-17 -167q43 -12 76 -25.5t60.5 -34 t44 -52t16.5 -75.5q0 -45 -17 -80t-48 -60t-74 -39.5t-96 -18.5l-13 -124h-82zM297 115q93 9 93 76q0 28 -20 45t-57 31zM260 563q-45 -4 -66.5 -22.5t-21.5 -49.5q0 -26 19 -42.5t54 -29.5z" />
<glyph horiz-adv-x="514" d="M470 115q-32 -12 -68.5 -19t-75.5 -8l-13 -123h-82l12 126q-99 12 -153 70.5t-54 163.5q0 55 16.5 101t49.5 81t81.5 56.5t110.5 25.5l11 106h82l-11 -107q49 -5 93 -18l-22 -108q-21 7 -41 11.5t-40 7.5l-29 -286q32 2 59 7t55 15zM166 338q0 -53 22.5 -87.5t66.5 -45.5 l27 276q-55 -6 -85.5 -44t-30.5 -99z" />
<glyph d="M376 338q0 69 -6 115.5t-18.5 73.5t-31.5 38.5t-46 11.5q-23 0 -41.5 -12t-31.5 -39.5t-20.5 -72.5t-7.5 -109q0 -70 5.5 -116.5t17.5 -75t31.5 -41t47.5 -12.5q50 0 75.5 57t25.5 182zM514 342q0 -89 -19.5 -156t-53.5 -110.5t-78 -65t-94 -21.5q-57 0 -99.5 18.5 t-73 59t-46 108.5t-15.5 165q0 85 17.5 150t50.5 108.5t78 65t99 21.5q57 0 100 -19t73 -60t45.5 -106.5t15.5 -157.5z" />
<glyph d="M58 0v115h169v426l-144 -48l-21 114l202 68h95v-560h148v-115h-449z" />
<glyph d="M51 0v104l96 100q58 58 92 96t53.5 66.5t27.5 52.5t8 51q0 43 -28.5 70.5t-79.5 27.5q-39 0 -76 -13t-65 -33l-22 115q39 23 88 35.5t104 12.5t97 -15t69.5 -42t41 -61.5t13.5 -74.5q0 -37 -8 -68.5t-26.5 -64.5t-49.5 -71t-79 -86l-79 -80l-2 -2q54 2 116.5 3t150.5 1 v-124h-442z" />
<glyph d="M484 215q0 -51 -21.5 -93t-61.5 -71.5t-95.5 -45t-123.5 -15.5q-29 0 -61 4t-56 11l12 113q27 -10 57 -14.5t62 -4.5q72 0 111 30t39 76q0 42 -35.5 67t-106.5 25q-27 0 -51 -1.5t-51 -4.5v102h29q46 0 83.5 6t64 19t41 32.5t14.5 45.5q0 38 -28 59.5t-80 21.5 q-39 0 -74.5 -9t-64.5 -25l-12 110q39 16 83 24t94 8q106 0 161 -44t55 -122q0 -56 -29.5 -95t-83.5 -56l-1 -2q28 -4 52 -17t41.5 -33.5t27 -46.5t9.5 -54z" />
<glyph d="M315 547h-1l-168 -279q28 1 75 1.5t94 0.5v277zM439 155v-155h-126v155h-283l-12 107l247 413h174v-405h90v-115h-90z" />
<glyph d="M487 230q0 -52 -21 -96t-60.5 -76.5t-95 -50t-122.5 -17.5q-27 0 -54.5 3t-54.5 9v116q59 -18 119 -18q71 0 109.5 33t38.5 83t-40 77t-114 27q-32 0 -57 -2t-48 -6v363h376v-122l-254 1v-133q6 0 19 0.5t17 0.5q58 0 103 -14.5t76 -40.5t47 -61t16 -76z" />
<glyph d="M383 216q0 51 -27.5 80.5t-79.5 29.5q-24 0 -43.5 -9t-33 -24.5t-20.5 -34t-7 -36.5q0 -54 28.5 -89t81.5 -35q46 0 73.5 33t27.5 85zM513 234q0 -55 -17 -100.5t-49 -78t-76 -49.5t-96 -17q-112 0 -175.5 75.5t-63.5 219.5q0 99 25 174.5t71 125.5t108.5 75t136.5 25 q21 0 40.5 -1t34.5 -3v-114q-21 4 -40 6t-41 2q-155 0 -196 -165q-6 -17 -9 -40h1q22 30 58 46.5t77 16.5q50 0 90 -15t67 -42t40.5 -63t13.5 -78z" />
<glyph d="M499 565q-34 -64 -66 -134.5t-60.5 -143.5t-54 -145.5t-45.5 -141.5h-144q22 73 48.5 148.5t55.5 147.5t59 137t59 119q-11 0 -34 -0.5t-54 -0.5t-67.5 -0.5t-74 -0.5h-71.5v125h449v-110z" />
<glyph d="M378 172q0 35 -27.5 60.5t-88.5 53.5q-45 -27 -66.5 -53t-21.5 -56q0 -38 26.5 -60.5t75.5 -22.5q46 0 74 21t28 57zM363 514q0 32 -23 51.5t-66 19.5t-67 -21.5t-24 -53.5q0 -29 22.5 -52.5t73.5 -49.5q44 28 64 53.5t20 52.5zM510 186q0 -47 -19 -84.5t-52.5 -62.5 t-78.5 -38t-96 -13q-106 0 -164.5 48t-58.5 130q0 48 27.5 89.5t89.5 81.5q-54 34 -78 71.5t-24 87.5q0 43 16.5 78.5t47 61.5t72 39.5t91.5 13.5q48 0 87 -12t66.5 -34.5t42 -52.5t14.5 -66q0 -49 -26.5 -88t-84.5 -78q67 -36 97.5 -77.5t30.5 -94.5z" />
<glyph d="M367 455q0 56 -27 89t-75 33q-47 0 -75.5 -33t-28.5 -82q0 -52 26.5 -82.5t73.5 -30.5q24 0 44 9t34 24t21 34t7 39zM509 396q0 -198 -89 -302t-261 -104q-47 0 -88 7v115q24 -6 49.5 -9t50.5 -3q77 0 126 40t64 115q2 12 3.5 21.5t2.5 15.5h-1q-21 -26 -56.5 -40.5 t-80.5 -14.5q-92 0 -144 56t-52 152q0 54 17 98.5t49 76.5t76 49t97 17q52 0 95.5 -17t75 -53t49 -91t17.5 -129z" />
<glyph d="M219 223q13 -65 49 -96t96 -31q31 0 62.5 7t60.5 20l25 -99q-38 -17 -82 -26t-87 -9q-227 0 -261 234h-72v80h66v14v14.5v14.5t0.5 14t0.5 16h-67v80h80q26 115 96 172.5t179 57.5q33 0 69.5 -5.5t69.5 -15.5l-24 -107q-30 11 -59.5 17t-57.5 6q-54 0 -89.5 -31 t-50.5 -94h183v-80h-197q-1 -7 -1 -14.5t-0.5 -15t-0.5 -14.5t0.5 -14.5t0.5 -14.5h198v-80h-187z" />
<glyph d="M483 211q0 -33 -12 -63.5t-35 -55t-55 -41.5t-71 -25v-122h-92v115q-36 1 -71 5t-67 12l11 116q16 -6 34 -10.5t37.5 -7.5t39.5 -5t40 -2q24 0 43.5 4.5t33.5 13t21.5 22.5t7.5 32q0 26 -18.5 43t-54.5 31.5t-72.5 29t-66.5 34.5t-49 53t-19 82q0 30 11 58t32 52t52 41 t70 25v102h91v-94q26 -1 54.5 -4t54.5 -8l-12 -110q-31 9 -60.5 13.5t-59.5 4.5q-23 0 -42 -4.5t-32 -13t-20 -21t-7 -28.5q0 -24 18.5 -40t53 -30t73 -30t69 -37t50 -54.5t19.5 -82.5z" />
<glyph d="M191 11q-71 3 -134 20l14 111q31 -10 65 -17t69 -10l21 177q-40 12 -70.5 25t-56 33.5t-40.5 51t-15 71.5q0 43 16.5 77t47 58.5t72.5 38.5t93 17l13 106h83l-13 -107q27 -1 55 -4.5t54 -8.5l-14 -105q-27 6 -54.5 11t-54.5 7l-20 -169q41 -12 72 -25.5t57.5 -34t42 -52 t15.5 -73.5q0 -45 -17 -81t-48.5 -61t-74.5 -39.5t-95 -17.5l-16 -123h-82zM172 491q0 -26 18.5 -43t52.5 -30l16 145q-43 -4 -65 -22.5t-22 -49.5zM378 191q0 28 -19 45t-54 31l-18 -152q91 8 91 76z" />
<glyph d="M472 124q-22 -8 -47.5 -13.5t-53.5 -7.5v-127h-97v127q-97 11 -148.5 73.5t-51.5 161.5q0 47 13.5 88t39.5 73.5t63.5 54t83.5 29.5v111h97v-104q25 -2 50.5 -6t49.5 -11l-12 -108q-46 21 -107 21q-68 0 -107 -37t-39 -104q0 -62 34.5 -98.5t108.5 -36.5q31 0 60 6.5 t54 18.5z" />
<glyph d="M491 115q-35 -12 -73 -19t-80 -8l-15 -123h-83l16 126q-98 13 -151 71.5t-53 162.5q0 55 17 101.5t51 82t84 56t114 24.5l14 106h82l-13 -108q44 -3 89 -17l-23 -108q-20 7 -40 11.5t-41 7.5l-33 -286q33 2 61.5 7t57.5 15zM182 338q0 -53 22.5 -87t66.5 -46l33 277 q-58 -5 -90 -43.5t-32 -100.5z" />
<glyph d="M425 295h-144q1 -8 3 -22t2 -24q0 -49 -19.5 -83t-54.5 -60q21 2 45 2.5t54 0.5h179v-109h-431v87q26 15 43.5 30t29.5 32.5t18 39.5t6 49q0 13 -1.5 29.5t-3.5 27.5h-105v98h86q-6 26 -8.5 48t-2.5 46q0 98 56.5 149t164.5 51q27 0 62 -4.5t64 -12.5l-28 -108 q-22 10 -49.5 15.5t-53.5 5.5q-44 0 -66 -22.5t-22 -63.5q0 -24 3.5 -44t11.5 -60h161v-98z" />
<glyph d="M160 675l76 -145q12 -24 22.5 -49t18.5 -49h1q7 23 16 45t25 55l75 143h143l-197 -349v-10h146v-82h-146v-74h146v-82h-146v-78h-130v78h-146v82h146v74h-146v82h146v10l-197 349h147z" />
<glyph d="M295 117q-13 -118 -68 -172t-156 -54q-22 0 -46 2.5t-46 7.5l19 105q38 -11 74 -11q42 0 63.5 27.5t28.5 89.5l20 187h-127v98h139l9 84q13 118 68 172t156 54q22 0 46 -2.5t45 -7.5l-18 -104q-19 5 -37.5 7.5t-36.5 2.5q-42 0 -63.5 -27t-28.5 -90l-10 -89h163v-98h-174 z" />
<glyph d="M426 177l-16 -177h-104l16 177h-123l-16 -177h-105l16 177h-68v92h76l13 145h-89v92h98l16 169h104l-16 -169h124l15 169h105l-16 -169h68v-92h-77l-12 -145h89v-92h-98zM207 269h123l13 145h-123z" />
<glyph horiz-adv-x="454" d="M359 490l-82 86v-576h-101v575l-80 -86l-66 66l197 197l197 -197z" />
<glyph horiz-adv-x="454" d="M424 178l-197 -197l-197 197l66 66l80 -86v575h101v-576l82 86z" />
<glyph horiz-adv-x="335" d="M218 558v-558h-101v558h-81l132 187l132 -187h-82z" />
<glyph horiz-adv-x="335" d="M300 175l-132 -187l-132 187h81v558h101v-558h82z" />
<glyph horiz-adv-x="1000" d="M696 441l-140 150v-432h-112v432l-140 -150l-80 79l276 276l276 -276zM78 -262v642h111v-530h622v530h111v-642h-844z" />
<glyph horiz-adv-x="1000" d="M776 5l-276 -276l-276 276l80 79l140 -150v432h112v-432l140 150zM922 787v-642h-111v530h-622v-530h-111v642h844z" />
<glyph horiz-adv-x="1058" d="M416 -133v111h528v622h-528v111h642v-844h-642zM204 233l151 -140l-79 -80l-276 276l276 276l79 -80l-150 -140h431v-112h-432z" />
<glyph horiz-adv-x="1058" d="M0 -133v844h642v-111h-528v-622h528v-111h-642zM421 233v112h432l-150 140l79 80l276 -276l-276 -276l-79 80l150 140h-432z" />
<glyph horiz-adv-x="960" d="M295 42q0 -8 -4.5 -13t-9.5 -10q-4 -1 -8 -4t-9 0q-7 2 -5 7.5t3 10.5q0 6 9 10q6 0 10 4q3 -1 7.5 -0.5t6.5 -4.5zM430 77q7 -14 4 -29t-13 -26q-2 -4 -5.5 -4.5t-6.5 -2.5q-13 2 -14.5 13t-3.5 20q2 8 2.5 16.5t5.5 15.5q7 4 10 11t11 7l3 -3q-2 -7 2 -10t5 -8z M248 181q-12 2 -25.5 1.5t-26.5 -1.5q-8 -1 -15 -2.5t-12 -5.5q-1 -16 -3 -32.5t-4 -32.5q2 -26 1 -54.5t1 -55.5q4 0 7.5 1.5t6.5 -0.5q6 2 11.5 -0.5t11.5 0.5q1 16 1 31q0 16 1 32q2 5 6.5 7.5t9.5 4.5q4 2 8 0t7 3l-1 28q-4 5 -9.5 4.5t-11.5 -0.5q-4 -4 -7 -4 q-8 2 -7.5 9.5t-1.5 12.5q-2 4 4 10q10 3 19.5 4.5t19.5 3.5l6 4q-2 9 0.5 16.5t2.5 15.5zM333 34q-3 11 -3 22t0.5 22t-0.5 21.5t-7 19.5q-11 7 -23 12l-8 5q-8 -2 -16.5 -0.5t-16.5 -4.5q-7 -4 -7 -11t-1 -15q5 -2 11.5 -1.5t12.5 1t11.5 -1t9.5 -7.5q-1 -4 1.5 -6 t-0.5 -6q-3 -5 1 -8q2 -2 1 -5t-4 -4q-7 -2 -13.5 -1.5t-14.5 -1.5q-11 -5 -17 -15.5t-8 -21.5q-3 -5 -0.5 -10.5t-1.5 -10.5q0 -7 5 -11t10 -6q5 5 8 2q8 -2 14.5 4.5t14.5 11.5q5 1 6 -1t1 -6q0 -3 -0.5 -7t2.5 -6q5 -2 8 0t8 2q4 2 8 2.5t7 3.5l1 39v0zM458 30 q9 17 6.5 35t-6.5 38q1 3 -2.5 6t-8 5t-8.5 4.5t-6 3.5q-2 2 -5 2q-2 0 -3 -3q-11 1 -19 -4q-5 -3 -7.5 -8t-6.5 -7q-5 -3 -9 3q4 18 2 36.5t-5 37.5l-2 7h-8q-9 -3 -8 -11t-1 -14q-3 -17 -2 -34t-2 -34q2 -17 0 -33t0 -31q0 -9 -1.5 -17.5t-0.5 -18.5q7 -4 15.5 -1t15.5 6 q5 2 8 1t5.5 -4l5 -6t5.5 -5q8 0 13 1q11 6 23.5 19.5t11.5 25.5zM560 123q-8 -1 -16.5 -2.5t-13.5 -10.5q-4 -4 -5 -11.5t-10 -5.5q-2 8 -2 14v15q-4 2 -7.5 0t-7.5 0q-7 -4 -11 -13q0 -29 0.5 -55.5t3.5 -55.5l3 -4q5 -4 11.5 -1.5t11.5 0.5q-3 11 -0.5 20.5t-1.5 20.5 q2 11 5 22.5t11 21.5q6 5 13 6.5t13 6.5q1 8 3 16t0 16zM610 15q0 20 -1 39t-1 37q0 7 1 13.5t-1 12.5q-7 5 -13.5 2t-14.5 -2q-7 -11 -5 -24t0 -26q-2 -5 -2 -12t-1 -14q2 -10 0.5 -22t5.5 -22q15 0 30 5q2 3 2 6v7zM608 179q-2 5 -4.5 9t-7.5 6q-2 2 -5 2.5t-5 -2.5 q-5 -6 -7 -15t3 -15q2 -5 8 -5.5t11 1.5q9 6 7 19zM739 -10q-4 8 -8 16.5t-10 15.5q-6 11 -13 20.5t-9 22.5q-2 5 -5 8.5t-1 8.5q7 8 16.5 13t16.5 13l-9 17q-9 -1 -16 -4.5t-15 -5.5q-4 -2 -9 -6t-10 1q1 20 1.5 39.5t-0.5 38.5l-2 3q-8 0 -14 2.5t-13 4.5 q-2 -11 -3.5 -23.5t0.5 -24.5q-3 -8 -0.5 -19.5t-1.5 -19.5q1 -15 0.5 -27.5t-1.5 -24.5t-1 -24t1 -27l-1 -7h24q3 1 6.5 -1t5.5 1v13q0 7 -1 15q1 8 -2 16.5t7 11.5q5 -2 5.5 -6.5t3.5 -8.5q-1 -7 3.5 -12t6.5 -11q10 -6 15 -16t14 -17q3 1 5.5 -1.5t7.5 -0.5q6 0 6 6z M425 539q-2 11 -7.5 21.5t-18.5 12.5q-2 -5 -6.5 -3.5t-7.5 0.5q-7 3 -14 1t-12 -7q-11 -15 -3.5 -29t15.5 -27q2 -4 5 -3t7 0q7 -2 13 1.5t12 5.5q6 6 13.5 11t3.5 16zM767 -62q-22 2 -49 -2.5t-48 -1.5q-56 2 -109 -4t-108 0q-25 -4 -48.5 -1.5t-47.5 4.5q-29 2 -59.5 1.5 t-61.5 -0.5q-21 0 -50 -1.5t-50 -6.5q-4 -1 -9 -1q-4 0 -6 5q0 16 -1 32.5t4 32.5q2 20 1 40t2 40q-4 23 -0.5 44.5t-0.5 44.5q0 32 2.5 64.5t4.5 66.5q2 36 0.5 71.5t0.5 71.5q4 8 11.5 6.5t14.5 0.5q8 -5 18.5 -2.5t18.5 1.5q3 3 7.5 5.5t5.5 -4.5q2 -2 0.5 -6t2.5 -6 q-2 -14 -1.5 -38t2 -52t3.5 -57.5t3 -53.5q32 10 58.5 27.5t57.5 28.5q5 2 9.5 6t11.5 6q2 1 4 3t6 0q5 -2 4 -7t-1 -10q-10 -29 -5 -61q2 -5 6.5 -3t7.5 2q8 7 17 11.5t17 10.5q10 6 20 11.5t21 9.5q12 8 23.5 16t24.5 13l20 16q1 4 6 7q3 0 5.5 -2t5.5 -4q0 -14 3 -28.5 t3 -28.5q1 -3 3 -2.5t3 -1.5q4 -5 2 -10l-4 -10l2 -2q17 4 31.5 13t29 19t29 19t31.5 13q5 5 11 6.5t11 6.5q5 1 9 4.5t8.5 6.5t9.5 4.5t11 -3.5q2 0 4 -1t3 -3q-1 -4 0.5 -6.5t3.5 -5.5q-2 -8 0 -14.5t-2 -12.5q1 -13 0 -25t5 -23q-2 -7 2.5 -12.5t-0.5 -10.5q1 -8 0 -14.5 t4 -12.5q1 -5 1.5 -9.5t-2.5 -8.5q2 -11 2.5 -23t4.5 -23q-2 -4 -1 -8t1 -8q0 -38 5.5 -73.5t6.5 -73.5q0 -2 1.5 -4.5t-0.5 -4.5zM452 664q-12 -13 -29 -8q-5 6 -9 11.5t-5 12.5q-13 20 -35 25t-43 11l-31 2q-2 -2 -6 -1t-7 -1q-33 -10 -55 -21q-6 -8 -15.5 -13.5 t-11.5 -16.5q-6 -15 -8 -34t-3 -36q5 -4 11 -2.5t11 0.5q21 2 42 2h44q4 -2 1 -7q-8 -6 -15.5 -0.5t-15.5 2.5q-10 1 -20.5 -0.5t-20.5 -0.5q-9 -2 -19 -2q-9 0 -17 -5l-3 -4q-2 -19 -1.5 -31t2.5 -32q2 -7 0.5 -14t3.5 -14q13 -1 20.5 -0.5t14 1t14 1.5t20.5 1q3 2 6.5 1 t6.5 -2q1 -1 0.5 -2t0.5 -2l-4 -2q-12 2 -21 1.5t-18 -1.5t-20 -2t-26 0q-11 -1 -23 -2t-23 0q-16 -1 -33 -1t-31 4l-2 3q3 3 9 5q8 -4 18 -4.5t21 -2.5q7 1 14 0.5t12 3.5q-1 26 4 46t7 47q-1 2 -3 4q-15 1 -28.5 0t-27.5 5q-2 5 3 5q14 -4 28 -4t28 1l2 3q2 17 5.5 34.5 t9.5 31.5v3q23 26 52.5 42t66.5 20q18 2 36 -2t34 -11q5 -2 10 -2t10 -2q17 -4 34 -12t28 -23q2 -2 0 -9zM447 559q3 -19 -7 -31q-11 -7 -20 -15.5t-22 -10.5q-6 2 -7 -3.5t-6 -1.5t-12 2t-13 -1q-6 0 -11 0.5t-10 2.5q-8 7 -15.5 15.5t-2.5 20.5q3 9 8.5 17t15.5 13 q11 5 22 10.5t25 2.5q16 -1 31.5 -4t23.5 -17zM648 502q-12 0 -25.5 -0.5t-25.5 -4.5q-4 2 -7.5 2.5t-5.5 5.5q2 14 3.5 28t-2.5 28q-2 3 -6.5 0.5t-7.5 -4.5q-14 -8 -26.5 -19.5t-14.5 -28.5q-4 -4 -9 -5.5t-10 0.5q-5 7 -3 15t0 16l-1 31q-3 3 -8 1.5t-10 0.5q-2 2 -6.5 1 t-4.5 4q13 -1 25.5 1t26.5 0q3 -3 3 -7v-8t1 -7t5 -5q14 6 26 14.5t26 13.5q6 -4 14 -1.5t10 -7.5q2 -11 1.5 -21.5t0.5 -21.5q2 -3 1.5 -6.5t2.5 -5.5q9 -2 13 0q4 0 8 -1t9 -1q3 -2 0 -5zM880 571q0 -4 -2 -4q-11 2 -21 0.5t-21 -2.5q-34 -2 -53.5 -3t-36.5 -4 q-8 -7 -7 -16t-3 -17q0 -5 1.5 -8t2.5 -7q4 -5 14 -7q7 1 13.5 4t9.5 9q0 7 -7 12q-5 4 -10.5 3t-9.5 4q3 5 9.5 4t12.5 -1q10 -3 15 -16q-1 -15 -18 -27q-5 -2 -10.5 -2.5t-10.5 -2.5q-12 3 -24.5 8t-20.5 16q-4 12 -1 22.5t4 21.5q-2 5 -6 4t-9 0l-33 -1q0 2 -1 2t-1 2 q3 2 7 2t7 1q9 -2 19 -1t19 1q4 3 4.5 7.5t0.5 9.5q3 7 3.5 16t5.5 14q5 3 8 -1t6 -6q5 -8 3 -17.5t2 -18.5q4 -6 10.5 -4t11.5 0q23 2 49 1.5t64 4.5q3 -2 4 -3z" />
<glyph horiz-adv-x="1316" d="M828 577q-5 4 -7 -0.5t-5 -2.5q-23 -11 -30.5 -34t-6.5 -46q7 -2 12 4t12 4q3 7 8.5 14.5t10 15t6 16t-5.5 16.5q6 0 6 5v8zM461 232q-7 2 -13 -3t-10 -11q-11 -14 -19.5 -30t-1.5 -33q5 -2 7 1l4 6q11 11 19.5 23t15.5 27zM599 210q2 5 4 13.5t-6 10.5l-5 -29q5 1 5 2 t2 3zM372 -4q-3 11 -15 13t-21 -2q-11 -9 -21.5 -19t-18.5 -21q-5 -15 -12 -30t-13 -30t-9.5 -30.5t-1.5 -32.5q3 -1 3.5 0.5t2.5 3.5q13 18 28.5 35t30.5 35t27 37t20 41zM572 -90q-2 -11 -3.5 -23t2.5 -23q3 -3 8 -2.5t9.5 3.5t6.5 8.5t-1 13.5q1 4 2.5 11t1 13.5t-3 11.5 t-8.5 6zM706 -152q6 13 2 28t-12 26q-5 -6 -6 -13l-2 -14q2 -8 4.5 -16.5t13.5 -10.5zM345 442l-4 -4t-10 -4t-24 -4.5t-46 -4.5q-34 -3 -64.5 -8.5t-62.5 -16.5q-5 -11 -13.5 -8t-14.5 6q-1 4 1 7t5 5.5l6 5t4 6.5q6 12 10.5 24t8.5 24q-2 6 2 13t7 13q22 51 42 102.5 t32 105.5q-4 14 3 21q6 2 8 -2t5 -7q-7 -39 -20 -75t-28 -71.5t-29.5 -71.5t-24.5 -74l2 -2q38 6 73 13t75 8q12 -2 27 -2t27 5l3 -4v0zM501 472q-5 -12 -9 -24.5t-13 -23.5q-7 -3 -12.5 0.5t-8.5 9.5q-16 37 -10 75q-2 1 -1 8t1.5 16t0.5 18t-3 13q-6 -15 -6.5 -31 t-1 -31.5t-4 -30t-15.5 -27.5q-2 -2 -7 -3.5t-12 1.5t-13 11.5t-9 28.5q3 19 4 36.5t4 35.5q2 7 -2 14.5t4 13.5q7 4 13 -4q1 -15 -1 -31.5t-3 -32t-0.5 -29t6.5 -23.5q7 -5 10.5 -2t5 9t2.5 12.5t3 8.5q4 20 3 42t5 42q3 3 5 7.5t4 8t5.5 5t9.5 -2.5q7 -20 7.5 -38.5 t-0.5 -37.5t-0.5 -38t6.5 -38q1 -3 4.5 -4t6.5 3l2 5.5t4.5 11.5t6 11t8.5 5zM655 500q-7 -17 -22 -29.5t-35 -12.5t-37.5 7.5t-26.5 24.5q-8 11 -7.5 23.5t2.5 26.5q2 9 7.5 15t6.5 15q29 24 64 12q4 -3 8 -4.5t3 -7.5q-3 -4 -7 0t-9 4q-27 7 -50 -16q-8 -12 -12 -26.5 t2 -28.5q22 -30 54 -34q9 4 19 4q11 0 19 10q6 4 9.5 12.5t11.5 4.5zM838 678q-3 -5 -9.5 -10t-14.5 -4q-2 3 -4.5 7t-7.5 -1q-29 -23 -55.5 -48.5t-37.5 -59.5q-3 -20 -5 -42t1 -43t11.5 -39.5t25.5 -31.5q10 -8 22 -6.5t24 0.5q6 4 10.5 8.5t10.5 8.5q2 -9 -6.5 -13 t-14.5 -10q-15 -6 -32.5 -2.5t-29.5 14.5q-23 21 -27 46q-5 2 -5 5t1 6t1.5 6t-3.5 5q2 3 1 6.5t-2.5 7.5t-2 7.5t2.5 8.5q-1 30 8.5 55.5t25.5 48t37 42t43 36.5q4 0 9 1.5t10 1.5t8.5 -2t4.5 -9zM974 482q-3 -8 -9 -15.5t-15 -9.5q-8 2 -11.5 6.5t-8.5 10.5l2 14 q5 -2 4.5 -8t6.5 -8q5 -2 9.5 3t6.5 8q4 23 0.5 45t-15.5 42l-6 -3q-12 -11 -22.5 -20.5t-17.5 -24.5l-8 -4q-14 -14 -24 -29.5t-22 -26.5q-6 -1 -8.5 1.5t-4 6.5t-2 9t-2.5 8q4 10 -3 17q-6 1 -6.5 -3.5t-3.5 -6.5q-8 -8 -14.5 -11.5t-17.5 -4.5q-11 3 -14 9t-1.5 13.5 t4 16.5t2.5 17q4 15 13 26.5t20 23.5q10 2 22 6t20 -8l4 -6q-6 -17 -7.5 -35.5t-3.5 -36.5q1 -3 2.5 -6.5t5.5 -3.5q11 0 13.5 9t9.5 15q22 19 41 38.5t37 39.5q6 -2 8.5 -7.5t3 -11.5t1 -12.5t3.5 -10.5q5 -2 3 -8q8 -15 7.5 -31t-2.5 -33zM1064 583q-2 29 -16 58t-44 43 q6 9 12.5 8t12.5 -6t11 -12.5t9 -11.5q16 -19 23 -41.5t7.5 -46.5t-5 -48t-14.5 -46q-14 -34 -41 -63.5t-63 -44.5q14 10 26.5 21.5t21.5 26.5q16 16 30 35t18 45q12 20 13 41t-1 42zM731 211q-18 -3 -35 -8l-34 -10t-34 -8.5t-35 -1.5q-3 -3 -5 -11t-0.5 -16t5.5 -13t13 -2 q3 4 4.5 11.5t7.5 9.5q5 -9 1.5 -17.5t-9.5 -15.5q-3 -2 -10.5 -2.5t-14.5 4t-11.5 15.5t-1.5 32q-2 3 -4.5 6t-0.5 8q11 8 12 20.5t3 25.5q-2 1 -2 2t-2 2q-17 -11 -26 -29t-22 -32q0 -7 -4 -12.5t-8.5 -11t-8 -11.5t-1.5 -14q-3 -3 -3.5 -8t-1 -9.5t-2.5 -8t-9 -4.5 q-9 2 -12 7.5t-3 11.5q0 7 1 14t0 13q-3 19 1 35t1 33q-9 -5 -11.5 -14t-9.5 -17q-5 -6 -9.5 -14t-9.5 -15t-12.5 -10.5t-17.5 -1.5q-11 17 -4 36t17 36q4 5 9 11.5t10.5 11.5t12.5 7.5t15 -0.5q5 -3 10 0q9 21 13.5 44t6.5 46l10 8q6 -2 7 -5t-0.5 -7l-3 -8t-0.5 -8 q-4 -28 -9.5 -55.5t-7.5 -54.5q-1 -15 -4 -29t2 -29q16 21 30 46t36 46q6 8 14 16t18 14q8 -6 15 -14.5t15 -13.5q0 -9 -1 -20t1 -20q27 6 51.5 10t50.5 12q8 -5 7 -13zM408 -7q-1 -38 1.5 -76t0.5 -74.5t-13.5 -69.5t-39.5 -61q-32 -20 -70.5 -24.5t-74.5 5.5q-4 2 -8 5.5 t-4 8.5q2 10 6 20t16 14q-3 -8 -6.5 -16t-5.5 -17q13 -8 29 -11t33.5 -2t34 6t29.5 12q14 5 22.5 14t13.5 20t9 22.5t9 22.5q6 35 7 75.5t-1 70.5q4 11 1 24t-1 24q-2 5 -6 3.5t-6 -2.5q-8 -8 -11 -17.5t-11 -15.5q1 -8 -2 -12t-7.5 -7.5t-8.5 -7.5t-4 -11 q-20 -23 -37.5 -46.5t-34.5 -47.5q-4 -6 -7 -12t-11 -5q-5 7 -5.5 14.5t0 15t1.5 15.5t0 16q5 17 9 35t17 35q9 24 25.5 47.5t40.5 38.5q14 4 24.5 -2.5t21.5 -13.5q8 10 12 24q12 -5 12 -20q-5 -5 -1.5 -8.5t1.5 -8.5zM541 -52q-4 -3 -8 -1.5t-8 3.5t-8.5 3.5t-8.5 -1.5 q-7 -5 -10 -11t-4.5 -12.5t-3.5 -13t-6 -11.5q-2 -14 -5 -26.5t-3 -25.5l-6 -4t-8 0q-6 8 -3 18t2 18q7 9 5.5 21.5t3.5 22.5q-3 5 -2.5 12.5t-1.5 12.5q-5 2 -7.5 -2t-7.5 1q2 10 14 18q8 0 12 -6t7 -12q4 1 7.5 5.5t7 8t8 4.5t9.5 -4l25 -18v0zM947 -32q-5 -6 -11.5 -8 t-13.5 -3l-14 -2t-12 -5q-17 -2 -32 -6.5t-22 -21.5q-4 -10 -9.5 -19.5t-10.5 -19.5t-8 -20.5t0 -22.5q2 -9 11 -8.5t15 2.5q4 0 6.5 4.5t7.5 1.5t1 -6t-6 -7q-8 -5 -18 -7.5t-20 2.5q-8 8 -12 16.5t-1 19.5q2 8 8.5 24t26.5 50q-8 4 -16 3t-15.5 -2.5t-15.5 -2.5t-16 2 q5 6 12.5 9t14.5 5q13 3 27.5 2t22.5 12q7 11 5 22.5t0 23.5q-5 2 -5 6v6q-6 11 -15 17t-19.5 8.5t-21.5 3t-21 0.5q-23 -2 -42.5 -17t-27.5 -35q-7 -16 -5.5 -32t8.5 -33q-2 -12 2.5 -23t10 -21.5t8 -22.5t-3.5 -25q-5 -5 -12.5 -4t-13.5 3q-14 7 -15.5 22t-6.5 28 q8 6 7 16.5t5 18.5q2 5 1 13t-8 11q-17 -2 -38 -2q-20 0 -34 -12q1 -11 2.5 -22t1 -22t-4.5 -21t-14 -17q-11 -3 -24 4q-11 9 -9.5 21.5t1.5 24.5q8 15 15.5 31.5t24.5 22.5q8 -5 16.5 -3t16.5 4l49 1q5 5 4.5 12.5t1.5 13.5q9 29 31.5 51.5t54.5 24.5q17 2 33 1t31 -9 q1 -5 4 -8t7 -5t7.5 -5t4.5 -8q9 -14 6.5 -33t-5.5 -35q23 0 45 4t42 8z" />
<glyph horiz-adv-x="374" d="M196 554l-111 167l92 49l94 -175z" />
<glyph horiz-adv-x="348" d="M135 556l-70 50l114 162l86 -58z" />
<glyph horiz-adv-x="426" d="M300 560l-88 81l-91 -81l-46 57l137 136l137 -134z" />
<glyph horiz-adv-x="463" d="M393 667q-17 -42 -45 -65t-67 -23q-17 0 -31 6.5t-25.5 15t-24 17t-20.5 8.5q-14 0 -26 -12.5t-20 -29.5l-59 44q13 39 42 64t69 25q17 0 31.5 -6.5t26.5 -15t24.5 -17t19.5 -8.5q14 0 25.5 12t20.5 30z" />
<glyph horiz-adv-x="470" d="M405 788q0 -29 -20 -49t-49 -20t-49 20t-20 49t20 49t49 20t49 -20t20 -49zM203 788q0 -29 -20 -49t-49 -20t-49 20t-20 49t20 49t49 20t49 -20t20 -49z" />
<glyph horiz-adv-x="395" d="M70 600v92h255v-92h-255z" />
<glyph horiz-adv-x="373" d="M314 720q0 -73 -33.5 -113t-96.5 -40q-62 0 -94.5 40t-32.5 113h82q0 -26 12.5 -43.5t33.5 -17.5q22 0 34 16t12 45h83z" />
<glyph horiz-adv-x="399" d="M126 777l-19 59l198 67l28 -77zM303 650q0 -49 -34.5 -80t-88.5 -31q-56 0 -85.5 26t-29.5 77q0 49 35 80t89 31q55 0 84.5 -26t29.5 -77zM228 645q0 51 -43 51q-19 0 -31.5 -13t-12.5 -36q0 -51 43 -51q19 0 31.5 13t12.5 36z" />
<glyph horiz-adv-x="373" d="M121 877l-17 50l180 53l23 -64zM282 783q0 -41 -31.5 -66t-80.5 -25q-50 0 -77.5 20.5t-27.5 63.5q0 41 31.5 66t81.5 25q49 0 76.5 -20.5t27.5 -63.5zM215 779q0 40 -41 40q-17 0 -29 -9.5t-12 -29.5q0 -40 40 -40q18 0 30 9.5t12 29.5z" />
</font>
</defs>
</svg>
